<svg id="Layer_1" data-name="Layer 1" xmlns="http://www.w3.org/2000/svg" viewBox="0 0 25.19 19.64"><defs><style>.cls-1{fill:#fbb03b;}.cls-2{fill:#3ebbdd;}.cls-3{fill:#38a8c7;}.cls-4{fill:#e29e35;}</style></defs><g id="flat"><g id="sunny"><path class="cls-1" d="M16.83,6.38a.32.32,0,0,1-.32-.32v-1a.32.32,0,1,1,.64,0v1A.32.32,0,0,1,16.83,6.38Z" transform="translate(-3.18 -4.76)"/><path class="cls-2" d="M26,14.46h0a2.24,2.24,0,0,0-2.37-2.06,2.35,2.35,0,0,0-2.22,1.35,2.13,2.13,0,0,0-1.14-.32,1.86,1.86,0,0,0-2,1.72v0A2,2,0,0,0,16.52,17a2.05,2.05,0,0,0,2.17,1.89,2.34,2.34,0,0,0,1.57-.58,2.38,2.38,0,0,0,2.18,1.27,2.48,2.48,0,0,0,2-1,2.83,2.83,0,0,0,1.32.32,2.43,2.43,0,0,0,2.57-2.23A2.39,2.39,0,0,0,26,14.46Z" transform="translate(-3.18 -4.76)"/><path class="cls-3" d="M27.56,15.07c-.76,1.52-3.47,2.65-6.69,2.65a11.72,11.72,0,0,1-4.34-.78s0,.06,0,.09a2.05,2.05,0,0,0,2.17,1.89,2.34,2.34,0,0,0,1.57-.58,2.38,2.38,0,0,0,2.18,1.27,2.48,2.48,0,0,0,2-1,2.83,2.83,0,0,0,1.32.32,2.43,2.43,0,0,0,2.57-2.23A2.09,2.09,0,0,0,27.56,15.07Z" transform="translate(-3.18 -4.76)"/><path class="cls-1" d="M22.77,8.85a.32.32,0,0,1-.23-.55l.68-.69a.34.34,0,0,1,.46,0,.32.32,0,0,1,0,.46L23,8.76A.35.35,0,0,1,22.77,8.85Z" transform="translate(-3.18 -4.76)"/><path class="cls-1" d="M26.19,14.82h-1a.33.33,0,1,1,0-.65h1a.33.33,0,1,1,0,.65Z" transform="translate(-3.18 -4.76)"/><path class="cls-1" d="M23.45,21.47a.33.33,0,0,1-.23-.09l-.68-.69a.33.33,0,0,1,.46-.46h0l.68.69a.31.31,0,0,1,0,.45A.29.29,0,0,1,23.45,21.47Z" transform="translate(-3.18 -4.76)"/><path class="cls-1" d="M16.83,24.23a.32.32,0,0,1-.32-.33v-1a.32.32,0,1,1,.64,0v1A.32.32,0,0,1,16.83,24.23Z" transform="translate(-3.18 -4.76)"/><path class="cls-1" d="M10.21,21.47a.33.33,0,0,1-.23-.55l.69-.69a.31.31,0,0,1,.45,0,.32.32,0,0,1,0,.46h0l-.68.69A.32.32,0,0,1,10.21,21.47Z" transform="translate(-3.18 -4.76)"/><path class="cls-1" d="M8.43,14.82h-1a.33.33,0,1,1,0-.65h1a.33.33,0,1,1,0,.65Z" transform="translate(-3.18 -4.76)"/><path class="cls-1" d="M10.89,8.85a.31.31,0,0,1-.22-.09L10,8.07a.33.33,0,0,1,.46-.46l.68.69a.32.32,0,0,1,0,.46A.32.32,0,0,1,10.89,8.85Z" transform="translate(-3.18 -4.76)"/><path class="cls-1" d="M16.83,6.38a.32.32,0,0,1-.32-.32v-1a.32.32,0,1,1,.64,0v1A.32.32,0,0,1,16.83,6.38Z" transform="translate(-3.18 -4.76)"/><path class="cls-1" d="M22.77,8.85a.32.32,0,0,1-.23-.55l.68-.69a.34.34,0,0,1,.46,0,.32.32,0,0,1,0,.46L23,8.76A.35.35,0,0,1,22.77,8.85Z" transform="translate(-3.18 -4.76)"/><path class="cls-1" d="M26.19,14.82h-1a.33.33,0,1,1,0-.65h1a.33.33,0,1,1,0,.65Z" transform="translate(-3.18 -4.76)"/><path class="cls-1" d="M23.45,21.47a.33.33,0,0,1-.23-.09l-.68-.69a.33.33,0,0,1,.46-.46h0l.68.69a.31.31,0,0,1,0,.45A.29.29,0,0,1,23.45,21.47Z" transform="translate(-3.18 -4.76)"/><path class="cls-1" d="M16.83,24.23a.32.32,0,0,1-.32-.33v-1a.32.32,0,1,1,.64,0v1A.32.32,0,0,1,16.83,24.23Z" transform="translate(-3.18 -4.76)"/><path class="cls-1" d="M10.21,21.47a.33.33,0,0,1-.23-.55l.69-.69a.31.31,0,0,1,.45,0,.32.32,0,0,1,0,.46h0l-.68.69A.32.32,0,0,1,10.21,21.47Z" transform="translate(-3.18 -4.76)"/><path class="cls-1" d="M8.43,14.82h-1a.33.33,0,1,1,0-.65h1a.33.33,0,1,1,0,.65Z" transform="translate(-3.18 -4.76)"/><path class="cls-1" d="M10.89,8.85a.31.31,0,0,1-.22-.09L10,8.07a.33.33,0,0,1,.46-.46l.68.69a.32.32,0,0,1,0,.46A.32.32,0,0,1,10.89,8.85Z" transform="translate(-3.18 -4.76)"/><path class="cls-1" d="M20,7a.32.32,0,0,1-.32-.33.5.5,0,0,1,0-.12l.37-.9a.32.32,0,0,1,.42-.18.33.33,0,0,1,.18.43l-.37.89A.32.32,0,0,1,20,7Z" transform="translate(-3.18 -4.76)"/><path class="cls-1" d="M24.59,11.59a.33.33,0,0,1-.33-.33.33.33,0,0,1,.2-.3l.9-.37a.33.33,0,0,1,.41.19.32.32,0,0,1-.17.41l-.89.37Z" transform="translate(-3.18 -4.76)"/><path class="cls-1" d="M25.48,18.42a.27.27,0,0,1-.12,0l-.9-.37a.33.33,0,0,1-.16-.43.32.32,0,0,1,.41-.17l.89.37a.33.33,0,0,1-.12.63Z" transform="translate(-3.18 -4.76)"/><path class="cls-1" d="M20.42,23.51a.33.33,0,0,1-.3-.2l-.37-.9a.33.33,0,0,1,.19-.42.32.32,0,0,1,.4.17l.37.9a.32.32,0,0,1-.17.42A.27.27,0,0,1,20.42,23.51Z" transform="translate(-3.18 -4.76)"/><path class="cls-1" d="M13.25,23.51a.32.32,0,0,1-.32-.32.51.51,0,0,1,0-.13l.37-.9a.32.32,0,0,1,.42-.17.32.32,0,0,1,.18.42l-.37.9A.33.33,0,0,1,13.25,23.51Z" transform="translate(-3.18 -4.76)"/><path class="cls-1" d="M8.18,18.42a.32.32,0,0,1-.32-.32.33.33,0,0,1,.2-.3L9,17.43a.32.32,0,0,1,.42.17A.32.32,0,0,1,9.2,18l-.89.38Z" transform="translate(-3.18 -4.76)"/><path class="cls-1" d="M9.07,11.59a.25.25,0,0,1-.12,0l-.89-.37a.32.32,0,0,1-.17-.43.31.31,0,0,1,.41-.17l.9.37a.32.32,0,0,1,.17.42A.33.33,0,0,1,9.07,11.59Z" transform="translate(-3.18 -4.76)"/><path class="cls-1" d="M13.61,7a.31.31,0,0,1-.29-.2L13,5.93a.32.32,0,0,1,.59-.25l.37.9a.32.32,0,0,1-.17.42A.28.28,0,0,1,13.61,7Z" transform="translate(-3.18 -4.76)"/><path class="cls-1" d="M20,7a.32.32,0,0,1-.32-.33.5.5,0,0,1,0-.12l.37-.9a.32.32,0,0,1,.42-.18.33.33,0,0,1,.18.43l-.37.89A.32.32,0,0,1,20,7Z" transform="translate(-3.18 -4.76)"/><path class="cls-1" d="M24.59,11.59a.33.33,0,0,1-.33-.33.33.33,0,0,1,.2-.3l.9-.37a.33.33,0,0,1,.41.19.32.32,0,0,1-.17.41l-.89.37Z" transform="translate(-3.18 -4.76)"/><path class="cls-1" d="M25.48,18.42a.27.27,0,0,1-.12,0l-.9-.37a.33.33,0,0,1-.16-.43.32.32,0,0,1,.41-.17l.89.37a.33.33,0,0,1-.12.63Z" transform="translate(-3.18 -4.76)"/><path class="cls-1" d="M20.42,23.51a.33.33,0,0,1-.3-.2l-.37-.9a.33.33,0,0,1,.19-.42.32.32,0,0,1,.4.17l.37.9a.32.32,0,0,1-.17.42A.27.27,0,0,1,20.42,23.51Z" transform="translate(-3.18 -4.76)"/><path class="cls-1" d="M13.25,23.51a.32.32,0,0,1-.32-.32.51.51,0,0,1,0-.13l.37-.9a.32.32,0,0,1,.42-.17.32.32,0,0,1,.18.42l-.37.9A.33.33,0,0,1,13.25,23.51Z" transform="translate(-3.18 -4.76)"/><path class="cls-1" d="M8.18,18.42a.32.32,0,0,1-.32-.32.33.33,0,0,1,.2-.3L9,17.43a.32.32,0,0,1,.42.17A.32.32,0,0,1,9.2,18l-.89.38Z" transform="translate(-3.18 -4.76)"/><path class="cls-1" d="M9.07,11.59a.25.25,0,0,1-.12,0l-.89-.37a.32.32,0,0,1-.17-.43.31.31,0,0,1,.41-.17l.9.37a.32.32,0,0,1,.17.42A.33.33,0,0,1,9.07,11.59Z" transform="translate(-3.18 -4.76)"/><path class="cls-1" d="M13.61,7a.31.31,0,0,1-.29-.2L13,5.93a.32.32,0,0,1,.59-.25l.37.9a.32.32,0,0,1-.17.42A.28.28,0,0,1,13.61,7Z" transform="translate(-3.18 -4.76)"/><ellipse class="cls-1" cx="13.65" cy="9.73" rx="7.43" ry="7.46"/><path class="cls-4" d="M22.53,9.72a7.11,7.11,0,0,1,.43,2.5A7.42,7.42,0,0,1,9.83,17a7.43,7.43,0,1,0,12.7-7.28Z" transform="translate(-3.18 -4.76)"/></g></g><path class="cls-2" d="M12.65,19.26h0a2.23,2.23,0,0,0-2.37-2.06,2.37,2.37,0,0,0-2.22,1.34,2.2,2.2,0,0,0-1.13-.31,1.87,1.87,0,0,0-2,1.71v0a2,2,0,0,0-1.77,1.85,2,2,0,0,0,2.17,1.89,2.29,2.29,0,0,0,1.56-.58A2.4,2.4,0,0,0,9.1,24.41a2.46,2.46,0,0,0,2-1,2.87,2.87,0,0,0,1.33.32A2.42,2.42,0,0,0,15,21.49,2.4,2.4,0,0,0,12.65,19.26Z" transform="translate(-3.18 -4.76)"/><path class="cls-3" d="M14.22,19.87c-.77,1.52-3.47,2.65-6.7,2.65a11.6,11.6,0,0,1-4.34-.78v.09a2,2,0,0,0,2.17,1.89,2.29,2.29,0,0,0,1.56-.58A2.4,2.4,0,0,0,9.1,24.41a2.46,2.46,0,0,0,2-1,2.87,2.87,0,0,0,1.33.32A2.42,2.42,0,0,0,15,21.49,2.11,2.11,0,0,0,14.22,19.87Z" transform="translate(-3.18 -4.76)"/></svg>