<?xml version="1.0" encoding="UTF-8"?><!DOCTYPE svg PUBLIC "-//W3C//DTD SVG 1.1//EN" "http://www.w3.org/Graphics/SVG/1.1/DTD/svg11.dtd"><svg xmlns="http://www.w3.org/2000/svg" xmlns:xlink="http://www.w3.org/1999/xlink" version="1.1" x="0px" y="0px" viewBox="0 0 64 64" xml:space="preserve"><g id="flat"><g id="foggy_1_"><path fill="#3EBBDD" d="M50 15.044V15c0-6.617-5.383-12-12-12-5.104 0-9.529 3.147-11.246 7.823A9.935 9.935 0 0 0 21 9c-5.514 0-10 4.486-10 10l.002.184A10.94 10.94 0 0 0 2 30c0 6.065 4.935 11 11 11 3.024 0 5.875-1.236 7.932-3.379A11.946 11.946 0 0 0 32 45c4.227 0 8.155-2.271 10.303-5.869A12.874 12.874 0 0 0 49 41c7.168 0 13-5.832 13-13 0-6.817-5.274-12.425-12-12.956z"/><path fill="#CCC" d="M12 47h18v2H12z"/><path fill="#CCC" d="M12 51h18v2H12z"/><path fill="#CCC" d="M12 55h18v2H12z"/><path fill="#CCC" d="M12 59h18v2H12z"/><path fill="#CCC" d="M34 47h18v2H34z"/><path fill="#CCC" d="M44 51h8v2h-8z"/><path fill="#CCC" d="M40 51h2v2h-2z"/><path fill="#CCC" d="M34 51h4v2h-4z"/><path fill="#CCC" d="M34 55h18v2H34z"/><path fill="#CCC" d="M34 59h18v2H34z"/><path fill="#38A8C7" d="M57.918 18.572C54.064 27.441 40.341 34 24 34c-8.326 0-15.968-1.706-21.976-4.549-.009.183-.024.364-.024.549 0 6.065 4.935 11 11 11 3.024 0 5.875-1.236 7.932-3.379A11.946 11.946 0 0 0 32 45c4.227 0 8.155-2.271 10.303-5.869A12.874 12.874 0 0 0 49 41c7.168 0 13-5.832 13-13 0-3.712-1.571-7.057-4.082-9.428z"/></g></g><metadata><rdf:RDF xmlns:rdf="http://www.w3.org/1999/02/22-rdf-syntax-ns#" xmlns:rdfs="http://www.w3.org/2000/01/rdf-schema#" xmlns:dc="http://purl.org/dc/elements/1.1/"><rdf:Description about="https://iconscout.com/legal#licenses" dc:title="fog-foggy-cloud-weather-season" dc:description="fog-foggy-cloud-weather-season" dc:publisher="Iconscout" dc:date="2018-03-23" dc:format="image/svg+xml" dc:language="en"><dc:creator><rdf:Bag><rdf:li>Petai Jantrapoon</rdf:li></rdf:Bag></dc:creator></rdf:Description></rdf:RDF></metadata></svg>