<svg id="Layer_1" data-name="Layer 1" xmlns="http://www.w3.org/2000/svg" viewBox="0 0 58.64 48.16"><defs><style>.cls-1{fill:#e6e6e6;}.cls-2{fill:#ccc;}.cls-3{fill:#3ebbdd;}.cls-4{fill:#ddd;}</style></defs><g id="flat"><g id="rainy"><path class="cls-1" d="M36.61,24.92a5.54,5.54,0,0,0,.16-1.28,5.62,5.62,0,0,0-5.56-5.45,8.31,8.31,0,0,0-7.95-5.47,8.51,8.51,0,0,0-6.73,3.21,7.73,7.73,0,0,0-3.67.1,7.17,7.17,0,0,0-5.24,5.45,6.56,6.56,0,0,0,.26,3.43,5.85,5.85,0,0,0-5.2,5.67v1.84A6,6,0,0,0,8.81,38.2H35.75A5.38,5.38,0,0,0,41.27,33V30A5.27,5.27,0,0,0,36.61,24.92Z" transform="translate(-2.68 -7.92)"/><path class="cls-2" d="M39,25.86a5,5,0,0,1,.32,1.73v3a5.38,5.38,0,0,1-5.52,5.21H6.88a6.32,6.32,0,0,1-3.77-1.23,6.14,6.14,0,0,0,5.7,3.66H35.75A5.38,5.38,0,0,0,41.27,33V30A5.06,5.06,0,0,0,39,25.86Z" transform="translate(-2.68 -7.92)"/><g id="flat-2" data-name="flat"><g id="snowflake"><path class="cls-3" d="M16.6,44a.26.26,0,0,0-.26.25.26.26,0,0,0,.26.25.26.26,0,0,0,.26-.25A.25.25,0,0,0,16.6,44Zm0,.4a.16.16,0,0,1-.16-.15.16.16,0,0,1,.16-.15.15.15,0,0,1,.16.15A.16.16,0,0,1,16.6,44.41Z" transform="translate(-2.68 -7.92)"/><path class="cls-3" d="M18,44.11a.15.15,0,0,0-.14.1h-.81A.37.37,0,0,0,17,44l.1-.1.08-.07.07-.07.08-.08.1-.09.07,0a.16.16,0,0,0,.11-.05.13.13,0,0,0,0-.1.15.15,0,0,0,0-.11.17.17,0,0,0-.23,0,.15.15,0,0,0,0,.11.13.13,0,0,0,0,.06l-.09.09-.08.08-.08.07-.08.07-.09.1a.46.46,0,0,0-.25-.1v-.76a.15.15,0,0,0-.06-.29.16.16,0,0,0-.16.15.16.16,0,0,0,.11.14v.76a.43.43,0,0,0-.24.1l-.1-.1-.08-.07-.07-.07L16,43.59l-.1-.09a.14.14,0,0,0,0-.06.16.16,0,0,0-.05-.11.16.16,0,0,0-.22,0,.16.16,0,0,0-.05.11.14.14,0,0,0,.05.1.16.16,0,0,0,.11.05l.07,0,.09.09.08.08.08.07.08.07.09.1a.44.44,0,0,0-.1.23h-.8a.15.15,0,0,0-.15-.1.15.15,0,0,0-.16.15.16.16,0,0,0,.16.15.15.15,0,0,0,.15-.1h.8a.52.52,0,0,0,.1.23l-.09.09-.08.08-.08.06-.08.08-.09.09a.19.19,0,0,0-.18,0,.16.16,0,0,0-.05.11.12.12,0,0,0,.05.1.15.15,0,0,0,.22,0,.12.12,0,0,0,.05-.1.19.19,0,0,0,0-.07l.1-.09.08-.08.07-.06.08-.08.1-.09a.5.5,0,0,0,.24.09v.77a.15.15,0,0,0-.11.14.16.16,0,0,0,.16.15.16.16,0,0,0,.16-.15.14.14,0,0,0-.1-.14V44.7a.54.54,0,0,0,.24-.09l.09.09.08.08.08.06.08.08.09.09a.17.17,0,0,0,0,.07.12.12,0,0,0,0,.1.17.17,0,0,0,.12,0,.16.16,0,0,0,.11,0,.12.12,0,0,0,0-.1.15.15,0,0,0,0-.11.19.19,0,0,0-.18,0l-.1-.09-.08-.08-.07-.06-.08-.08-.1-.09a.43.43,0,0,0,.1-.23h.81a.15.15,0,0,0,.14.1.16.16,0,0,0,.16-.15A.15.15,0,0,0,18,44.11Zm-.59-.71h0a0,0,0,0,1,.05,0s0,0,0,0a0,0,0,1,1-.07-.07Zm-.83-.54a.06.06,0,0,1,.06,0,.06.06,0,0,1-.06.05.05.05,0,0,1-.05-.05h0A0,0,0,0,1,16.6,42.86Zm-.9.61a0,0,0,0,1,0-.07h0a0,0,0,0,1,0,0,0,0,0,0,1,0,0A.06.06,0,0,1,15.7,43.47Zm-.52.84a.06.06,0,0,1,0-.06,0,0,0,0,1,0,0,.05.05,0,0,1,0,.1Zm.6.8a.06.06,0,0,1-.08,0,0,0,0,0,1,0-.07h.08A0,0,0,0,1,15.78,45.11Zm.82.55a0,0,0,0,1,0-.1,0,0,0,0,1,0,.1Zm0-1a.37.37,0,0,1-.37-.35.36.36,0,0,1,.37-.35.35.35,0,0,1,.37.35A.36.36,0,0,1,16.6,44.61Zm.9.43a0,0,0,1,1-.07,0h.07Zm.52-.73a.06.06,0,0,1-.05-.06s0,0,.05,0a0,0,0,1,1,0,.1Z" transform="translate(-2.68 -7.92)"/></g><g id="snowflake-2" data-name="snowflake"><path class="cls-3" d="M12,40.43a.25.25,0,1,0,0,.5.25.25,0,1,0,0-.5Zm0,.4a.15.15,0,1,1,.16-.15A.16.16,0,0,1,12,40.83Z" transform="translate(-2.68 -7.92)"/><path class="cls-3" d="M13.44,40.53a.15.15,0,0,0-.15.1h-.8a.52.52,0,0,0-.1-.23l.09-.09.08-.08.08-.07.08-.07.09-.09h.07A.21.21,0,0,0,13,40a.15.15,0,0,0,0-.22.18.18,0,0,0-.22,0,.16.16,0,0,0,0,.11.14.14,0,0,0,0,.06l-.1.09-.08.08-.07.07-.08.08-.1.09a.51.51,0,0,0-.24-.1v-.76a.16.16,0,0,0,.11-.14.16.16,0,0,0-.32,0,.14.14,0,0,0,.11.14v.76a.55.55,0,0,0-.25.1l-.09-.09-.08-.08-.07-.07L11.39,40l-.09-.09a.13.13,0,0,0,0-.06.15.15,0,0,0,0-.11.2.2,0,0,0-.23,0A.17.17,0,0,0,11,40a.21.21,0,0,0,.11,0l.07,0,.1.1.08.07.07.07.08.08.1.09a.43.43,0,0,0-.1.23h-.8a.18.18,0,0,0-.15-.1.15.15,0,1,0,0,.3.18.18,0,0,0,.15-.1h.8a.37.37,0,0,0,.1.23l-.1.09-.08.08-.07.07-.08.08-.1.09a.15.15,0,0,0-.18,0,.12.12,0,0,0,0,.1.14.14,0,0,0,.15.15.16.16,0,0,0,.12,0,.15.15,0,0,0,0-.11.13.13,0,0,0,0-.06l.09-.09.09-.08.07-.07.08-.08.09-.09a.46.46,0,0,0,.25.1v.76a.15.15,0,0,0-.11.14.16.16,0,0,0,.32,0,.16.16,0,0,0-.11-.14v-.76a.43.43,0,0,0,.24-.1l.1.09.08.08.07.07.08.08.1.09a.14.14,0,0,0,0,.06.16.16,0,0,0,0,.11.17.17,0,0,0,.22,0,.16.16,0,0,0,0-.11.12.12,0,0,0,0-.1.15.15,0,0,0-.18,0l-.09-.09-.08-.08-.08-.07-.08-.08L12.39,41a.44.44,0,0,0,.1-.23h.8a.15.15,0,0,0,.15.1.15.15,0,1,0,0-.3Zm-.6-.71h0a0,0,0,0,1,0,0,.06.06,0,0,1,0,0h-.08A.06.06,0,0,1,12.84,39.82ZM12,39.28a0,0,0,0,1,0,.1,0,0,0,0,1,0-.1h0A0,0,0,0,1,12,39.28Zm-.9.62a.06.06,0,0,1,0-.08h0a.06.06,0,0,1,.06,0l0,0Zm-.52.83a0,0,0,1,1,0-.1,0,0,0,1,1,0,.1Zm.59.81a0,0,0,1,1,0-.07A0,0,0,0,1,11.19,41.54Zm.83.54a.05.05,0,0,1,0-.1.05.05,0,0,1,.05.05A0,0,0,0,1,12,42.08Zm0-1a.35.35,0,1,1,.37-.35A.37.37,0,0,1,12,41Zm.9.44a0,0,0,0,1,0,.07.06.06,0,0,1-.08,0,0,0,0,0,1,0-.07l0,0Zm.52-.74a0,0,0,1,1,0-.1.05.05,0,0,1,.05,0A0,0,0,0,1,13.44,40.73Z" transform="translate(-2.68 -7.92)"/></g><g id="snowflake-3" data-name="snowflake"><path class="cls-3" d="M10.6,47.65a.26.26,0,0,0-.27.25.27.27,0,0,0,.53,0A.26.26,0,0,0,10.6,47.65Zm0,.4a.16.16,0,0,1-.16-.15.15.15,0,0,1,.16-.15.15.15,0,0,1,.15.15A.15.15,0,0,1,10.6,48.05Z" transform="translate(-2.68 -7.92)"/><path class="cls-3" d="M12,47.75a.15.15,0,0,0-.15.1h-.8a.44.44,0,0,0-.1-.23l.09-.1.08-.07.07-.07.09-.08.09-.09.07,0a.16.16,0,0,0,.11,0,.14.14,0,0,0,0-.1.16.16,0,0,0,0-.11.16.16,0,0,0-.22,0,.16.16,0,0,0,0,.11.14.14,0,0,0,0,.06l-.1.09-.08.08-.07.07-.08.07-.1.1a.43.43,0,0,0-.24-.1v-.76a.18.18,0,0,0,.11-.14.16.16,0,0,0-.16-.15.15.15,0,0,0-.06.29v.76a.46.46,0,0,0-.24.1l-.09-.1-.08-.07-.08-.07L10,47.23l-.09-.09a.13.13,0,0,0,0-.06.21.21,0,0,0,0-.11.17.17,0,0,0-.23,0,.15.15,0,0,0,0,.11.13.13,0,0,0,0,.1.16.16,0,0,0,.11,0l.07,0,.1.09.08.08.07.07.08.07.1.1a.37.37,0,0,0-.1.23H9.32a.16.16,0,0,0-.3,0,.16.16,0,0,0,.16.15.15.15,0,0,0,.14-.1h.81a.43.43,0,0,0,.1.23l-.1.09-.08.08-.07.06-.08.08-.1.09a.19.19,0,0,0-.18,0,.15.15,0,0,0,0,.11.12.12,0,0,0,0,.1.16.16,0,0,0,.11,0,.17.17,0,0,0,.12,0,.15.15,0,0,0,0-.1.15.15,0,0,0,0-.07l.09-.09.08-.08.08-.06.08-.08.09-.09a.54.54,0,0,0,.24.09v.77a.14.14,0,0,0-.1.14.16.16,0,0,0,.16.15.15.15,0,0,0,.05-.29v-.77a.5.5,0,0,0,.24-.09l.1.09.08.08.07.06.08.08.1.09a.14.14,0,0,0,0,.07.12.12,0,0,0,0,.1.15.15,0,0,0,.22,0,.12.12,0,0,0,0-.1.16.16,0,0,0,0-.11.19.19,0,0,0-.18,0l-.09-.09-.09-.08-.07-.06-.08-.08L11,48.18a.52.52,0,0,0,.1-.23h.8a.15.15,0,0,0,.15.1.16.16,0,0,0,.16-.15A.15.15,0,0,0,12,47.75Zm-.6-.71h0a0,0,0,0,1,0,0,0,0,0,0,1,0,0,.06.06,0,0,1-.08,0A0,0,0,0,1,11.42,47Zm-.82-.54a0,0,0,0,1,.05,0,.05.05,0,0,1-.05.05.06.06,0,0,1-.06-.05h0A.06.06,0,0,1,10.6,46.5Zm-.9.61a0,0,0,0,1,0-.07h0a.06.06,0,0,1,.06,0s0,0,0,0A0,0,0,0,1,9.7,47.11ZM9.18,48a.05.05,0,0,1,0-.06,0,0,0,0,1,0,0,0,0,0,0,1,.05,0A.06.06,0,0,1,9.18,48Zm.59.8a0,0,0,1,1,0-.07A0,0,0,0,1,9.77,48.75Zm.83.55a.06.06,0,0,1,0-.06,0,0,0,0,1,0,0,0,0,0,0,1,.05,0A.05.05,0,0,1,10.6,49.3Zm0-1a.36.36,0,0,1-.37-.35.35.35,0,0,1,.37-.35.36.36,0,0,1,.37.35A.37.37,0,0,1,10.6,48.25Zm.9.43a0,0,0,0,1,0,.07.06.06,0,0,1-.08,0,0,0,0,0,1,0-.07h.08ZM12,48a.06.06,0,0,1,0-.06,0,0,0,0,1,0,0,0,0,0,0,1,.05,0A.05.05,0,0,1,12,48Z" transform="translate(-2.68 -7.92)"/></g><g id="snowflake-4" data-name="snowflake"><path class="cls-3" d="M21.15,47.61a.25.25,0,1,0,0,.5.25.25,0,1,0,0-.5Zm0,.4a.15.15,0,1,1,0-.3.15.15,0,1,1,0,.3Z" transform="translate(-2.68 -7.92)"/><path class="cls-3" d="M22.57,47.71a.18.18,0,0,0-.15.1h-.8a.43.43,0,0,0-.1-.23l.1-.09.08-.08.07-.07.08-.08.1-.09.07,0a.16.16,0,0,0,.11,0,.12.12,0,0,0,0-.1.15.15,0,0,0,0-.11.2.2,0,0,0-.23,0,.15.15,0,0,0,0,.11.13.13,0,0,0,0,.06l-.09.09-.08.08-.08.07-.08.08-.09.09a.55.55,0,0,0-.25-.1v-.76a.15.15,0,0,0,.11-.14.16.16,0,0,0-.32,0,.16.16,0,0,0,.11.14v.76a.51.51,0,0,0-.24.1l-.1-.09-.08-.08-.07-.07-.08-.08-.1-.09a.14.14,0,0,0,0-.06.16.16,0,0,0-.05-.11.18.18,0,0,0-.22,0,.16.16,0,0,0-.05.11.12.12,0,0,0,.05.1.16.16,0,0,0,.11,0l.07,0,.09.09.08.08.08.07.08.08.09.09a.52.52,0,0,0-.1.23h-.8a.15.15,0,0,0-.15-.1.15.15,0,1,0,0,.3.15.15,0,0,0,.15-.1h.8a.52.52,0,0,0,.1.23l-.09.09-.08.08-.08.07-.08.07-.09.1a.17.17,0,0,0-.18,0,.15.15,0,0,0,0,.22.17.17,0,0,0,.22,0,.16.16,0,0,0,.05-.11.14.14,0,0,0,0-.06l.1-.09.08-.08.07-.07.08-.08.1-.09a.51.51,0,0,0,.24.1v.76a.16.16,0,0,0-.11.14.16.16,0,0,0,.32,0,.15.15,0,0,0-.11-.14v-.76a.55.55,0,0,0,.25-.1l.09.09.08.08.08.07.08.08.09.09a.13.13,0,0,0,0,.06.15.15,0,0,0,0,.11.16.16,0,0,0,.12,0,.21.21,0,0,0,.11,0,.17.17,0,0,0,0-.22.17.17,0,0,0-.18,0l-.1-.1-.08-.07-.07-.07-.08-.08-.1-.09a.43.43,0,0,0,.1-.23h.8a.18.18,0,0,0,.15.1.15.15,0,1,0,0-.3ZM22,47h0a.05.05,0,0,1,.05,0l0,0A0,0,0,0,1,22,47Zm-.83-.54a.05.05,0,0,1,0,.1,0,0,0,0,1,0-.1h0A0,0,0,0,1,21.15,46.46Zm-.9.61a0,0,0,0,1,0-.07h0a0,0,0,0,1,.05,0,0,0,0,0,1,0,0A.06.06,0,0,1,20.25,47.07Zm-.52.84a0,0,0,1,1,.05,0A0,0,0,0,1,19.73,47.91Zm.6.81h-.08s0-.06,0-.07a.06.06,0,0,1,.08,0S20.35,48.7,20.33,48.72Zm.82.54a.05.05,0,1,1,.05,0A0,0,0,0,1,21.15,49.26Zm0-1a.35.35,0,1,1,0-.7.35.35,0,1,1,0,.7Zm.9.44s0,.05,0,.07H22s0-.06,0-.07l0,0Zm.52-.74a0,0,0,0,1-.05,0,.05.05,0,0,1,.05,0,0,0,0,0,1,0,.1Z" transform="translate(-2.68 -7.92)"/></g><g id="snowflake-5" data-name="snowflake"><path class="cls-3" d="M32.87,44a.26.26,0,0,0-.26.25.27.27,0,0,0,.53,0A.26.26,0,0,0,32.87,44Zm0,.4a.15.15,0,0,1-.15-.15.15.15,0,0,1,.15-.15.15.15,0,0,1,.16.15A.16.16,0,0,1,32.87,44.36Z" transform="translate(-2.68 -7.92)"/><path class="cls-3" d="M34.3,44.06a.15.15,0,0,0-.15.1h-.81a.33.33,0,0,0-.1-.23l.1-.1.08-.07.07-.07.09-.08.09-.09.07,0a.16.16,0,0,0,.11,0,.14.14,0,0,0,0-.1.16.16,0,0,0,0-.11.16.16,0,0,0-.22,0,.16.16,0,0,0-.05.11.14.14,0,0,0,0,.06l-.1.09-.08.08-.07.07-.08.07-.1.1a.43.43,0,0,0-.24-.1V43a.15.15,0,0,0-.06-.29.15.15,0,0,0-.15.15.15.15,0,0,0,.1.14v.76a.43.43,0,0,0-.24.1l-.1-.1-.08-.07-.07-.07-.08-.08-.1-.09a.14.14,0,0,0,0-.06.16.16,0,0,0-.05-.11.16.16,0,0,0-.22,0,.16.16,0,0,0,0,.11.14.14,0,0,0,0,.1.16.16,0,0,0,.11,0l.07,0,.09.09.09.08.07.07.08.07.09.1a.44.44,0,0,0-.1.23h-.8a.15.15,0,0,0-.15-.1.15.15,0,0,0-.15.15.16.16,0,0,0,.3,0h.8a.52.52,0,0,0,.1.23l-.09.09-.08.08-.07.06-.09.08-.09.09a.19.19,0,0,0-.18,0,.16.16,0,0,0,0,.11.12.12,0,0,0,0,.1.15.15,0,0,0,.22,0,.12.12,0,0,0,.05-.1.19.19,0,0,0,0-.07l.1-.09.08-.08.07-.06.08-.08.1-.09a.5.5,0,0,0,.24.09v.77a.14.14,0,0,0-.1.14.15.15,0,0,0,.15.15.16.16,0,0,0,.16-.15.14.14,0,0,0-.1-.14v-.77a.5.5,0,0,0,.24-.09l.1.09.08.08.07.06.08.08.1.09a.19.19,0,0,0,0,.07.12.12,0,0,0,.05.1.15.15,0,0,0,.22,0,.12.12,0,0,0,0-.1.16.16,0,0,0,0-.11.19.19,0,0,0-.18,0l-.09-.09-.09-.08-.07-.06-.08-.08-.1-.09a.37.37,0,0,0,.1-.23h.81a.16.16,0,0,0,.3,0A.15.15,0,0,0,34.3,44.06Zm-.6-.71h0a0,0,0,0,1,0,0,0,0,0,0,1,0,0,.06.06,0,0,1-.08,0A0,0,0,0,1,33.7,43.35Zm-.83-.54a.06.06,0,0,1,.06,0,.06.06,0,0,1-.11,0h0A.05.05,0,0,1,32.87,42.81Zm-.9.61a0,0,0,0,1,0-.07h0a0,0,0,0,1,.05,0,0,0,0,0,1,0,0A.06.06,0,0,1,32,43.42Zm-.52.84a.06.06,0,0,1-.05-.06s0,0,.05,0,.06,0,.05.05A0,0,0,0,1,31.45,44.26Zm.6.8a.06.06,0,0,1-.08,0A0,0,0,0,1,32,45a.09.09,0,0,1,.07,0A0,0,0,0,1,32.05,45.06Zm.82.55a.06.06,0,0,1,0,0s0-.05,0-.05.06,0,.05.05A0,0,0,0,1,32.87,45.61Zm0-1a.36.36,0,0,1-.36-.35.37.37,0,0,1,.73,0A.36.36,0,0,1,32.87,44.56Zm.91.43a0,0,0,0,1,0,.07.06.06,0,0,1-.08,0,0,0,0,0,1,0-.07h.08Zm.52-.73a.05.05,0,0,1,0-.06,0,0,0,0,1,0,0,.05.05,0,0,1,.05.05S34.32,44.26,34.3,44.26Z" transform="translate(-2.68 -7.92)"/></g><g id="snowflake-6" data-name="snowflake"><path class="cls-3" d="M28,40.38a.25.25,0,1,0,0,.5.25.25,0,1,0,0-.5Zm0,.4a.15.15,0,1,1,.16-.15A.16.16,0,0,1,28,40.78Z" transform="translate(-2.68 -7.92)"/><path class="cls-3" d="M29.45,40.48a.15.15,0,0,0-.15.1h-.8a.43.43,0,0,0-.1-.23l.1-.09.08-.08.07-.07.08-.07.1-.09h.06a.21.21,0,0,0,.12,0,.17.17,0,0,0,0-.22.2.2,0,0,0-.23,0,.15.15,0,0,0,0,.11.13.13,0,0,0,0,.06l-.09.09-.09.08-.07.07-.08.08-.1.09a.47.47,0,0,0-.24-.1v-.76a.15.15,0,0,0,.11-.14.16.16,0,0,0-.32,0,.15.15,0,0,0,.11.14v.76a.55.55,0,0,0-.25.1l-.09-.09-.08-.08L27.49,40,27.4,40l-.09-.09a.13.13,0,0,0,0-.06.15.15,0,0,0,0-.11.2.2,0,0,0-.23,0,.17.17,0,0,0,0,.22.21.21,0,0,0,.12,0l.06,0,.1.1.08.07.07.07.08.08.1.09a.43.43,0,0,0-.1.23h-.8a.16.16,0,0,0-.15-.1.15.15,0,1,0,0,.3.16.16,0,0,0,.15-.1h.8a.37.37,0,0,0,.1.23l-.1.09-.08.08-.07.07-.08.08-.1.09a.15.15,0,0,0-.18,0,.12.12,0,0,0,0,.1.15.15,0,0,0,0,.11.16.16,0,0,0,.12,0,.14.14,0,0,0,.15-.15.13.13,0,0,0,0-.06l.09-.09.09-.08.07-.07.08-.08.09-.09a.46.46,0,0,0,.25.1v.76a.15.15,0,0,0-.11.14.16.16,0,0,0,.32,0,.15.15,0,0,0-.11-.14v-.76a.4.4,0,0,0,.24-.1l.1.09.08.08.07.07.09.08.09.09a.13.13,0,0,0,0,.06.14.14,0,0,0,.15.15.16.16,0,0,0,.12,0,.21.21,0,0,0,0-.11.15.15,0,0,0,0-.1.16.16,0,0,0-.18,0l-.1-.09-.08-.08-.07-.07L28.5,41l-.1-.09a.37.37,0,0,0,.1-.23h.8a.15.15,0,0,0,.15.1.15.15,0,1,0,0-.3Zm-.59-.71h0a.06.06,0,0,1,.06.05.08.08,0,0,1,0,0h-.07A.06.06,0,0,1,28.86,39.77ZM28,39.23a.05.05,0,1,1-.05.05h0A0,0,0,0,1,28,39.23Zm-.9.62a.06.06,0,0,1,0-.08h0a.05.05,0,0,1,0,.05.08.08,0,0,1,0,0Zm-.52.83a0,0,0,1,1,0-.1.05.05,0,0,1,.05.05A0,0,0,0,1,26.61,40.68Zm.59.81a0,0,0,1,1,0-.07A0,0,0,0,1,27.2,41.49ZM28,42a.05.05,0,1,1,0-.1.05.05,0,0,1,0,0A0,0,0,0,1,28,42ZM28,41a.35.35,0,1,1,.37-.35A.37.37,0,0,1,28,41Zm.9.44a0,0,0,1,1-.07,0l0,0Zm.52-.74a0,0,0,1,1,0-.1.05.05,0,0,1,.05.05A0,0,0,0,1,29.45,40.68Z" transform="translate(-2.68 -7.92)"/></g><g id="snowflake-7" data-name="snowflake"><path class="cls-3" d="M26.66,47.66a.25.25,0,1,0,0,.5.25.25,0,1,0,0-.5Zm0,.4a.15.15,0,1,1,.16-.15A.16.16,0,0,1,26.66,48.06Z" transform="translate(-2.68 -7.92)"/><path class="cls-3" d="M28.08,47.76a.15.15,0,0,0-.15.1h-.8a.52.52,0,0,0-.1-.23l.1-.09.08-.08.07-.07.08-.08.1-.09.06,0a.14.14,0,0,0,.11-.05.12.12,0,0,0,.05-.1.16.16,0,0,0-.05-.11.18.18,0,0,0-.22,0,.12.12,0,0,0,0,.11.13.13,0,0,0,0,.06l-.09.09-.09.08-.07.07-.08.08-.1.09a.51.51,0,0,0-.24-.1V46.7a.16.16,0,0,0,.11-.14.16.16,0,0,0-.32,0,.16.16,0,0,0,.11.14v.76a.55.55,0,0,0-.25.1l-.09-.09-.08-.08-.07-.07L26,47.24l-.09-.09a.13.13,0,0,0,0-.06.15.15,0,0,0,0-.11.2.2,0,0,0-.23,0,.15.15,0,0,0,0,.11.12.12,0,0,0,0,.1.17.17,0,0,0,.12.05l.06,0,.1.09.08.08.07.07.08.08.1.09a.43.43,0,0,0-.1.23h-.8a.18.18,0,0,0-.15-.1.15.15,0,1,0,0,.3.18.18,0,0,0,.15-.1h.8a.43.43,0,0,0,.1.23l-.1.09-.08.08-.07.07L26,48.5l-.1.1a.17.17,0,0,0-.18,0,.17.17,0,0,0,0,.22.21.21,0,0,0,.12,0,.21.21,0,0,0,.11,0,.15.15,0,0,0,0-.11.13.13,0,0,0,0-.06l.09-.09.09-.08.07-.07.08-.08.09-.09a.55.55,0,0,0,.25.1v.76a.15.15,0,0,0-.11.14.16.16,0,0,0,.32,0,.16.16,0,0,0-.11-.14v-.76a.51.51,0,0,0,.24-.1l.1.09.08.08.07.07.09.08.09.09a.13.13,0,0,0,0,.06.16.16,0,0,0,.26.11.15.15,0,0,0,0-.22.15.15,0,0,0-.17,0l-.1-.1-.08-.07-.07-.07-.08-.08-.1-.09a.52.52,0,0,0,.1-.23h.8a.15.15,0,0,0,.15.1.15.15,0,1,0,0-.3Zm-.59-.71h0a.06.06,0,0,1,.06.05l0,0a0,0,0,0,1-.07-.07Zm-.83-.54a.05.05,0,1,1-.05.05h0A0,0,0,0,1,26.66,46.51Zm-.9.61a0,0,0,0,1,0-.07h0a.05.05,0,0,1,.05.05l0,0A0,0,0,0,1,25.76,47.12Zm-.52.84a.05.05,0,1,1,.05-.05A0,0,0,0,1,25.24,48Zm.59.81h-.07s0-.06,0-.07a0,0,0,0,1,.07,0S25.85,48.75,25.83,48.77Zm.83.54a0,0,0,1,1,.05-.05A0,0,0,0,1,26.66,49.31Zm0-1.05a.35.35,0,1,1,.37-.35A.37.37,0,0,1,26.66,48.26Zm.9.44s0,0,0,.07h-.07s0-.06,0-.07l0,0Zm.52-.74a.05.05,0,1,1,.05-.05A0,0,0,0,1,28.08,48Z" transform="translate(-2.68 -7.92)"/></g></g><path class="cls-3" d="M15.84,48.71h0a.27.27,0,0,1-.24-.33l.21-1.07a.3.3,0,0,1,.35-.23h0a.29.29,0,0,1,.24.33l-.21,1.08A.3.3,0,0,1,15.84,48.71Z" transform="translate(-2.68 -7.92)"/><path class="cls-3" d="M31.91,48.73h0a.29.29,0,0,1-.24-.34l.22-1.07a.3.3,0,0,1,.35-.23h0a.29.29,0,0,1,.24.33l-.21,1.08A.31.31,0,0,1,31.91,48.73Z" transform="translate(-2.68 -7.92)"/><path class="cls-3" d="M27.11,45.07h0a.28.28,0,0,1-.24-.33l.21-1.07a.3.3,0,0,1,.35-.23h0a.29.29,0,0,1,.25.33l-.22,1.08A.3.3,0,0,1,27.11,45.07Z" transform="translate(-2.68 -7.92)"/><path class="cls-3" d="M21.81,45.07h0a.28.28,0,0,1-.24-.33l.21-1.07a.3.3,0,0,1,.36-.23h0a.29.29,0,0,1,.24.33l-.22,1.08A.3.3,0,0,1,21.81,45.07Z" transform="translate(-2.68 -7.92)"/><path class="cls-3" d="M11.08,45.07h0a.28.28,0,0,1-.24-.33l.21-1.07a.31.31,0,0,1,.36-.23h0a.29.29,0,0,1,.24.33l-.21,1.08A.31.31,0,0,1,11.08,45.07Z" transform="translate(-2.68 -7.92)"/><path class="cls-3" d="M17.2,41.44h0a.29.29,0,0,1-.25-.33L17.17,40a.3.3,0,0,1,.35-.22h0a.29.29,0,0,1,.24.33l-.21,1.07A.3.3,0,0,1,17.2,41.44Z" transform="translate(-2.68 -7.92)"/><path class="cls-3" d="M22.57,41.5h0a.29.29,0,0,1-.24-.33l.21-1.08a.31.31,0,0,1,.35-.23h0a.29.29,0,0,1,.24.34l-.21,1.07A.31.31,0,0,1,22.57,41.5Z" transform="translate(-2.68 -7.92)"/><path class="cls-3" d="M33.28,41.45h0a.29.29,0,0,1-.25-.33L33.25,40a.31.31,0,0,1,.35-.23h0a.29.29,0,0,1,.24.34l-.21,1.07A.31.31,0,0,1,33.28,41.45Z" transform="translate(-2.68 -7.92)"/></g></g><g id="flat-3" data-name="flat"><g id="rainy-2" data-name="rainy"><path class="cls-1" d="M57.78,42.3a2.55,2.55,0,0,0,.1-.72,3.28,3.28,0,0,0-3.34-3.07,5,5,0,0,0-4.77-3.08,5.24,5.24,0,0,0-4,1.81,5,5,0,0,0-2.2,0,4.18,4.18,0,0,0-3.15,3.07,3.53,3.53,0,0,0,.15,1.93,3.39,3.39,0,0,0-3.12,3.19v1a3.49,3.49,0,0,0,3.68,3.25H57.26a3.14,3.14,0,0,0,3.32-2.93V45.17A3,3,0,0,0,57.78,42.3Z" transform="translate(-2.68 -7.92)"/><path class="cls-2" d="M59.23,42.83a2.62,2.62,0,0,1,.19,1v1.67a3.15,3.15,0,0,1-3.31,2.94H39.93a4,4,0,0,1-2.26-.7,3.7,3.7,0,0,0,3.42,2.06H57.26a3.14,3.14,0,0,0,3.32-2.93V45.17A2.8,2.8,0,0,0,59.23,42.83Z" transform="translate(-2.68 -7.92)"/><g id="flat-4" data-name="flat"><g id="snowflake-8" data-name="snowflake"><path class="cls-3" d="M45.77,53a.14.14,0,1,0,.16.14A.15.15,0,0,0,45.77,53Zm0,.23a.09.09,0,0,1-.09-.09.08.08,0,0,1,.09-.08.09.09,0,0,1,.1.08A.1.1,0,0,1,45.77,53.27Z" transform="translate(-2.68 -7.92)"/><path class="cls-3" d="M46.62,53.1a.08.08,0,0,0-.08,0h-.49A.19.19,0,0,0,46,53l.06-.05.05,0,0,0,0,0,.06-.06h0l.07,0a.1.1,0,0,0,0-.12.12.12,0,0,0-.14,0,.07.07,0,0,0,0,.06s0,0,0,0l-.05.05,0,0-.05,0,0,0L46,53a.25.25,0,0,0-.15,0V52.5a.08.08,0,0,0,.07-.08.09.09,0,0,0-.1-.08.08.08,0,0,0-.09.08.08.08,0,0,0,.06.08v.43a.3.3,0,0,0-.15,0l-.05,0,0,0,0,0-.05,0-.06-.05s0,0,0,0a.09.09,0,0,0,0-.06.1.1,0,0,0-.13,0,.07.07,0,0,0,0,.06.09.09,0,0,0,0,.06l.06,0h0l.06.06,0,0,0,0,.05,0,.06.05a.25.25,0,0,0-.06.13H45a.11.11,0,0,0-.09,0,.09.09,0,0,0-.1.08.1.1,0,0,0,.1.09.11.11,0,0,0,.09-.06h.48a.22.22,0,0,0,.06.13l-.06,0-.05,0,0,0,0,.05-.06,0a.09.09,0,0,0-.1,0,.09.09,0,0,0,0,.06.06.06,0,0,0,0,.06.07.07,0,0,0,.06,0,.09.09,0,0,0,.07,0,.06.06,0,0,0,0-.06v0l.06,0,0-.05.05,0,0,0,.05,0a.3.3,0,0,0,.15,0v.43a.08.08,0,0,0-.06.08.09.09,0,0,0,.09.09.1.1,0,0,0,.1-.09.09.09,0,0,0-.07-.08v-.43a.25.25,0,0,0,.15,0l.06,0,0,0,.05,0,0,.05.05,0v0a.06.06,0,0,0,0,.06.09.09,0,0,0,.07,0,.11.11,0,0,0,.07,0,.08.08,0,0,0,0-.06.14.14,0,0,0,0-.06.11.11,0,0,0-.11,0l-.06,0,0-.05,0,0-.05,0-.06,0a.18.18,0,0,0,.06-.13h.49a.09.09,0,0,0,.08.06.09.09,0,0,0,.1-.09S46.68,53.1,46.62,53.1Zm-.35-.4s0,0,0,0a0,0,0,0,1,0,0v0h0A0,0,0,0,1,46.27,52.7Zm-.5-.31a0,0,0,0,1,0,0,0,0,0,0,1-.06,0h0A0,0,0,0,1,45.77,52.39Zm-.54.35a0,0,0,0,1,0,0h0a0,0,0,0,1,0,0v0Zm-.31.47a0,0,0,0,1,0-.06,0,0,0,0,1,0,.06Zm.35.45a0,0,0,0,1,0,0,0,0,0,0,1,0,0h0A0,0,0,0,1,45.27,53.66Zm.5.31a0,0,0,0,1,0-.06,0,0,0,0,1,0,0A0,0,0,0,1,45.77,54Zm0-.59a.2.2,0,1,1,.22-.2A.21.21,0,0,1,45.77,53.38Zm.54.24a0,0,0,0,1,0,0,0,0,0,0,1,0,0,0,0,0,0,1,0,0h0Zm.31-.41a0,0,0,0,1,0-.06s0,0,0,0A0,0,0,0,1,46.62,53.21Z" transform="translate(-2.68 -7.92)"/></g><g id="snowflake-9" data-name="snowflake"><path class="cls-3" d="M43,51a.14.14,0,1,0,.16.14A.15.15,0,0,0,43,51Zm0,.22a.09.09,0,1,1,0-.17.09.09,0,0,1,.09.09A.09.09,0,0,1,43,51.25Z" transform="translate(-2.68 -7.92)"/><path class="cls-3" d="M43.87,51.08a.11.11,0,0,0-.09.06H43.3a.22.22,0,0,0-.06-.13l.06,0,.05,0,0,0,0-.05.06,0h0l.06,0a.09.09,0,0,0,0-.06.06.06,0,0,0,0-.06.09.09,0,0,0-.13,0,.06.06,0,0,0,0,.06s0,0,0,0l-.06,0,0,.05,0,0,0,0,0,0a.3.3,0,0,0-.15,0v-.43a.08.08,0,0,0,.06-.08.09.09,0,0,0-.09-.09.1.1,0,0,0-.1.09.09.09,0,0,0,.07.08v.43a.25.25,0,0,0-.15,0l-.06,0,0,0-.05,0,0-.05,0,0s0,0,0,0a.06.06,0,0,0,0-.06.1.1,0,0,0-.14,0,.08.08,0,0,0,0,.06.14.14,0,0,0,0,.06l.07,0h0l.06,0,0,.05,0,0,.05,0,.06,0a.18.18,0,0,0-.06.13h-.49a.09.09,0,0,0-.08-.06.09.09,0,1,0,0,.17.08.08,0,0,0,.08,0h.49a.19.19,0,0,0,.06.13l-.06.05-.05,0,0,0,0,0-.06,0a.15.15,0,0,0-.11,0,.1.1,0,0,0,0,.12.1.1,0,0,0,.07,0,.08.08,0,0,0,.07,0,.09.09,0,0,0,0-.06s0,0,0,0l0-.05,0,0,.05,0,0,0,.06-.05a.33.33,0,0,0,.15.05v.43a.08.08,0,0,0-.07.08A.1.1,0,0,0,43,52a.09.09,0,0,0,.09-.08.08.08,0,0,0-.06-.08v-.43a.44.44,0,0,0,.15-.05l0,.05,0,0,.05,0,0,0,.06.05s0,0,0,0a.09.09,0,0,0,0,.06.08.08,0,0,0,.07,0s.05,0,.06,0a.08.08,0,0,0,0-.12.12.12,0,0,0-.1,0l-.06,0,0,0,0,0-.05,0-.06-.05a.25.25,0,0,0,.06-.13h.48a.11.11,0,0,0,.09,0,.09.09,0,1,0,0-.17Zm-.35-.39h0a0,0,0,0,1,0,0v0a0,0,0,0,1,0,0A0,0,0,0,1,43.52,50.69Zm-.5-.31a0,0,0,0,1,0,0,0,0,0,1,1-.06,0h0A0,0,0,0,1,43,50.38Zm-.54.35a0,0,0,0,1,0,0h0a0,0,0,0,1,0,0v0A0,0,0,0,1,42.48,50.73Zm-.31.47s0,0,0,0a0,0,0,0,1,0,0,0,0,0,0,1,0,0Zm.35.45h0a0,0,0,0,1,0,0h0A0,0,0,0,1,42.52,51.65ZM43,52a0,0,0,0,1,0,0,0,0,0,0,1,.06,0A0,0,0,0,1,43,52Zm0-.59a.2.2,0,1,1,.22-.2A.21.21,0,0,1,43,51.37Zm.54.24a0,0,0,0,1,0,0h0a0,0,0,0,1,0,0h0Zm.31-.41a0,0,0,0,1,0-.06,0,0,0,0,1,0,0A0,0,0,0,1,43.87,51.2Z" transform="translate(-2.68 -7.92)"/></g><g id="snowflake-10" data-name="snowflake"><path class="cls-3" d="M42.17,55.09a.14.14,0,1,0,0,.28.14.14,0,1,0,0-.28Zm0,.22c-.06,0-.1,0-.1-.08a.09.09,0,0,1,.1-.09.09.09,0,0,1,.09.09A.08.08,0,0,1,42.17,55.31Z" transform="translate(-2.68 -7.92)"/><path class="cls-3" d="M43,55.14a.1.1,0,0,0-.09.06h-.48a.31.31,0,0,0-.06-.13l.06,0,0,0,0,0,.05,0,0,0h0l.07,0a.09.09,0,0,0,0-.06.06.06,0,0,0,0-.06.11.11,0,0,0-.13,0,.06.06,0,0,0,0,.06,0,0,0,0,0,0,0l-.06.05,0,0,0,0-.05,0-.06.05A.24.24,0,0,0,42.2,55v-.43a.08.08,0,0,0,.06-.08.09.09,0,0,0-.09-.09.09.09,0,0,0-.1.09.09.09,0,0,0,.06.08V55A.24.24,0,0,0,42,55L41.93,55l0,0,0,0-.05,0-.06-.05a0,0,0,0,0,0,0,.06.06,0,0,0,0-.06.1.1,0,0,0-.13,0,.06.06,0,0,0,0,.06.09.09,0,0,0,0,.06l.07,0h0l.06,0,0,0,0,0,0,0,0,0a.31.31,0,0,0-.06.13H41.4a.1.1,0,0,0-.09-.06.09.09,0,0,0-.09.09.08.08,0,0,0,.09.08.09.09,0,0,0,.09-.05h.48a.38.38,0,0,0,.06.13l0,0,0,0,0,0,0,0-.06.06a.11.11,0,0,0-.11,0,.08.08,0,0,0,0,.12.09.09,0,0,0,.07,0,.07.07,0,0,0,.06,0,.09.09,0,0,0,0-.06.08.08,0,0,0,0,0l.06,0,.05,0,0,0,0,0,.06,0a.24.24,0,0,0,.14,0v.43a.09.09,0,0,0-.06.08s0,.08.1.08a.08.08,0,0,0,.09-.08.08.08,0,0,0-.06-.08v-.43a.24.24,0,0,0,.14,0l.06,0,.05,0,0,0,0,0,.06,0a.08.08,0,0,0,0,0,.11.11,0,0,0,.09.09.09.09,0,0,0,.07,0,.07.07,0,0,0,0-.12.11.11,0,0,0-.11,0l0-.06-.05,0,0,0,0,0-.06,0a.38.38,0,0,0,.06-.13h.48a.09.09,0,0,0,.09.05.08.08,0,0,0,.09-.08A.09.09,0,0,0,43,55.14Zm-.36-.39h0s0,0,0,0v0h-.05A0,0,0,0,1,42.66,54.75Zm-.49-.31a0,0,0,0,1,0,0l0,0a0,0,0,0,1,0,0h0S42.15,54.44,42.17,54.44Zm-.55.35a0,0,0,0,1,0,0h0a0,0,0,0,1,0,0v0Zm-.31.47a0,0,0,0,1,0,0,0,0,0,0,1,0,0,0,0,0,0,1,0,0A0,0,0,0,1,41.31,55.26Zm.36.45h-.05a0,0,0,0,1,0,0,0,0,0,0,1,0,0A0,0,0,0,1,41.63,55.67Zm.5.31s0,0,0,0a0,0,0,0,1,0,0,0,0,0,0,1,0,0Zm0-.59a.2.2,0,1,1,0-.4.2.2,0,1,1,0,.4Zm.54.24a0,0,0,0,1,0,0h-.05a0,0,0,0,1,0,0h.05Zm.31-.41a0,0,0,0,1,0,0,0,0,0,1,1,.06,0A0,0,0,0,1,43,55.26Z" transform="translate(-2.68 -7.92)"/></g><g id="snowflake-11" data-name="snowflake"><path class="cls-3" d="M48.5,55.07a.14.14,0,1,0,0,.28.14.14,0,1,0,0-.28Zm0,.22a.09.09,0,0,1-.09-.08.09.09,0,0,1,.09-.09.09.09,0,1,1,0,.17Z" transform="translate(-2.68 -7.92)"/><path class="cls-3" d="M49.36,55.12a.1.1,0,0,0-.09.06h-.48a.24.24,0,0,0-.07-.13l.06,0,0,0,0,0,.05-.05.06,0h0l.07,0a.09.09,0,0,0,0-.06.06.06,0,0,0,0-.06.1.1,0,0,0-.14,0,.08.08,0,0,0,0,.06,0,0,0,0,0,0,0l-.06,0-.05.05,0,0,0,0-.06,0a.25.25,0,0,0-.15,0v-.43a.09.09,0,0,0,.07-.08.1.1,0,0,0-.1-.09.09.09,0,0,0-.09.09.08.08,0,0,0,.06.08V55a.24.24,0,0,0-.14,0l-.06,0-.05,0,0,0,0-.05-.06,0a0,0,0,0,0,0,0,.06.06,0,0,0,0-.06.09.09,0,0,0-.13,0,.06.06,0,0,0,0,.06.09.09,0,0,0,0,.06l.06,0h0l.06,0,.05.05,0,0,0,0,.06,0a.31.31,0,0,0-.06.13h-.48a.1.1,0,0,0-.09-.06.09.09,0,1,0,0,.17.09.09,0,0,0,.09,0h.48a.38.38,0,0,0,.06.13l-.06.05,0,0,0,0-.05,0-.06.05a.12.12,0,0,0-.1,0,.08.08,0,0,0,0,.12s0,0,.06,0a.08.08,0,0,0,.07,0,.09.09,0,0,0,0-.06.08.08,0,0,0,0,0l.06-.05,0,0,0,0,.05,0,.06-.05a.34.34,0,0,0,.14.05v.43a.08.08,0,0,0-.06.08.09.09,0,0,0,.09.08.1.1,0,0,0,.1-.08.08.08,0,0,0-.07-.08v-.43a.33.33,0,0,0,.15-.05l.06.05,0,0,0,0,.05,0,.06.05a.08.08,0,0,0,0,0,.14.14,0,0,0,0,.06.1.1,0,0,0,.07,0,.08.08,0,0,0,.07,0,.08.08,0,0,0,0-.12.14.14,0,0,0-.11,0l-.06-.05-.05,0,0,0,0,0-.06-.05a.28.28,0,0,0,.07-.13h.48a.09.09,0,0,0,.09,0,.09.09,0,0,0,.09-.08A.09.09,0,0,0,49.36,55.12ZM49,54.73h0a0,0,0,0,1,0,0v0h0A0,0,0,0,1,49,54.73Zm-.5-.31a0,0,0,0,1,0,0,0,0,0,0,1,0,0l0,0h0A0,0,0,0,1,48.5,54.42Zm-.54.35s0,0,0,0h0s0,0,0,0a0,0,0,0,0,0,0Zm-.31.47a0,0,0,0,1,0,0,0,0,0,0,1,.06,0A0,0,0,0,1,47.65,55.24Zm.36.45a0,0,0,0,1,0,0,0,0,0,0,1,0,0h0A0,0,0,0,1,48,55.69Zm.49.31,0,0a0,0,0,0,1,0,0,0,0,0,0,1,0,0A0,0,0,0,1,48.5,56Zm0-.59a.2.2,0,1,1,.22-.2A.21.21,0,0,1,48.5,55.41Zm.54.24a0,0,0,0,1,0,0,0,0,0,0,1,0,0,0,0,0,0,1,0,0h0Zm.32-.41s0,0,0,0a0,0,0,0,1,0,0,0,0,0,0,1,0,0Z" transform="translate(-2.68 -7.92)"/></g><g id="snowflake-12" data-name="snowflake"><path class="cls-3" d="M55.54,53a.16.16,0,0,0-.16.14.16.16,0,0,0,.32,0A.16.16,0,0,0,55.54,53Zm0,.23a.09.09,0,0,1-.09-.09.09.09,0,0,1,.18,0A.09.09,0,0,1,55.54,53.24Z" transform="translate(-2.68 -7.92)"/><path class="cls-3" d="M56.39,53.07a.11.11,0,0,0-.09,0h-.48a.19.19,0,0,0-.06-.13l.06-.05,0,0,0,0,.05,0,.06,0h0a.11.11,0,0,0,.07,0,.1.1,0,0,0,0-.12.12.12,0,0,0-.14,0,.09.09,0,0,0,0,.06s0,0,0,0l0,.05-.05,0,0,0,0,0-.06.05a.53.53,0,0,0-.15-.05v-.43a.08.08,0,0,0,.07-.08.1.1,0,0,0-.1-.08.09.09,0,0,0-.09.08.08.08,0,0,0,.06.08v.43l-.15.05-.06-.05,0,0,0,0-.05,0,0-.05s0,0,0,0a.09.09,0,0,0,0-.06.12.12,0,0,0-.14,0,.1.1,0,0,0,0,.12.11.11,0,0,0,.07,0h0l.06,0,.05,0,0,0,0,0,.06.05a.19.19,0,0,0-.06.13h-.48a.11.11,0,0,0-.09,0,.09.09,0,1,0,0,.17.11.11,0,0,0,.09-.06h.48a.18.18,0,0,0,.06.13l-.06,0,0,0,0,0-.05.05-.06,0a.11.11,0,0,0-.11,0,.14.14,0,0,0,0,.06.08.08,0,0,0,0,.06.11.11,0,0,0,.07,0,.09.09,0,0,0,.07,0,.06.06,0,0,0,0-.06s0,0,0,0l0,0,.05-.05,0,0,0,0,.06,0a.27.27,0,0,0,.15,0v.43a.09.09,0,0,0-.06.08.09.09,0,0,0,.09.09.1.1,0,0,0,.1-.09s0-.06-.07-.08V53.4a.25.25,0,0,0,.15,0l.06,0,0,.05,0,0,.05.05,0,0s0,0,0,0a.06.06,0,0,0,0,.06.09.09,0,0,0,.07,0,.11.11,0,0,0,.07,0,.08.08,0,0,0,0-.06.14.14,0,0,0,0-.06.11.11,0,0,0-.11,0l-.06,0-.05-.05,0,0,0,0-.06,0a.18.18,0,0,0,.06-.13h.48a.11.11,0,0,0,.09.06.09.09,0,1,0,0-.17Zm-.35-.4h0a0,0,0,0,1,0,0s0,0,0,0h0A0,0,0,0,1,56,52.67Zm-.5-.31a0,0,0,0,1,0,0,0,0,0,0,1-.06,0h0A0,0,0,0,1,55.54,52.36Zm-.54.35a0,0,0,0,1,0,0h0a0,0,0,0,1,0,0s0,0,0,0Zm-.31.47a0,0,0,0,1,0,0l0,0,0,0A0,0,0,0,1,54.69,53.18Zm.35.45a0,0,0,0,1,0,0s0,0,0,0a0,0,0,0,1,0,0S55.06,53.62,55,53.63Zm.5.31a0,0,0,0,1,0,0l0,0,0,0A0,0,0,0,1,55.54,53.94Zm0-.59a.21.21,0,0,1-.22-.2.22.22,0,0,1,.44,0A.21.21,0,0,1,55.54,53.35Zm.54.24s0,0,0,0a0,0,0,0,1,0,0s0,0,0,0h0Zm.31-.41a0,0,0,0,1,0,0l0,0,0,0A0,0,0,0,1,56.39,53.18Z" transform="translate(-2.68 -7.92)"/></g><g id="snowflake-13" data-name="snowflake"><path class="cls-3" d="M52.63,51a.14.14,0,1,0,.16.14A.15.15,0,0,0,52.63,51Zm0,.22a.08.08,0,1,1,0-.16.08.08,0,1,1,0,.16Z" transform="translate(-2.68 -7.92)"/><path class="cls-3" d="M53.48,51.06a.08.08,0,0,0-.08,0h-.49a.18.18,0,0,0-.06-.13l.06,0,.05,0,0,0,0,0,.06-.06h0l.07,0a.09.09,0,0,0,0-.06.07.07,0,0,0,0-.06.12.12,0,0,0-.14,0,.11.11,0,0,0,0,.06,0,0,0,0,0,0,0l-.06.06,0,0,0,0-.05,0-.06,0a.25.25,0,0,0-.15,0v-.43a.08.08,0,0,0,.07-.08.09.09,0,0,0-.1-.08.08.08,0,0,0-.09.08.08.08,0,0,0,.06.08v.43a.3.3,0,0,0-.15,0l-.05,0,0,0,0,0-.05,0-.06-.06v0a.07.07,0,0,0,0-.06.1.1,0,0,0-.13,0,.07.07,0,0,0,0,.06.09.09,0,0,0,0,.06l.06,0h0l.06.06,0,0,0,0,.05,0,.06,0a.31.31,0,0,0-.06.13h-.48a.11.11,0,0,0-.09,0,.08.08,0,1,0,0,.16.11.11,0,0,0,.09,0h.48a.31.31,0,0,0,.06.13l-.06.05-.05,0,0,0,0,0-.06.05a.09.09,0,0,0-.1,0,.09.09,0,0,0,0,.06.11.11,0,0,0,.09.09.09.09,0,0,0,.07,0,.07.07,0,0,0,0-.06v0l.06-.06.05,0,0,0,0,0,.05,0a.3.3,0,0,0,.15,0v.43a.08.08,0,0,0-.06.08.08.08,0,0,0,.09.08.09.09,0,0,0,.1-.08.08.08,0,0,0-.07-.08v-.43a.25.25,0,0,0,.15,0l.06,0,.05,0,0,0,0,0,.06.06a0,0,0,0,0,0,0,.09.09,0,0,0,.09.09.09.09,0,0,0,.07,0,.07.07,0,0,0,0-.06.09.09,0,0,0,0-.06.11.11,0,0,0-.11,0l-.06-.05,0,0,0,0-.05,0-.06-.05a.18.18,0,0,0,.06-.13h.49a.08.08,0,0,0,.08,0c.06,0,.1,0,.1-.08S53.54,51.06,53.48,51.06Zm-.35-.4h0a0,0,0,0,1,0,0v0h0A0,0,0,0,1,53.13,50.66Zm-.5-.31a0,0,0,1,1,0,.06,0,0,0,0,1,0-.06h0A0,0,0,0,1,52.63,50.35Zm-.54.35a0,0,0,0,1,0,0h0a0,0,0,0,1,0,0v0Zm-.31.47a0,0,0,0,1,0,0,0,0,0,0,1,0,0,0,0,0,0,1,0,0A0,0,0,0,1,51.78,51.17Zm.36.45a0,0,0,0,1,0,0,0,0,0,0,1,0,0h0A0,0,0,0,1,52.14,51.62Zm.49.31a0,0,0,0,1,0-.06,0,0,0,0,1,0,.06A0,0,0,0,1,52.63,51.93Zm0-.59a.2.2,0,1,1,.22-.2A.21.21,0,0,1,52.63,51.34Zm.54.24a0,0,0,0,1,0,0,0,0,0,0,1,0,0,0,0,0,0,1,0,0h0Zm.31-.41,0,0s0,0,0,0,0,0,0,0A0,0,0,0,1,53.48,51.17Z" transform="translate(-2.68 -7.92)"/></g><g id="snowflake-14" data-name="snowflake"><path class="cls-3" d="M51.81,55.1a.15.15,0,0,0-.16.14.16.16,0,0,0,.32,0A.15.15,0,0,0,51.81,55.1Zm0,.22a.09.09,0,1,1,0-.17.09.09,0,0,1,.09.09A.09.09,0,0,1,51.81,55.32Z" transform="translate(-2.68 -7.92)"/><path class="cls-3" d="M52.66,55.15a.1.1,0,0,0-.09.06h-.48a.22.22,0,0,0-.06-.13l.06,0,0-.05,0,0,0-.05.06,0h0a.07.07,0,0,0,.06,0,.06.06,0,0,0,0-.06.09.09,0,0,0,0-.06.1.1,0,0,0-.13,0,.09.09,0,0,0,0,.06s0,0,0,0l-.06,0,0,0,0,0L52,55l0,0L51.84,55v-.42a.09.09,0,0,0,.06-.08.09.09,0,0,0-.09-.09.1.1,0,0,0-.1.09s0,.06.07.08V55a.34.34,0,0,0-.15.06l-.06,0,0-.05-.05,0,0,0,0,0s0,0,0,0a.09.09,0,0,0,0-.06.12.12,0,0,0-.14,0,.14.14,0,0,0,0,.06.08.08,0,0,0,0,.06.09.09,0,0,0,.07,0h0l.06,0,0,.05,0,0,.05.05.06,0a.18.18,0,0,0-.06.13H51a.08.08,0,0,0-.08-.06.09.09,0,1,0,0,.17.08.08,0,0,0,.08-.06h.49a.16.16,0,0,0,.06.13l-.06.06-.05,0,0,0,0,0-.06,0a.11.11,0,0,0-.11,0,.11.11,0,0,0,0,.06.14.14,0,0,0,0,.06l.07,0,.07,0a.09.09,0,0,0,0-.06s0,0,0,0l0,0,0,0,.05,0,0,0,.06-.06a.34.34,0,0,0,.15.06v.43a.08.08,0,0,0-.07.08.1.1,0,0,0,.1.08A.09.09,0,0,0,51.9,56a.08.08,0,0,0-.06-.08v-.43l.15-.06,0,.06.05,0,0,0,0,0,.06,0s0,0,0,0a.09.09,0,0,0,0,.06l.07,0,.06,0a.09.09,0,0,0,0-.06.07.07,0,0,0,0-.06.09.09,0,0,0-.1,0l-.06,0,0,0,0,0,0,0L52,55.39a.2.2,0,0,0,.06-.13h.48a.1.1,0,0,0,.09.06.09.09,0,1,0,0-.17Zm-.35-.4h0s0,0,0,0,0,0,0,0h0S52.29,54.77,52.31,54.75Zm-.5-.3a0,0,0,0,1,0,0s0,0,0,0,0,0,0,0h0A0,0,0,0,1,51.81,54.45Zm-.54.34s0,0,0,0h0s0,0,0,0,0,0,0,0Zm-.31.47s0,0,0,0,0,0,0,0a0,0,0,0,1,0,0Zm.35.46h0a0,0,0,0,1,0,0h0A0,0,0,0,1,51.31,55.72Zm.5.3a0,0,0,0,1,0,0s0,0,0,0a0,0,0,0,1,0,0S51.83,56,51.81,56Zm0-.59a.2.2,0,1,1,.22-.19A.21.21,0,0,1,51.81,55.43Zm.54.25a0,0,0,0,1,0,0h0a0,0,0,0,1,0,0h0Zm.31-.42a0,0,0,0,1,0,0l0,0a0,0,0,0,1,0,0S52.68,55.26,52.66,55.26Z" transform="translate(-2.68 -7.92)"/></g></g><path class="cls-3" d="M45.31,55.69h0a.16.16,0,0,1-.14-.19l.12-.6a.19.19,0,0,1,.22-.13h0a.17.17,0,0,1,.14.19l-.13.6A.18.18,0,0,1,45.31,55.69Z" transform="translate(-2.68 -7.92)"/><path class="cls-3" d="M55,55.7h0a.17.17,0,0,1-.14-.19L55,54.9a.17.17,0,0,1,.21-.12h0a.15.15,0,0,1,.14.18l-.12.61A.21.21,0,0,1,55,55.7Z" transform="translate(-2.68 -7.92)"/><path class="cls-3" d="M52.08,53.64h0a.17.17,0,0,1-.15-.19l.13-.6a.18.18,0,0,1,.21-.13h0a.17.17,0,0,1,.15.19l-.13.6A.18.18,0,0,1,52.08,53.64Z" transform="translate(-2.68 -7.92)"/><path class="cls-3" d="M48.9,53.64h0a.17.17,0,0,1-.15-.19l.13-.6a.18.18,0,0,1,.21-.13h0a.17.17,0,0,1,.15.19l-.13.6A.18.18,0,0,1,48.9,53.64Z" transform="translate(-2.68 -7.92)"/><path class="cls-3" d="M42.46,53.64h0a.17.17,0,0,1-.15-.19l.13-.6a.18.18,0,0,1,.21-.13h0a.17.17,0,0,1,.15.19l-.13.6A.18.18,0,0,1,42.46,53.64Z" transform="translate(-2.68 -7.92)"/><path class="cls-3" d="M46.13,51.6h0a.17.17,0,0,1-.15-.19l.13-.61a.18.18,0,0,1,.21-.12h0a.16.16,0,0,1,.15.18l-.13.61A.19.19,0,0,1,46.13,51.6Z" transform="translate(-2.68 -7.92)"/><path class="cls-3" d="M49.35,51.63h0a.16.16,0,0,1-.14-.19l.13-.6a.17.17,0,0,1,.21-.13h0a.16.16,0,0,1,.14.19l-.13.6A.18.18,0,0,1,49.35,51.63Z" transform="translate(-2.68 -7.92)"/><path class="cls-3" d="M55.78,51.6h0a.16.16,0,0,1-.14-.19l.12-.6a.19.19,0,0,1,.22-.13h0a.17.17,0,0,1,.14.19l-.13.6A.18.18,0,0,1,55.78,51.6Z" transform="translate(-2.68 -7.92)"/></g></g><g id="flat-5" data-name="flat"><g id="rainy-3" data-name="rainy"><path class="cls-4" d="M55.9,20.11a4.91,4.91,0,0,0,.16-1.27,4.77,4.77,0,0,0-.06-.76,4.74,4.74,0,0,1-1.39,1.27c-2.06,1.26-5.49.69-6.6-1.73-.18-.15-.41-.35-.71-.63s-.64-.53-.94-.82A9.37,9.37,0,0,0,45,15c-1.33-.72-3.17-1.11-4.65-2a4.38,4.38,0,0,1-3.51,1.58A4.76,4.76,0,0,1,34.6,14a4.4,4.4,0,0,1-3.28,1.32,4.47,4.47,0,0,1-2.81-.92,3.41,3.41,0,0,1-.49-.31,6.54,6.54,0,0,0-1.1,2.57,6.68,6.68,0,0,0,.25,3.43A5.86,5.86,0,0,0,22,25.78v1.84A6,6,0,0,0,28.1,33.4H55a5.38,5.38,0,0,0,5.52-5.21v-3A5.28,5.28,0,0,0,55.9,20.11Z" transform="translate(-2.68 -7.92)"/><path class="cls-1" d="M56.66,20.11a5.39,5.39,0,0,0,.16-1.27,5.63,5.63,0,0,0-5.56-5.46,8.32,8.32,0,0,0-7.95-5.46,8.51,8.51,0,0,0-6.73,3.21,7.85,7.85,0,0,0-3.67.09,7.19,7.19,0,0,0-5.24,5.46,6.57,6.57,0,0,0,.26,3.43,5.85,5.85,0,0,0-5.2,5.67v1.84a6,6,0,0,0,6.13,5.78H55.8a5.38,5.38,0,0,0,5.52-5.21v-3A5.28,5.28,0,0,0,56.66,20.11Z" transform="translate(-2.68 -7.92)"/><path class="cls-2" d="M59.07,21.06a4.75,4.75,0,0,1,.32,1.73v3A5.38,5.38,0,0,1,53.87,31H26.93a6.32,6.32,0,0,1-3.77-1.23,6.14,6.14,0,0,0,5.7,3.66H55.8a5.38,5.38,0,0,0,5.52-5.21v-3A5,5,0,0,0,59.07,21.06Z" transform="translate(-2.68 -7.92)"/><g id="flat-6" data-name="flat"><g id="snowflake-15" data-name="snowflake"><path class="cls-3" d="M36.65,39.2a.26.26,0,0,0-.26.25.26.26,0,0,0,.26.25.26.26,0,0,0,.27-.25A.27.27,0,0,0,36.65,39.2Zm0,.4a.15.15,0,0,1-.15-.15.15.15,0,0,1,.15-.15.16.16,0,0,1,.16.15A.15.15,0,0,1,36.65,39.6Z" transform="translate(-2.68 -7.92)"/><path class="cls-3" d="M38.07,39.3a.15.15,0,0,0-.14.1h-.81a.43.43,0,0,0-.1-.23l.1-.09L37.2,39l.07-.07.08-.08.1-.09h.07a.14.14,0,0,0,.15-.15.13.13,0,0,0,0-.1.16.16,0,0,0-.22,0,.14.14,0,0,0,0,.1.15.15,0,0,0,0,.07l-.09.09-.08.08-.07.06L37,39,37,39.1a.54.54,0,0,0-.24-.09v-.77a.14.14,0,0,0,.1-.14.16.16,0,0,0-.16-.15.16.16,0,0,0-.16.15.15.15,0,0,0,.11.14V39a.5.5,0,0,0-.24.09l-.1-.09-.08-.08-.07-.06L36,38.79l-.1-.09a.14.14,0,0,0,0-.07.14.14,0,0,0-.05-.1.16.16,0,0,0-.22,0,.14.14,0,0,0,0,.1.16.16,0,0,0,0,.11.15.15,0,0,0,.11,0h.07l.09.09.09.08.07.07.08.07.09.09a.52.52,0,0,0-.1.23h-.8a.15.15,0,0,0-.15-.1.16.16,0,0,0-.16.15.15.15,0,0,0,.16.15.15.15,0,0,0,.15-.1h.8a.44.44,0,0,0,.1.23l-.09.1-.08.07L36,40l-.09.08-.09.09a.17.17,0,0,0-.18,0,.16.16,0,0,0,0,.11.14.14,0,0,0,0,.1.15.15,0,0,0,.22,0,.14.14,0,0,0,.05-.1.14.14,0,0,0,0-.07l.1-.09.08-.08.07-.07.08-.07.1-.09a.5.5,0,0,0,.24.09v.76a.18.18,0,0,0-.11.14.16.16,0,0,0,.16.15.15.15,0,0,0,.06-.29V39.9a.54.54,0,0,0,.24-.09l.09.09.09.07.07.07.08.08.09.09a.15.15,0,0,0,0,.07.14.14,0,0,0,0,.1.13.13,0,0,0,.11,0,.16.16,0,0,0,.11,0,.13.13,0,0,0,0-.1.15.15,0,0,0,0-.11.17.17,0,0,0-.18,0l-.1-.09L37.27,40l-.07-.07-.08-.07-.1-.09a.43.43,0,0,0,.1-.24h.81a.16.16,0,0,0,.3,0A.16.16,0,0,0,38.07,39.3Zm-.59-.7a.05.05,0,0,1,0,0,.05.05,0,0,1,0,.05.05.05,0,0,1,0,0,0,0,0,0,1-.07-.07Zm-.83-.55a.06.06,0,0,1,.06.05.06.06,0,0,1-.06,0,0,0,0,0,1,0,0h0A.05.05,0,0,1,36.65,38.05Zm-.9.62a0,0,0,0,1,0-.07l0,0a.05.05,0,0,1,.05.05s0,0,0,0A.06.06,0,0,1,35.75,38.67Zm-.52.83a0,0,0,0,1,0,0s0,0,0-.05a.06.06,0,0,1,.05.06A0,0,0,0,1,35.23,39.5Zm.6.81a.06.06,0,0,1-.08,0,0,0,0,0,1,0-.07,0,0,0,0,1,.07.07Zm.82.54a0,0,0,0,1,0-.05s0,0,0,0a.06.06,0,0,1,.05.06A0,0,0,0,1,36.65,40.85Zm0-1.05a.36.36,0,0,1-.37-.35.37.37,0,0,1,.37-.35.36.36,0,0,1,.37.35A.35.35,0,0,1,36.65,39.8Zm.9.44a0,0,0,1,1-.07,0h.07Zm.52-.74a0,0,0,0,1,0,0s0,0,0-.05.06,0,0,.06A0,0,0,0,1,38.07,39.5Z" transform="translate(-2.68 -7.92)"/></g><g id="snowflake-16" data-name="snowflake"><path class="cls-3" d="M48.08,35.58a.25.25,0,1,0,.26.25A.26.26,0,0,0,48.08,35.58Zm0,.4a.15.15,0,1,1,.16-.15A.16.16,0,0,1,48.08,36Z" transform="translate(-2.68 -7.92)"/><path class="cls-3" d="M49.5,35.68a.16.16,0,0,0-.15.1h-.8a.37.37,0,0,0-.1-.23l.1-.09.08-.08.07-.07.08-.08.1-.09.06,0a.17.17,0,0,0,.12,0,.13.13,0,0,0,0-.1.15.15,0,0,0,0-.11.17.17,0,0,0-.23,0,.15.15,0,0,0,0,.11.13.13,0,0,0,0,.06l-.09.09-.09.08-.07.07-.08.07-.09.1a.46.46,0,0,0-.25-.1v-.76a.15.15,0,0,0,.11-.14.16.16,0,0,0-.32,0,.16.16,0,0,0,.11.14v.76a.46.46,0,0,0-.25.1l-.09-.1-.08-.07-.07-.07-.09-.08-.09-.09a.13.13,0,0,0,0-.06.15.15,0,0,0,0-.11.17.17,0,0,0-.23,0,.15.15,0,0,0,0,.11.13.13,0,0,0,0,.1.17.17,0,0,0,.12,0l.06,0,.1.09.08.08.07.07.08.08.1.09a.37.37,0,0,0-.1.23h-.8a.15.15,0,0,0-.15-.1.15.15,0,1,0,0,.3.15.15,0,0,0,.15-.1h.8a.43.43,0,0,0,.1.23l-.1.09-.08.08-.07.06-.08.08-.1.09a.19.19,0,0,0-.18,0,.17.17,0,0,0,0,.22.21.21,0,0,0,.12,0,.21.21,0,0,0,.11,0,.15.15,0,0,0,0-.11.17.17,0,0,0,0-.07l.09-.09.09-.08.07-.06.08-.08.09-.09a.55.55,0,0,0,.25.1V37a.15.15,0,0,0-.11.14.16.16,0,0,0,.32,0,.15.15,0,0,0-.11-.14v-.76a.55.55,0,0,0,.25-.1l.09.09.08.08.07.06.09.08.09.09a.17.17,0,0,0,0,.07.15.15,0,0,0,0,.11.21.21,0,0,0,.11,0,.21.21,0,0,0,.12,0,.17.17,0,0,0,0-.22.19.19,0,0,0-.18,0l-.1-.09-.08-.08-.07-.06-.08-.08-.1-.09a.43.43,0,0,0,.1-.23h.8a.16.16,0,0,0,.15.1.15.15,0,1,0,0-.3ZM48.91,35h0A.06.06,0,0,1,49,35s0,0,0,0a0,0,0,0,1-.07-.07Zm-.83-.54a0,0,0,1,1,0,.1,0,0,0,0,1,0-.1h0A0,0,0,0,1,48.08,34.43Zm-.9.61a0,0,0,0,1,0-.07h0a0,0,0,0,1,.05,0s0,0,0,0A0,0,0,0,1,47.18,35Zm-.52.84a.05.05,0,0,1,0-.05,0,0,0,1,1,0,.05Zm.59.8a0,0,0,0,1-.07-.07h.07A0,0,0,0,1,47.25,36.68Zm.83.55a.05.05,0,0,1,0,0,.05.05,0,0,1,.1,0A0,0,0,0,1,48,37.18Zm0-1a.37.37,0,0,1-.37-.35.37.37,0,0,1,.74,0A.37.37,0,0,1,48.08,36.18Zm.9.43a0,0,0,1,1-.07,0H49Zm.52-.73a.05.05,0,0,1,0-.05,0,0,0,1,1,0,.05Z" transform="translate(-2.68 -7.92)"/></g><g id="snowflake-17" data-name="snowflake"><path class="cls-3" d="M46.71,42.86a.25.25,0,0,0-.26.25.26.26,0,0,0,.26.25.26.26,0,0,0,.26-.25A.26.26,0,0,0,46.71,42.86Zm0,.4a.16.16,0,0,1-.16-.15.16.16,0,0,1,.32,0A.16.16,0,0,1,46.71,43.26Z" transform="translate(-2.68 -7.92)"/><path class="cls-3" d="M48.13,43a.15.15,0,0,0-.15.1h-.8a.37.37,0,0,0-.1-.23l.1-.1.08-.07.07-.07.08-.08.1-.09.06,0a.13.13,0,0,0,.11,0,.14.14,0,0,0,0-.1.16.16,0,0,0,0-.11.16.16,0,0,0-.22,0,.15.15,0,0,0,0,.11.13.13,0,0,0,0,.06l-.09.09-.09.08-.07.07-.08.07-.1.1a.4.4,0,0,0-.24-.1V41.9a.15.15,0,0,0,.11-.14.16.16,0,0,0-.32,0,.16.16,0,0,0,.11.14v.76a.46.46,0,0,0-.25.1l-.09-.1-.08-.07-.07-.07-.09-.08L46,42.35a.13.13,0,0,0,0-.06.15.15,0,0,0,0-.11.17.17,0,0,0-.23,0,.15.15,0,0,0,0,.11.13.13,0,0,0,0,.1.17.17,0,0,0,.12,0l.06,0,.1.09.08.08.07.07.08.07.1.1a.37.37,0,0,0-.1.23h-.8a.16.16,0,0,0-.15-.1.15.15,0,0,0-.16.15.16.16,0,0,0,.16.15.16.16,0,0,0,.15-.1h.8a.43.43,0,0,0,.1.23l-.1.09-.08.08-.07.06L46,43.7l-.1.09a.19.19,0,0,0-.18,0,.15.15,0,0,0,0,.11.12.12,0,0,0,0,.1.17.17,0,0,0,.12,0A.16.16,0,0,0,46,44a.12.12,0,0,0,0-.1.17.17,0,0,0,0-.07l.09-.09.09-.08.07-.06.08-.08.09-.09a.54.54,0,0,0,.25.09v.77a.14.14,0,0,0-.11.14.16.16,0,0,0,.32,0,.14.14,0,0,0-.11-.14v-.77a.46.46,0,0,0,.24-.09l.1.09.08.08.07.06.09.08.09.09a.17.17,0,0,0,0,.07.12.12,0,0,0,0,.1.16.16,0,0,0,.11,0,.13.13,0,0,0,.11,0,.12.12,0,0,0,0-.1.21.21,0,0,0,0-.11.2.2,0,0,0-.18,0l-.1-.09-.08-.08-.07-.06-.08-.08-.1-.09a.43.43,0,0,0,.1-.23H48a.15.15,0,0,0,.15.1.16.16,0,0,0,.16-.15A.15.15,0,0,0,48.13,43Zm-.59-.71h0a.06.06,0,0,1,.06,0l0,0a0,0,0,0,1-.07-.07Zm-.83-.54a0,0,0,0,1,0,0,0,0,0,1,1-.1,0h0A0,0,0,0,1,46.71,41.71Zm-.9.61a0,0,0,0,1,0-.07h0a.05.05,0,0,1,0,0l0,0A0,0,0,0,1,45.81,42.32Zm-.52.84a.06.06,0,0,1,0-.06,0,0,0,0,1,0,0,0,0,0,0,1,.05,0A.05.05,0,0,1,45.29,43.16Zm.59.8a0,0,0,0,1-.07-.07h.07A0,0,0,0,1,45.88,44Zm.83.55a.06.06,0,0,1-.05-.06,0,0,0,0,1,.05,0,.05.05,0,0,1,0,.1Zm0-1a.37.37,0,0,1-.37-.35.37.37,0,0,1,.74,0A.37.37,0,0,1,46.71,43.46Zm.9.43a0,0,0,1,1-.07,0h.07Zm.52-.73a.06.06,0,0,1-.05-.06,0,0,0,0,1,.05,0,0,0,0,0,1,0,0A.05.05,0,0,1,48.13,43.16Z" transform="translate(-2.68 -7.92)"/></g></g><path class="cls-3" d="M35.89,43.91h0a.28.28,0,0,1-.24-.33l.21-1.08a.3.3,0,0,1,.35-.22h0a.28.28,0,0,1,.24.33l-.21,1.07A.3.3,0,0,1,35.89,43.91Z" transform="translate(-2.68 -7.92)"/><path class="cls-3" d="M30.4,44h0a.28.28,0,0,1-.24-.33l.21-1.07a.3.3,0,0,1,.35-.23h0a.28.28,0,0,1,.24.33l-.21,1.08A.3.3,0,0,1,30.4,44Z" transform="translate(-2.68 -7.92)"/><path class="cls-3" d="M41.18,43.92h0a.28.28,0,0,1-.24-.33l.22-1.07a.3.3,0,0,1,.35-.23h0a.29.29,0,0,1,.24.33l-.21,1.08A.3.3,0,0,1,41.18,43.92Z" transform="translate(-2.68 -7.92)"/><path class="cls-3" d="M52,43.92h0a.28.28,0,0,1-.24-.33l.22-1.07a.29.29,0,0,1,.35-.23h0a.29.29,0,0,1,.24.33l-.21,1.08A.3.3,0,0,1,52,43.92Z" transform="translate(-2.68 -7.92)"/><path class="cls-3" d="M52.7,40.22h0a.29.29,0,0,1-.24-.33l.21-1.08a.3.3,0,0,1,.35-.22h0a.28.28,0,0,1,.24.33L53.05,40A.3.3,0,0,1,52.7,40.22Z" transform="translate(-2.68 -7.92)"/><path class="cls-3" d="M47.16,40.27h0a.29.29,0,0,1-.24-.33l.21-1.08a.3.3,0,0,1,.35-.22h0a.29.29,0,0,1,.25.33L47.51,40A.3.3,0,0,1,47.16,40.27Z" transform="translate(-2.68 -7.92)"/><path class="cls-3" d="M41.86,40.27h0a.29.29,0,0,1-.24-.33l.21-1.08a.3.3,0,0,1,.36-.22h0a.29.29,0,0,1,.24.33L42.21,40A.3.3,0,0,1,41.86,40.27Z" transform="translate(-2.68 -7.92)"/><path class="cls-3" d="M31.13,40.27h0a.29.29,0,0,1-.24-.33l.22-1.08a.29.29,0,0,1,.35-.22h0a.29.29,0,0,1,.24.33L31.49,40A.3.3,0,0,1,31.13,40.27Z" transform="translate(-2.68 -7.92)"/><path class="cls-3" d="M31.84,36.7h0a.29.29,0,0,1-.24-.34l.22-1.07a.29.29,0,0,1,.35-.23h0a.29.29,0,0,1,.24.33l-.21,1.08A.32.32,0,0,1,31.84,36.7Z" transform="translate(-2.68 -7.92)"/><path class="cls-3" d="M37.25,36.64h0a.29.29,0,0,1-.25-.33l.22-1.08a.31.31,0,0,1,.35-.23h0a.29.29,0,0,1,.24.34l-.21,1.07A.3.3,0,0,1,37.25,36.64Z" transform="translate(-2.68 -7.92)"/><path class="cls-3" d="M42.62,36.7h0a.29.29,0,0,1-.24-.34l.21-1.07a.3.3,0,0,1,.35-.23h0a.28.28,0,0,1,.24.33L43,36.47A.31.31,0,0,1,42.62,36.7Z" transform="translate(-2.68 -7.92)"/><path class="cls-3" d="M53.33,36.65h0a.29.29,0,0,1-.25-.34l.22-1.07a.3.3,0,0,1,.35-.23h0a.29.29,0,0,1,.24.33l-.21,1.08A.31.31,0,0,1,53.33,36.65Z" transform="translate(-2.68 -7.92)"/></g><path class="cls-3" d="M35.86,44.06h0a.21.21,0,0,1-.18-.24l.3-1.53a.22.22,0,0,1,.26-.16h0a.21.21,0,0,1,.18.24l-.3,1.52A.22.22,0,0,1,35.86,44.06Z" transform="translate(-2.68 -7.92)"/></g></svg>