<?xml version="1.0" encoding="UTF-8"?><!DOCTYPE svg PUBLIC "-//W3C//DTD SVG 1.1//EN" "http://www.w3.org/Graphics/SVG/1.1/DTD/svg11.dtd"><svg xmlns="http://www.w3.org/2000/svg" xmlns:xlink="http://www.w3.org/1999/xlink" version="1.1" x="0px" y="0px" viewBox="0 0 64 64" xml:space="preserve"><g id="flat"><g id="rainy_4_"><path fill="#3EBBDD" d="M16.117 50a1 1 0 0 1-.986-1.174l.353-2a.999.999 0 1 1 1.969.348l-.353 2a.997.997 0 0 1-.983.826z"/><path fill="#3EBBDD" d="M15.059 56a1 1 0 0 1-.986-1.174l.353-2a1 1 0 0 1 1.969.348l-.353 2a.999.999 0 0 1-.983.826z"/><path fill="#3EBBDD" d="M14.001 62a1 1 0 0 1-.986-1.174l.353-2a1 1 0 0 1 1.969.348l-.353 2a.998.998 0 0 1-.983.826z"/><path fill="#3EBBDD" d="M24.648 50a1 1 0 0 1-.986-1.174l.353-2a1 1 0 0 1 1.969.348l-.353 2a.997.997 0 0 1-.983.826z"/><path fill="#3EBBDD" d="M23.591 56a1 1 0 0 1-.986-1.174l.353-2a1 1 0 0 1 1.969.348l-.353 2a.999.999 0 0 1-.983.826z"/><path fill="#3EBBDD" d="M22.532 62a1 1 0 0 1-.986-1.174l.353-2a1 1 0 1 1 1.969.348l-.353 2a.997.997 0 0 1-.983.826z"/><path fill="#3EBBDD" d="M32.883 50a1 1 0 0 1-.986-1.174l.353-2a1 1 0 0 1 1.969.348l-.353 2a.999.999 0 0 1-.983.826z"/><path fill="#3EBBDD" d="M31.824 56a1 1 0 0 1-.986-1.174l.354-2a1 1 0 0 1 1.969.348l-.354 2a.997.997 0 0 1-.983.826z"/><path fill="#3EBBDD" d="M30.767 62a1 1 0 0 1-.986-1.174l.353-2a1 1 0 1 1 1.969.348l-.353 2a.999.999 0 0 1-.983.826z"/><path fill="#3EBBDD" d="M41.117 50a1 1 0 0 1-.986-1.174l.353-2a1 1 0 0 1 1.969.348l-.353 2a.997.997 0 0 1-.983.826z"/><path fill="#3EBBDD" d="M40.059 56a1 1 0 0 1-.986-1.174l.353-2a1 1 0 1 1 1.969.348l-.353 2a.999.999 0 0 1-.983.826z"/><path fill="#3EBBDD" d="M39.001 62a1 1 0 0 1-.986-1.174l.353-2a1 1 0 1 1 1.969.348l-.353 2a.998.998 0 0 1-.983.826z"/><path fill="#3EBBDD" d="M49.648 50a1 1 0 0 1-.986-1.174l.353-2a.999.999 0 1 1 1.969.348l-.353 2a.997.997 0 0 1-.983.826z"/><path fill="#3EBBDD" d="M48.591 56a1 1 0 0 1-.986-1.174l.353-2a1 1 0 1 1 1.969.348l-.353 2a.999.999 0 0 1-.983.826z"/><path fill="#3EBBDD" d="M47.532 62a1 1 0 0 1-.986-1.174l.353-2a1 1 0 0 1 1.969.348l-.353 2a.997.997 0 0 1-.983.826z"/><path fill="#E6E6E6" d="M54.75 22.102c.166-.687.25-1.39.25-2.102 0-4.842-3.844-8.804-8.641-8.993A12.982 12.982 0 0 0 34 2c-4.15 0-8.008 1.964-10.459 5.288a11.468 11.468 0 0 0-5.71.16c-4.182 1.19-7.38 4.72-8.146 8.992a11.459 11.459 0 0 0 .4 5.657C5.52 22.755 2 26.694 2 31.439v3.037C2 39.728 6.272 44 11.524 44h41.889C58.147 44 62 40.148 62 35.413v-4.902c0-4.245-3.124-7.774-7.25-8.409z"/><path fill="#CCC" d="M58.501 23.658c.32.893.499 1.852.499 2.853v4.902C59 36.148 55.147 40 50.413 40H8.524a9.46 9.46 0 0 1-5.849-2.024C4.074 41.499 7.509 44 11.524 44h41.889C58.147 44 62 40.148 62 35.413v-4.902c0-2.811-1.375-5.303-3.499-6.853z"/></g></g><metadata><rdf:RDF xmlns:rdf="http://www.w3.org/1999/02/22-rdf-syntax-ns#" xmlns:rdfs="http://www.w3.org/2000/01/rdf-schema#" xmlns:dc="http://purl.org/dc/elements/1.1/"><rdf:Description about="https://iconscout.com/legal#licenses" dc:title="rainy-season-cloudy-cloud-rain" dc:description="rainy-season-cloudy-cloud-rain" dc:publisher="Iconscout" dc:date="2018-03-23" dc:format="image/svg+xml" dc:language="en"><dc:creator><rdf:Bag><rdf:li>Petai Jantrapoon</rdf:li></rdf:Bag></dc:creator></rdf:Description></rdf:RDF></metadata></svg>