<svg id="Layer_1" data-name="Layer 1" xmlns="http://www.w3.org/2000/svg" viewBox="0 0 60 55.13"><defs><style>.cls-1{fill:#3ebbdd;}.cls-2{fill:#38a8c7;}</style></defs><g id="flat"><g id="foggy"><path class="cls-1" d="M50,14.33v-.05A12,12,0,0,0,26.75,10.1,10,10,0,0,0,11,18.28v.19A11,11,0,1,0,20.93,36.9,12,12,0,0,0,42.3,38.41,12.88,12.88,0,0,0,49,40.28a13,13,0,0,0,1-25.95Z" transform="translate(-2 -2.28)"/><path class="cls-2" d="M57.92,17.85C54.06,26.72,40.34,33.28,24,33.28A52,52,0,0,1,2,28.73c0,.19,0,.37,0,.55A11,11,0,0,0,20.93,36.9,12,12,0,0,0,42.3,38.41,12.88,12.88,0,0,0,49,40.28a13,13,0,0,0,8.92-22.43Z" transform="translate(-2 -2.28)"/><g id="flat-2" data-name="flat"><g id="snowflake"><path class="cls-1" d="M37.9,53.11a.31.31,0,1,0,.35.31A.34.34,0,0,0,37.9,53.11Zm0,.5a.2.2,0,0,1-.22-.19.21.21,0,0,1,.22-.19.21.21,0,0,1,.21.19A.2.2,0,0,1,37.9,53.61Z" transform="translate(-2 -2.28)"/><path class="cls-1" d="M39.82,53.23a.21.21,0,0,0-.2.13h-.18l.09-.16a.06.06,0,0,0,0-.08.08.08,0,0,0-.1,0l-.12.22h-.14l.11-.23a.07.07,0,0,0,0-.08.08.08,0,0,0-.1,0h0l-.12.27h-.46a.51.51,0,0,0-.13-.29l.13-.11.31.11a.08.08,0,0,0,.09,0h0a.05.05,0,0,0,0-.08l-.25-.1.09-.08.26.07s.08,0,.09,0a.05.05,0,0,0,0-.08l-.19,0,.12-.12.1,0a.27.27,0,0,0,.15,0,.2.2,0,0,0,.06-.14.18.18,0,0,0-.06-.13.25.25,0,0,0-.31,0,.18.18,0,0,0-.06.13.19.19,0,0,0,0,.08l-.13.12-.06-.17a.08.08,0,0,0-.09,0,.07.07,0,0,0-.05.08l.09.23-.09.08-.11-.22a.08.08,0,0,0-.1,0,.07.07,0,0,0,0,.09l.13.27L38.3,53a.77.77,0,0,0-.33-.12v-.4l.31-.11a.06.06,0,0,0,0-.08.07.07,0,0,0-.09,0l-.26.09v-.12l.24-.11a.06.06,0,0,0,0-.08.08.08,0,0,0-.1,0h0l-.18.08v-.16a.2.2,0,0,0,.14-.18.21.21,0,0,0-.21-.19.21.21,0,0,0-.22.19.2.2,0,0,0,.15.18v.16L37.64,52a.07.07,0,0,0-.09,0s0,.06,0,.08l.25.11v.12l-.26-.09a.08.08,0,0,0-.1,0,.07.07,0,0,0,0,.08l.32.11v.4a.69.69,0,0,0-.33.12l-.13-.11.13-.27a.07.07,0,0,0,0-.09s-.08,0-.09,0h0l-.11.22-.1-.08.09-.23a.07.07,0,0,0,0-.08.07.07,0,0,0-.09,0h0l-.06.17-.13-.12a.19.19,0,0,0,0-.08.18.18,0,0,0-.06-.13.24.24,0,0,0-.3,0,.19.19,0,0,0-.07.13.21.21,0,0,0,.07.14.25.25,0,0,0,.15,0l.09,0,.13.12-.2,0a.07.07,0,0,0,0,.08.08.08,0,0,0,.09,0l.26-.07.1.08-.26.1a.06.06,0,0,0,0,.08.09.09,0,0,0,.1,0h0l.3-.11.14.11a.47.47,0,0,0-.14.29H36.8l-.12-.27a.07.07,0,0,0-.09,0,.05.05,0,0,0,0,.08l.1.23h-.13l-.13-.22a.07.07,0,0,0-.09,0,.06.06,0,0,0,0,.08l.1.16h-.19a.21.21,0,0,0-.2-.13.2.2,0,0,0-.21.19.2.2,0,0,0,.21.19.21.21,0,0,0,.2-.13h.19l-.1.16a.07.07,0,0,0,0,.09.08.08,0,0,0,.09,0h0l.13-.22h.13l-.1.23a.05.05,0,0,0,0,.08.07.07,0,0,0,.09,0l.12-.28h.46a.47.47,0,0,0,.14.29l-.14.12-.3-.12a.1.1,0,0,0-.1,0,.07.07,0,0,0,0,.08l.26.09-.1.09L36.8,54a.08.08,0,0,0-.09,0,.07.07,0,0,0,0,.08h0l.2.06-.13.11a.23.23,0,0,0-.24,0,.16.16,0,0,0,0,.26.2.2,0,0,0,.15.06.22.22,0,0,0,.15-.06.16.16,0,0,0,.06-.13.19.19,0,0,0,0-.08l.13-.11.06.17a.08.08,0,0,0,.09,0,.07.07,0,0,0,0-.08h0l-.09-.23.1-.09.11.23s.05,0,.09,0h0a.06.06,0,0,0,0-.08h0L37.37,54l.13-.12a.6.6,0,0,0,.33.12v.4l-.32.11a.06.06,0,0,0,0,.08.08.08,0,0,0,.09,0l.26-.09v.12l-.25.1a.06.06,0,0,0,0,.09.08.08,0,0,0,.09,0l.19-.08v.16a.18.18,0,0,0-.15.17.2.2,0,0,0,.22.19.2.2,0,0,0,.21-.19.18.18,0,0,0-.14-.17v-.16l.18.08a.1.1,0,0,0,.1,0,.07.07,0,0,0,0-.09l-.24-.1v-.12l.26.09a.09.09,0,0,0,.09,0,.06.06,0,0,0,0-.08h0L38,54.38V54a.66.66,0,0,0,.33-.12l.13.12-.13.27a.06.06,0,0,0,0,.08.09.09,0,0,0,.1,0h0l.11-.23.09.09-.08.23s0,.06,0,.08a.09.09,0,0,0,.09,0h0l.06-.17.13.11a.19.19,0,0,0,0,.08.16.16,0,0,0,.06.13.25.25,0,0,0,.16.06.22.22,0,0,0,.15-.06.17.17,0,0,0,0-.26.24.24,0,0,0-.24,0l-.13-.11.19-.06a.05.05,0,0,0,0-.08A.08.08,0,0,0,39,54l-.26.08L38.64,54l.25-.09s.06,0,0-.08a.07.07,0,0,0-.09,0l-.31.12-.13-.12a.51.51,0,0,0,.13-.29H39l.12.28a.08.08,0,0,0,.1,0,.07.07,0,0,0,0-.08h0l-.11-.23h.14l.12.22a.09.09,0,0,0,.1,0h0a.07.07,0,0,0,0-.09h0l-.09-.16h.18a.21.21,0,0,0,.2.13.2.2,0,0,0,.21-.19A.2.2,0,0,0,39.82,53.23Zm-.8-.88,0,0a.07.07,0,0,1,.07.06.08.08,0,0,1,0,0,.09.09,0,0,1-.1,0A.06.06,0,0,1,39,52.35Zm-1.12-.68a.07.07,0,0,1,.07.06s0,.06-.07.06-.07,0-.07-.06h0A.07.07,0,0,1,37.9,51.67Zm-1.22.77a.06.06,0,0,1,0-.09l0,0a.07.07,0,0,1,.07.06.08.08,0,0,1,0,0A.09.09,0,0,1,36.68,52.44Zm-.71,1a.07.07,0,0,1-.07-.06.09.09,0,0,1,.07-.06.07.07,0,0,1,.07.06S36,53.48,36,53.48Zm.81,1a.07.07,0,0,1-.1,0,0,0,0,0,1,0-.08.07.07,0,0,1,.1,0A.06.06,0,0,1,36.78,54.49Zm1.12.69a.08.08,0,0,1-.07-.07.07.07,0,0,1,.07-.06.06.06,0,0,1,.06.07S37.93,55.17,37.9,55.18Zm0-1.32a.44.44,0,1,1,0-.88.44.44,0,1,1,0,.88Zm1.22.55a.06.06,0,0,1,0,.08.07.07,0,0,1-.1,0,0,0,0,0,1,0-.08s0,0,0,0A.06.06,0,0,1,39.12,54.41Zm.7-.93a.06.06,0,1,1,.07-.06S39.86,53.48,39.82,53.48Z" transform="translate(-2 -2.28)"/></g></g><g id="flat-3" data-name="flat"><g id="snowflake-2" data-name="snowflake"><path class="cls-1" d="M52.75,45.8a.41.41,0,1,0,0,.82.41.41,0,1,0,0-.82Zm0,.66a.25.25,0,1,1,0-.5.25.25,0,1,1,0,.5Z" transform="translate(-2 -2.28)"/><path class="cls-1" d="M55.2,46a.27.27,0,0,0-.25.17h-.23l.11-.21a.08.08,0,0,0,0-.11.09.09,0,0,0-.12,0l-.16.29h-.17l.13-.3a.08.08,0,0,0,0-.11.11.11,0,0,0-.12.05h0l-.15.36h-.58a.71.71,0,0,0-.18-.38l.17-.15.39.15a.09.09,0,0,0,.12,0h0a.08.08,0,0,0,0-.11l-.32-.13.12-.11.33.1a.1.1,0,0,0,.12-.05.08.08,0,0,0-.06-.1L54,45.23l.17-.15a.2.2,0,0,0,.11,0,.28.28,0,0,0,.2-.08.22.22,0,0,0,0-.34.29.29,0,0,0-.39,0,.21.21,0,0,0-.08.17A.23.23,0,0,0,54,45l-.17.14-.08-.22s-.07-.06-.11,0a.08.08,0,0,0-.06.1l.11.3-.12.12-.14-.3a.09.09,0,0,0-.12,0,.08.08,0,0,0-.05.11l.17.35-.17.15a.86.86,0,0,0-.41-.16V45l.39-.14a.08.08,0,0,0,0-.11.11.11,0,0,0-.12-.05l-.32.12v-.15l.31-.15a.08.08,0,0,0,0-.11.09.09,0,0,0-.12,0h0l-.23.1v-.21A.26.26,0,0,0,53,44a.27.27,0,0,0-.28-.25.26.26,0,0,0-.27.25.25.25,0,0,0,.18.23v.21l-.23-.1a.09.09,0,0,0-.12,0,.08.08,0,0,0,0,.11l.31.15v.15l-.33-.12a.1.1,0,0,0-.11.05.08.08,0,0,0,.05.11l.39.14v.52a.86.86,0,0,0-.41.16l-.17-.15.17-.36a.07.07,0,0,0,0-.1.1.1,0,0,0-.12,0h0l-.14.3-.12-.12.11-.3a.07.07,0,0,0-.06-.1.09.09,0,0,0-.11,0h0l-.09.22L51.51,45a.23.23,0,0,0,0-.11.21.21,0,0,0-.08-.17.29.29,0,0,0-.39,0,.22.22,0,0,0,0,.34.28.28,0,0,0,.2.08.2.2,0,0,0,.11,0l.17.15-.25.08a.07.07,0,0,0,0,.1.09.09,0,0,0,.11.05l.33-.1.12.11-.32.13a.08.08,0,0,0-.05.11.09.09,0,0,0,.12,0h0L52,45.6l.17.15a.71.71,0,0,0-.18.38h-.58l-.15-.36a.1.1,0,0,0-.12-.05.08.08,0,0,0-.05.11l.13.3H51l-.16-.29a.09.09,0,0,0-.12,0,.07.07,0,0,0,0,.11l.11.21h-.23A.28.28,0,0,0,50.3,46a.25.25,0,1,0,0,.5.28.28,0,0,0,.26-.17h.23l-.11.21a.07.07,0,0,0,0,.11.09.09,0,0,0,.12,0h0l.16-.28h.17l-.13.3a.08.08,0,0,0,.05.11.11.11,0,0,0,.12-.05l.15-.36h.58a.71.71,0,0,0,.18.38l-.17.15-.39-.15a.1.1,0,0,0-.12,0s0,.08.05.1l.32.13-.12.11-.33-.1a.1.1,0,0,0-.12,0,.08.08,0,0,0,.06.1h0l.25.08-.17.15a.31.31,0,0,0-.31,0,.25.25,0,0,0-.08.18.23.23,0,0,0,.08.17.28.28,0,0,0,.2.08.27.27,0,0,0,.19-.08.22.22,0,0,0,0-.28l.16-.15.09.23a.09.09,0,0,0,.11,0,.08.08,0,0,0,.06-.1h0l-.11-.3.12-.11.14.3a.09.09,0,0,0,.12,0h0a.08.08,0,0,0,0-.11h0l-.17-.35.17-.15a.85.85,0,0,0,.41.15v.53l-.39.14a.08.08,0,0,0-.05.11.1.1,0,0,0,.11.05l.33-.12v.15l-.31.14a.08.08,0,0,0,0,.11.09.09,0,0,0,.12,0l.23-.1v.21a.25.25,0,0,0-.18.23.27.27,0,0,0,.27.25.28.28,0,0,0,.28-.25.25.25,0,0,0-.18-.23V48l.23.1a.09.09,0,0,0,.12,0,.08.08,0,0,0,0-.11l-.31-.14v-.15l.32.12a.11.11,0,0,0,.12-.05.08.08,0,0,0,0-.11h0l-.39-.14v-.53a.85.85,0,0,0,.41-.15l.17.15-.17.35a.08.08,0,0,0,.05.11.09.09,0,0,0,.12,0h0l.14-.3.12.11-.11.3a.09.09,0,0,0,.05.11.1.1,0,0,0,.12,0h0l.08-.23.17.15a.22.22,0,0,0,0,.28.27.27,0,0,0,.19.08.28.28,0,0,0,.2-.08.23.23,0,0,0,.08-.17.25.25,0,0,0-.08-.18.31.31,0,0,0-.31,0L54,47.19l.25-.08a.07.07,0,0,0,0-.1.08.08,0,0,0-.11,0l-.33.1L53.7,47l.32-.13a.08.08,0,0,0,0-.11.09.09,0,0,0-.12,0l-.39.15-.17-.15a.71.71,0,0,0,.18-.38h.58l.15.36a.11.11,0,0,0,.12.05.08.08,0,0,0,0-.11h0l-.13-.3h.17l.16.28a.09.09,0,0,0,.12,0h0a.08.08,0,0,0,0-.11h0l-.11-.21H55a.27.27,0,0,0,.25.17.25.25,0,1,0,0-.5Zm-1-1.16.06,0a.08.08,0,0,1,.09.08.07.07,0,0,1,0,.06.11.11,0,0,1-.13,0A.07.07,0,0,1,54.18,44.8Zm-1.43-.89a.09.09,0,0,1,.1.08s0,.08-.1.08a.08.08,0,0,1-.09-.08h0A.08.08,0,0,1,52.75,43.91Zm-1.55,1a.09.09,0,0,1,0-.12l.07,0a.09.09,0,0,1,.09.08.09.09,0,0,1,0,.06A.11.11,0,0,1,51.2,44.92Zm-.9,1.37a.08.08,0,0,1,0-.16.09.09,0,0,1,.09.08A.08.08,0,0,1,50.3,46.29Zm1,1.33a.11.11,0,0,1-.13,0,.08.08,0,0,1,0-.12.08.08,0,0,1,.12.12Zm1.42.89a.08.08,0,0,1,0-.16.09.09,0,0,1,.09.08A.08.08,0,0,1,52.75,48.51Zm0-1.73a.6.6,0,0,1-.63-.57.61.61,0,0,1,.63-.58.61.61,0,0,1,.64.58A.61.61,0,0,1,52.75,46.78Zm1.56.72a.09.09,0,0,1,0,.12.11.11,0,0,1-.13,0,.07.07,0,0,1,0-.12l.06,0A.08.08,0,0,1,54.31,47.5Zm.89-1.21a.08.08,0,0,1,0-.16.09.09,0,0,1,.09.08A.08.08,0,0,1,55.2,46.29Z" transform="translate(-2 -2.28)"/></g></g><g id="flat-4" data-name="flat"><g id="snowflake-3" data-name="snowflake"><path class="cls-1" d="M21.76,44.84a.35.35,0,1,0,.41.35A.37.37,0,0,0,21.76,44.84Zm0,.55a.21.21,0,1,1,0-.41.21.21,0,1,1,0,.41Z" transform="translate(-2 -2.28)"/><path class="cls-1" d="M24,45a.23.23,0,0,0-.23.14h-.21l.11-.18a.06.06,0,0,0,0-.09.08.08,0,0,0-.11,0l-.14.24h-.15l.11-.25a.06.06,0,0,0,0-.09.09.09,0,0,0-.11,0h0l-.14.31h-.51a.58.58,0,0,0-.16-.32l.15-.13.35.13a.09.09,0,0,0,.11,0h0a.07.07,0,0,0-.05-.09l-.29-.11.11-.09.3.09a.08.08,0,0,0,.1-.05.08.08,0,0,0-.05-.09l-.22-.06.15-.12.1,0a.24.24,0,0,0,.17-.06.19.19,0,0,0,.07-.15.18.18,0,0,0-.07-.15.27.27,0,0,0-.34,0,.18.18,0,0,0-.07.15.29.29,0,0,0,0,.09l-.14.12-.08-.18a.08.08,0,0,0-.1,0,.08.08,0,0,0-.05.09l.1.25-.11.1-.13-.25s-.06,0-.1,0-.06.06,0,.09l.15.3-.15.13a.82.82,0,0,0-.38-.13v-.45L22.2,44a.06.06,0,0,0,0-.09.08.08,0,0,0-.1,0l-.3.1v-.14l.28-.12a.06.06,0,0,0,0-.09.09.09,0,0,0-.11,0h0l-.21.09v-.18a.22.22,0,0,0,.17-.19.23.23,0,0,0-.25-.21.23.23,0,0,0-.24.21.21.21,0,0,0,.16.19v.18l-.2-.09a.09.09,0,0,0-.11,0s0,.08,0,.09l.28.12V44l-.29-.1a.08.08,0,0,0-.11,0,.07.07,0,0,0,0,.08l.35.12v.45a.82.82,0,0,0-.37.13l-.15-.13.15-.3s0-.07,0-.09a.09.09,0,0,0-.11,0h0l-.12.25-.11-.1.1-.25A.07.07,0,0,0,21,44a.11.11,0,0,0-.11,0h0l-.07.18-.15-.12a.16.16,0,0,0,0-.09.21.21,0,0,0-.07-.15.29.29,0,0,0-.35,0,.21.21,0,0,0-.07.15.23.23,0,0,0,.07.15.28.28,0,0,0,.18.06l.1,0,.15.12-.22.06s-.07.06,0,.09a.08.08,0,0,0,.1.05l.29-.09.11.09-.29.11s-.06.06,0,.09a.09.09,0,0,0,.11,0h0l.35-.13.15.13a.58.58,0,0,0-.16.32h-.52l-.14-.31a.07.07,0,0,0-.1,0,.07.07,0,0,0-.05.09l.12.25H20.2l-.14-.24a.08.08,0,0,0-.11,0,.06.06,0,0,0,0,.09l.11.18h-.21a.24.24,0,0,0-.23-.14.21.21,0,1,0,0,.41.25.25,0,0,0,.23-.13H20l-.11.17a.07.07,0,0,0,0,.1.09.09,0,0,0,.11,0h0l.14-.23h.15l-.12.25a.08.08,0,0,0,.05.09.09.09,0,0,0,.1,0l.14-.3H21a.58.58,0,0,0,.16.31l-.15.13-.35-.13a.1.1,0,0,0-.11,0,.08.08,0,0,0,0,.09l.29.11-.11.09-.29-.08a.07.07,0,0,0-.1,0s0,.07,0,.09h0l.22.06-.15.13a.26.26,0,0,0-.28,0,.19.19,0,0,0-.07.14.21.21,0,0,0,.07.15.28.28,0,0,0,.18.06.27.27,0,0,0,.17-.06.21.21,0,0,0,.07-.15.16.16,0,0,0,0-.09l.15-.12.07.19a.1.1,0,0,0,.1,0,.07.07,0,0,0,.06-.08h0l-.1-.25.11-.09.12.24a.08.08,0,0,0,.11,0h0a.06.06,0,0,0,0-.09h0l-.15-.3.15-.13a.72.72,0,0,0,.37.13v.45l-.35.12a.06.06,0,0,0,0,.09.09.09,0,0,0,.1,0l.29-.1v.13l-.28.12a.06.06,0,0,0,0,.09.09.09,0,0,0,.11,0l.2-.09v.18a.2.2,0,0,0,.08.4.23.23,0,0,0,.25-.2.22.22,0,0,0-.17-.2v-.18l.21.09a.09.09,0,0,0,.11,0,.06.06,0,0,0,0-.09l-.28-.12V46.4l.3.1a.09.09,0,0,0,.1,0,.06.06,0,0,0,0-.09h0l-.36-.12v-.44a.83.83,0,0,0,.38-.14l.15.13-.15.3a.06.06,0,0,0,0,.09.07.07,0,0,0,.1,0h0l.13-.24.11.09-.1.25a.07.07,0,0,0,.05.09s.09,0,.1,0h0l.08-.19.14.12a.29.29,0,0,0,0,.09.18.18,0,0,0,.07.15.27.27,0,0,0,.17.06.24.24,0,0,0,.17-.06.18.18,0,0,0,.07-.15.16.16,0,0,0-.07-.14.24.24,0,0,0-.27,0L22.84,46l.22-.06a.07.07,0,0,0,.05-.09.07.07,0,0,0-.1,0l-.3.08-.11-.09.29-.11a.07.07,0,0,0,.05-.09.09.09,0,0,0-.11,0l-.35.13-.15-.13a.58.58,0,0,0,.16-.31H23l.14.3a.11.11,0,0,0,.11,0s.06-.06,0-.09h0l-.11-.25h.15l.14.23a.08.08,0,0,0,.11,0h0a.06.06,0,0,0,0-.09h0l-.11-.17h.21a.23.23,0,0,0,.23.13A.21.21,0,1,0,24,45ZM23,44l.06,0a.07.07,0,0,1,.08.07.08.08,0,0,1,0,.05.13.13,0,0,1-.12,0A.07.07,0,0,1,23,44Zm-1.27-.75a.07.07,0,0,1,.08.07.08.08,0,0,1-.08.07.09.09,0,0,1-.08-.07h0A.08.08,0,0,1,21.76,43.25Zm-1.38.85a.07.07,0,0,1,0-.1l.06,0a.08.08,0,0,1,.08.07.05.05,0,0,1,0,.05A.11.11,0,0,1,20.38,44.1Zm-.8,1.16s-.08,0-.08-.08,0-.06.08-.06a.08.08,0,0,1,.08.07S19.62,45.25,19.58,45.26Zm.91,1.11a.08.08,0,0,1-.11,0,.07.07,0,0,1,0-.1.11.11,0,0,1,.11,0A.07.07,0,0,1,20.49,46.37Zm1.27.75s-.08,0-.07-.07a.07.07,0,0,1,.07-.06.07.07,0,0,1,.08.07S21.81,47.12,21.76,47.12Zm0-1.45a.49.49,0,1,1,.57-.48A.53.53,0,0,1,21.76,45.67Zm1.39.6a.07.07,0,0,1,0,.1.09.09,0,0,1-.12,0,.07.07,0,0,1,0-.1l.06,0Zm.8-1c-.05,0-.08,0-.08-.08s0-.06.08-.06.08,0,.07.07A.08.08,0,0,1,24,45.26Z" transform="translate(-2 -2.28)"/></g></g><g id="flat-5" data-name="flat"><g id="snowflake-4" data-name="snowflake"><path class="cls-1" d="M17.69,53.46a.26.26,0,1,0,.28.26A.28.28,0,0,0,17.69,53.46Zm0,.41a.15.15,0,1,1,.17-.15A.17.17,0,0,1,17.69,53.87Z" transform="translate(-2 -2.28)"/><path class="cls-1" d="M19.19,53.57a.15.15,0,0,0-.15.1h-.15l.08-.13a.05.05,0,0,0,0-.07.06.06,0,0,0-.07,0l-.1.18h-.11l.08-.19s0,0,0-.06a.05.05,0,0,0-.07,0h0l-.1.22h-.35a.44.44,0,0,0-.11-.24l.1-.09.25.09a.06.06,0,0,0,.07,0h0a.05.05,0,0,0,0-.07l-.2-.08.07-.07.21.06a.05.05,0,0,0,.07,0s0,0,0-.06l-.15,0,.1-.09h.07a.15.15,0,0,0,.12-.26.17.17,0,0,0-.23,0,.16.16,0,0,0,0,.11.17.17,0,0,0,0,.07l-.1.09-.05-.14a.05.05,0,0,0-.07,0,0,0,0,0,0,0,.06l.07.19-.08.07L18.1,53A.06.06,0,0,0,18,53a.05.05,0,0,0,0,.07l.11.22-.11.09a.55.55,0,0,0-.25-.1v-.32l.24-.09a.05.05,0,0,0,0-.1l-.2.08v-.1l.19-.09a0,0,0,0,0,0-.07.06.06,0,0,0-.07,0h0l-.14.06v-.13a.16.16,0,0,0,.11-.14.17.17,0,0,0-.34,0,.15.15,0,0,0,.11.14v.13l-.14-.06a.06.06,0,0,0-.07,0,0,0,0,0,0,0,.07l.19.09v.1l-.2-.08a.05.05,0,1,0,0,.1l.24.09v.32a.55.55,0,0,0-.25.1l-.11-.09.11-.23a0,0,0,0,0,0-.06.06.06,0,0,0-.07,0h0l-.09.19-.07-.07.06-.19a0,0,0,0,0,0-.06.05.05,0,0,0-.07,0h0L17,53l-.1-.09a.17.17,0,0,0,0-.07.13.13,0,0,0-.05-.11.17.17,0,0,0-.23,0,.15.15,0,0,0,.12.26h.07l.1.09-.15,0s-.05,0,0,.06a.05.05,0,0,0,.07,0l.21-.06.07.07-.2.08a.05.05,0,0,0,0,.07.07.07,0,0,0,.08,0h0l.24-.09.1.09a.44.44,0,0,0-.11.24h-.35l-.1-.23a.06.06,0,0,0-.07,0s-.05,0,0,.06l.08.19h-.11l-.1-.18a.06.06,0,0,0-.07,0,.05.05,0,0,0,0,.07l.08.13h-.15a.15.15,0,0,0-.15-.1.15.15,0,1,0,0,.3.15.15,0,0,0,.15-.1h.15l-.08.13a.05.05,0,0,0,0,.07.06.06,0,0,0,.07,0h0l.1-.18h.11l-.08.19s0,0,0,.06a.05.05,0,0,0,.07,0l.1-.22h.35a.44.44,0,0,0,.11.24l-.1.09L17,54a.06.06,0,0,0-.08,0s0,.05,0,.06l.2.08-.07.07-.21-.06a.05.05,0,0,0-.07,0s0,.05,0,.06h0l.15,0-.1.09a.21.21,0,0,0-.19,0,.15.15,0,0,0,.12.26.15.15,0,0,0,.11,0,.13.13,0,0,0,.05-.11.17.17,0,0,0,0-.07l.1-.09,0,.14a.05.05,0,0,0,.07,0s0,0,0-.06h0l-.07-.19.08-.07.09.18a.05.05,0,0,0,.07,0h0a.05.05,0,0,0,0-.07h0l-.11-.22.11-.09a.55.55,0,0,0,.25.1v.32l-.24.09a.05.05,0,1,0,0,.1l.2-.08v.1l-.19.09a0,0,0,0,0,0,.07.06.06,0,0,0,.07,0l.14-.06V55a.16.16,0,0,0-.11.14.17.17,0,0,0,.34,0,.16.16,0,0,0-.11-.14v-.13l.14.06a.06.06,0,0,0,.07,0,0,0,0,0,0,0-.07l-.19-.09v-.1l.2.08a.05.05,0,0,0,0-.1h0l-.24-.09v-.32a.55.55,0,0,0,.25-.1l.11.09-.11.22a.05.05,0,0,0,.1,0h0l.09-.18.08.07-.07.19a0,0,0,0,0,0,.06.05.05,0,0,0,.07,0h0l.05-.14.1.09a.17.17,0,0,0,0,.07.13.13,0,0,0,0,.11.15.15,0,0,0,.11,0,.15.15,0,0,0,.12-.26.21.21,0,0,0-.19,0l-.1-.09.15,0s.05,0,0-.06a.05.05,0,0,0-.07,0l-.21.06-.07-.07.2-.08a.05.05,0,0,0,0-.07s-.05,0-.07,0l-.25.09-.1-.09a.44.44,0,0,0,.11-.24h.35l.1.22a.05.05,0,0,0,.07,0s.05,0,0-.06h0l-.08-.19h.11l.1.18a.06.06,0,0,0,.07,0h0a.05.05,0,0,0,0-.07h0l-.08-.13H19a.15.15,0,0,0,.15.1.15.15,0,1,0,0-.3Zm-.62-.73h0s.06,0,.06.05l0,0a0,0,0,0,1-.07,0A0,0,0,0,1,18.57,52.84Zm-.88-.55a.05.05,0,1,1-.06.05h0A.06.06,0,0,1,17.69,52.29Zm-1,.63a0,0,0,0,1,0-.08h0a0,0,0,0,1,0,.05,0,0,0,0,1,0,0A0,0,0,0,1,16.74,52.92Zm-.55.85s-.06,0-.06-.05a.06.06,0,0,1,.06,0,0,0,0,0,1,0,0A.05.05,0,0,1,16.19,53.77Zm.62.83h-.07a.06.06,0,0,1,0-.08.09.09,0,0,1,.07,0A0,0,0,0,1,16.81,54.6Zm.88.55a0,0,0,1,1,0-.1,0,0,0,0,1,0,.1A0,0,0,0,1,17.69,55.15Zm0-1.07a.36.36,0,1,1,0-.72.36.36,0,1,1,0,.72Zm.95.44a0,0,0,0,1,0,.08h-.07a0,0,0,0,1,0-.08h.07Zm.55-.75a0,0,0,0,1-.05-.05.05.05,0,0,1,.05,0s.06,0,.06,0A.06.06,0,0,1,19.19,53.77Z" transform="translate(-2 -2.28)"/></g></g><rect class="cls-1" x="10.92" y="45.26" width="2.38" height="2.38" rx="0.89" transform="translate(9.05 -3.82) rotate(13.35)"/><rect class="cls-1" x="25.02" y="53.38" width="2.38" height="2.38" rx="0.89" transform="translate(11.31 -6.86) rotate(13.35)"/><rect class="cls-1" x="8.52" y="55.64" width="1.77" height="1.77" rx="0.89" transform="translate(11.31 -2.93) rotate(13.35)"/><rect class="cls-1" x="30.75" y="49.27" width="1.77" height="1.77" rx="0.89" transform="translate(10.44 -8.23) rotate(13.35)"/><rect class="cls-1" x="40.83" y="45.89" width="1.77" height="1.77" rx="0.89" transform="translate(9.93 -10.65) rotate(13.35)"/><rect class="cls-1" x="51.29" y="53.98" width="2.38" height="2.38" rx="0.89" transform="translate(12.16 -12.91) rotate(13.35)"/></g></g></svg>