<svg id="Layer_1" data-name="Layer 1" xmlns="http://www.w3.org/2000/svg" viewBox="0 0 61.84 45.48"><defs><style>.cls-1{fill:#3ebbdd;}.cls-2{fill:#e6e6e6;}.cls-3{fill:#ccc;}.cls-4{fill:#c6c6c6;}</style></defs><g id="flat"><g id="rainy"><path class="cls-1" d="M11.27,43.78a.73.73,0,0,1-.73-.72s0-.08,0-.13l.26-1.43a.71.71,0,0,1,.83-.59.72.72,0,0,1,.59.84h0L12,43.18A.72.72,0,0,1,11.27,43.78Z" transform="translate(-1.08 -9.26)"/><path class="cls-1" d="M10.5,48.09a.71.71,0,0,1-.72-.71.53.53,0,0,1,0-.13l.26-1.44a.7.7,0,0,1,.84-.56.72.72,0,0,1,.58.81l-.26,1.44A.72.72,0,0,1,10.5,48.09Z" transform="translate(-1.08 -9.26)"/><path class="cls-1" d="M9.74,52.41A.72.72,0,0,1,9,51.69a.62.62,0,0,1,0-.13l.25-1.43a.72.72,0,0,1,1.42.25l-.25,1.43A.72.72,0,0,1,9.74,52.41Z" transform="translate(-1.08 -9.26)"/><path class="cls-1" d="M17.42,43.78a.72.72,0,0,1-.72-.72.62.62,0,0,1,0-.13L17,41.5a.72.72,0,0,1,1.42.25l-.25,1.43A.72.72,0,0,1,17.42,43.78Z" transform="translate(-1.08 -9.26)"/><path class="cls-1" d="M16.57,48.08a.72.72,0,0,1-.72-.72.62.62,0,0,1,0-.13l.26-1.43a.71.71,0,0,1,.84-.57.73.73,0,0,1,.58.82l-.26,1.43A.72.72,0,0,1,16.57,48.08Z" transform="translate(-1.08 -9.26)"/><path class="cls-1" d="M29.39,43.78a.72.72,0,0,1-.72-.72.62.62,0,0,1,0-.13l.25-1.43a.73.73,0,0,1,.85-.57.74.74,0,0,1,.58.82l-.26,1.43A.72.72,0,0,1,29.39,43.78Z" transform="translate(-1.08 -9.26)"/><path class="cls-1" d="M27.69,52.39a.72.72,0,0,1-.72-.72.49.49,0,0,1,0-.12l.25-1.44a.72.72,0,0,1,.85-.56.71.71,0,0,1,.57.81L28.4,51.8A.72.72,0,0,1,27.69,52.39Z" transform="translate(-1.08 -9.26)"/><path class="cls-1" d="M15.89,52.41a.72.72,0,0,1-.72-.72.62.62,0,0,1,0-.13l.26-1.43a.72.72,0,0,1,.82-.61.73.73,0,0,1,.6.83v0l-.26,1.43A.72.72,0,0,1,15.89,52.41Z" transform="translate(-1.08 -9.26)"/><path class="cls-1" d="M23.36,43.78a.72.72,0,0,1-.72-.72.62.62,0,0,1,0-.13l.25-1.43a.72.72,0,0,1,1.42.25l-.25,1.43A.72.72,0,0,1,23.36,43.78Z" transform="translate(-1.08 -9.26)"/><path class="cls-1" d="M22.6,48.09a.73.73,0,0,1-.73-.71.51.51,0,0,1,0-.13l.25-1.44a.72.72,0,0,1,.85-.56.71.71,0,0,1,.57.81l-.25,1.44A.72.72,0,0,1,22.6,48.09Z" transform="translate(-1.08 -9.26)"/><path class="cls-1" d="M21.83,52.41a.72.72,0,0,1-.72-.72s0-.08,0-.13l.26-1.43a.72.72,0,0,1,.82-.61.73.73,0,0,1,.6.83v0l-.26,1.43A.72.72,0,0,1,21.83,52.41Z" transform="translate(-1.08 -9.26)"/><path class="cls-1" d="M28.54,48.09a.71.71,0,0,1-.72-.71.53.53,0,0,1,0-.13l.25-1.44a.72.72,0,0,1,1.43.22v0l-.25,1.44A.72.72,0,0,1,28.54,48.09Z" transform="translate(-1.08 -9.26)"/><path class="cls-1" d="M35.46,43.78a.73.73,0,0,1-.73-.72s0-.08,0-.13L35,41.5a.72.72,0,1,1,1.42.25l-.25,1.43A.72.72,0,0,1,35.46,43.78Z" transform="translate(-1.08 -9.26)"/><path class="cls-1" d="M34.69,48.09a.72.72,0,0,1-.72-.71c0-.05,0-.09,0-.13l.26-1.44a.72.72,0,0,1,1.42.22v0L35.4,47.5A.72.72,0,0,1,34.69,48.09Z" transform="translate(-1.08 -9.26)"/><path class="cls-1" d="M33.93,52.41a.72.72,0,0,1-.72-.72.62.62,0,0,1,0-.13l.25-1.43a.72.72,0,0,1,1.42.25l-.25,1.43A.72.72,0,0,1,33.93,52.41Z" transform="translate(-1.08 -9.26)"/><path class="cls-2" d="M39.14,23.72a6.47,6.47,0,0,0-6.06-8,9.38,9.38,0,0,0-16.46-2.68,8.32,8.32,0,0,0-10,6.58,8.39,8.39,0,0,0,.29,4.07,6.81,6.81,0,0,0-5.83,6.72v2.18A6.86,6.86,0,0,0,8,39.46H38.17a6.19,6.19,0,0,0,6.2-6.17V29.76A6.13,6.13,0,0,0,39.14,23.72Z" transform="translate(-1.08 -9.26)"/><path class="cls-3" d="M41.84,24.83a6.15,6.15,0,0,1,.36,2.06v3.52A6.19,6.19,0,0,1,36,36.59H5.79a6.86,6.86,0,0,1-4.22-1.46A6.87,6.87,0,0,0,8,39.46H38.17a6.19,6.19,0,0,0,6.2-6.17V29.76A6.08,6.08,0,0,0,41.84,24.83Z" transform="translate(-1.08 -9.26)"/></g></g><g id="flat-3" data-name="flat"><g id="rainy-2" data-name="rainy"><path class="cls-1" d="M36.74,47.85a.58.58,0,0,1-.57-.57s0-.07,0-.1l.2-1.15a.58.58,0,0,1,.66-.47.59.59,0,0,1,.47.67h0l-.21,1.15A.56.56,0,0,1,36.74,47.85Z" transform="translate(-1.08 -9.26)"/><path class="cls-1" d="M36.14,51.3a.57.57,0,0,1-.57-.58.38.38,0,0,1,0-.1l.2-1.15a.57.57,0,0,1,1.12.2l-.2,1.15A.57.57,0,0,1,36.14,51.3Z" transform="translate(-1.08 -9.26)"/><path class="cls-1" d="M35.54,54.74a.56.56,0,0,1-.57-.57v-.1l.21-1.15a.57.57,0,0,1,1.12.2l-.2,1.15A.58.58,0,0,1,35.54,54.74Z" transform="translate(-1.08 -9.26)"/><path class="cls-1" d="M41.61,47.85a.58.58,0,0,1-.57-.57.31.31,0,0,1,0-.1l.2-1.15a.57.57,0,0,1,1.12.2l-.2,1.15A.57.57,0,0,1,41.61,47.85Z" transform="translate(-1.08 -9.26)"/><path class="cls-1" d="M40.94,51.28a.57.57,0,0,1-.57-.57.34.34,0,0,1,0-.1l.2-1.15a.57.57,0,0,1,1.12.2l-.2,1.15A.57.57,0,0,1,40.94,51.28Z" transform="translate(-1.08 -9.26)"/><path class="cls-1" d="M51.08,47.85a.57.57,0,0,1-.57-.57v-.1L50.72,46a.57.57,0,0,1,1.12.2l-.2,1.15A.58.58,0,0,1,51.08,47.85Z" transform="translate(-1.08 -9.26)"/><path class="cls-1" d="M49.73,54.73a.58.58,0,0,1-.57-.57.41.41,0,0,1,0-.11l.2-1.14a.57.57,0,0,1,1.12.2l-.2,1.14A.56.56,0,0,1,49.73,54.73Z" transform="translate(-1.08 -9.26)"/><path class="cls-1" d="M40.4,54.74a.57.57,0,0,1-.57-.57.31.31,0,0,1,0-.1l.2-1.15a.57.57,0,0,1,1.13.17v0L41,54.27A.56.56,0,0,1,40.4,54.74Z" transform="translate(-1.08 -9.26)"/><path class="cls-1" d="M46.31,47.85a.57.57,0,0,1-.57-.57.31.31,0,0,1,0-.1L46,46a.57.57,0,0,1,1.12.2l-.2,1.15A.58.58,0,0,1,46.31,47.85Z" transform="translate(-1.08 -9.26)"/><path class="cls-1" d="M45.7,51.3a.58.58,0,0,1-.57-.58s0-.06,0-.1l.2-1.15a.57.57,0,0,1,1.13.2l-.2,1.15A.58.58,0,0,1,45.7,51.3Z" transform="translate(-1.08 -9.26)"/><path class="cls-1" d="M45.1,54.74a.57.57,0,0,1-.57-.57.31.31,0,0,1,0-.1l.2-1.15a.57.57,0,0,1,1.13.17v0l-.2,1.15A.57.57,0,0,1,45.1,54.74Z" transform="translate(-1.08 -9.26)"/><path class="cls-1" d="M50.4,51.3a.58.58,0,0,1-.57-.58.38.38,0,0,1,0-.1l.2-1.15a.57.57,0,1,1,1.13.18v0L51,50.82A.56.56,0,0,1,50.4,51.3Z" transform="translate(-1.08 -9.26)"/><path class="cls-1" d="M55.87,47.85a.58.58,0,0,1-.57-.57.31.31,0,0,1,0-.1l.2-1.15a.58.58,0,0,1,.66-.47.59.59,0,0,1,.47.67l-.21,1.15A.56.56,0,0,1,55.87,47.85Z" transform="translate(-1.08 -9.26)"/><path class="cls-1" d="M55.27,51.3a.57.57,0,0,1-.57-.58.38.38,0,0,1,0-.1l.2-1.15a.58.58,0,0,1,.65-.48.59.59,0,0,1,.48.66v0l-.2,1.15A.57.57,0,0,1,55.27,51.3Z" transform="translate(-1.08 -9.26)"/><path class="cls-1" d="M54.67,54.74a.57.57,0,0,1-.58-.57s0-.07,0-.1l.2-1.15a.59.59,0,0,1,.68-.45.58.58,0,0,1,.45.65l-.2,1.15A.58.58,0,0,1,54.67,54.74Z" transform="translate(-1.08 -9.26)"/><path class="cls-4" d="M51.83,31c-.8-1.16-1.89-4.23-3-5.91a4.81,4.81,0,0,1-1.17,2l0,0a3.51,3.51,0,0,1-.6.48l-.09.07a4.48,4.48,0,0,1-.69.36l-.11,0a5.08,5.08,0,0,1-.81.24h-.1a5.8,5.8,0,0,1-1,.09,6.08,6.08,0,0,1-.61,0l-.19,0-.37-.06-.21-.06-.32-.09-.09,0a4.88,4.88,0,0,1-3.22-5.23,6.67,6.67,0,0,0-2.13.23,6.6,6.6,0,0,0-4.42,8.41,5.42,5.42,0,0,0-4.61,5.37v1.74a5.17,5.17,0,0,0,.08.89h.46a5.53,5.53,0,0,1,1-.09,5,5,0,0,1,2.47.61,4.78,4.78,0,0,1,3.21-1.29c3.91-.13,7.77-.21,11.68-.2a36.66,36.66,0,0,0,5.24-.16c1-.18,1.89-.41,2.82-.67C54.76,35.44,53,32.6,51.83,31Z" transform="translate(-1.08 -9.26)"/><path class="cls-2" d="M58.78,31.83a4.87,4.87,0,0,0,.15-1.2A5.17,5.17,0,0,0,54,25.46a7.39,7.39,0,0,0-13-2.13,6.43,6.43,0,0,0-3.26.09,6.62,6.62,0,0,0-4.65,5.16,6.76,6.76,0,0,0,.23,3.25,5.42,5.42,0,0,0-4.61,5.36v1.75a5.46,5.46,0,0,0,5.43,5.47H58a4.93,4.93,0,0,0,4.9-4.93V36.66A4.89,4.89,0,0,0,58.78,31.83Z" transform="translate(-1.08 -9.26)"/><path class="cls-3" d="M60.92,32.73a4.66,4.66,0,0,1,.29,1.63v2.82a4.92,4.92,0,0,1-4.9,4.93H32.41A5.42,5.42,0,0,1,29.07,41a5.45,5.45,0,0,0,5,3.46H58a4.93,4.93,0,0,0,4.9-4.93V36.66A4.85,4.85,0,0,0,60.92,32.73Z" transform="translate(-1.08 -9.26)"/></g></g></svg>