<svg id="Layer_1" data-name="Layer 1" xmlns="http://www.w3.org/2000/svg" viewBox="0 0 60 59.44"><defs><style>.cls-1{fill:#3ebbdd;}.cls-2{fill:#38a8c7;}</style></defs><g id="flat"><g id="foggy"><path class="cls-1" d="M50,14.11v0A12,12,0,0,0,26.75,9.89,9.87,9.87,0,0,0,21,8.07a10,10,0,0,0-10,10v.18a11,11,0,1,0,9.93,18.44A12,12,0,0,0,42.3,38.2,13,13,0,1,0,50,14.11Z" transform="translate(-2 -2.07)"/><path class="cls-2" d="M57.92,17.64C54.06,26.51,40.34,33.07,24,33.07A52.1,52.1,0,0,1,2,28.52c0,.18,0,.36,0,.55a11,11,0,0,0,18.93,7.62A12,12,0,0,0,42.3,38.2,13,13,0,0,0,57.92,17.64Z" transform="translate(-2 -2.07)"/><g id="flat-2" data-name="flat"><g id="snowflake"><path class="cls-1" d="M13.33,46.69a.7.7,0,1,0,.74.69A.71.71,0,0,0,13.33,46.69Zm0,1.11a.43.43,0,0,1-.44-.42.43.43,0,0,1,.44-.41.42.42,0,0,1,.44.41A.43.43,0,0,1,13.33,47.8Z" transform="translate(-2 -2.07)"/><path class="cls-1" d="M17.3,47a.43.43,0,0,0-.41.28h-.38l.19-.36a.12.12,0,0,0-.07-.18.14.14,0,0,0-.19.06l-.26.48H15.9l.22-.51a.14.14,0,0,0-.09-.18.15.15,0,0,0-.19.08h0l-.25.61h-.94a1.24,1.24,0,0,0-.28-.64l.27-.26.63.26a.16.16,0,0,0,.2-.07h0a.15.15,0,0,0-.08-.19l-.53-.21.2-.19.54.17a.14.14,0,0,0,.18-.08.13.13,0,0,0-.09-.18l-.4-.12.27-.26a.41.41,0,0,0,.19.05.46.46,0,0,0,.31-.13.39.39,0,0,0,.13-.29.41.41,0,0,0-.13-.29.47.47,0,0,0-.63,0,.38.38,0,0,0-.12.29.39.39,0,0,0,0,.18l-.27.25L15,45.16a.15.15,0,0,0-.19-.08.14.14,0,0,0-.09.17l.18.51-.2.19-.22-.5a.16.16,0,0,0-.2-.07.14.14,0,0,0-.07.18l.27.6-.27.25a1.29,1.29,0,0,0-.68-.26v-.89l.64-.24a.13.13,0,0,0,.08-.18.16.16,0,0,0-.19-.08l-.53.2V44.7l.51-.24a.14.14,0,0,0,.06-.19.15.15,0,0,0-.19-.06h0l-.38.18V44a.4.4,0,0,0,.29-.39.43.43,0,0,0-.44-.41.43.43,0,0,0-.44.41.42.42,0,0,0,.3.39v.36l-.38-.18a.17.17,0,0,0-.2.06.15.15,0,0,0,.07.19l.51.24V45l-.54-.2a.15.15,0,0,0-.19.08.14.14,0,0,0,.08.18l.65.24v.89a1.26,1.26,0,0,0-.68.26l-.27-.25.27-.6a.15.15,0,0,0-.07-.19.16.16,0,0,0-.2.07h0L12,46l-.19-.19.17-.51a.12.12,0,0,0-.09-.17.14.14,0,0,0-.18.08h0l-.14.38-.26-.25a.58.58,0,0,0,0-.18.41.41,0,0,0-.13-.29.46.46,0,0,0-.62,0,.39.39,0,0,0,0,.58.44.44,0,0,0,.31.13.41.41,0,0,0,.19-.05l.27.26-.4.12a.14.14,0,0,0-.09.18.14.14,0,0,0,.18.08l.54-.17.2.19-.53.21a.14.14,0,0,0-.08.19.15.15,0,0,0,.19.07h0l.64-.26.27.26a1.16,1.16,0,0,0-.28.64h-.94l-.26-.61a.15.15,0,0,0-.19-.08.14.14,0,0,0-.08.18l.21.51h-.28l-.25-.48a.15.15,0,0,0-.2-.06.12.12,0,0,0-.06.18l.18.36H9.78A.45.45,0,0,0,9.36,47a.43.43,0,0,0-.44.41.43.43,0,0,0,.44.42.45.45,0,0,0,.42-.28h.37l-.18.36a.13.13,0,0,0,.06.18.15.15,0,0,0,.2-.06h0l.25-.48h.28l-.21.5a.13.13,0,0,0,.08.18.14.14,0,0,0,.19-.07l.26-.61H12a1.16,1.16,0,0,0,.28.64l-.27.26-.64-.26a.15.15,0,0,0-.19.08.14.14,0,0,0,.08.17l.53.22-.2.18-.54-.17a.16.16,0,0,0-.19.09.16.16,0,0,0,.09.18h0l.4.12-.27.25a.5.5,0,0,0-.5.08.39.39,0,0,0-.13.3.37.37,0,0,0,.13.29.46.46,0,0,0,.62,0,.41.41,0,0,0,.13-.29.48.48,0,0,0,0-.18l.26-.25.14.37a.14.14,0,0,0,.18.1.15.15,0,0,0,.1-.18h0L11.82,49l.19-.19.23.5a.15.15,0,0,0,.19.07h0a.13.13,0,0,0,.08-.18h0l-.27-.6.27-.25a1.35,1.35,0,0,0,.68.26v.89l-.65.24a.14.14,0,0,0-.08.18.16.16,0,0,0,.19.08l.54-.21v.27l-.51.24a.14.14,0,0,0-.07.18.15.15,0,0,0,.2.06l.38-.17v.35a.42.42,0,0,0-.3.39.43.43,0,0,0,.44.42.43.43,0,0,0,.44-.42.41.41,0,0,0-.29-.39v-.35l.38.17a.14.14,0,0,0,.19-.06.12.12,0,0,0-.06-.18l-.51-.24V49.8L14,50a.18.18,0,0,0,.2-.08.14.14,0,0,0-.09-.18h0l-.64-.24v-.89a1.38,1.38,0,0,0,.68-.26l.27.25-.27.6a.13.13,0,0,0,.07.18.16.16,0,0,0,.2-.07h0l.22-.5.2.19-.18.51a.12.12,0,0,0,.09.17.15.15,0,0,0,.19-.08h0l.13-.37.27.25a.34.34,0,0,0,0,.18.4.4,0,0,0,.12.29.47.47,0,0,0,.32.12.45.45,0,0,0,.31-.12.41.41,0,0,0,.13-.29.43.43,0,0,0-.13-.3.5.5,0,0,0-.5-.08L15.29,49l.4-.12a.14.14,0,0,0,.09-.18.16.16,0,0,0-.18-.09l-.54.17-.2-.18.53-.22a.14.14,0,0,0,.08-.18.16.16,0,0,0-.2-.07l-.63.26-.27-.26a1.24,1.24,0,0,0,.28-.64h.94l.25.61a.15.15,0,0,0,.19.07.13.13,0,0,0,.09-.18h0l-.22-.5h.28l.26.48a.14.14,0,0,0,.19.06h0a.12.12,0,0,0,.07-.18h0l-.19-.36h.38a.43.43,0,0,0,.41.28.43.43,0,0,0,.44-.42A.42.42,0,0,0,17.3,47Zm-1.66-2a.21.21,0,0,1,.11,0,.14.14,0,0,1,.14.14.13.13,0,0,1,0,.1.17.17,0,0,1-.21,0A.15.15,0,0,1,15.64,45Zm-2.31-1.5a.14.14,0,1,1,0,.27.14.14,0,0,1-.14-.14h0A.13.13,0,0,1,13.33,43.51Zm-2.51,1.7a.13.13,0,0,1,0-.2.15.15,0,0,1,.1,0,.15.15,0,0,1,.15.14.14.14,0,0,1-.05.1A.15.15,0,0,1,10.82,45.21ZM9.36,47.52a.14.14,0,0,1-.14-.14.15.15,0,0,1,.14-.13.13.13,0,0,1,.14.14A.13.13,0,0,1,9.36,47.52ZM11,49.76a.15.15,0,0,1-.2,0,.13.13,0,0,1,0-.2.14.14,0,0,1,.19,0A.13.13,0,0,1,11,49.76Zm2.31,1.5a.14.14,0,0,1-.14-.14.17.17,0,0,1,.14-.14.14.14,0,0,1,.14.15A.13.13,0,0,1,13.33,51.26Zm0-2.91a1,1,0,1,1,1-1A1,1,0,0,1,13.33,48.35Zm2.52,1.21a.13.13,0,0,1,0,.2.17.17,0,0,1-.21,0,.15.15,0,0,1,0-.2.15.15,0,0,1,.11,0A.13.13,0,0,1,15.85,49.56Zm1.45-2a.14.14,0,0,1-.14-.14.15.15,0,0,1,.14-.13.13.13,0,0,1,.14.14A.13.13,0,0,1,17.3,47.52Z" transform="translate(-2 -2.07)"/></g></g><g id="flat-3" data-name="flat"><g id="snowflake-2" data-name="snowflake"><path class="cls-1" d="M27,56.66a.69.69,0,1,0,.74.69A.71.71,0,0,0,27,56.66Zm0,1.1a.43.43,0,0,1-.44-.41.43.43,0,0,1,.44-.42.43.43,0,0,1,.44.42A.42.42,0,0,1,27,57.76Z" transform="translate(-2 -2.07)"/><path class="cls-1" d="M31,56.93a.45.45,0,0,0-.41.28h-.38l.19-.35a.13.13,0,0,0-.07-.19.14.14,0,0,0-.19.06l-.26.48h-.28l.22-.5a.14.14,0,0,0-.09-.18.14.14,0,0,0-.19.08h0l-.25.6h-.94a1.31,1.31,0,0,0-.28-.64l.27-.25.63.25a.16.16,0,0,0,.2-.07h0a.14.14,0,0,0-.08-.18l-.53-.21.2-.19.54.17a.15.15,0,0,0,.18-.09.12.12,0,0,0-.09-.17L29,55.7l.27-.25a.41.41,0,0,0,.19,0,.47.47,0,0,0,.31-.12.41.41,0,0,0,.13-.29.42.42,0,0,0-.13-.3.48.48,0,0,0-.63,0,.43.43,0,0,0-.13.3.34.34,0,0,0,.05.17l-.27.26-.13-.38a.16.16,0,0,0-.19-.09.16.16,0,0,0-.09.18l.18.5-.2.19-.22-.5a.16.16,0,0,0-.2-.07.13.13,0,0,0-.07.18l.27.6-.27.26a1.4,1.4,0,0,0-.68-.27v-.88l.64-.25a.13.13,0,0,0,.08-.18.14.14,0,0,0-.19-.07l-.53.2v-.27l.51-.23a.14.14,0,0,0,.06-.19.14.14,0,0,0-.2-.06h0l-.37.18V54a.4.4,0,0,0,.29-.39.43.43,0,0,0-.44-.42.43.43,0,0,0-.44.42.41.41,0,0,0,.3.39v.36l-.38-.18a.15.15,0,0,0-.2.06.15.15,0,0,0,.07.19l.51.23v.27l-.54-.2a.15.15,0,0,0-.19.08.13.13,0,0,0,.08.17l.65.25v.88a1.36,1.36,0,0,0-.68.27l-.27-.26.27-.6a.13.13,0,0,0-.08-.18.15.15,0,0,0-.19.07h0l-.23.5-.2-.19.18-.5a.14.14,0,0,0-.09-.18.14.14,0,0,0-.18.09h0l-.13.37L25,55.25a.47.47,0,0,0,0-.17.42.42,0,0,0-.13-.3.47.47,0,0,0-.62,0,.39.39,0,0,0-.13.3.37.37,0,0,0,.13.29.43.43,0,0,0,.31.12.41.41,0,0,0,.19,0l.26.25-.39.13a.12.12,0,0,0-.09.17.15.15,0,0,0,.18.09l.54-.17.19.19-.52.21a.13.13,0,0,0-.08.18.15.15,0,0,0,.19.07h0l.64-.25.27.25a1.23,1.23,0,0,0-.28.64h-.94l-.26-.61a.14.14,0,0,0-.19-.07.14.14,0,0,0-.08.18l.21.5h-.28l-.25-.48a.16.16,0,0,0-.2-.06.14.14,0,0,0-.06.19l.18.35h-.37a.46.46,0,0,0-.42-.28.43.43,0,0,0-.44.42.43.43,0,0,0,.44.41.45.45,0,0,0,.42-.27h.37l-.18.35a.14.14,0,0,0,.06.19.16.16,0,0,0,.2-.06h0l.25-.48h.28l-.21.5a.14.14,0,0,0,.08.18.15.15,0,0,0,.19-.08l.26-.6h.94a1.23,1.23,0,0,0,.28.64l-.27.25-.64-.26a.16.16,0,0,0-.19.09.14.14,0,0,0,.08.17l.52.21-.19.19-.54-.17a.15.15,0,0,0-.19.08.15.15,0,0,0,.09.18h0L25,59l-.26.25a.48.48,0,0,0-.5.08.37.37,0,0,0-.13.29.39.39,0,0,0,.13.3.46.46,0,0,0,.62,0,.43.43,0,0,0,.13-.3.58.58,0,0,0,0-.18l.26-.25.13.38a.16.16,0,0,0,.19.09.14.14,0,0,0,.1-.17h0L25.48,59l.2-.18.23.5a.15.15,0,0,0,.19.07h0a.13.13,0,0,0,.08-.18h0l-.27-.6.27-.26a1.36,1.36,0,0,0,.68.27v.88l-.65.24a.14.14,0,0,0-.08.18.15.15,0,0,0,.19.08l.54-.2V60l-.51.24a.15.15,0,0,0-.07.19.16.16,0,0,0,.2.06l.38-.18v.36a.41.41,0,0,0-.3.39.43.43,0,0,0,.44.41.42.42,0,0,0,.44-.41.4.4,0,0,0-.29-.39v-.36l.37.18a.15.15,0,0,0,.2-.06.14.14,0,0,0-.06-.19L27.15,60v-.26l.53.2a.15.15,0,0,0,.19-.08.13.13,0,0,0-.08-.18h0l-.64-.24v-.88a1.4,1.4,0,0,0,.68-.27l.27.26-.27.6a.13.13,0,0,0,.07.18.16.16,0,0,0,.2-.07h0l.22-.5.2.18-.18.51a.14.14,0,0,0,.09.18.15.15,0,0,0,.19-.08h0l.13-.38.27.25a.41.41,0,0,0-.05.18.43.43,0,0,0,.13.3.53.53,0,0,0,.32.12.5.5,0,0,0,.31-.12.43.43,0,0,0,.13-.3.41.41,0,0,0-.13-.29.48.48,0,0,0-.5-.08L29,59l.4-.13a.12.12,0,0,0,.09-.17.16.16,0,0,0-.18-.09l-.54.17-.2-.19.53-.21a.14.14,0,0,0,.08-.18.16.16,0,0,0-.2-.08l-.63.26L28,58.13a1.31,1.31,0,0,0,.28-.64h.94l.25.6a.15.15,0,0,0,.19.08.14.14,0,0,0,.09-.18h0l-.22-.5h.28l.26.48a.15.15,0,0,0,.19.06h0a.13.13,0,0,0,.07-.19h0l-.19-.35h.38a.44.44,0,0,0,.41.27.42.42,0,0,0,.44-.41A.43.43,0,0,0,31,56.93Zm-1.66-2a.15.15,0,0,1,.11,0,.14.14,0,0,1,.14.14.11.11,0,0,1,0,.09.15.15,0,0,1-.21,0A.12.12,0,0,1,29.31,55ZM27,53.47a.14.14,0,1,1,0,.28.14.14,0,0,1-.14-.14h0A.14.14,0,0,1,27,53.47Zm-2.52,1.7a.13.13,0,0,1,0-.19.12.12,0,0,1,.1,0,.15.15,0,0,1,.15.14.12.12,0,0,1,0,.09A.14.14,0,0,1,24.48,55.17ZM23,57.49a.15.15,0,0,1-.14-.15.14.14,0,0,1,.14-.13.14.14,0,0,1,.14.15A.14.14,0,0,1,23,57.49Zm1.66,2.23a.17.17,0,0,1-.21,0,.14.14,0,0,1,0-.2.18.18,0,0,1,.2,0A.13.13,0,0,1,24.69,59.72ZM27,61.23a.15.15,0,0,1-.14-.15A.15.15,0,0,1,27,61a.14.14,0,0,1,.14.14A.14.14,0,0,1,27,61.23Zm0-2.91a1,1,0,1,1,1-1A1,1,0,0,1,27,58.32Zm2.52,1.2a.13.13,0,0,1,0,.2.17.17,0,0,1-.21,0,.14.14,0,0,1,0-.2.21.21,0,0,1,.11,0A.18.18,0,0,1,29.52,59.52Zm1.45-2a.15.15,0,0,1-.14-.15.15.15,0,0,1,.14-.13.14.14,0,0,1,.14.15A.14.14,0,0,1,31,57.49Z" transform="translate(-2 -2.07)"/></g></g><g id="flat-4" data-name="flat"><g id="snowflake-3" data-name="snowflake"><path class="cls-1" d="M45.28,47.11a.69.69,0,1,0,.74.69A.71.71,0,0,0,45.28,47.11Zm0,1.1a.43.43,0,0,1-.44-.41.43.43,0,0,1,.44-.42.43.43,0,0,1,.44.42A.42.42,0,0,1,45.28,48.21Z" transform="translate(-2 -2.07)"/><path class="cls-1" d="M49.25,47.38a.45.45,0,0,0-.41.28h-.38l.19-.35a.13.13,0,0,0-.07-.19.14.14,0,0,0-.19.06l-.26.48h-.28l.22-.5A.14.14,0,0,0,48,47a.15.15,0,0,0-.2.08h0l-.25.6H46.6a1.31,1.31,0,0,0-.28-.64l.27-.25.63.25a.16.16,0,0,0,.2-.07h0a.14.14,0,0,0-.08-.18l-.53-.21.2-.19.54.17a.15.15,0,0,0,.18-.09.12.12,0,0,0-.09-.17l-.4-.13.27-.25a.41.41,0,0,0,.19,0,.43.43,0,0,0,.31-.12.41.41,0,0,0,.13-.29.42.42,0,0,0-.13-.3.48.48,0,0,0-.62,0,.39.39,0,0,0-.13.3.33.33,0,0,0,0,.17L47,46l-.13-.38a.16.16,0,0,0-.19-.09.16.16,0,0,0-.09.18l.18.5-.2.19-.22-.5a.16.16,0,0,0-.2-.07.14.14,0,0,0-.07.18l.27.6-.27.26a1.4,1.4,0,0,0-.68-.27v-.88l.64-.24a.14.14,0,1,0-.11-.26l-.53.2v-.27l.51-.23a.14.14,0,0,0,.06-.19.14.14,0,0,0-.19-.06h0l-.38.18v-.36a.4.4,0,0,0,.29-.39.43.43,0,0,0-.44-.42.43.43,0,0,0-.44.42.43.43,0,0,0,.3.39v.36l-.38-.18a.15.15,0,0,0-.2.06.15.15,0,0,0,.07.19l.51.23v.27l-.54-.2a.15.15,0,0,0-.19.08.13.13,0,0,0,.08.17l.65.25v.88a1.36,1.36,0,0,0-.68.27l-.27-.26.27-.6a.14.14,0,0,0-.07-.18.16.16,0,0,0-.2.07h0l-.23.5-.19-.19.18-.5a.15.15,0,0,0-.1-.18.14.14,0,0,0-.18.09h0l-.14.38-.26-.26a.47.47,0,0,0,0-.17.42.42,0,0,0-.13-.3.48.48,0,0,0-.62,0,.39.39,0,0,0-.13.3.37.37,0,0,0,.13.29.43.43,0,0,0,.31.12.41.41,0,0,0,.19,0l.27.25-.4.13a.12.12,0,0,0-.09.17.15.15,0,0,0,.18.09l.54-.17.2.19-.53.21a.13.13,0,0,0-.08.18.15.15,0,0,0,.19.07h0l.64-.25.27.25a1.23,1.23,0,0,0-.28.64H43l-.26-.6a.14.14,0,0,0-.27.1l.21.5h-.28l-.25-.48a.16.16,0,0,0-.2-.06.14.14,0,0,0-.06.19l.18.35h-.37a.45.45,0,0,0-.42-.28.43.43,0,0,0-.44.42.43.43,0,0,0,.44.41.44.44,0,0,0,.42-.27h.37l-.18.35a.14.14,0,0,0,.06.19.16.16,0,0,0,.2-.06h0l.25-.48h.28l-.21.5a.14.14,0,0,0,.08.18.15.15,0,0,0,.19-.08l.26-.6H44a1.23,1.23,0,0,0,.28.64l-.27.25-.64-.26a.16.16,0,0,0-.19.09.14.14,0,0,0,.08.17l.53.21-.2.19L43,49.06a.14.14,0,0,0-.19.09.14.14,0,0,0,.09.17h0l.4.13-.27.25a.48.48,0,0,0-.5.08.37.37,0,0,0-.13.29.39.39,0,0,0,.13.3.46.46,0,0,0,.62,0,.43.43,0,0,0,.13-.3.58.58,0,0,0,0-.18l.26-.25.14.38a.15.15,0,0,0,.18.09.14.14,0,0,0,.1-.17h0l-.17-.51.19-.18.23.5a.15.15,0,0,0,.19.07h0a.13.13,0,0,0,.08-.18h0l-.27-.6.27-.26a1.36,1.36,0,0,0,.68.27v.88l-.65.24a.14.14,0,0,0-.08.18.16.16,0,0,0,.19.08l.54-.2v.26l-.51.24a.15.15,0,0,0-.07.19.16.16,0,0,0,.2.06l.38-.18v.36a.41.41,0,0,0-.3.39.43.43,0,0,0,.44.41.42.42,0,0,0,.44-.41.4.4,0,0,0-.29-.39v-.36l.38.18a.14.14,0,0,0,.19-.06.14.14,0,0,0-.06-.19l-.51-.24v-.26l.53.2a.16.16,0,0,0,.2-.08.14.14,0,0,0-.09-.18h0l-.64-.24V49a1.4,1.4,0,0,0,.68-.27l.27.26-.27.6a.13.13,0,0,0,.07.18.16.16,0,0,0,.2-.07h0l.22-.5.2.18-.18.51a.14.14,0,0,0,.09.18A.15.15,0,0,0,46.9,50h0l.13-.38.27.25a.42.42,0,0,0,.09.48.43.43,0,0,0,.31.12.5.5,0,0,0,.31-.12.43.43,0,0,0,.13-.3.41.41,0,0,0-.13-.29.48.48,0,0,0-.5-.08l-.27-.25.4-.13a.12.12,0,0,0,.09-.17.16.16,0,0,0-.18-.09l-.54.17-.2-.19.53-.21a.14.14,0,0,0,.08-.18.16.16,0,0,0-.2-.08l-.63.26-.27-.25a1.31,1.31,0,0,0,.28-.64h.94l.25.6a.16.16,0,0,0,.2.08.14.14,0,0,0,.08-.18h0l-.22-.5h.28l.26.48a.15.15,0,0,0,.19.06h0a.13.13,0,0,0,.07-.19h0l-.19-.35h.38a.44.44,0,0,0,.41.27.43.43,0,0,0,.45-.41A.44.44,0,0,0,49.25,47.38Zm-1.66-2a.15.15,0,0,1,.11,0,.14.14,0,0,1,.14.14.11.11,0,0,1,0,.09.15.15,0,0,1-.21,0A.14.14,0,0,1,47.59,45.43Zm-2.31-1.51a.15.15,0,0,1,.15.14.14.14,0,0,1-.15.14.14.14,0,0,1-.14-.14h0A.14.14,0,0,1,45.28,43.92Zm-2.51,1.7a.12.12,0,0,1,0-.19.12.12,0,0,1,.1,0,.15.15,0,0,1,.15.14.12.12,0,0,1-.05.09A.13.13,0,0,1,42.77,45.62Zm-1.46,2.32a.15.15,0,0,1-.14-.15.15.15,0,0,1,.14-.13.14.14,0,0,1,.14.15A.14.14,0,0,1,41.31,47.94ZM43,50.17a.15.15,0,0,1-.2,0,.13.13,0,0,1,0-.2A.17.17,0,0,1,43,50,.13.13,0,0,1,43,50.17Zm2.31,1.51a.15.15,0,0,1-.14-.15.15.15,0,0,1,.14-.13.14.14,0,0,1,.14.14A.14.14,0,0,1,45.28,51.68Zm0-2.91a1,1,0,1,1,0-1.94,1,1,0,1,1,0,1.94ZM47.8,50a.13.13,0,0,1,0,.2.17.17,0,0,1-.21,0,.15.15,0,0,1,0-.2.21.21,0,0,1,.11,0A.18.18,0,0,1,47.8,50Zm1.45-2a.15.15,0,0,1-.14-.15.15.15,0,0,1,.14-.13.13.13,0,0,1,.14.15A.14.14,0,0,1,49.25,47.94Z" transform="translate(-2 -2.07)"/></g></g></g></g></svg>