<svg id="Layer_1" data-name="Layer 1" xmlns="http://www.w3.org/2000/svg" viewBox="0 0 60 59.44"><defs><style>.cls-1{fill:#3ebbdd;}.cls-2{fill:#38a8c7;}</style></defs><g id="flat"><g id="foggy"><path class="cls-1" d="M50,14.33v-.05A12,12,0,0,0,26.75,10.1,10,10,0,0,0,11,18.28v.19A11,11,0,1,0,20.93,36.9,12,12,0,0,0,42.3,38.41,12.88,12.88,0,0,0,49,40.28a13,13,0,0,0,1-25.95Z" transform="translate(-2 -2.28)"/><path class="cls-2" d="M57.92,17.85C54.06,26.72,40.34,33.28,24,33.28A52,52,0,0,1,2,28.73c0,.19,0,.37,0,.55A11,11,0,0,0,20.93,36.9,12,12,0,0,0,42.3,38.41,12.88,12.88,0,0,0,49,40.28a13,13,0,0,0,8.92-22.43Z" transform="translate(-2 -2.28)"/><g id="flat-2" data-name="flat"><g id="snowflake"><path class="cls-1" d="M13.33,46.91a.69.69,0,1,0,.74.69A.71.71,0,0,0,13.33,46.91Zm0,1.1a.43.43,0,0,1-.44-.41.43.43,0,0,1,.44-.42.43.43,0,0,1,.44.42A.42.42,0,0,1,13.33,48Z" transform="translate(-2 -2.28)"/><path class="cls-1" d="M17.3,47.18a.43.43,0,0,0-.41.28h-.38l.19-.35a.13.13,0,0,0-.07-.19.14.14,0,0,0-.19.06l-.26.48H15.9l.22-.5a.14.14,0,0,0-.09-.18.15.15,0,0,0-.19.07h0l-.25.61h-.94a1.28,1.28,0,0,0-.28-.64l.27-.25.63.25a.16.16,0,0,0,.2-.07h0a.14.14,0,0,0-.08-.18l-.53-.22.2-.18.54.17a.15.15,0,0,0,.18-.09.14.14,0,0,0-.09-.18l-.4-.12.27-.25a.58.58,0,0,0,.19,0,.45.45,0,0,0,.31-.12.42.42,0,0,0,.13-.3.41.41,0,0,0-.13-.29.47.47,0,0,0-.63,0,.4.4,0,0,0-.12.29.34.34,0,0,0,0,.18l-.27.25L15,45.38a.16.16,0,0,0-.19-.09.15.15,0,0,0-.09.18l.18.5-.2.19-.22-.5a.16.16,0,0,0-.2-.07.14.14,0,0,0-.07.18l.27.6-.27.25a1.49,1.49,0,0,0-.68-.26v-.88l.64-.25a.13.13,0,0,0,.08-.18A.14.14,0,0,0,14,45l-.53.2v-.27l.51-.24a.12.12,0,0,0,.06-.18.14.14,0,0,0-.19-.06h0l-.38.17v-.35a.41.41,0,0,0,.29-.39.43.43,0,0,0-.44-.42.43.43,0,0,0-.44.42.43.43,0,0,0,.3.39v.35l-.38-.17a.15.15,0,0,0-.2.06.14.14,0,0,0,.07.18l.51.24v.27l-.54-.2a.14.14,0,0,0-.19.08.13.13,0,0,0,.08.17l.65.25v.88a1.45,1.45,0,0,0-.68.26l-.27-.25.27-.6a.14.14,0,0,0-.07-.18.16.16,0,0,0-.2.07h0l-.23.5L11.82,46l.17-.5a.13.13,0,0,0-.09-.18.13.13,0,0,0-.18.09h0l-.14.37-.26-.25a.48.48,0,0,0,0-.18.41.41,0,0,0-.13-.29.46.46,0,0,0-.62,0,.37.37,0,0,0-.13.29.38.38,0,0,0,.13.3.43.43,0,0,0,.31.12.58.58,0,0,0,.19,0l.27.25-.4.12a.14.14,0,0,0-.09.18.15.15,0,0,0,.18.09l.54-.17.2.18-.53.22a.13.13,0,0,0-.08.18.15.15,0,0,0,.19.07h0l.64-.25.27.25a1.2,1.2,0,0,0-.28.64h-.94l-.26-.61a.14.14,0,0,0-.19-.07.14.14,0,0,0-.08.18l.21.5h-.28L10.23,47a.16.16,0,0,0-.2-.06.14.14,0,0,0-.06.19l.18.35H9.78a.45.45,0,0,0-.42-.28.43.43,0,0,0-.44.42.43.43,0,0,0,.44.41.45.45,0,0,0,.42-.27h.37l-.18.35a.14.14,0,0,0,.06.19.17.17,0,0,0,.2-.06h0l.25-.47h.28l-.21.5a.14.14,0,0,0,.08.18.15.15,0,0,0,.19-.08l.26-.6H12a1.16,1.16,0,0,0,.28.63l-.27.26-.64-.26a.16.16,0,0,0-.19.08.15.15,0,0,0,.08.18l.53.21-.2.19-.54-.17a.15.15,0,0,0-.19.08.15.15,0,0,0,.09.18h0l.4.13-.27.25a.46.46,0,0,0-.5.08.39.39,0,0,0,0,.58.43.43,0,0,0,.62,0,.39.39,0,0,0,.13-.29.58.58,0,0,0,0-.18l.26-.25.14.38a.15.15,0,0,0,.18.09.14.14,0,0,0,.1-.17h0l-.17-.51L12,49l.23.49a.15.15,0,0,0,.19.08h0a.14.14,0,0,0,.08-.19h0l-.27-.59.27-.26a1.36,1.36,0,0,0,.68.27v.88l-.65.24a.14.14,0,0,0-.08.18.15.15,0,0,0,.19.08l.54-.2v.26l-.51.24a.15.15,0,0,0-.07.19.16.16,0,0,0,.2.06l.38-.18V51a.41.41,0,0,0-.3.39.43.43,0,0,0,.44.41.42.42,0,0,0,.44-.41.4.4,0,0,0-.29-.39v-.36l.38.18a.14.14,0,0,0,.19-.06.14.14,0,0,0-.06-.19l-.51-.24V50l.53.2a.16.16,0,0,0,.2-.08.14.14,0,0,0-.09-.18h0l-.64-.24v-.88a1.4,1.4,0,0,0,.68-.27l.27.26-.27.59a.14.14,0,0,0,.07.19.16.16,0,0,0,.2-.08h0l.22-.49.2.18-.18.51a.14.14,0,0,0,.09.18.16.16,0,0,0,.19-.08h0l.13-.38.27.25a.39.39,0,0,0,0,.18.42.42,0,0,0,.12.3.53.53,0,0,0,.32.12.5.5,0,0,0,.31-.12.43.43,0,0,0,.13-.3.41.41,0,0,0-.13-.29.46.46,0,0,0-.5-.08l-.27-.25.4-.13a.12.12,0,0,0,.09-.17.15.15,0,0,0-.18-.09l-.54.17-.2-.19.53-.21a.14.14,0,0,0,.08-.18.16.16,0,0,0-.2-.08l-.63.26-.27-.25a1.31,1.31,0,0,0,.28-.64h.94l.25.6a.15.15,0,0,0,.19.08.14.14,0,0,0,.09-.18h0l-.22-.5h.28l.26.47a.15.15,0,0,0,.19.07h0a.13.13,0,0,0,.07-.19h0l-.19-.35h.38a.44.44,0,0,0,.41.27.42.42,0,0,0,.44-.41A.43.43,0,0,0,17.3,47.18Zm-1.66-2a.15.15,0,0,1,.11,0,.14.14,0,0,1,.14.14.11.11,0,0,1,0,.09.17.17,0,0,1-.21,0A.14.14,0,0,1,15.64,45.23Zm-2.31-1.51a.15.15,0,0,1,.15.14.15.15,0,0,1-.15.14.14.14,0,0,1-.14-.14h0A.14.14,0,0,1,13.33,43.72Zm-2.51,1.7a.12.12,0,0,1,0-.19.12.12,0,0,1,.1,0,.15.15,0,0,1,.15.14.12.12,0,0,1-.05.09A.15.15,0,0,1,10.82,45.42ZM9.36,47.74a.15.15,0,0,1-.14-.15.15.15,0,0,1,.14-.13.14.14,0,0,1,.14.14A.14.14,0,0,1,9.36,47.74ZM11,50a.15.15,0,0,1-.2,0,.13.13,0,0,1,0-.2.17.17,0,0,1,.19,0A.13.13,0,0,1,11,50Zm2.31,1.51a.15.15,0,0,1-.14-.15.15.15,0,0,1,.14-.13.14.14,0,0,1,.14.14A.14.14,0,0,1,13.33,51.48Zm0-2.91a1,1,0,1,1,0-1.94,1,1,0,1,1,0,1.94Zm2.52,1.2a.13.13,0,0,1,0,.2.17.17,0,0,1-.21,0,.15.15,0,0,1,0-.2.21.21,0,0,1,.11,0A.18.18,0,0,1,15.85,49.77Zm1.45-2a.15.15,0,0,1-.14-.15.15.15,0,0,1,.14-.13.14.14,0,0,1,.14.14A.14.14,0,0,1,17.3,47.74Z" transform="translate(-2 -2.28)"/></g></g><g id="flat-3" data-name="flat"><g id="snowflake-2" data-name="snowflake"><path class="cls-1" d="M50.08,57.71a.53.53,0,0,0-.56.48.52.52,0,0,0,.56.47.53.53,0,0,0,.57-.47A.54.54,0,0,0,50.08,57.71Zm0,.76a.29.29,0,1,1,.34-.28A.32.32,0,0,1,50.08,58.47Z" transform="translate(-2 -2.28)"/><path class="cls-1" d="M53.13,57.9a.34.34,0,0,0-.32.19h-.29l.14-.24c0-.05,0-.1,0-.13a.13.13,0,0,0-.15.05l-.19.32h-.22l.17-.34a.09.09,0,0,0-.07-.12.11.11,0,0,0-.14,0h0l-.2.41h-.72a.75.75,0,0,0-.22-.43l.21-.18.49.18a.12.12,0,0,0,.15,0h0a.1.1,0,0,0-.06-.13l-.41-.14.15-.13.42.12a.14.14,0,0,0,.14-.06.09.09,0,0,0-.07-.12l-.31-.09.21-.17a.32.32,0,0,0,.14,0,.34.34,0,0,0,.24-.09.23.23,0,0,0,.1-.2.26.26,0,0,0-.1-.2.42.42,0,0,0-.48,0,.3.3,0,0,0-.1.2.21.21,0,0,0,0,.12l-.21.18-.1-.26a.11.11,0,0,0-.14-.06.09.09,0,0,0-.07.12l.14.35-.16.12-.17-.34a.12.12,0,0,0-.15,0,.09.09,0,0,0-.06.12l.21.41-.21.17a1.15,1.15,0,0,0-.52-.18v-.6l.5-.17a.09.09,0,0,0,.06-.12.12.12,0,0,0-.15-.05l-.41.13v-.18l.39-.16a.09.09,0,0,0,.05-.13.13.13,0,0,0-.15,0h0l-.29.12V55.9a.29.29,0,0,0,.23-.27.35.35,0,0,0-.68,0,.31.31,0,0,0,.23.27v.24L49.68,56a.13.13,0,0,0-.15,0,.09.09,0,0,0,0,.13l.39.16v.18l-.41-.13a.12.12,0,0,0-.15.05.09.09,0,0,0,.07.12l.49.17v.6a1.15,1.15,0,0,0-.52.18l-.21-.17.21-.41a.09.09,0,0,0-.06-.13.13.13,0,0,0-.15,0h0l-.17.34-.15-.12.13-.35s0-.1-.06-.12a.12.12,0,0,0-.15.06h0l-.1.26-.21-.18a.16.16,0,0,0,0-.12.3.3,0,0,0-.1-.2.42.42,0,0,0-.48,0,.3.3,0,0,0-.1.2.26.26,0,0,0,.1.2.34.34,0,0,0,.24.09.32.32,0,0,0,.14,0l.21.17-.31.09a.08.08,0,0,0-.06.12.14.14,0,0,0,.14.06l.41-.12.15.13-.41.14a.09.09,0,0,0,0,.13.11.11,0,0,0,.14,0h0l.49-.18.21.18a.75.75,0,0,0-.22.43h-.72l-.19-.41a.12.12,0,0,0-.15,0,.08.08,0,0,0-.06.12l.16.34h-.22l-.19-.32a.13.13,0,0,0-.15-.05c-.06,0-.08.08,0,.13l.14.24h-.29A.33.33,0,0,0,47,57.9a.29.29,0,1,0,0,.57.33.33,0,0,0,.31-.19h.29l-.14.24a.09.09,0,0,0,0,.13.12.12,0,0,0,.15,0h0l.19-.33h.22l-.16.34a.09.09,0,0,0,.06.13.13.13,0,0,0,.15-.06l.19-.41h.72a.8.8,0,0,0,.22.44l-.21.17-.49-.17a.11.11,0,0,0-.14.05.09.09,0,0,0,0,.12l.41.15-.15.12-.41-.11a.12.12,0,0,0-.15.06.09.09,0,0,0,.07.12h0l.31.08-.21.18a.4.4,0,0,0-.38,0,.25.25,0,0,0,0,.4.4.4,0,0,0,.48,0,.26.26,0,0,0,.1-.2.19.19,0,0,0,0-.12l.21-.17.1.25a.13.13,0,0,0,.14.07.11.11,0,0,0,.08-.12h0l-.13-.34.15-.13.17.34a.12.12,0,0,0,.15.05h0a.09.09,0,0,0,.06-.12h0l-.21-.4.21-.18A1.15,1.15,0,0,0,50,59v.61l-.49.16a.1.1,0,0,0-.07.13.14.14,0,0,0,.15,0l.41-.14V60l-.39.16c-.06,0-.08.08,0,.13a.11.11,0,0,0,.15,0l.29-.12v.25a.28.28,0,0,0-.23.26.34.34,0,0,0,.68,0,.28.28,0,0,0-.23-.26v-.25l.29.12a.11.11,0,0,0,.15,0c0-.05,0-.1-.05-.13L50.19,60v-.18l.41.14a.13.13,0,0,0,.15,0,.1.1,0,0,0-.06-.13h0l-.5-.16V59a1.15,1.15,0,0,0,.52-.18l.21.18-.21.4a.1.1,0,0,0,.06.13.12.12,0,0,0,.15-.05h0l.17-.34.16.13-.14.34a.09.09,0,0,0,.06.12.12.12,0,0,0,.15,0h0l.1-.25.21.17a.28.28,0,0,0,0,.12.26.26,0,0,0,.1.2.41.41,0,0,0,.24.08.38.38,0,0,0,.24-.08.25.25,0,0,0,0-.4.4.4,0,0,0-.38,0l-.21-.18.31-.08a.09.09,0,0,0,.07-.12.11.11,0,0,0-.14-.06l-.42.11L51.25,59l.41-.15a.09.09,0,0,0,.06-.12.12.12,0,0,0-.15-.05l-.49.17-.21-.17a.8.8,0,0,0,.22-.44h.72l.2.42a.12.12,0,0,0,.14,0,.1.1,0,0,0,.07-.13h0l-.17-.34h.22l.19.33a.14.14,0,0,0,.15,0h0a.09.09,0,0,0,0-.13h0l-.14-.24h.29a.34.34,0,0,0,.32.19.29.29,0,1,0,0-.57Zm-1.28-1.33a.11.11,0,0,1,.08,0c.06,0,.12,0,.12.09a.16.16,0,0,1,0,.07.12.12,0,0,1-.16,0A.09.09,0,0,1,51.85,56.57Zm-1.77-1a.1.1,0,0,1,.11.09.11.11,0,0,1-.22,0h0A.1.1,0,0,1,50.08,55.54ZM48.15,56.7a.09.09,0,0,1,0-.13.11.11,0,0,1,.08,0,.1.1,0,0,1,.11.09.09.09,0,0,1,0,.07A.12.12,0,0,1,48.15,56.7ZM47,58.28a.1.1,0,0,1-.11-.1.1.1,0,0,1,.11-.09.09.09,0,0,1,.1.1A.1.1,0,0,1,47,58.28Zm1.27,1.53a.15.15,0,0,1-.16,0,.09.09,0,0,1,0-.14.14.14,0,0,1,.15,0A.1.1,0,0,1,48.31,59.81Zm1.77,1c-.06,0-.11-.05-.11-.1a.11.11,0,0,1,.11-.09.1.1,0,0,1,.11.1S50.14,60.83,50.08,60.84Zm0-2a.67.67,0,1,1,.79-.66A.74.74,0,0,1,50.08,58.85Zm1.93.82a.08.08,0,0,1,0,.14.15.15,0,0,1-.16,0,.1.1,0,0,1,0-.14l.08,0Zm1.12-1.39a.1.1,0,0,1-.11-.1.1.1,0,0,1,.11-.09.09.09,0,0,1,.1.1A.09.09,0,0,1,53.13,58.28Z" transform="translate(-2 -2.28)"/></g></g><g id="flat-4" data-name="flat"><g id="snowflake-3" data-name="snowflake"><path class="cls-1" d="M38.48,54.74a.41.41,0,1,0,.45.41A.43.43,0,0,0,38.48,54.74Zm0,.66a.26.26,0,0,1-.27-.25.27.27,0,0,1,.54,0A.26.26,0,0,1,38.48,55.4Z" transform="translate(-2 -2.28)"/><path class="cls-1" d="M40.93,54.9a.26.26,0,0,0-.25.17h-.24l.12-.21a.09.09,0,0,0-.16-.07l-.16.28h-.17l.13-.3a.09.09,0,0,0-.05-.11.11.11,0,0,0-.12.05h0l-.16.36h-.58a.69.69,0,0,0-.17-.38l.17-.15.39.15a.1.1,0,0,0,.12,0h0a.08.08,0,0,0,0-.11l-.33-.13.13-.11.33.1a.09.09,0,0,0,.11,0,.07.07,0,0,0-.06-.1l-.24-.08.16-.15.12,0a.32.32,0,0,0,.19-.07.25.25,0,0,0,.08-.18.23.23,0,0,0-.08-.17.28.28,0,0,0-.38,0,.23.23,0,0,0-.08.17.2.2,0,0,0,0,.11l-.17.15-.08-.23a.11.11,0,0,0-.12,0,.09.09,0,0,0,0,.11l.11.3-.12.11-.14-.3A.1.1,0,0,0,39,54a.08.08,0,0,0,0,.11l.17.35-.17.15a.89.89,0,0,0-.42-.15v-.53l.4-.14a.09.09,0,0,0,.05-.11.09.09,0,0,0-.12,0l-.33.11v-.15l.31-.14a.07.07,0,0,0,0-.11.09.09,0,0,0-.12,0h0l-.23.1v-.21a.23.23,0,0,0,.18-.23.27.27,0,0,0-.54,0,.23.23,0,0,0,.18.23v.21l-.23-.1a.09.09,0,0,0-.12,0,.07.07,0,0,0,0,.11l.31.14v.15l-.33-.11a.09.09,0,0,0-.12,0,.1.1,0,0,0,.05.11l.4.14v.53a.89.89,0,0,0-.42.15l-.17-.15.17-.35a.08.08,0,0,0,0-.11.09.09,0,0,0-.12,0h0l-.14.3-.13-.11.11-.3a.08.08,0,0,0,0-.11.11.11,0,0,0-.12,0h0l-.08.23-.16-.15a.43.43,0,0,0,0-.11.2.2,0,0,0-.08-.17.28.28,0,0,0-.38,0,.23.23,0,0,0-.08.17.25.25,0,0,0,.08.18.32.32,0,0,0,.19.07l.12,0,.16.15-.24.08a.07.07,0,0,0-.06.1.09.09,0,0,0,.11,0l.34-.1.12.11-.33.13a.09.09,0,0,0-.05.11.1.1,0,0,0,.12,0h0l.4-.15.16.15a.77.77,0,0,0-.17.38h-.58l-.16-.36a.11.11,0,0,0-.12-.05.09.09,0,0,0-.05.11l.13.3h-.17l-.15-.28a.11.11,0,0,0-.13,0,.08.08,0,0,0,0,.11l.12.21h-.23A.28.28,0,0,0,36,54.9a.27.27,0,0,0-.27.25.26.26,0,0,0,.27.25.28.28,0,0,0,.26-.17h.23l-.12.21a.08.08,0,0,0,0,.11.11.11,0,0,0,.13,0h0l.15-.29h.17l-.13.3a.09.09,0,0,0,.05.11.1.1,0,0,0,.12,0l.16-.36h.58a.77.77,0,0,0,.17.38l-.16.15-.4-.15s-.1,0-.11,0a.07.07,0,0,0,0,.1l.33.13-.12.11-.34-.1A.09.09,0,0,0,37,56a.07.07,0,0,0,.05.1h0l.24.07-.16.15a.29.29,0,0,0-.31,0,.23.23,0,0,0-.08.17.21.21,0,0,0,.08.17.27.27,0,0,0,.38,0,.19.19,0,0,0,.08-.17.43.43,0,0,0,0-.11l.16-.14.08.22a.1.1,0,0,0,.12.05.08.08,0,0,0,.06-.1h0l-.11-.3.13-.11.14.29a.09.09,0,0,0,.12,0h0a.07.07,0,0,0,0-.1h0l-.17-.36.17-.15a.9.9,0,0,0,.42.16v.52l-.4.14a.1.1,0,0,0-.05.11.11.11,0,0,0,.12.05l.33-.12v.15l-.31.15A.07.07,0,0,0,38,57a.09.09,0,0,0,.12,0l.23-.1v.21a.24.24,0,0,0-.18.23.27.27,0,0,0,.54,0,.24.24,0,0,0-.18-.23v-.21l.23.1a.09.09,0,0,0,.12,0,.07.07,0,0,0,0-.11l-.31-.15v-.15l.33.12a.11.11,0,0,0,.12-.05.09.09,0,0,0-.05-.11h0l-.4-.14v-.52a.9.9,0,0,0,.42-.16l.17.15-.17.36a.07.07,0,0,0,0,.1.1.1,0,0,0,.12,0h0L39.3,56l.12.11-.11.3a.07.07,0,0,0,0,.1.09.09,0,0,0,.12-.05h0l.08-.22.17.14a.23.23,0,0,0,0,.11.25.25,0,0,0,.08.18.29.29,0,0,0,.38,0,.25.25,0,0,0,.08-.18.21.21,0,0,0-.08-.17.29.29,0,0,0-.31,0l-.16-.15.24-.07A.09.09,0,0,0,40,56a.1.1,0,0,0-.11-.05l-.33.1-.13-.11.33-.13a.08.08,0,0,0,0-.11.1.1,0,0,0-.12,0l-.39.15-.17-.15a.69.69,0,0,0,.17-.38h.58l.16.36a.1.1,0,0,0,.12,0,.09.09,0,0,0,.05-.11h0l-.13-.3h.17l.16.29a.09.09,0,0,0,.12,0h0a.08.08,0,0,0,0-.11h0l-.12-.21h.24a.26.26,0,0,0,.25.17.26.26,0,0,0,.27-.25A.27.27,0,0,0,40.93,54.9Zm-1-1.16.06,0a.09.09,0,0,1,.09.08.09.09,0,0,1,0,.06.09.09,0,0,1-.12,0A.07.07,0,0,1,39.91,53.74Zm-1.43-.89a.09.09,0,0,1,.09.08.09.09,0,0,1-.18,0h0A.09.09,0,0,1,38.48,52.85Zm-1.55,1a.07.07,0,0,1,0-.12l.06,0a.09.09,0,0,1,.09.08.14.14,0,0,1,0,.06A.1.1,0,0,1,36.93,53.86ZM36,55.23a.09.09,0,0,1-.09-.08.1.1,0,0,1,.09-.08.09.09,0,0,1,.09.08A.08.08,0,0,1,36,55.23Zm1,1.33a.1.1,0,0,1-.13,0,.08.08,0,0,1,0-.12.11.11,0,0,1,.13,0A.09.09,0,0,1,37.06,56.56Zm1.42.89a.08.08,0,1,1,.09-.08A.08.08,0,0,1,38.48,57.45Zm0-1.72a.61.61,0,0,1-.63-.58.6.6,0,0,1,.63-.57.61.61,0,0,1,.64.57A.61.61,0,0,1,38.48,55.73Zm1.55.71a.07.07,0,0,1,0,.12.09.09,0,0,1-.12,0,.07.07,0,0,1,0-.12l.06,0Zm.9-1.21a.09.09,0,0,1-.09-.08.1.1,0,0,1,.09-.08.09.09,0,0,1,.09.08A.08.08,0,0,1,40.93,55.23Z" transform="translate(-2 -2.28)"/></g></g><g id="flat-5" data-name="flat"><g id="snowflake-4" data-name="snowflake"><path class="cls-1" d="M32,48a.41.41,0,1,0,.45.41A.43.43,0,0,0,32,48Zm0,.66a.27.27,0,0,1-.27-.25.27.27,0,0,1,.54,0A.27.27,0,0,1,32,48.68Z" transform="translate(-2 -2.28)"/><path class="cls-1" d="M34.45,48.18a.29.29,0,0,0-.26.17H34l.12-.21A.08.08,0,0,0,34,48a.09.09,0,0,0-.12,0l-.16.29h-.17l.13-.3a.09.09,0,0,0,0-.11.1.1,0,0,0-.12.05h0l-.16.36h-.58a.77.77,0,0,0-.17-.38l.16-.15.4.15a.1.1,0,0,0,.12,0h0a.09.09,0,0,0,0-.11l-.33-.13.12-.11.34.1s.1,0,.11,0a.09.09,0,0,0-.06-.11l-.24-.07.16-.15a.27.27,0,0,0,.12,0,.27.27,0,0,0,.19-.08.22.22,0,0,0,0-.34.28.28,0,0,0-.38,0,.21.21,0,0,0-.08.17.43.43,0,0,0,0,.11l-.16.14L33,47.11a.11.11,0,0,0-.12,0s-.07.06-.05.1l.11.3-.13.11-.14-.29a.09.09,0,0,0-.12,0,.07.07,0,0,0,0,.1l.17.36-.17.15a.9.9,0,0,0-.42-.16v-.52l.4-.14a.09.09,0,0,0,0-.11.11.11,0,0,0-.12-.05l-.33.12v-.15l.31-.15a.07.07,0,0,0,0-.11.09.09,0,0,0-.12,0h0l-.23.1v-.21a.24.24,0,0,0,.18-.23.27.27,0,0,0-.54,0,.23.23,0,0,0,.18.23v.21l-.23-.1a.09.09,0,0,0-.12,0,.07.07,0,0,0,0,.11l.31.15V47l-.33-.12a.11.11,0,0,0-.12.05.1.1,0,0,0,.05.11l.4.14v.52a.9.9,0,0,0-.42.16l-.17-.15.17-.36a.07.07,0,0,0,0-.1.09.09,0,0,0-.12,0h0l-.14.29-.13-.11.11-.3a.07.07,0,0,0-.05-.1.1.1,0,0,0-.12,0h0l-.08.22-.16-.14a.43.43,0,0,0,0-.11.21.21,0,0,0-.08-.17.28.28,0,0,0-.38,0,.22.22,0,0,0,0,.34.27.27,0,0,0,.19.08.27.27,0,0,0,.12,0l.16.15-.24.07a.09.09,0,0,0-.06.11.1.1,0,0,0,.11,0l.34-.1.12.11-.33.13a.09.09,0,0,0-.05.11.1.1,0,0,0,.12,0h0l.4-.15.16.15a.77.77,0,0,0-.17.38h-.58L30.45,48a.09.09,0,0,0-.17.06l.13.3h-.17l-.16-.29A.09.09,0,0,0,30,48a.08.08,0,0,0,0,.11l.12.21h-.23a.29.29,0,0,0-.26-.17.26.26,0,0,0-.27.25.27.27,0,0,0,.27.25.29.29,0,0,0,.26-.17H30l-.12.21a.08.08,0,0,0,0,.11.09.09,0,0,0,.12,0h0l.16-.28h.17l-.13.3a.09.09,0,0,0,0,.11.11.11,0,0,0,.12-.05l.16-.36h.58a.77.77,0,0,0,.17.38L31.2,49l-.4-.15a.08.08,0,0,0-.11,0,.07.07,0,0,0,0,.1l.33.13-.12.11-.34-.1a.08.08,0,0,0-.11,0,.07.07,0,0,0,.05.1h0l.24.08-.16.15a.31.31,0,0,0-.31,0,.25.25,0,0,0-.08.18.23.23,0,0,0,.08.17.29.29,0,0,0,.38,0,.23.23,0,0,0,.08-.17.43.43,0,0,0,0-.11l.16-.15.08.23a.1.1,0,0,0,.11,0,.09.09,0,0,0,.07-.1h0l-.11-.3.13-.11.14.3a.08.08,0,0,0,.11,0h0a.08.08,0,0,0,0-.11h0l-.17-.35.17-.15a.89.89,0,0,0,.42.15v.53l-.4.14a.09.09,0,0,0-.05.11.09.09,0,0,0,.12,0l.33-.11V50l-.31.14a.07.07,0,0,0,0,.11.09.09,0,0,0,.12,0l.23-.1v.21a.23.23,0,0,0-.18.23.27.27,0,0,0,.54,0,.23.23,0,0,0-.18-.23v-.21l.23.1a.09.09,0,0,0,.12,0,.07.07,0,0,0,0-.11L32.09,50v-.15l.33.11a.09.09,0,0,0,.12,0,.09.09,0,0,0,0-.11h0l-.4-.14v-.53a.89.89,0,0,0,.42-.15l.17.15-.17.35a.08.08,0,0,0,.05.11.08.08,0,0,0,.11,0h0l.14-.3.13.11-.11.3a.08.08,0,0,0,.05.11.1.1,0,0,0,.12,0h0l.08-.23.16.15a.43.43,0,0,0,0,.11.23.23,0,0,0,.08.17.29.29,0,0,0,.38,0,.23.23,0,0,0,.08-.17.25.25,0,0,0-.08-.18.31.31,0,0,0-.31,0l-.16-.15.24-.08a.07.07,0,0,0,.06-.1.09.09,0,0,0-.11,0l-.34.1-.12-.11.33-.13a.09.09,0,0,0,0-.11.1.1,0,0,0-.12,0l-.4.15-.16-.15a.77.77,0,0,0,.17-.38h.58l.16.36a.11.11,0,0,0,.12.05.09.09,0,0,0,0-.11h0l-.13-.3h.17l.16.28a.09.09,0,0,0,.12,0h0a.08.08,0,0,0,0-.11h0L34,48.51h.23a.29.29,0,0,0,.26.17.27.27,0,0,0,.27-.25A.26.26,0,0,0,34.45,48.18Zm-1-1.16.06,0a.08.08,0,0,1,.09.08.09.09,0,0,1,0,.06.09.09,0,0,1-.12,0A.08.08,0,0,1,33.43,47ZM32,46.13a.08.08,0,0,1,.09.08.09.09,0,0,1-.18,0h0A.08.08,0,0,1,32,46.13Zm-1.55,1a.07.07,0,0,1,0-.12l.06,0a.08.08,0,0,1,.09.08.09.09,0,0,1,0,.06A.09.09,0,0,1,30.45,47.14Zm-.9,1.37a.08.08,0,1,1,.09-.08A.1.1,0,0,1,29.55,48.51Zm1,1.33a.09.09,0,0,1-.12,0,.08.08,0,0,1,0-.12.09.09,0,0,1,.12,0A.07.07,0,0,1,30.57,49.84Zm1.43.89a.09.09,0,0,1-.09-.09.09.09,0,0,1,.18,0A.1.1,0,0,1,32,50.73ZM32,49a.61.61,0,0,1-.64-.57.64.64,0,0,1,1.28,0A.61.61,0,0,1,32,49Zm1.55.72a.07.07,0,0,1,0,.12.09.09,0,0,1-.12,0,.07.07,0,0,1,0-.12s0,0,.06,0S33.54,49.7,33.55,49.72Zm.9-1.21a.08.08,0,1,1,.09-.08A.1.1,0,0,1,34.45,48.51Z" transform="translate(-2 -2.28)"/></g></g><g id="flat-6" data-name="flat"><g id="snowflake-5" data-name="snowflake"><path class="cls-1" d="M21.76,44.84a.35.35,0,1,0,.41.35A.37.37,0,0,0,21.76,44.84Zm0,.55a.21.21,0,1,1,0-.41.21.21,0,1,1,0,.41Z" transform="translate(-2 -2.28)"/><path class="cls-1" d="M24,45a.23.23,0,0,0-.23.14h-.21l.11-.18a.06.06,0,0,0,0-.09.08.08,0,0,0-.11,0l-.14.24h-.15l.11-.25a.06.06,0,0,0,0-.09.09.09,0,0,0-.11,0h0l-.14.31h-.51a.58.58,0,0,0-.16-.32l.15-.13.35.13a.09.09,0,0,0,.11,0h0a.07.07,0,0,0-.05-.09l-.29-.11.11-.09.3.09a.08.08,0,0,0,.1-.05.08.08,0,0,0-.05-.09l-.22-.06.15-.12.1,0a.24.24,0,0,0,.17-.06.19.19,0,0,0,.07-.15.18.18,0,0,0-.07-.15.27.27,0,0,0-.34,0,.18.18,0,0,0-.07.15.29.29,0,0,0,0,.09l-.14.12-.08-.18a.08.08,0,0,0-.1,0,.08.08,0,0,0-.05.09l.1.25-.11.1-.13-.25s-.06,0-.1,0-.06.06,0,.09l.15.3-.15.13a.82.82,0,0,0-.38-.13v-.45L22.2,44a.06.06,0,0,0,0-.09.08.08,0,0,0-.1,0l-.3.1v-.14l.28-.12a.06.06,0,0,0,0-.09.09.09,0,0,0-.11,0h0l-.21.09v-.18a.22.22,0,0,0,.17-.19.23.23,0,0,0-.25-.21.23.23,0,0,0-.24.21.21.21,0,0,0,.16.19v.18l-.2-.09a.09.09,0,0,0-.11,0s0,.08,0,.09l.28.12V44l-.29-.1a.08.08,0,0,0-.11,0,.07.07,0,0,0,0,.08l.35.12v.45a.82.82,0,0,0-.37.13l-.15-.13.15-.3s0-.07,0-.09a.09.09,0,0,0-.11,0h0l-.12.25-.11-.1.1-.25A.07.07,0,0,0,21,44a.11.11,0,0,0-.11,0h0l-.07.18-.15-.12a.16.16,0,0,0,0-.09.21.21,0,0,0-.07-.15.29.29,0,0,0-.35,0,.21.21,0,0,0-.07.15.23.23,0,0,0,.07.15.28.28,0,0,0,.18.06l.1,0,.15.12-.22.06s-.07.06,0,.09a.08.08,0,0,0,.1.05l.29-.09.11.09-.29.11s-.06.06,0,.09a.09.09,0,0,0,.11,0h0l.35-.13.15.13a.58.58,0,0,0-.16.32h-.52l-.14-.31a.07.07,0,0,0-.1,0,.07.07,0,0,0-.05.09l.12.25H20.2l-.14-.24a.08.08,0,0,0-.11,0,.06.06,0,0,0,0,.09l.11.18h-.21a.24.24,0,0,0-.23-.14.21.21,0,1,0,0,.41.25.25,0,0,0,.23-.13H20l-.11.17a.07.07,0,0,0,0,.1.09.09,0,0,0,.11,0h0l.14-.23h.15l-.12.25a.08.08,0,0,0,.05.09.09.09,0,0,0,.1,0l.14-.3H21a.58.58,0,0,0,.16.31l-.15.13-.35-.13a.1.1,0,0,0-.11,0,.08.08,0,0,0,0,.09l.29.11-.11.09-.29-.08a.07.07,0,0,0-.1,0s0,.07,0,.09h0l.22.06-.15.13a.26.26,0,0,0-.28,0,.19.19,0,0,0-.07.14.21.21,0,0,0,.07.15.28.28,0,0,0,.18.06.27.27,0,0,0,.17-.06.21.21,0,0,0,.07-.15.16.16,0,0,0,0-.09l.15-.12.07.19a.1.1,0,0,0,.1,0,.07.07,0,0,0,.06-.08h0l-.1-.25.11-.09.12.24a.08.08,0,0,0,.11,0h0a.06.06,0,0,0,0-.09h0l-.15-.3.15-.13a.72.72,0,0,0,.37.13v.45l-.35.12a.06.06,0,0,0,0,.09.09.09,0,0,0,.1,0l.29-.1v.13l-.28.12a.06.06,0,0,0,0,.09.09.09,0,0,0,.11,0l.2-.09v.18a.2.2,0,0,0,.08.4.23.23,0,0,0,.25-.2.22.22,0,0,0-.17-.2v-.18l.21.09a.09.09,0,0,0,.11,0,.06.06,0,0,0,0-.09l-.28-.12V46.4l.3.1a.09.09,0,0,0,.1,0,.06.06,0,0,0,0-.09h0l-.36-.12v-.44a.83.83,0,0,0,.38-.14l.15.13-.15.3a.06.06,0,0,0,0,.09.07.07,0,0,0,.1,0h0l.13-.24.11.09-.1.25a.07.07,0,0,0,.05.09s.09,0,.1,0h0l.08-.19.14.12a.29.29,0,0,0,0,.09.18.18,0,0,0,.07.15.27.27,0,0,0,.17.06.24.24,0,0,0,.17-.06.18.18,0,0,0,.07-.15.16.16,0,0,0-.07-.14.24.24,0,0,0-.27,0L22.84,46l.22-.06a.07.07,0,0,0,.05-.09.07.07,0,0,0-.1,0l-.3.08-.11-.09.29-.11a.07.07,0,0,0,.05-.09.09.09,0,0,0-.11,0l-.35.13-.15-.13a.58.58,0,0,0,.16-.31H23l.14.3a.11.11,0,0,0,.11,0s.06-.06,0-.09h0l-.11-.25h.15l.14.23a.08.08,0,0,0,.11,0h0a.06.06,0,0,0,0-.09h0l-.11-.17h.21a.23.23,0,0,0,.23.13A.21.21,0,1,0,24,45ZM23,44l.06,0a.07.07,0,0,1,.08.07.08.08,0,0,1,0,.05.13.13,0,0,1-.12,0A.07.07,0,0,1,23,44Zm-1.27-.75a.07.07,0,0,1,.08.07.08.08,0,0,1-.08.07.09.09,0,0,1-.08-.07h0A.08.08,0,0,1,21.76,43.25Zm-1.38.85a.07.07,0,0,1,0-.1l.06,0a.08.08,0,0,1,.08.07.05.05,0,0,1,0,.05A.11.11,0,0,1,20.38,44.1Zm-.8,1.16s-.08,0-.08-.08,0-.06.08-.06a.08.08,0,0,1,.08.07S19.62,45.25,19.58,45.26Zm.91,1.11a.08.08,0,0,1-.11,0,.07.07,0,0,1,0-.1.11.11,0,0,1,.11,0A.07.07,0,0,1,20.49,46.37Zm1.27.75s-.08,0-.07-.07a.07.07,0,0,1,.07-.06.07.07,0,0,1,.08.07S21.81,47.12,21.76,47.12Zm0-1.45a.49.49,0,1,1,.57-.48A.53.53,0,0,1,21.76,45.67Zm1.39.6a.07.07,0,0,1,0,.1.09.09,0,0,1-.12,0,.07.07,0,0,1,0-.1l.06,0Zm.8-1c-.05,0-.08,0-.08-.08s0-.06.08-.06.08,0,.07.07A.08.08,0,0,1,24,45.26Z" transform="translate(-2 -2.28)"/></g></g><g id="flat-7" data-name="flat"><g id="snowflake-6" data-name="snowflake"><path class="cls-1" d="M16.64,56.77a.38.38,0,1,0,0,.76.38.38,0,1,0,0-.76Zm0,.61a.25.25,0,0,1-.26-.23.26.26,0,0,1,.52,0A.25.25,0,0,1,16.64,57.38Z" transform="translate(-2 -2.28)"/><path class="cls-1" d="M19,56.92a.25.25,0,0,0-.24.15H18.5l.11-.19a.07.07,0,0,0,0-.1.09.09,0,0,0-.12,0l-.15.26h-.16l.13-.27a.08.08,0,0,0-.05-.1.08.08,0,0,0-.11,0h0l-.15.33h-.55a.61.61,0,0,0-.17-.35l.16-.14.37.14a.09.09,0,0,0,.12,0h0a.09.09,0,0,0-.05-.1l-.31-.11.12-.11.31.1a.09.09,0,0,0,.11-.05s0-.08-.05-.1l-.24-.07.16-.13.11,0a.29.29,0,0,0,.18-.07.2.2,0,0,0,0-.32.27.27,0,0,0-.36,0,.21.21,0,0,0-.08.16.19.19,0,0,0,0,.1l-.16.14-.07-.21a.1.1,0,0,0-.11,0,.08.08,0,0,0-.06.1l.11.28-.12.1-.13-.27a.08.08,0,0,0-.11,0,.07.07,0,0,0-.05.1l.16.32-.16.14a.77.77,0,0,0-.39-.14V56l.37-.13s.07-.06,0-.1a.08.08,0,0,0-.11,0l-.31.11v-.15l.29-.13a.07.07,0,0,0,0-.1.08.08,0,0,0-.11,0h0l-.22.09v-.19a.23.23,0,0,0,.17-.21.26.26,0,0,0-.52,0,.24.24,0,0,0,.18.21v.19l-.22-.09a.09.09,0,0,0-.12,0,.07.07,0,0,0,0,.1l.3.13v.15l-.32-.11a.08.08,0,0,0-.11,0,.09.09,0,0,0,.05.1l.38.13v.49a.77.77,0,0,0-.4.14L16,56.47l.16-.32a.08.08,0,0,0,0-.11s-.1,0-.11,0h0l-.13.27-.11-.1.1-.28s0-.08,0-.1a.09.09,0,0,0-.11,0h0l-.08.21L15.47,56a.36.36,0,0,0,0-.1.24.24,0,0,0-.07-.16.29.29,0,0,0-.37,0,.22.22,0,0,0,0,.32.29.29,0,0,0,.18.07l.11,0,.16.13-.23.07s-.07.06,0,.1a.08.08,0,0,0,.1.05l.32-.1.11.11-.31.11a.07.07,0,0,0,0,.1.08.08,0,0,0,.11,0h0l.37-.14.16.14a.68.68,0,0,0-.17.35h-.54l-.15-.33a.08.08,0,0,0-.11,0,.07.07,0,0,0-.05.1l.12.27H15l-.15-.26a.08.08,0,0,0-.11,0,.07.07,0,0,0,0,.1l.11.19h-.22a.27.27,0,0,0-.24-.15.24.24,0,0,0-.26.23.25.25,0,0,0,.26.23.28.28,0,0,0,.24-.16h.22l-.11.2a.07.07,0,0,0,0,.1.09.09,0,0,0,.11,0h0l.15-.27h.16L15,57.5s0,.08.05.1a.11.11,0,0,0,.11,0l.15-.34h.54a.68.68,0,0,0,.17.35l-.16.14-.37-.14a.1.1,0,0,0-.11,0,.06.06,0,0,0,0,.09l.31.12-.11.1-.32-.09a.1.1,0,0,0-.11,0,.07.07,0,0,0,.06.09h0l.23.07-.16.14a.3.3,0,0,0-.29,0,.21.21,0,0,0-.07.16.22.22,0,0,0,.07.17.3.3,0,0,0,.18.06.31.31,0,0,0,.19-.06.26.26,0,0,0,.07-.17.29.29,0,0,0,0-.09l.15-.14.08.21a.08.08,0,0,0,.1.05s.08-.06.06-.1h0l-.1-.28.11-.1.13.27a.09.09,0,0,0,.12,0h0a.07.07,0,0,0,0-.1h0L16,57.82l.16-.14a.88.88,0,0,0,.4.15v.48l-.38.13a.09.09,0,0,0-.05.1.1.1,0,0,0,.11.05l.32-.11v.14l-.3.13a.08.08,0,0,0,0,.1.09.09,0,0,0,.12,0l.22-.1V59a.22.22,0,0,0-.18.21.26.26,0,0,0,.52,0,.22.22,0,0,0-.17-.21v-.2l.22.1a.08.08,0,0,0,.11,0,.07.07,0,0,0,0-.1l-.29-.13v-.14l.31.11a.1.1,0,0,0,.11-.05s0-.08,0-.1h0l-.37-.13v-.48a.88.88,0,0,0,.39-.15l.16.14-.16.33s0,.08.05.1a.08.08,0,0,0,.11,0h0l.13-.27.12.1-.11.28a.07.07,0,0,0,0,.09.08.08,0,0,0,.11,0h0l.07-.21.16.14a.17.17,0,0,0,0,.1.23.23,0,0,0,.08.16.3.3,0,0,0,.36,0,.23.23,0,0,0,.08-.16.23.23,0,0,0-.08-.17.3.3,0,0,0-.29,0l-.16-.14L18,58a.07.07,0,0,0,.05-.09.09.09,0,0,0-.11,0l-.31.09-.12-.1.31-.12a.08.08,0,0,0,.05-.1.1.1,0,0,0-.12,0l-.37.14-.16-.14a.61.61,0,0,0,.17-.35H18l.15.34s.06,0,.11,0a.09.09,0,0,0,.05-.1h0l-.13-.28h.16l.15.27a.1.1,0,0,0,.12,0h0a.07.07,0,0,0,0-.1h0l-.11-.2h.22a.26.26,0,0,0,.5-.07A.25.25,0,0,0,19,56.92Zm-1-1.07a.09.09,0,0,1,.06,0,.09.09,0,0,1,.09.08.05.05,0,0,1,0,.05A.09.09,0,0,1,18,56,.07.07,0,0,1,18,55.85ZM16.64,55a.08.08,0,0,1,.09.08.08.08,0,0,1-.09.07.07.07,0,0,1-.08-.07h0A.07.07,0,0,1,16.64,55ZM15.17,56a.07.07,0,0,1,0-.1.09.09,0,0,1,.06,0,.09.09,0,0,1,.09.08.05.05,0,0,1,0,.05A.09.09,0,0,1,15.17,56Zm-.84,1.27a.08.08,0,0,1-.09-.08.09.09,0,0,1,.09-.07.09.09,0,0,1,.08.08A.08.08,0,0,1,14.33,57.22Zm1,1.23a.09.09,0,0,1-.12,0,.07.07,0,0,1,0-.11.08.08,0,0,1,.11,0A.07.07,0,0,1,15.29,58.45Zm1.35.83c-.05,0-.08,0-.08-.08s0-.07.08-.08.09,0,.08.08S16.69,59.27,16.64,59.28Zm0-1.6a.57.57,0,0,1-.6-.53.6.6,0,0,1,1.2,0A.57.57,0,0,1,16.64,57.68Zm1.47.66a.08.08,0,0,1,0,.11.09.09,0,0,1-.12,0,.08.08,0,0,1,0-.11l.06,0ZM19,57.22c-.05,0-.09,0-.08-.08a.07.07,0,0,1,.08-.07.08.08,0,0,1,.08.08A.08.08,0,0,1,19,57.22Z" transform="translate(-2 -2.28)"/></g></g><g id="flat-8" data-name="flat"><g id="snowflake-7" data-name="snowflake"><path class="cls-1" d="M27,56.87a.71.71,0,0,0-.73.69.74.74,0,1,0,.73-.69ZM27,58a.43.43,0,0,1-.44-.42.43.43,0,0,1,.44-.41.42.42,0,0,1,.44.41A.43.43,0,0,1,27,58Z" transform="translate(-2 -2.28)"/><path class="cls-1" d="M31,57.15a.44.44,0,0,0-.41.27h-.38l.19-.35a.12.12,0,0,0-.07-.18.14.14,0,0,0-.19.06l-.26.47h-.28l.22-.5a.14.14,0,0,0-.09-.18.15.15,0,0,0-.19.08h0l-.25.6h-.94a1.24,1.24,0,0,0-.28-.63l.27-.26.63.26a.16.16,0,0,0,.2-.07h0a.15.15,0,0,0-.08-.19l-.53-.21.2-.19.54.17a.14.14,0,0,0,.18-.08.13.13,0,0,0-.09-.18l-.4-.13.27-.25a.41.41,0,0,0,.19.05.48.48,0,0,0,.31-.13.39.39,0,0,0,0-.58.47.47,0,0,0-.63,0,.39.39,0,0,0-.13.29.41.41,0,0,0,.05.18l-.27.25-.13-.38a.15.15,0,0,0-.19-.08.14.14,0,0,0-.09.17l.18.51-.2.18-.22-.49a.16.16,0,0,0-.2-.07.13.13,0,0,0-.07.18l.27.6-.27.25a1.4,1.4,0,0,0-.68-.27v-.88l.64-.24a.13.13,0,0,0,.08-.18.16.16,0,0,0-.19-.08l-.53.2v-.26l.51-.24a.14.14,0,0,0,.06-.19.16.16,0,0,0-.2-.06h0l-.37.18v-.36a.4.4,0,0,0,.29-.39.42.42,0,0,0-.44-.41.43.43,0,0,0-.44.41.41.41,0,0,0,.3.39v.36l-.38-.18a.17.17,0,0,0-.2.06.15.15,0,0,0,.07.19l.51.24v.26l-.54-.2a.15.15,0,0,0-.19.08.14.14,0,0,0,.08.18l.65.24v.88a1.36,1.36,0,0,0-.68.27l-.27-.25.27-.6a.14.14,0,0,0-.08-.19.15.15,0,0,0-.19.07h0l-.23.49-.2-.18.18-.51a.12.12,0,0,0-.09-.17.14.14,0,0,0-.18.08h0l-.13.38L25,55.47a.58.58,0,0,0,0-.18A.39.39,0,0,0,24.9,55a.46.46,0,0,0-.62,0,.36.36,0,0,0-.13.29.37.37,0,0,0,.13.29.44.44,0,0,0,.31.13.41.41,0,0,0,.19-.05l.26.25-.39.13a.13.13,0,0,0-.09.18.14.14,0,0,0,.18.08l.54-.17.19.19-.52.21a.14.14,0,0,0-.08.19.15.15,0,0,0,.19.07h0l.64-.26.27.26a1.16,1.16,0,0,0-.28.63h-.94l-.26-.6a.15.15,0,0,0-.19-.08.14.14,0,0,0-.08.18l.21.5h-.28L23.9,57a.15.15,0,0,0-.2-.06.12.12,0,0,0-.06.18l.18.35h-.37a.45.45,0,0,0-.42-.27.43.43,0,0,0-.44.41A.43.43,0,0,0,23,58a.45.45,0,0,0,.42-.28h.37l-.18.36a.13.13,0,0,0,.06.18.15.15,0,0,0,.2-.06h0l.25-.48h.28l-.21.5a.13.13,0,0,0,.08.18.14.14,0,0,0,.19-.07l.26-.61h.94a1.16,1.16,0,0,0,.28.64l-.27.25-.64-.25a.15.15,0,0,0-.19.08.14.14,0,0,0,.08.17l.52.22-.19.18-.54-.17a.16.16,0,0,0-.19.09.16.16,0,0,0,.09.18h0l.39.12-.26.25a.48.48,0,0,0-.5.08.39.39,0,0,0-.13.3.37.37,0,0,0,.13.29.46.46,0,0,0,.62,0,.41.41,0,0,0,.13-.29.48.48,0,0,0,0-.18l.26-.25.13.37a.16.16,0,0,0,.19.1.15.15,0,0,0,.1-.18h0l-.18-.5.2-.19.23.5a.15.15,0,0,0,.19.07h0a.13.13,0,0,0,.08-.18h0l-.27-.6.27-.25a1.35,1.35,0,0,0,.68.26v.89l-.65.24a.14.14,0,0,0-.08.18.15.15,0,0,0,.19.07l.54-.2v.27l-.51.24a.14.14,0,0,0-.07.18.15.15,0,0,0,.2.06l.38-.17v.35a.42.42,0,0,0-.3.39.43.43,0,0,0,.44.42.43.43,0,0,0,.44-.42.41.41,0,0,0-.29-.39v-.35l.37.17a.14.14,0,0,0,.2-.06.12.12,0,0,0-.06-.18l-.51-.24V60l.53.2a.14.14,0,0,0,.19-.07.13.13,0,0,0-.08-.18h0l-.64-.24V58.8a1.38,1.38,0,0,0,.68-.26l.27.25-.27.6a.13.13,0,0,0,.07.18.16.16,0,0,0,.2-.07h0l.22-.5.2.19-.18.5a.13.13,0,0,0,.09.18.15.15,0,0,0,.19-.08h0l.13-.37.27.25a.35.35,0,0,0-.05.18.41.41,0,0,0,.13.29.47.47,0,0,0,.32.12.45.45,0,0,0,.31-.12.41.41,0,0,0,.13-.29.43.43,0,0,0-.13-.3.48.48,0,0,0-.5-.08L29,59.21l.4-.12a.14.14,0,0,0,.09-.18.16.16,0,0,0-.18-.09l-.54.17-.2-.18.53-.22a.14.14,0,0,0,.08-.18.16.16,0,0,0-.2-.07l-.63.26L28,58.34a1.24,1.24,0,0,0,.28-.64h.94l.25.61a.15.15,0,0,0,.19.07.13.13,0,0,0,.09-.18h0l-.22-.5h.28l.26.48a.14.14,0,0,0,.19.06h0a.12.12,0,0,0,.07-.18h0l-.19-.36h.38A.43.43,0,0,0,31,58a.43.43,0,0,0,.44-.42A.42.42,0,0,0,31,57.15Zm-1.66-2a.21.21,0,0,1,.11,0,.14.14,0,0,1,.14.14.13.13,0,0,1,0,.1.17.17,0,0,1-.21,0A.13.13,0,0,1,29.31,55.19ZM27,53.69a.14.14,0,0,1,.15.13A.15.15,0,0,1,27,54a.14.14,0,0,1-.14-.14h0A.13.13,0,0,1,27,53.69Zm-2.52,1.7a.14.14,0,0,1,0-.2.15.15,0,0,1,.1,0,.15.15,0,0,1,.15.14.14.14,0,0,1,0,.1A.17.17,0,0,1,24.48,55.39ZM23,57.7a.14.14,0,0,1-.14-.14.16.16,0,0,1,.14-.14.14.14,0,0,1,.14.15A.13.13,0,0,1,23,57.7Zm1.66,2.23a.14.14,0,0,1-.21,0,.13.13,0,0,1,0-.19.15.15,0,0,1,.2,0A.12.12,0,0,1,24.69,59.93ZM27,61.44a.14.14,0,0,1-.14-.14.16.16,0,0,1,.14-.14.14.14,0,0,1,.14.15A.13.13,0,0,1,27,61.44Zm0-2.91a1,1,0,1,1,1-1A1,1,0,0,1,27,58.53Zm2.52,1.21a.12.12,0,0,1,0,.19.15.15,0,0,1-.21,0,.13.13,0,0,1,0-.19.15.15,0,0,1,.11,0A.13.13,0,0,1,29.52,59.74Zm1.45-2a.14.14,0,0,1-.14-.14.17.17,0,0,1,.14-.14.14.14,0,0,1,.14.15A.13.13,0,0,1,31,57.7Z" transform="translate(-2 -2.28)"/></g></g><g id="flat-9" data-name="flat"><g id="snowflake-8" data-name="snowflake"><path class="cls-1" d="M45.28,47.32A.7.7,0,1,0,46,48,.71.71,0,0,0,45.28,47.32Zm0,1.11a.43.43,0,0,1-.44-.42.43.43,0,0,1,.44-.41.42.42,0,0,1,.44.41A.43.43,0,0,1,45.28,48.43Z" transform="translate(-2 -2.28)"/><path class="cls-1" d="M49.25,47.6a.44.44,0,0,0-.41.27h-.38l.19-.35a.12.12,0,0,0-.07-.18.14.14,0,0,0-.19.06l-.26.47h-.28l.22-.5a.14.14,0,0,0-.08-.18.16.16,0,0,0-.2.08h0l-.25.6H46.6a1.24,1.24,0,0,0-.28-.63l.27-.26.63.26a.16.16,0,0,0,.2-.07h0a.15.15,0,0,0-.08-.19l-.53-.21.2-.19.54.17a.14.14,0,0,0,.18-.08.13.13,0,0,0-.09-.18l-.4-.12.27-.26a.41.41,0,0,0,.19,0A.44.44,0,0,0,48,46a.39.39,0,0,0,0-.58.46.46,0,0,0-.62,0,.36.36,0,0,0-.13.29.39.39,0,0,0,0,.18l-.27.25-.13-.38a.15.15,0,0,0-.19-.08.14.14,0,0,0-.09.17l.18.51-.2.18-.22-.49a.16.16,0,0,0-.2-.07.14.14,0,0,0-.07.18l.27.6-.27.25a1.29,1.29,0,0,0-.68-.26v-.89l.64-.24a.13.13,0,0,0,.08-.18.16.16,0,0,0-.19-.08l-.53.2v-.26l.51-.24A.14.14,0,0,0,46,44.9a.15.15,0,0,0-.19-.06h0l-.38.18v-.36a.4.4,0,0,0,.29-.39.42.42,0,0,0-.44-.41.43.43,0,0,0-.44.41.42.42,0,0,0,.3.39V45l-.38-.18a.17.17,0,0,0-.2.06.15.15,0,0,0,.07.19l.51.24v.26l-.54-.2a.15.15,0,0,0-.19.08.14.14,0,0,0,.08.18l.65.24v.88a1.36,1.36,0,0,0-.68.27l-.27-.25.27-.6a.15.15,0,0,0-.07-.19.16.16,0,0,0-.2.07h0l-.23.49-.19-.18.18-.51a.15.15,0,0,0-.28-.09h0l-.14.38-.26-.25a.58.58,0,0,0,0-.18.39.39,0,0,0-.13-.29.46.46,0,0,0-.62,0,.39.39,0,0,0,0,.58.44.44,0,0,0,.31.13.41.41,0,0,0,.19,0l.27.25-.4.13a.13.13,0,0,0-.09.18.14.14,0,0,0,.18.08l.54-.17.2.19-.53.21a.14.14,0,0,0-.08.19.15.15,0,0,0,.19.07h0L44,47l.27.26a1.16,1.16,0,0,0-.28.63H43l-.26-.6a.15.15,0,0,0-.19-.08.14.14,0,0,0-.08.18l.21.5h-.28l-.25-.47a.15.15,0,0,0-.2-.06.12.12,0,0,0-.06.18l.18.35h-.37a.44.44,0,0,0-.42-.27.43.43,0,0,0-.44.41.45.45,0,0,0,.86.14h.37l-.18.36a.13.13,0,0,0,.06.18.15.15,0,0,0,.2-.06h0l.25-.48h.28l-.21.5a.13.13,0,0,0,.08.18.14.14,0,0,0,.19-.07l.26-.61H44a1.16,1.16,0,0,0,.28.64l-.27.26-.64-.26a.15.15,0,0,0-.19.08.14.14,0,0,0,.08.17l.53.22-.2.18L43,49.27a.16.16,0,0,0-.19.09.16.16,0,0,0,.09.18h0l.4.12-.27.25a.48.48,0,0,0-.5.08.39.39,0,0,0-.13.3.37.37,0,0,0,.13.29.46.46,0,0,0,.62,0,.41.41,0,0,0,.13-.29.48.48,0,0,0,0-.18l.26-.25.14.37a.14.14,0,0,0,.18.1.15.15,0,0,0,.1-.18h0l-.17-.5.19-.19.23.5a.15.15,0,0,0,.19.07h0a.13.13,0,0,0,.08-.18h0l-.27-.6.27-.25a1.35,1.35,0,0,0,.68.26v.89l-.65.24a.14.14,0,0,0-.08.18.15.15,0,0,0,.19.07l.54-.2v.27l-.51.24a.14.14,0,0,0-.07.18.15.15,0,0,0,.2.06l.38-.17v.35a.42.42,0,0,0-.3.39.43.43,0,0,0,.44.42.43.43,0,0,0,.44-.42.41.41,0,0,0-.29-.39V51l.38.17a.14.14,0,0,0,.19-.06.12.12,0,0,0-.06-.18l-.51-.24v-.27l.53.2a.16.16,0,0,0,.2-.07.14.14,0,0,0-.09-.18h0l-.64-.24v-.89a1.38,1.38,0,0,0,.68-.26l.27.25-.27.6a.13.13,0,0,0,.07.18.16.16,0,0,0,.2-.07h0l.22-.5.2.19-.18.5a.13.13,0,0,0,.09.18.15.15,0,0,0,.19-.08h0l.13-.37.27.25a.34.34,0,0,0,0,.18.37.37,0,0,0,.13.29.43.43,0,0,0,.31.12.45.45,0,0,0,.31-.12.41.41,0,0,0,.13-.29A.43.43,0,0,0,48,50a.48.48,0,0,0-.5-.08l-.27-.25.4-.12a.14.14,0,0,0,.09-.18.16.16,0,0,0-.18-.09l-.54.17-.2-.18.53-.22a.14.14,0,0,0,.08-.18.16.16,0,0,0-.2-.07l-.63.26-.27-.26a1.24,1.24,0,0,0,.28-.64h.94l.25.61a.16.16,0,0,0,.2.07.13.13,0,0,0,.08-.18h0l-.22-.5h.28l.26.48a.14.14,0,0,0,.19.06h0a.12.12,0,0,0,.07-.18h0l-.19-.36h.38A.45.45,0,0,0,49.7,48,.43.43,0,0,0,49.25,47.6Zm-1.66-2a.21.21,0,0,1,.11,0,.14.14,0,0,1,.14.14.13.13,0,0,1,0,.1.17.17,0,0,1-.21,0A.15.15,0,0,1,47.59,45.64Zm-2.31-1.5a.14.14,0,0,1,.15.13.14.14,0,0,1-.15.14.14.14,0,0,1-.14-.14h0A.13.13,0,0,1,45.28,44.14Zm-2.51,1.7a.13.13,0,0,1,0-.2.15.15,0,0,1,.1,0,.15.15,0,0,1,.15.14.14.14,0,0,1-.05.1A.15.15,0,0,1,42.77,45.84Zm-1.46,2.31a.14.14,0,0,1-.14-.14.17.17,0,0,1,.14-.14.14.14,0,0,1,.14.15A.13.13,0,0,1,41.31,48.15ZM43,50.38a.13.13,0,0,1-.2,0,.12.12,0,0,1,0-.19.14.14,0,0,1,.19,0A.12.12,0,0,1,43,50.38Zm2.31,1.51a.14.14,0,0,1-.14-.14.16.16,0,0,1,.14-.14.14.14,0,0,1,.14.15A.13.13,0,0,1,45.28,51.89Zm0-2.91a1,1,0,1,1,1-1A1,1,0,0,1,45.28,49Zm2.52,1.21a.12.12,0,0,1,0,.19.15.15,0,0,1-.21,0,.14.14,0,0,1,0-.19.15.15,0,0,1,.11,0A.13.13,0,0,1,47.8,50.19Zm1.45-2a.14.14,0,0,1-.14-.14.17.17,0,0,1,.14-.14.14.14,0,0,1,.14.15A.13.13,0,0,1,49.25,48.15Z" transform="translate(-2 -2.28)"/></g></g></g></g></svg>