<svg id="Layer_1" data-name="Layer 1" xmlns="http://www.w3.org/2000/svg" viewBox="0 0 60 58.25"><defs><style>.cls-1{fill:#3ebbdd;}.cls-2{fill:#38a8c7;}.cls-3{fill:#fbb03b;}</style></defs><g id="flat"><g id="foggy"><path class="cls-1" d="M50,14.33v-.05A12,12,0,0,0,26.75,10.1,10,10,0,0,0,11,18.28v.19A11,11,0,1,0,20.93,36.9,12,12,0,0,0,42.3,38.41,12.88,12.88,0,0,0,49,40.28a13,13,0,0,0,1-25.95Z" transform="translate(-2 -2.28)"/><path class="cls-2" d="M57.92,17.85C54.06,26.72,40.34,33.28,24,33.28A52,52,0,0,1,2,28.73c0,.19,0,.37,0,.55A11,11,0,0,0,20.93,36.9,12,12,0,0,0,42.3,38.41,12.88,12.88,0,0,0,49,40.28a13,13,0,0,0,8.92-22.43Z" transform="translate(-2 -2.28)"/><g id="flat-2" data-name="flat"><g id="snowflake"><path class="cls-1" d="M48.67,43.84a.38.38,0,0,0-.4.35.41.41,0,0,0,.81,0A.38.38,0,0,0,48.67,43.84Zm0,.55a.21.21,0,1,1,0-.41.21.21,0,1,1,0,.41Z" transform="translate(-2 -2.28)"/><path class="cls-1" d="M50.86,44a.23.23,0,0,0-.23.14h-.21l.11-.18s0-.07,0-.09a.08.08,0,0,0-.11,0l-.14.24h-.15l.12-.25a.07.07,0,0,0-.05-.09.07.07,0,0,0-.1,0h0l-.15.3H49.4a.58.58,0,0,0-.16-.32l.15-.13.35.13a.09.09,0,0,0,.11,0h0s0-.07,0-.09l-.3-.1.11-.1.3.09a.08.08,0,0,0,.1-.05s0-.07-.05-.08l-.22-.07.15-.12.1,0a.24.24,0,0,0,.17-.06.2.2,0,0,0,0-.3.29.29,0,0,0-.34,0,.23.23,0,0,0-.07.15.29.29,0,0,0,0,.09l-.14.12-.08-.18a.08.08,0,0,0-.1,0,.08.08,0,0,0-.05.09l.1.25-.11.1-.12-.25a.09.09,0,0,0-.11,0s-.06.06,0,.09l.15.3-.15.13a.82.82,0,0,0-.37-.13v-.44l.35-.13a.06.06,0,0,0,0-.09.07.07,0,0,0-.1,0l-.29.1v-.14l.27-.11a.07.07,0,0,0,0-.1.09.09,0,0,0-.11,0h0l-.2.09v-.18a.22.22,0,0,0,.16-.19.23.23,0,0,0-.25-.21.23.23,0,0,0-.24.21.21.21,0,0,0,.16.19v.18l-.2-.09a.09.09,0,0,0-.11,0,.07.07,0,0,0,0,.1l.27.11V43l-.29-.1a.07.07,0,0,0-.1,0,.05.05,0,0,0,0,.08l.35.13v.44a.82.82,0,0,0-.37.13l-.15-.13.15-.3s0-.07,0-.09a.09.09,0,0,0-.11,0h0l-.12.25-.11-.1.1-.25a.08.08,0,0,0,0-.09.08.08,0,0,0-.1,0h0l-.08.18-.14-.12a.29.29,0,0,0,0-.09.21.21,0,0,0-.07-.15.29.29,0,0,0-.34,0,.21.21,0,0,0-.08.15.19.19,0,0,0,.08.15.24.24,0,0,0,.17.06l.1,0,.15.12-.22.07s-.07,0-.05.08a.08.08,0,0,0,.1.05l.3-.09.1.1-.29.1s-.06.06,0,.09a.09.09,0,0,0,.11,0h0l.35-.13.15.13a.58.58,0,0,0-.16.32h-.51l-.15-.31a.07.07,0,0,0-.1,0,.07.07,0,0,0,0,.09l.12.25h-.15L47,43.88a.08.08,0,0,0-.11,0s-.06.06,0,.09l.11.18h-.21a.24.24,0,0,0-.23-.14.21.21,0,1,0,0,.41.25.25,0,0,0,.23-.13h.21l-.11.17a.07.07,0,0,0,0,.1.11.11,0,0,0,.11,0h0l.14-.23h.15l-.12.25a.08.08,0,0,0,0,.09.09.09,0,0,0,.1,0l.15-.3H48a.65.65,0,0,0,.16.32L48,44.7l-.35-.13a.1.1,0,0,0-.11,0,.07.07,0,0,0,0,.08l.29.11-.1.09-.3-.08a.07.07,0,0,0-.1,0,.06.06,0,0,0,.05.09h0l.22.06-.15.13a.26.26,0,0,0-.27,0,.19.19,0,0,0-.08.14.19.19,0,0,0,.08.15.24.24,0,0,0,.17.06.27.27,0,0,0,.17-.06.21.21,0,0,0,.07-.15.29.29,0,0,0,0-.09l.14-.12.08.19a.08.08,0,0,0,.1,0,.07.07,0,0,0,0-.08h0l-.1-.25.11-.09.12.25a.09.09,0,0,0,.11,0h0a.06.06,0,0,0,0-.09h0l-.15-.3.15-.13a.84.84,0,0,0,.37.14v.44l-.35.12a.06.06,0,0,0,0,.09.09.09,0,0,0,.1,0l.29-.1v.13l-.27.12s-.06.06,0,.09a.08.08,0,0,0,.11,0l.2-.09v.18a.2.2,0,0,0,.08.4.23.23,0,0,0,.25-.2.22.22,0,0,0-.16-.2v-.18l.2.09a.08.08,0,0,0,.11,0s0-.07,0-.09l-.27-.12V45.4l.29.1a.09.09,0,0,0,.1,0,.06.06,0,0,0,0-.09h0l-.35-.12v-.44a.84.84,0,0,0,.37-.14l.15.13-.15.3a.06.06,0,0,0,0,.09.09.09,0,0,0,.11,0h0l.12-.25.11.09-.1.25a.07.07,0,0,0,.05.09.07.07,0,0,0,.1,0h0l.08-.19.14.12a.29.29,0,0,0,0,.09.21.21,0,0,0,.07.15.27.27,0,0,0,.17.06.24.24,0,0,0,.17-.06.18.18,0,0,0,.07-.15.17.17,0,0,0-.07-.14.26.26,0,0,0-.27,0L49.75,45,50,45a.07.07,0,0,0,.05-.09.09.09,0,0,0-.1,0l-.3.08-.11-.09.3-.11a.06.06,0,0,0,0-.09.11.11,0,0,0-.11,0l-.35.13-.15-.12a.65.65,0,0,0,.16-.32h.51l.15.3a.09.09,0,0,0,.1,0,.08.08,0,0,0,.05-.09h0l-.12-.25h.15l.14.23a.09.09,0,0,0,.11,0h0a.07.07,0,0,0,0-.1h0l-.11-.17h.21a.24.24,0,0,0,.23.13.21.21,0,1,0,0-.41ZM50,43l0,0a.07.07,0,0,1,.08.07.08.08,0,0,1,0,.05.08.08,0,0,1-.11,0A.06.06,0,0,1,50,43Zm-1.28-.75a.07.07,0,1,1,0,.14.08.08,0,0,1-.08-.07h0A.08.08,0,0,1,48.67,42.25Zm-1.38.85a.07.07,0,0,1,0-.1l.06,0a.08.08,0,0,1,.08.07.05.05,0,0,1,0,.05A.08.08,0,0,1,47.29,43.1Zm-.8,1.16s-.08,0-.08-.08a.09.09,0,0,1,.08-.06.07.07,0,0,1,.08.07S46.53,44.25,46.49,44.26Zm.91,1.11a.08.08,0,0,1-.11,0,.06.06,0,0,1,0-.1.09.09,0,0,1,.1,0A.06.06,0,0,1,47.4,45.37Zm1.27.76a.08.08,0,0,1-.07-.08.07.07,0,0,1,.07-.06.07.07,0,0,1,.08.07S48.72,46.12,48.67,46.13Zm0-1.46a.49.49,0,1,1,.57-.48A.53.53,0,0,1,48.67,44.67Zm1.39.6a.07.07,0,0,1,0,.1.08.08,0,0,1-.11,0,.06.06,0,0,1,0-.1l0,0Zm.8-1s-.08,0-.08-.08,0-.06.08-.06a.08.08,0,0,1,.08.07A.1.1,0,0,1,50.86,44.26Z" transform="translate(-2 -2.28)"/></g></g><g id="flat-3" data-name="flat"><g id="snowflake-2" data-name="snowflake"><path class="cls-1" d="M15.91,42.73a.26.26,0,0,0-.28.25.27.27,0,0,0,.28.26.28.28,0,0,0,.28-.26A.27.27,0,0,0,15.91,42.73Zm0,.4a.16.16,0,0,1-.17-.15.17.17,0,0,1,.17-.15.16.16,0,0,1,.16.15A.15.15,0,0,1,15.91,43.13Z" transform="translate(-2 -2.28)"/><path class="cls-1" d="M17.41,42.83a.18.18,0,0,0-.16.1h-.14l.07-.13a0,0,0,0,0,0-.07.08.08,0,0,0-.08,0l-.09.18h-.11l.08-.19a0,0,0,0,0,0-.06.05.05,0,0,0-.07,0h0l-.1.22h-.35a.53.53,0,0,0-.11-.24l.1-.09.24.09s.06,0,.08,0h0a.06.06,0,0,0,0-.07l-.2-.08.07-.07.2.07s.07,0,.08,0,0,0,0-.06l-.15-.05.1-.09h.07a.15.15,0,0,0,.12-.26.2.2,0,0,0-.24,0,.16.16,0,0,0-.05.11.19.19,0,0,0,0,.07l-.1.09-.05-.14a.05.05,0,0,0-.07,0,.06.06,0,0,0,0,.06l.07.19-.07.07-.09-.18a.05.05,0,0,0-.1,0l.1.22-.1.09a.55.55,0,0,0-.26-.1V42.2l.25-.09a.06.06,0,0,0,0-.07s0,0-.07,0l-.21.08V42l.2-.09a.06.06,0,0,0,0-.07.06.06,0,0,0-.07,0h0l-.15.07v-.14a.15.15,0,0,0,.11-.14.16.16,0,0,0-.16-.15.17.17,0,0,0-.17.15.15.15,0,0,0,.11.14v.14l-.14-.07a.08.08,0,0,0-.08,0,.05.05,0,0,0,0,.07l.19.09v.1l-.2-.08a.06.06,0,0,0-.07,0,.05.05,0,0,0,0,.07l.24.09v.32a.64.64,0,0,0-.26.1l-.1-.09.11-.22a.05.05,0,0,0,0-.07.08.08,0,0,0-.08,0h0l-.08.18-.08-.07.07-.19s0,0,0-.06a.07.07,0,0,0-.08,0h0l0,.14-.1-.09a.19.19,0,0,0,0-.07.16.16,0,0,0-.05-.11.2.2,0,0,0-.24,0,.17.17,0,0,0,0,.22.19.19,0,0,0,.12,0h.07l.11.09-.16.05s0,0,0,.06a.07.07,0,0,0,.07,0l.2-.07.08.07-.2.08a.05.05,0,0,0,0,.07,0,0,0,0,0,.07,0h0l.24-.09.11.09a.44.44,0,0,0-.11.24h-.36L15,42.71a.07.07,0,0,0-.08,0s0,0,0,.06l.08.19h-.1l-.1-.18a.06.06,0,0,0-.07,0,.05.05,0,0,0,0,.07l.07.13h-.14a.17.17,0,0,0-.16-.1.16.16,0,0,0-.16.15.15.15,0,0,0,.16.15.17.17,0,0,0,.16-.1h.14l-.07.13a.05.05,0,0,0,0,.07.06.06,0,0,0,.07,0h0l.1-.18h.1l-.08.19s0,.05,0,.06a.08.08,0,0,0,.08,0l.09-.23h.36a.44.44,0,0,0,.11.24l-.11.09-.24-.09a.05.05,0,0,0-.07,0,0,0,0,0,0,0,.06l.2.08-.08.07-.2-.06a.05.05,0,0,0-.07,0,0,0,0,0,0,0,.06h0l.16.05-.11.09a.21.21,0,0,0-.19,0,.17.17,0,0,0,0,.22A.19.19,0,0,0,15,44a.15.15,0,0,0,.17-.15.25.25,0,0,0,0-.07l.1-.09,0,.14a.07.07,0,0,0,.07,0,.06.06,0,0,0,0-.07h0l-.07-.19.08-.07.08.19a.08.08,0,0,0,.08,0h0s0,0,0-.06h0l-.11-.23.1-.09a.64.64,0,0,0,.26.1v.32l-.24.09a.06.06,0,0,0,0,.07.05.05,0,0,0,.07,0l.2-.07V44l-.19.09a.05.05,0,0,0,0,.07.08.08,0,0,0,.08,0l.14-.06v.13a.15.15,0,0,0-.11.14.17.17,0,0,0,.17.16.16.16,0,0,0,.16-.16.15.15,0,0,0-.11-.14v-.13l.15.06a.06.06,0,0,0,.07,0,.06.06,0,0,0,0-.07L16,44v-.09l.21.07a.05.05,0,0,0,.07,0,.05.05,0,0,0,0-.07h0L16,43.76v-.32a.55.55,0,0,0,.26-.1l.1.09-.1.23a0,0,0,0,0,0,.06.06.06,0,0,0,.07,0h0l.09-.19.07.07-.07.19s0,0,0,.06a.05.05,0,0,0,.07,0h0l.05-.14.1.09a.25.25,0,0,0,0,.07.16.16,0,0,0,.05.11.19.19,0,0,0,.12,0,.15.15,0,0,0,.12-.26.21.21,0,0,0-.19,0l-.1-.09.15-.05a0,0,0,0,0,0-.06.05.05,0,0,0-.07,0l-.2.06-.07-.07.2-.08a.06.06,0,0,0,0-.07.08.08,0,0,0-.08,0l-.24.09-.1-.09a.53.53,0,0,0,.11-.24h.35l.1.23a.06.06,0,0,0,.07,0,0,0,0,0,0,0-.06h0L16.88,43H17l.09.18a.08.08,0,0,0,.08,0h0a0,0,0,0,0,0-.07h0L17.11,43h.14a.18.18,0,0,0,.16.1.16.16,0,0,0,.17-.15A.17.17,0,0,0,17.41,42.83Zm-.63-.72,0,0a.06.06,0,0,1,.06,0,.05.05,0,0,1,0,0,.06.06,0,0,1-.08,0A0,0,0,0,1,16.78,42.11Zm-.87-.56a0,0,0,0,1,0,.1.06.06,0,0,1-.06,0h0A.06.06,0,0,1,15.91,41.55Zm-1,.63a0,0,0,0,1,0-.07l0,0a.06.06,0,0,1,.06,0,.05.05,0,0,1,0,0A.06.06,0,0,1,15,42.18ZM14.4,43a.05.05,0,1,1,0-.1.06.06,0,0,1,.06,0A.06.06,0,0,1,14.4,43Zm.63.83a.06.06,0,0,1-.08,0,.05.05,0,0,1,0-.08H15A.06.06,0,0,1,15,43.86Zm.88.55a.06.06,0,0,1-.06,0,.06.06,0,0,1,.06,0,.05.05,0,0,1,.05,0A0,0,0,0,1,15.91,44.41Zm0-1.07a.36.36,0,1,1,0-.72.36.36,0,1,1,0,.72Zm.95.44a.06.06,0,1,1-.08,0h.08Zm.55-.75a.05.05,0,1,1,0-.1s.06,0,.05,0A0,0,0,0,1,17.41,43Z" transform="translate(-2 -2.28)"/></g></g><g id="flat-4" data-name="flat"><g id="snowflake-3" data-name="snowflake"><path class="cls-1" d="M18.85,56.28a.28.28,0,0,0-.28.26.28.28,0,0,0,.56,0A.28.28,0,0,0,18.85,56.28Zm0,.41a.16.16,0,1,1,.17-.15A.17.17,0,0,1,18.85,56.69Z" transform="translate(-2 -2.28)"/><path class="cls-1" d="M20.35,56.38a.16.16,0,0,0-.15.11h-.15l.08-.13a.05.05,0,0,0,0-.07,0,0,0,0,0-.07,0l-.1.18h-.11l.09-.19a.06.06,0,0,0,0-.07.07.07,0,0,0-.07,0h0l-.1.23h-.35a.44.44,0,0,0-.11-.24l.1-.09.25.09a.05.05,0,0,0,.07,0h0a0,0,0,0,0,0-.06l-.2-.08L19.5,56l.21.06a.05.05,0,0,0,.07,0,.06.06,0,0,0,0-.07l-.15,0,.1-.09h.07a.15.15,0,0,0,.12-.26.17.17,0,0,0-.23,0,.16.16,0,0,0,0,.11.13.13,0,0,0,0,.06l-.1.1-.05-.14a.05.05,0,0,0-.07,0,0,0,0,0,0,0,.06l.07.19-.08.07-.09-.19a.06.06,0,0,0-.07,0,0,0,0,0,0,0,.06l.11.22-.11.1a.46.46,0,0,0-.25-.1v-.33l.24-.09a0,0,0,0,0,0-.06.05.05,0,0,0-.07,0l-.2.07v-.09l.19-.09a0,0,0,0,0,0-.07,0,0,0,0,0-.07,0h0l-.14.06V55.3a.16.16,0,0,0,.11-.14.17.17,0,0,0-.34,0,.16.16,0,0,0,.11.14v.13l-.14-.06a0,0,0,0,0-.07,0,0,0,0,0,0,0,.07l.19.09v.09l-.2-.07a.05.05,0,0,0-.07,0,0,0,0,0,0,0,.06l.24.09v.33a.46.46,0,0,0-.25.1l-.1-.1.1-.22a0,0,0,0,0,0-.06,0,0,0,0,0-.07,0h0l-.09.19-.07-.07.06-.19s0-.06,0-.06a.05.05,0,0,0-.07,0h0l0,.14-.1-.1a.16.16,0,0,0,0-.17.17.17,0,0,0-.23,0,.15.15,0,0,0,.12.26H18l.1.09L18,56a.06.06,0,0,0,0,.07.05.05,0,0,0,.07,0L18.2,56l.07.07-.2.08a0,0,0,0,0,0,.06.06.06,0,0,0,.08,0h0l.24-.09.1.09a.44.44,0,0,0-.11.24H18l-.1-.23a.06.06,0,0,0-.07,0,0,0,0,0,0,0,.07l.08.19h-.11l-.1-.18a0,0,0,0,0-.07,0,.05.05,0,0,0,0,.07l.08.13H17.5a.16.16,0,0,0-.15-.11.16.16,0,1,0,0,.31.15.15,0,0,0,.15-.1h.15l-.08.13a.05.05,0,0,0,0,.07.06.06,0,0,0,.07,0h0l.1-.17h.11l-.08.18a0,0,0,0,0,0,.07.05.05,0,0,0,.07,0l.1-.22h.35a.41.41,0,0,0,.11.23l-.1.1-.24-.1a.08.08,0,0,0-.08,0,.06.06,0,0,0,0,.07l.2.08-.07.07L18,57a.06.06,0,0,0-.07,0,.06.06,0,0,0,0,.07h0l.15,0-.1.09a.17.17,0,0,0-.19,0,.15.15,0,0,0,0,.22.21.21,0,0,0,.12,0,.21.21,0,0,0,.11,0,.13.13,0,0,0,.05-.11.15.15,0,0,0,0-.07l.1-.09,0,.14a.06.06,0,0,0,.07,0,0,0,0,0,0,0-.06h0l-.06-.18.07-.07.09.18a.05.05,0,0,0,.07,0h0a.05.05,0,0,0,0-.07h0l-.1-.22.1-.09a.45.45,0,0,0,.25.09v.33l-.24.09a.05.05,0,0,0,0,.07.06.06,0,0,0,.07,0l.2-.08v.1l-.19.09a0,0,0,0,0,0,.07.06.06,0,0,0,.07,0l.14-.07v.13a.17.17,0,0,0-.11.15.17.17,0,0,0,.34,0,.17.17,0,0,0-.11-.15v-.13l.14.07a.06.06,0,0,0,.07,0,0,0,0,0,0,0-.07l-.19-.09v-.1l.2.08a.06.06,0,0,0,.07,0,.05.05,0,0,0,0-.07h0l-.24-.09V57a.45.45,0,0,0,.25-.09l.11.09-.11.22a.05.05,0,0,0,.1,0h0l.09-.18.08.07-.07.18a.05.05,0,0,0,.1,0h0l.05-.14.1.09a.15.15,0,0,0,0,.07.16.16,0,0,0,0,.11.21.21,0,0,0,.11,0,.21.21,0,0,0,.12,0,.15.15,0,0,0,0-.22.17.17,0,0,0-.19,0l-.1-.09.15,0s.05,0,0-.06a.06.06,0,0,0-.07,0l-.21.07L19.43,57l.2-.08a.05.05,0,0,0,0-.07.05.05,0,0,0-.07,0l-.25.1-.1-.1a.38.38,0,0,0,.11-.23h.35l.1.22a.05.05,0,0,0,.07,0,.06.06,0,0,0,0-.07h0l-.09-.18h.11l.1.17a.05.05,0,0,0,.07,0h0a.05.05,0,0,0,0-.07h0l-.08-.13h.15a.15.15,0,0,0,.15.1.16.16,0,1,0,0-.31Zm-.62-.72h0s.06,0,.06.05l0,0a0,0,0,0,1-.07,0A0,0,0,0,1,19.73,55.66Zm-.88-.55a.06.06,0,0,1,.06,0,.06.06,0,0,1-.12,0h0A.06.06,0,0,1,18.85,55.11Zm-1,.62a0,0,0,0,1,0-.07h0a0,0,0,0,1,0,.05,0,0,0,0,1,0,0A.06.06,0,0,1,17.9,55.73Zm-.55.86a.06.06,0,0,1-.06-.05.06.06,0,0,1,.06,0,0,0,0,0,1,0,0A.05.05,0,0,1,17.35,56.59Zm.63.82a.06.06,0,0,1-.08,0,0,0,0,0,1,0-.07.06.06,0,0,1,.08,0A0,0,0,0,1,18,57.41Zm.87.56a.05.05,0,0,1-.05,0,.05.05,0,1,1,.05,0Zm0-1.07a.39.39,0,0,1-.39-.36.38.38,0,0,1,.39-.36.37.37,0,0,1,.39.36A.38.38,0,0,1,18.85,56.9Zm.95.44a0,0,0,0,1,0,.07,0,0,0,0,1-.07,0,0,0,0,0,1,0-.07h.07Zm.55-.75a.05.05,0,0,1,0-.1s.06,0,.06,0A.06.06,0,0,1,20.35,56.59Z" transform="translate(-2 -2.28)"/></g></g><g id="flat-5" data-name="flat"><g id="snowflake-4" data-name="snowflake"><path class="cls-1" d="M40.17,55.39a.27.27,0,0,0-.28.26.26.26,0,0,0,.28.25.26.26,0,0,0,.27-.25A.27.27,0,0,0,40.17,55.39Zm0,.41a.16.16,0,1,1,.16-.15A.16.16,0,0,1,40.17,55.8Z" transform="translate(-2 -2.28)"/><path class="cls-1" d="M41.67,55.49a.17.17,0,0,0-.16.11h-.14l.07-.13a.06.06,0,0,0,0-.07.05.05,0,0,0-.08,0l-.1.18h-.1l.08-.19a.05.05,0,0,0,0-.07.06.06,0,0,0-.07,0h0l-.1.23h-.36a.43.43,0,0,0-.1-.24l.1-.09.24.09a.05.05,0,0,0,.07,0h0s0,0,0-.06l-.2-.08.08-.07.2.06a.05.05,0,0,0,0-.1l-.15,0L41,55h.07a.25.25,0,0,0,.12,0,.15.15,0,0,0,0-.22.18.18,0,0,0-.24,0,.16.16,0,0,0-.05.11.14.14,0,0,0,0,.06l-.1.1,0-.14a.05.05,0,0,0-.07,0,0,0,0,0,0,0,.06l.07.19-.07.07-.09-.19s0,0-.07,0a0,0,0,0,0,0,.06l.1.22-.1.1a.52.52,0,0,0-.26-.1v-.33l.24-.09s0,0,0-.06a.05.05,0,0,0-.07,0l-.2.07v-.09l.19-.09a.06.06,0,0,0,0-.07.05.05,0,0,0-.08,0h0l-.14.06v-.13a.15.15,0,0,0,.11-.14.16.16,0,0,0-.16-.16.16.16,0,0,0-.17.16.15.15,0,0,0,.11.14v.13L40,54.48a.05.05,0,0,0-.08,0,.06.06,0,0,0,0,.07l.19.09v.09l-.2-.07a.05.05,0,0,0-.07,0s0,0,0,.06l.24.09v.33a.52.52,0,0,0-.26.1l-.1-.1.1-.22s0,0,0-.07a.06.06,0,0,0-.08,0h0l-.08.19-.08-.07.07-.19a.06.06,0,0,0,0-.07.07.07,0,0,0-.07,0h0l0,.14-.1-.1a.14.14,0,0,0,0-.06.16.16,0,0,0-.05-.11.18.18,0,0,0-.24,0,.15.15,0,0,0,0,.22.25.25,0,0,0,.12,0h.07l.1.09-.15,0a.05.05,0,1,0,0,.1l.2-.06.08.07-.2.08s0,0,0,.06a.05.05,0,0,0,.07,0h0l.24-.09.1.09a.43.43,0,0,0-.1.24h-.36l-.1-.23a.06.06,0,0,0-.07,0,.05.05,0,0,0,0,.07l.08.19h-.1l-.1-.18a.05.05,0,0,0-.08,0,.06.06,0,0,0,0,.07l.07.13h-.14a.17.17,0,0,0-.16-.11.16.16,0,1,0,0,.31.18.18,0,0,0,.16-.1H39l-.07.13a.07.07,0,0,0,0,.07.07.07,0,0,0,.08,0h0l.1-.17h.1l-.08.18a.05.05,0,0,0,.1,0l.1-.22h.36a.4.4,0,0,0,.1.23l-.1.1-.24-.1a.06.06,0,0,0-.07,0,.05.05,0,0,0,0,.07l.2.08-.08.06-.2-.06a.06.06,0,0,0-.07,0,.05.05,0,0,0,0,.07h0l.15,0-.1.09a.17.17,0,0,0-.19,0,.16.16,0,0,0-.05.11.12.12,0,0,0,.05.1.18.18,0,0,0,.12,0,.17.17,0,0,0,.12,0,.12.12,0,0,0,.05-.1.14.14,0,0,0,0-.07l.1-.09,0,.14a.06.06,0,0,0,.07,0s.05,0,0-.06h0l-.07-.18.07-.07.09.18a.05.05,0,0,0,.07,0h0a0,0,0,0,0,0-.07h0l-.1-.22.1-.09a.62.62,0,0,0,.26.09v.33l-.24.09a0,0,0,0,0,0,.07.06.06,0,0,0,.07,0l.2-.07v.1l-.19.09a0,0,0,0,0,0,.06.07.07,0,0,0,.08,0l.14-.07v.13a.15.15,0,0,0,.06.3.16.16,0,0,0,.16-.15.16.16,0,0,0-.11-.15v-.13l.14.07a.07.07,0,0,0,.08,0,0,0,0,0,0,0-.06l-.19-.09v-.1l.2.07s.06,0,.08,0a.06.06,0,0,0,0-.07h0l-.24-.09V56.1a.62.62,0,0,0,.26-.09l.1.09-.1.22a0,0,0,0,0,0,.07.05.05,0,0,0,.07,0h0l.09-.18.07.07-.07.18a.06.06,0,0,0,0,.07.05.05,0,0,0,.07,0h0l0-.14.1.09a.14.14,0,0,0,0,.07.12.12,0,0,0,.05.1.17.17,0,0,0,.12,0,.18.18,0,0,0,.12,0,.12.12,0,0,0,0-.1.16.16,0,0,0,0-.11.17.17,0,0,0-.19,0l-.1-.09.15,0a.05.05,0,0,0,0-.07.06.06,0,0,0-.07,0l-.2.06-.08-.06.2-.08A0,0,0,0,0,41,56a.05.05,0,0,0-.07,0l-.24.1-.1-.1a.4.4,0,0,0,.1-.23H41l.1.22a.05.05,0,1,0,.1,0h0l-.08-.18h.1l.1.17a.06.06,0,0,0,.08,0h0a.07.07,0,0,0,0-.07h0l-.07-.13h.14a.18.18,0,0,0,.16.1.16.16,0,1,0,0-.31ZM41,54.77h0a.06.06,0,0,1,.06.05l0,0a.06.06,0,0,1-.08,0A0,0,0,0,1,41,54.77Zm-.87-.56a.06.06,0,0,1,0,.06.05.05,0,0,1,0,0,.06.06,0,0,1-.06,0h0A.06.06,0,0,1,40.17,54.21Zm-1,.63a0,0,0,0,1,0-.07h0a.06.06,0,0,1,.06.05l0,0A.06.06,0,0,1,39.21,54.84Zm-.55.86a.06.06,0,0,1,0-.06,0,0,0,0,1,0,0s.06,0,.05,0A0,0,0,0,1,38.66,55.7Zm.63.82a.06.06,0,0,1-.08,0,0,0,0,0,1,0-.07.06.06,0,0,1,.08,0A0,0,0,0,1,39.29,56.52Zm.88.56a.05.05,0,1,1,0-.1,0,0,0,0,1,0,.05A.05.05,0,0,1,40.17,57.08Zm0-1.08a.36.36,0,1,1,0-.71.36.36,0,1,1,0,.71Zm.95.45a0,0,0,0,1,0,.07.06.06,0,0,1-.08,0,0,0,0,0,1,0-.07h.08Zm.55-.75a.05.05,0,0,1-.05-.06,0,0,0,0,1,.05,0,0,0,0,0,1,0,.1Z" transform="translate(-2 -2.28)"/></g></g><rect class="cls-1" x="10.32" y="52.52" width="1.77" height="1.77" rx="0.89" transform="translate(10.63 -3.43) rotate(13.35)"/><rect class="cls-1" x="27.32" y="45.57" width="1.77" height="1.77" rx="0.89" transform="translate(9.49 -7.54) rotate(13.35)"/><rect class="cls-1" x="50.58" y="51.63" width="1.77" height="1.77" rx="0.89" transform="translate(11.52 -12.75) rotate(13.35)"/><path class="cls-3" d="M31,60.53a1,1,0,0,1-1-1,1.06,1.06,0,0,1,.13-.5l3.15-5.5H29a1,1,0,0,1-1-1,1.06,1.06,0,0,1,.13-.5l4-7a1,1,0,0,1,1.76.95l0,0-3.15,5.51H35a1,1,0,0,1,1,1,1.05,1.05,0,0,1-.13.49l-4,7A1,1,0,0,1,31,60.53Z" transform="translate(-2 -2.28)"/><path class="cls-3" d="M19.46,53.72A.75.75,0,0,1,18.7,53a.69.69,0,0,1,.1-.37l2.39-4.1H17.94a.76.76,0,0,1-.76-.75.71.71,0,0,1,.1-.37l3-5.21a.77.77,0,0,1,1-.3.74.74,0,0,1,.31,1l0,0L19.25,47H22.5a.75.75,0,0,1,.76.75.68.68,0,0,1-.1.36l-3,5.22A.77.77,0,0,1,19.46,53.72Z" transform="translate(-2 -2.28)"/><path class="cls-3" d="M42.45,53.72a.75.75,0,0,1-.76-.74.69.69,0,0,1,.1-.37l2.39-4.1H40.92a.74.74,0,0,1-.75-.75.81.81,0,0,1,.09-.37l3.05-5.21a.77.77,0,0,1,1-.3.74.74,0,0,1,.31,1l0,0L42.24,47h3.25a.75.75,0,0,1,.76.75.78.78,0,0,1-.1.36l-3,5.22A.77.77,0,0,1,42.45,53.72Z" transform="translate(-2 -2.28)"/><rect class="cls-1" x="23.04" y="48.57" width="1.67" height="1.67" rx="0.75"/><rect class="cls-1" x="36.68" y="45.52" width="1.89" height="1.89" rx="0.75" transform="translate(-22.43 29.92) rotate(-37.2)"/><rect class="cls-1" x="24.86" y="56.86" width="1.89" height="1.89" rx="0.75" transform="translate(-36.54 36.37) rotate(-48.34)"/><rect class="cls-1" x="10.88" y="44.75" width="1.89" height="1.89" rx="0.75" transform="translate(-32.18 21.87) rotate(-48.34)"/><rect class="cls-1" x="46.48" y="55.14" width="1.89" height="1.89" rx="0.75" transform="translate(32.39 -18.48) rotate(30)"/></g></g></svg>