<svg id="Layer_1" data-name="Layer 1" xmlns="http://www.w3.org/2000/svg" viewBox="0 0 60 58.25"><defs><style>.cls-1{fill:#3ebbdd;}.cls-2{fill:#38a8c7;}.cls-3{fill:#fbb03b;}</style></defs><g id="flat"><g id="foggy"><path class="cls-1" d="M50,14.33v-.05A12,12,0,0,0,26.75,10.1,10,10,0,0,0,11,18.28v.19A11,11,0,1,0,20.93,36.9,12,12,0,0,0,42.3,38.41,12.88,12.88,0,0,0,49,40.28a13,13,0,0,0,1-25.95Z" transform="translate(-2 -2.28)"/><path class="cls-2" d="M57.92,17.85C54.06,26.72,40.34,33.28,24,33.28A52,52,0,0,1,2,28.73c0,.19,0,.37,0,.55A11,11,0,0,0,20.93,36.9,12,12,0,0,0,42.3,38.41,12.88,12.88,0,0,0,49,40.28a13,13,0,0,0,8.92-22.43Z" transform="translate(-2 -2.28)"/><g id="flat-2" data-name="flat"><g id="snowflake"><path class="cls-1" d="M44.61,44.91a.35.35,0,1,0,.41.35A.37.37,0,0,0,44.61,44.91Zm0,.55a.21.21,0,1,1,0-.41.21.21,0,1,1,0,.41Z" transform="translate(-2 -2.28)"/><path class="cls-1" d="M46.8,45.05a.23.23,0,0,0-.23.14h-.21l.1-.18s0-.08,0-.09a.08.08,0,0,0-.11,0l-.14.24H46l.11-.26s0-.07,0-.09a.11.11,0,0,0-.11,0h0l-.14.31h-.51a.58.58,0,0,0-.16-.32l.15-.13.35.13a.09.09,0,0,0,.11,0h0a.08.08,0,0,0,0-.09l-.29-.11.11-.09.3.08a.07.07,0,0,0,.1,0,.08.08,0,0,0-.05-.09l-.22-.06.15-.12.1,0a.32.32,0,0,0,.17-.06.19.19,0,0,0,.07-.15.18.18,0,0,0-.07-.15.27.27,0,0,0-.34,0,.18.18,0,0,0-.07.15.29.29,0,0,0,0,.09l-.14.12-.08-.18a.08.08,0,0,0-.1,0,.08.08,0,0,0,0,.09l.1.25-.11.1-.13-.25s-.06,0-.1,0-.06.06,0,.09l.14.3-.14.13a.82.82,0,0,0-.38-.13v-.45l.36-.12a.06.06,0,0,0,0-.09.1.1,0,0,0-.1,0l-.3.1v-.13l.28-.12a.06.06,0,0,0,0-.09.09.09,0,0,0-.11,0h0l-.21.09v-.18a.23.23,0,0,0,.17-.19.23.23,0,0,0-.25-.21.23.23,0,0,0-.24.21.21.21,0,0,0,.16.19v.18l-.2-.09a.09.09,0,0,0-.11,0,.06.06,0,0,0,0,.09l.28.12V44l-.29-.1a.11.11,0,0,0-.11,0,.07.07,0,0,0,0,.09l.35.12v.45a.82.82,0,0,0-.37.13L44,44.64l.15-.3s0-.07,0-.09a.08.08,0,0,0-.11,0h0l-.12.25-.11-.1.1-.25a.07.07,0,0,0-.05-.09.1.1,0,0,0-.11,0h0l-.07.18-.15-.12a.16.16,0,0,0,0-.09.21.21,0,0,0-.07-.15.29.29,0,0,0-.35,0,.21.21,0,0,0-.07.15.23.23,0,0,0,.07.15.35.35,0,0,0,.17.06l.11,0,.15.12-.22.06s-.07.06,0,.09a.07.07,0,0,0,.1,0l.29-.08.11.09-.29.11s-.06.06,0,.09a.09.09,0,0,0,.11,0h0l.35-.13.14.13a.56.56,0,0,0-.15.32h-.52l-.14-.31a.09.09,0,0,0-.1,0s-.07.06-.05.09l.12.26H43L42.91,45a.08.08,0,0,0-.11,0,.06.06,0,0,0,0,.09l.1.18h-.2a.24.24,0,0,0-.23-.14.21.21,0,1,0,0,.41.24.24,0,0,0,.23-.14h.2l-.1.18a.06.06,0,0,0,0,.09.08.08,0,0,0,.11,0h0l.13-.24h.16l-.12.26s0,.07.05.09a.09.09,0,0,0,.1,0l.14-.31h.52a.56.56,0,0,0,.15.32l-.14.13-.35-.13a.1.1,0,0,0-.11,0,.07.07,0,0,0,0,.09l.29.11-.11.09-.29-.08a.08.08,0,0,0-.11,0,.08.08,0,0,0,.05.09h0l.22.06-.15.13a.28.28,0,0,0-.28,0,.23.23,0,0,0-.07.15.21.21,0,0,0,.07.15.27.27,0,0,0,.17.06.28.28,0,0,0,.18-.06.21.21,0,0,0,.07-.15.16.16,0,0,0,0-.09l.15-.12.07.18a.09.09,0,0,0,.1,0,.07.07,0,0,0,.06-.08h0l-.1-.25.11-.1.12.25a.09.09,0,0,0,.11,0h0s.06-.06,0-.09h0l-.15-.3.15-.13a.72.72,0,0,0,.37.13v.45l-.35.12a.07.07,0,0,0,0,.09.11.11,0,0,0,.11,0l.29-.1v.13l-.28.12a.06.06,0,0,0,0,.09.09.09,0,0,0,.11,0l.2-.09v.18a.21.21,0,0,0-.16.19.23.23,0,0,0,.24.21.23.23,0,0,0,.25-.21.23.23,0,0,0-.17-.19v-.18l.21.09a.09.09,0,0,0,.11,0,.06.06,0,0,0,0-.09l-.28-.12v-.13l.3.1a.09.09,0,0,0,.1,0,.06.06,0,0,0,0-.09h0l-.36-.12v-.45a.72.72,0,0,0,.38-.13l.15.13-.15.3s0,.07,0,.09.09,0,.1,0h0l.13-.25.11.1-.1.25a.06.06,0,0,0,0,.09.08.08,0,0,0,.1,0h0l.08-.18.14.12a.29.29,0,0,0,0,.09.18.18,0,0,0,.07.15.27.27,0,0,0,.34,0,.18.18,0,0,0,.07-.15.16.16,0,0,0-.07-.14.24.24,0,0,0-.27,0l-.15-.13.22-.06a.08.08,0,0,0,.05-.09.07.07,0,0,0-.1,0l-.3.08-.11-.09.29-.11a.08.08,0,0,0,0-.09.09.09,0,0,0-.11,0l-.35.13-.15-.13a.58.58,0,0,0,.16-.32h.51l.14.31a.11.11,0,0,0,.11,0s.06-.06,0-.09h0L46,45.32h.15l.14.24a.08.08,0,0,0,.11,0h0s0-.05,0-.09h0l-.1-.18h.21a.24.24,0,1,0,.23-.27Zm-.92-1,.06,0a.08.08,0,0,1,.08.07s0,0,0,.05a.13.13,0,0,1-.12,0A.07.07,0,0,1,45.88,44.07Zm-1.27-.75a.07.07,0,0,1,.08.07s0,.06-.08.06-.08,0-.08-.06h0A.08.08,0,0,1,44.61,43.32Zm-1.38.85a.07.07,0,0,1,0-.1l.05,0a.08.08,0,0,1,.09.07s0,0,0,.05A.11.11,0,0,1,43.23,44.17Zm-.8,1.15a.07.07,0,0,1-.08-.07s0-.06.08-.06a.08.08,0,0,1,.08.07A.09.09,0,0,1,42.43,45.32Zm.91,1.12a.08.08,0,0,1-.11,0,.07.07,0,0,1,0-.1.11.11,0,0,1,.11,0A.07.07,0,0,1,43.34,46.44Zm1.27.75s-.08,0-.07-.07a.07.07,0,0,1,.07-.06.07.07,0,0,1,.08.07S44.65,47.19,44.61,47.19Zm0-1.45a.49.49,0,1,1,0-1,.49.49,0,1,1,0,1Zm1.39.6a.07.07,0,0,1,0,.1.09.09,0,0,1-.12,0,.07.07,0,0,1,0-.1l.06,0Zm.8-1a.07.07,0,0,1-.08-.07s0-.06.08-.06.08,0,.07.07A.07.07,0,0,1,46.8,45.32Z" transform="translate(-2 -2.28)"/></g></g><g id="flat-3" data-name="flat"><g id="snowflake-2" data-name="snowflake"><path class="cls-1" d="M18.55,44.65a.28.28,0,0,0-.28.26.28.28,0,0,0,.56,0A.28.28,0,0,0,18.55,44.65Zm0,.41a.17.17,0,0,1-.17-.15.17.17,0,0,1,.34,0A.17.17,0,0,1,18.55,45.06Z" transform="translate(-2 -2.28)"/><path class="cls-1" d="M20.05,44.76a.15.15,0,0,0-.15.1h-.15l.07-.13a0,0,0,0,0,0-.07.08.08,0,0,0-.08,0l-.09.18h-.11l.08-.19s0-.05,0-.06a.06.06,0,0,0-.07,0h0l-.1.23h-.35a.44.44,0,0,0-.11-.24l.1-.09.24.09a.08.08,0,0,0,.08,0h0a.05.05,0,0,0,0-.07l-.2-.08.07-.07.21.06a.05.05,0,0,0,.07,0s0,0,0-.06l-.15-.05.1-.09h.07a.15.15,0,0,0,.12-.26.17.17,0,0,0-.23,0,.13.13,0,0,0-.05.11.2.2,0,0,0,0,.07l-.1.09-.05-.14a.05.05,0,0,0-.07,0,0,0,0,0,0,0,.06l.06.19-.07.07L19,44.19a.06.06,0,0,0-.07,0,0,0,0,0,0,0,.06l.1.23-.1.09a.55.55,0,0,0-.26-.1v-.32l.25-.09a.06.06,0,0,0,0-.07.05.05,0,0,0-.07,0L18.6,44v-.09l.2-.09a0,0,0,0,0,0-.07.06.06,0,0,0-.07,0h0l-.15.06v-.13a.16.16,0,0,0,.12-.14.17.17,0,0,0-.34,0,.16.16,0,0,0,.11.14v.13l-.14-.06a.06.06,0,0,0-.07,0,0,0,0,0,0,0,.07l.19.09V44l-.2-.07a.05.05,0,0,0-.07,0s0,.05,0,.07l.24.09v.32a.55.55,0,0,0-.25.1l-.11-.09.11-.23a0,0,0,0,0,0-.06.06.06,0,0,0-.07,0h0l-.08.19L18,44.31l.07-.19a0,0,0,0,0,0-.06.05.05,0,0,0-.07,0h0l-.05.14-.11-.09a.11.11,0,0,0,0-.07.16.16,0,0,0-.05-.11.17.17,0,0,0-.23,0,.15.15,0,0,0,0,.22.15.15,0,0,0,.11,0h.08l.1.09-.15.05s-.05,0,0,.06a.05.05,0,0,0,.07,0l.21-.06.07.07-.2.08a.05.05,0,0,0,0,.07.06.06,0,0,0,.07,0h0l.25-.09.1.09a.44.44,0,0,0-.11.24H17.7l-.1-.23a.06.06,0,0,0-.07,0s-.05,0,0,.06l.09.19h-.11l-.1-.18a.06.06,0,0,0-.07,0,.05.05,0,0,0,0,.07l.07.13H17.2a.16.16,0,0,0-.16-.1.15.15,0,0,0-.16.15.16.16,0,0,0,.16.15.16.16,0,0,0,.16-.1h.14l-.07.13a.05.05,0,0,0,0,.07.06.06,0,0,0,.07,0h0l.1-.18h.11l-.09.19s0,.05,0,.06a.05.05,0,0,0,.07,0l.1-.22h.35a.44.44,0,0,0,.11.24l-.1.09-.25-.09a.05.05,0,0,0-.07,0,0,0,0,0,0,0,.06l.2.08-.07.07-.21-.07a.07.07,0,0,0-.07,0s0,.05,0,.06h0l.15.05-.1.09a.18.18,0,0,0-.19,0,.15.15,0,0,0,0,.22.15.15,0,0,0,.11,0,.15.15,0,0,0,.17-.15.1.1,0,0,0,0-.07l.11-.09.05.14s0,0,.07,0a0,0,0,0,0,0-.06h0L18,45.51l.08-.07.08.18a.07.07,0,0,0,.08,0h0a.05.05,0,0,0,0-.07h0l-.11-.22.11-.09a.55.55,0,0,0,.25.1v.32l-.24.09a.05.05,0,0,0,0,.07.06.06,0,0,0,.07,0l.2-.08v.1L18.3,46a0,0,0,0,0,0,.07.06.06,0,0,0,.07,0l.14-.07v.14a.16.16,0,0,0-.11.14.17.17,0,0,0,.34,0,.16.16,0,0,0-.12-.14V46l.15.07a.06.06,0,0,0,.07,0,0,0,0,0,0,0-.07l-.2-.09v-.1l.21.08a.06.06,0,0,0,.07,0,.05.05,0,0,0,0-.07h0l-.25-.09v-.32a.55.55,0,0,0,.26-.1l.1.09-.1.22a.05.05,0,0,0,.1,0h0l.09-.18.07.07-.06.19a0,0,0,0,0,0,.06.05.05,0,0,0,.07,0h0l.05-.14.1.09a.17.17,0,0,0,0,.07.13.13,0,0,0,.05.11.15.15,0,0,0,.11,0,.15.15,0,0,0,.12-.26.19.19,0,0,0-.19,0l-.1-.09.15-.05s0,0,0-.06a.07.07,0,0,0-.07,0l-.21.07-.07-.07.2-.08a.05.05,0,0,0,0-.07.06.06,0,0,0-.08,0l-.24.09-.1-.09a.44.44,0,0,0,.11-.24h.35l.1.22a.05.05,0,0,0,.07,0s.05,0,0-.06h0L19.52,45h.11l.09.18a.08.08,0,0,0,.08,0h0a0,0,0,0,0,0-.07h0L19.75,45h.15a.15.15,0,0,0,.15.1.16.16,0,0,0,.17-.15A.15.15,0,0,0,20.05,44.76ZM19.42,44h0a.06.06,0,0,1,.06,0,.08.08,0,0,1,0,0h-.08A.06.06,0,0,1,19.42,44Zm-.87-.55a0,0,0,0,1,0,.1.06.06,0,0,1-.06,0h0A.06.06,0,0,1,18.55,43.48Zm-.95.63a0,0,0,0,1,0-.08h0s.06,0,.06,0l0,0ZM17,45a0,0,0,0,1,0-.1s.06,0,.06,0A.06.06,0,0,1,17,45Zm.63.82a0,0,0,0,1-.07,0s0-.05,0-.07a0,0,0,0,1,.07,0A0,0,0,0,1,17.67,45.78Zm.88.56s-.06,0-.05-.05a.05.05,0,1,1,.05.05Zm0-1.07a.36.36,0,1,1,0-.72.36.36,0,1,1,0,.72Zm.95.44a0,0,0,0,1,0,.07.06.06,0,0,1-.08,0,0,0,0,0,1,0-.07h.08Zm.55-.75a.05.05,0,0,1-.05-.05,0,0,0,0,1,.05,0,.05.05,0,1,1,0,.1Z" transform="translate(-2 -2.28)"/></g></g><rect class="cls-1" x="12.91" y="50.24" width="1.77" height="1.77" rx="0.89" transform="translate(10.18 -4.08) rotate(13.35)"/><rect class="cls-1" x="27.32" y="45.57" width="1.77" height="1.77" rx="0.89" transform="translate(9.49 -7.54) rotate(13.35)"/><rect class="cls-1" x="50.58" y="51.63" width="1.77" height="1.77" rx="0.89" transform="translate(11.52 -12.75) rotate(13.35)"/><path class="cls-3" d="M31,60.53a1,1,0,0,1-1-1,1.06,1.06,0,0,1,.13-.5l3.15-5.5H29a1,1,0,0,1-1-1,1.06,1.06,0,0,1,.13-.5l4-7a1,1,0,0,1,1.76.95l0,0-3.15,5.51H35a1,1,0,0,1,1,1,1.05,1.05,0,0,1-.13.49l-4,7A1,1,0,0,1,31,60.53Z" transform="translate(-2 -2.28)"/></g></g></svg>