<?xml version="1.0" encoding="UTF-8"?><!DOCTYPE svg PUBLIC "-//W3C//DTD SVG 1.1//EN" "http://www.w3.org/Graphics/SVG/1.1/DTD/svg11.dtd"><svg xmlns="http://www.w3.org/2000/svg" xmlns:xlink="http://www.w3.org/1999/xlink" version="1.1" x="0px" y="0px" viewBox="0 0 64 64" xml:space="preserve"><g id="flat"><g id="cloudy_1_"><path fill="#E6E6E6" d="M23.096 16.542a1 1 0 0 0-.889-.542H20v-.535A4.47 4.47 0 0 0 15.535 11h-2.07A4.47 4.47 0 0 0 9 15.465v.56c-2.245.233-4 2.14-4 4.511A4.47 4.47 0 0 0 9.465 25H20a1 1 0 0 0 1-1v-.12c0-2.266.699-4.444 2.021-6.3.217-.305.246-.705.075-1.038z"/><path fill="#3EBBDD" d="M49.12 27H48v-3.12C48 16.778 42.222 11 35.12 11h-3.24C24.778 11 19 16.778 19 23.88V27h-4.12C7.778 27 2 32.778 2 39.88v.24C2 47.222 7.778 53 14.88 53h34.24C56.222 53 62 47.222 62 40.12v-.24C62 32.778 56.222 27 49.12 27z"/><path fill="#3EBBDD" d="M49.12 27H48v-3.12C48 16.778 42.222 11 35.12 11h-3.24C24.778 11 19 16.778 19 23.88V27h-4.12C7.778 27 2 32.778 2 39.88v.24C2 47.222 7.778 53 14.88 53h34.24C56.222 53 62 47.222 62 40.12v-.24C62 32.778 56.222 27 49.12 27z"/><path fill="#38A8C7" d="M58.417 30.99c.091.661.155 1.33.155 2.016v.275c0 8.116-6.603 14.72-14.72 14.72H4.714c2.358 3.036 6.033 5 10.166 5h34.24C56.222 53 62 47.222 62 40.12v-.24c0-3.448-1.369-6.576-3.583-8.89z"/></g></g><metadata><rdf:RDF xmlns:rdf="http://www.w3.org/1999/02/22-rdf-syntax-ns#" xmlns:rdfs="http://www.w3.org/2000/01/rdf-schema#" xmlns:dc="http://purl.org/dc/elements/1.1/"><rdf:Description about="https://iconscout.com/legal#licenses" dc:title="cloudy-cloud-weather-meteorology-season" dc:description="cloudy-cloud-weather-meteorology-season" dc:publisher="Iconscout" dc:date="2018-03-23" dc:format="image/svg+xml" dc:language="en"><dc:creator><rdf:Bag><rdf:li>Petai Jantrapoon</rdf:li></rdf:Bag></dc:creator></rdf:Description></rdf:RDF></metadata></svg>