<?xml version="1.0" encoding="UTF-8"?><!DOCTYPE svg PUBLIC "-//W3C//DTD SVG 1.1//EN" "http://www.w3.org/Graphics/SVG/1.1/DTD/svg11.dtd"><svg xmlns="http://www.w3.org/2000/svg" xmlns:xlink="http://www.w3.org/1999/xlink" version="1.1" x="0px" y="0px" viewBox="0 0 64 64" xml:space="preserve"><g id="flat"><g id="compass_1_"><circle fill="#4D4D4D" cx="32" cy="32" r="30"/><path fill="#3E3E3E" d="M30 51C18.329 51 8.121 45.629 2.531 37.608 5.159 51.495 17.349 62 32 62c16.569 0 30-13.431 30-30 0-1.535-.116-3.042-.339-4.515C59.414 40.784 46.098 51 30 51z"/><circle fill="#FFF" cx="32" cy="32" r="25"/><path fill="#D43239" d="M28.316 28.316L46 18 35.684 35.684z"/><path fill="#3EBBDD" d="M28.316 28.316L18 46l17.684-10.316z"/><path fill="#4D4D4D" d="M31 15h2v2h-2z"/><path fill="#4D4D4D" d="M31 47h2v2h-2z"/><path fill="#4D4D4D" d="M15 31h2v2h-2z"/><path fill="#4D4D4D" d="M47 31h2v2h-2z"/><circle fill="#FFF" cx="32" cy="32" r="2"/></g></g><metadata><rdf:RDF xmlns:rdf="http://www.w3.org/1999/02/22-rdf-syntax-ns#" xmlns:rdfs="http://www.w3.org/2000/01/rdf-schema#" xmlns:dc="http://purl.org/dc/elements/1.1/"><rdf:Description about="https://iconscout.com/legal#licenses" dc:title="compass-navigator-gps-direction-weather" dc:description="compass-navigator-gps-direction-weather" dc:publisher="Iconscout" dc:date="2018-03-23" dc:format="image/svg+xml" dc:language="en"><dc:creator><rdf:Bag><rdf:li>Petai Jantrapoon</rdf:li></rdf:Bag></dc:creator></rdf:Description></rdf:RDF></metadata></svg>