<?xml version="1.0" encoding="UTF-8"?><!DOCTYPE svg PUBLIC "-//W3C//DTD SVG 1.1//EN" "http://www.w3.org/Graphics/SVG/1.1/DTD/svg11.dtd"><svg xmlns="http://www.w3.org/2000/svg" xmlns:xlink="http://www.w3.org/1999/xlink" version="1.1" x="0px" y="0px" viewBox="0 0 64 64" xml:space="preserve"><g id="flat"><g id="raindrop"><path fill="#3EBBDD" d="M36 2c-2.906 0-5.654 2.892-8.177 8.618l-.839 2.04a56.93 56.93 0 0 0-.764 2.114l-.609 1.894C24.024 21.862 23 27.489 23 31c0 8.271 5.832 15 13 15s13-6.729 13-15c0-7.229-5.25-29-13-29z"/><path fill="#38A8C7" d="M47.952 22.912c.03.474.048.921.048 1.319 0 8.908-6.281 16.154-14 16.154-4.215 0-7.991-2.17-10.56-5.581C24.905 41.235 29.973 46 36 46c7.168 0 13-6.729 13-15 0-1.906-.368-4.826-1.048-8.088z"/><path fill="#3EBBDD" d="M55 36c-4.44 0-7 12.901-7 17 0 4.963 3.141 9 7 9s7-4.037 7-9c0-4.099-2.56-17-7-17z"/><path fill="#3EBBDD" d="M23 43c-3.449 0-5 9.274-5 11.667C18 58.159 20.243 61 23 61s5-2.841 5-6.333C28 52.274 26.449 43 23 43z"/><path fill="#3EBBDD" d="M55 24c2.757 0 5-2.841 5-6.333C60 15.274 58.449 6 55 6s-5 9.274-5 11.667C50 21.159 52.243 24 55 24z"/><path fill="#3EBBDD" d="M38 48c-2.91 0-4 7.474-4 9 0 2.757 1.794 5 4 5s4-2.243 4-5c0-1.526-1.09-9-4-9z"/><path fill="#3EBBDD" d="M15 11c-2.91 0-4 7.474-4 9 0 2.757 1.794 5 4 5s4-2.243 4-5c0-1.526-1.09-9-4-9z"/><path fill="#3EBBDD" d="M14.95 39.771c-.168-.699-.355-1.4-.566-2.115l-.662-2.013C12.33 31.846 10.786 30 9 30c-4.44 0-7 12.901-7 17 0 4.963 3.141 9 7 9s7-4.037 7-9c0-1.31-.214-3.142-.606-5.182l-.444-2.047z"/></g></g><metadata><rdf:RDF xmlns:rdf="http://www.w3.org/1999/02/22-rdf-syntax-ns#" xmlns:rdfs="http://www.w3.org/2000/01/rdf-schema#" xmlns:dc="http://purl.org/dc/elements/1.1/"><rdf:Description about="https://iconscout.com/legal#licenses" dc:title="drop-humidity-rain-water-season" dc:description="drop-humidity-rain-water-season" dc:publisher="Iconscout" dc:date="2018-03-23" dc:format="image/svg+xml" dc:language="en"><dc:creator><rdf:Bag><rdf:li>Petai Jantrapoon</rdf:li></rdf:Bag></dc:creator></rdf:Description></rdf:RDF></metadata></svg>