<?xml version="1.0" encoding="UTF-8"?><!DOCTYPE svg PUBLIC "-//W3C//DTD SVG 1.1//EN" "http://www.w3.org/Graphics/SVG/1.1/DTD/svg11.dtd"><svg xmlns="http://www.w3.org/2000/svg" xmlns:xlink="http://www.w3.org/1999/xlink" version="1.1" x="0px" y="0px" viewBox="0 0 64 64" xml:space="preserve"><g id="flat"><g id="dry_season_1_"><path fill="#4D4D4D" d="M56 43c1.654 0 3-1.346 3-3v-6.02c0-1.644-1.337-2.98-3.02-2.98A2.984 2.984 0 0 0 53 33.98V37h-2v-7.07c0-4.372-3.558-7.93-7.93-7.93h-.14C38.558 22 35 25.558 35 29.93V43h-2v-3.02c0-1.644-1.337-2.98-3.02-2.98A2.984 2.984 0 0 0 27 39.98V46c0 1.654 1.346 3 3 3h5v12a1 1 0 0 0 1 1h14a1 1 0 0 0 1-1v-4h5c1.654 0 3-1.346 3-3v-6.02c0-1.644-1.337-2.98-3.02-2.98A2.984 2.984 0 0 0 53 47.98V51h-2v-8h5z"/><path fill="#3E3E3E" d="M55.98 45A2.984 2.984 0 0 0 53 47.98V51h-2v-1.036C47.352 54.834 41.553 58 35 58v3a1 1 0 0 0 1 1h14a1 1 0 0 0 1-1v-4h5c1.654 0 3-1.346 3-3v-6.02c0-1.643-1.337-2.98-3.02-2.98z"/><path fill="#FFF" d="M39 30h2v2h-2z"/><path fill="#FFF" d="M45 32h2v2h-2z"/><path fill="#FFF" d="M44 47h2v2h-2z"/><path fill="#FFF" d="M44 40h2v2h-2z"/><path fill="#FFF" d="M39 52h2v2h-2z"/><path fill="#FFF" d="M40 44h2v2h-2z"/><path fill="#FFF" d="M45 53h2v2h-2z"/><path fill="#FFF" d="M42 56h2v2h-2z"/><path fill="#FFF" d="M40 36h2v2h-2z"/><path fill="#FFF" d="M42 26h2v2h-2z"/><g fill="#FBB03B"><path d="M18 8C12.486 8 8 12.486 8 18s4.486 10 10 10 10-4.486 10-10S23.514 8 18 8z"/><path d="M18 6a1 1 0 0 0 1-1V3a1 1 0 1 0-2 0v2a1 1 0 0 0 1 1z"/><path d="M27.899 6.687l-1.414 1.414a.999.999 0 1 0 1.414 1.414l1.414-1.414a.999.999 0 1 0-1.414-1.414z"/><path d="M33 17h-2a1 1 0 1 0 0 2h2a1 1 0 1 0 0-2z"/><path d="M27.899 26.485a.999.999 0 1 0-1.414 1.414l1.414 1.414a.997.997 0 0 0 1.414 0 .999.999 0 0 0 0-1.414l-1.414-1.414z"/><path d="M18 30a1 1 0 0 0-1 1v2a1 1 0 1 0 2 0v-2a1 1 0 0 0-1-1z"/><path d="M8.101 26.485l-1.414 1.414a.999.999 0 1 0 1.414 1.414l1.414-1.414a.999.999 0 1 0-1.414-1.414z"/><path d="M5 17H3a1 1 0 1 0 0 2h2a1 1 0 1 0 0-2z"/><path d="M8.101 9.515a.997.997 0 0 0 1.414 0 .999.999 0 0 0 0-1.414L8.101 6.687a.999.999 0 1 0-1.414 1.414l1.414 1.414z"/></g><path fill="#4D4D4D" d="M20 60h42v2H20z"/><path fill="#4D4D4D" d="M16 60h1.999v2H16z"/><path fill="#4D4D4D" d="M2 60h12v2H2z"/></g></g><metadata><rdf:RDF xmlns:rdf="http://www.w3.org/1999/02/22-rdf-syntax-ns#" xmlns:rdfs="http://www.w3.org/2000/01/rdf-schema#" xmlns:dc="http://purl.org/dc/elements/1.1/"><rdf:Description about="https://iconscout.com/legal#licenses" dc:title="dry-season-summer-hot-cactus" dc:description="dry-season-summer-hot-cactus" dc:publisher="Iconscout" dc:date="2018-03-23" dc:format="image/svg+xml" dc:language="en"><dc:creator><rdf:Bag><rdf:li>Petai Jantrapoon</rdf:li></rdf:Bag></dc:creator></rdf:Description></rdf:RDF></metadata></svg>