<?xml version="1.0" encoding="UTF-8"?><!DOCTYPE svg PUBLIC "-//W3C//DTD SVG 1.1//EN" "http://www.w3.org/Graphics/SVG/1.1/DTD/svg11.dtd"><svg xmlns="http://www.w3.org/2000/svg" xmlns:xlink="http://www.w3.org/1999/xlink" version="1.1" x="0px" y="0px" viewBox="0 0 64 64" xml:space="preserve"><g id="flat"><g id="full_moon_3_"><path fill="#FBB03B" d="M56.182 36.877a1.003 1.003 0 0 0-1.174.089 21.42 21.42 0 0 1-13.872 5.094c-1.633 0-3.262-.184-4.794-.535L34.3 40.95a21.364 21.364 0 0 1-1.848-.715l-2.028-1.032c-6.543-3.776-10.607-10.779-10.607-18.276a21 21 0 0 1 2.702-10.296 1 1 0 0 0-1.294-1.397C12.375 13.366 6.657 22.3 6.657 31.994c0 13.866 11.371 25.146 25.349 25.146 11.724 0 21.85-7.884 24.622-19.173a1.003 1.003 0 0 0-.446-1.09z"/><g fill="#3EBBDD"><path d="M55 4h-1V3a1 1 0 1 0-2 0v1h-1a1 1 0 1 0 0 2h1v1a1 1 0 1 0 2 0V6h1a1 1 0 1 0 0-2z"/><path d="M35 28h-1v-1a1 1 0 1 0-2 0v1h-1a1 1 0 1 0 0 2h1v1a1 1 0 1 0 2 0v-1h1a1 1 0 1 0 0-2z"/><path d="M15 8a1 1 0 1 0 0-2h-1V5a1 1 0 1 0-2 0v1h-1a1 1 0 1 0 0 2h1v1a1 1 0 1 0 2 0V8h1z"/><path d="M20 58h-1v-1a1 1 0 1 0-2 0v1h-1a1 1 0 1 0 0 2h1v1a1 1 0 1 0 2 0v-1h1a1 1 0 1 0 0-2z"/></g><path fill="#3EBBDD" d="M36 15c-1.654 0-3-1.346-3-3s1.346-3 3-3 3 1.346 3 3-1.346 3-3 3zm0-4a1.001 1.001 0 0 0 0 2 1.001 1.001 0 0 0 0-2z"/><path fill="#3EBBDD" d="M48 30c-1.654 0-3-1.346-3-3s1.346-3 3-3 3 1.346 3 3-1.346 3-3 3zm0-4a1.001 1.001 0 0 0 0 2 1.001 1.001 0 0 0 0-2z"/><path fill="#3EBBDD" d="M5 49c-1.654 0-3-1.346-3-3s1.346-3 3-3 3 1.346 3 3-1.346 3-3 3zm0-4a1.001 1.001 0 0 0 0 2 1.001 1.001 0 0 0 0-2z"/><path fill="#3EBBDD" d="M58 57c-1.654 0-3-1.346-3-3s1.346-3 3-3 3 1.346 3 3-1.346 3-3 3zm0-4a1.001 1.001 0 0 0 0 2 1.001 1.001 0 0 0 0-2z"/><path fill="#4D4D4D" d="M51 16h2v2h-2z"/><path fill="#4D4D4D" d="M29 3h2v2h-2z"/><path fill="#4D4D4D" d="M5 18h2v2H5z"/><path fill="#4D4D4D" d="M8 56h2v2H8z"/><path fill="#4D4D4D" d="M60 29h2v2h-2z"/><path fill="#4D4D4D" d="M2 7h2v2H2z"/><path fill="#4D4D4D" d="M42 58h2v2h-2z"/></g></g><metadata><rdf:RDF xmlns:rdf="http://www.w3.org/1999/02/22-rdf-syntax-ns#" xmlns:rdfs="http://www.w3.org/2000/01/rdf-schema#" xmlns:dc="http://purl.org/dc/elements/1.1/"><rdf:Description about="https://iconscout.com/legal#licenses" dc:title="eclipse-moon-light-season-weather" dc:description="eclipse-moon-light-season-weather" dc:publisher="Iconscout" dc:date="2018-03-23" dc:format="image/svg+xml" dc:language="en"><dc:creator><rdf:Bag><rdf:li>Petai Jantrapoon</rdf:li></rdf:Bag></dc:creator></rdf:Description></rdf:RDF></metadata></svg>