<svg xmlns="http://www.w3.org/2000/svg" viewBox="0 0 46.93 32" id="eye"><g data-name="Layer 2"><g data-name="Layer 1"><path fill="#fafafa" d="M2.2 15.82S12.82-2.79 29.07 4.29c3.36 1.82 8 1.18 14 11.26 0 0-3.63 12.8-20.06 14S2.2 15.82 2.2 15.82Z"></path><path fill="#555" d="M23.47 0A25.22 25.22 0 0 0 0 16a25.21 25.21 0 0 0 46.93 0A25.22 25.22 0 0 0 23.47 0Zm0 27.73A20.84 20.84 0 0 1 4.65 16a21 21 0 0 1 37.63 0 20.84 20.84 0 0 1-18.81 11.73Z"></path><circle cx="23.47" cy="16" r="9.6" fill="#0379d4"></circle></g></g></svg>