<?xml version="1.0" encoding="UTF-8"?><!DOCTYPE svg PUBLIC "-//W3C//DTD SVG 1.1//EN" "http://www.w3.org/Graphics/SVG/1.1/DTD/svg11.dtd"><svg xmlns="http://www.w3.org/2000/svg" xmlns:xlink="http://www.w3.org/1999/xlink" version="1.1" x="0px" y="0px" viewBox="0 0 64 64" xml:space="preserve"><g id="flat"><g id="flag_4_"><path fill="#CCC" d="M18.999 21.667a.996.996 0 0 1-.618-.214l-11-8.667a1 1 0 0 1 .002-1.573l11-8.629a1 1 0 0 1 1.234 1.573l-9.999 7.844 10.001 7.88a1 1 0 0 1-.62 1.786z"/><path fill="#4D4D4D" d="M9 62H3a1 1 0 1 1 0-2h6a1 1 0 1 1 0 2z"/><path fill="#4D4D4D" d="M5 14h2v47H5z"/><path fill="#4D4D4D" d="M6 15c-1.654 0-3-1.346-3-3s1.346-3 3-3 3 1.346 3 3-1.346 3-3 3zm0-4a1.001 1.001 0 0 0 0 2 1.001 1.001 0 0 0 0-2z"/><path fill="#E6E6E6" d="M40.207 4.142A257.722 257.722 0 0 0 36 3.281v17.584c1.311.118 2.613.249 3.896.384 1.349.142 2.721.279 4.104.403V4.924a266.499 266.499 0 0 1-3.793-.782z"/><path fill="#E6E6E6" d="M61.657 6.116a1.004 1.004 0 0 0-.793-.237 38.83 38.83 0 0 1-5.354.362c-1.186 0-2.354-.059-3.511-.151v15.877c3.25-.078 6.291-.445 9.233-1.153a1 1 0 0 0 .767-.972V6.87a.996.996 0 0 0-.342-.754z"/><path fill="#E6E6E6" d="M24.489 2a41.53 41.53 0 0 0-5.625.38 1 1 0 0 0-.864.991v17.296c0 .306.141.596.381.786.241.189.554.256.853.187 2.789-.671 5.677-1.02 8.767-1.097V2.146A46.094 46.094 0 0 0 24.489 2z"/><g fill="#3EBBDD"><path d="M40.313 27.732c-1.653 0-3.124-.386-4.567-.765-2.305-.605-4.483-1.177-7.38-.037a1.004 1.004 0 0 1-1.297-.564 1.001 1.001 0 0 1 .564-1.297c3.5-1.379 6.103-.698 8.62-.037 2.305.605 4.482 1.178 7.38.037a1 1 0 1 1 .733 1.861c-1.493.589-2.823.802-4.053.802z"/><path d="M40.001 32.591l-.05-.001c-1.794-.088-3.282-.446-4.596-.761-2.336-.56-4.182-1.002-6.989.102a1.001 1.001 0 0 1-.733-1.861c3.393-1.336 5.723-.777 8.188-.185 1.288.309 2.62.628 4.227.708a1 1 0 0 1-.047 1.998z"/></g><path fill="#CCC" d="M39 18c-8.039 0-15.379-1.207-21-3.196v5.863c0 .306.141.596.381.786.241.189.554.256.853.187 2.789-.671 5.677-1.02 8.767-1.097.415-.01.821-.033 1.244-.033 2.277 0 4.532.155 6.756.356 1.311.118 2.613.249 3.896.384 1.349.142 2.721.279 4.104.403 2.212.196 4.463.347 6.755.347.423 0 .829-.023 1.244-.033 3.25-.078 6.291-.445 9.233-1.153a1 1 0 0 0 .767-.972v-5.808C56.182 16.478 48.031 18 39 18z"/><path fill="#D43239" d="M44 4.924V21.652c2.213.197 4.464.348 6.756.348.423 0 .829-.023 1.244-.033V6.09c-2.737-.218-5.398-.655-8-1.166z"/><path fill="#D43239" d="M28 2.146v18.397c.415-.01.821-.033 1.244-.033 2.277 0 4.532.155 6.756.356V3.281c-2.593-.501-5.249-.925-8-1.135z"/></g></g><metadata><rdf:RDF xmlns:rdf="http://www.w3.org/1999/02/22-rdf-syntax-ns#" xmlns:rdfs="http://www.w3.org/2000/01/rdf-schema#" xmlns:dc="http://purl.org/dc/elements/1.1/"><rdf:Description about="https://iconscout.com/legal#licenses" dc:title="flag-wind-weather-forecast-direction" dc:description="flag-wind-weather-forecast-direction" dc:publisher="Iconscout" dc:date="2018-03-23" dc:format="image/svg+xml" dc:language="en"><dc:creator><rdf:Bag><rdf:li>Petai Jantrapoon</rdf:li></rdf:Bag></dc:creator></rdf:Description></rdf:RDF></metadata></svg>