<?xml version="1.0" encoding="UTF-8"?><!DOCTYPE svg PUBLIC "-//W3C//DTD SVG 1.1//EN" "http://www.w3.org/Graphics/SVG/1.1/DTD/svg11.dtd"><svg xmlns="http://www.w3.org/2000/svg" xmlns:xlink="http://www.w3.org/1999/xlink" version="1.1" x="0px" y="0px" viewBox="0 0 64 64" xml:space="preserve"><g id="flat"><g id="tide2_1_"><path fill="#3EBBDD" d="M54.48 48c-2.309 0-3.514-1.284-4.481-2.315C49.116 44.743 48.42 44 46.977 44c-1.441 0-2.139.743-3.021 1.685C42.989 46.716 41.785 48 39.478 48c-2.309 0-3.513-1.284-4.48-2.316-.883-.941-1.58-1.684-3.022-1.684-1.441 0-2.139.743-3.021 1.685C27.988 46.716 26.784 48 24.477 48s-3.512-1.284-4.479-2.316C19.116 44.743 18.42 44 16.979 44s-2.138.743-3.02 1.684C12.993 46.716 11.79 48 9.482 48s-3.512-1.284-4.479-2.316C4.122 44.743 3.426 44 1.985 44v-2c2.308 0 3.511 1.284 4.478 2.316C7.345 45.257 8.041 46 9.482 46c1.44 0 2.137-.743 3.019-1.684.967-1.032 2.171-2.316 4.478-2.316s3.511 1.284 4.478 2.316c.882.94 1.578 1.684 3.02 1.684s2.138-.743 3.02-1.684c.966-1.032 2.17-2.316 4.479-2.316s3.513 1.284 4.48 2.316c.882.941 1.579 1.684 3.022 1.684 1.441 0 2.138-.743 3.02-1.684.966-1.032 2.17-2.316 4.479-2.316s3.514 1.284 4.481 2.315c.883.942 1.579 1.685 3.022 1.685s2.141-.743 3.023-1.685C58.472 43.284 59.677 42 61.985 42v2c-1.442 0-2.14.743-3.022 1.684C57.995 46.716 56.79 48 54.48 48z"/><path fill="#3EBBDD" d="M54.48 55c-2.309 0-3.514-1.284-4.481-2.315C49.116 51.743 48.42 51 46.977 51c-1.441 0-2.139.743-3.021 1.685C42.989 53.716 41.785 55 39.478 55c-2.309 0-3.513-1.284-4.48-2.316-.883-.941-1.58-1.684-3.022-1.684-1.441 0-2.139.743-3.021 1.685C27.988 53.716 26.784 55 24.477 55s-3.512-1.284-4.479-2.316C19.116 51.743 18.42 51 16.979 51s-2.138.743-3.02 1.684C12.993 53.716 11.79 55 9.482 55s-3.512-1.284-4.479-2.316C4.122 51.743 3.426 51 1.985 51v-2c2.308 0 3.511 1.284 4.478 2.316C7.345 52.257 8.041 53 9.482 53c1.44 0 2.137-.743 3.019-1.684.967-1.032 2.171-2.316 4.478-2.316s3.511 1.284 4.478 2.316c.882.94 1.578 1.684 3.02 1.684s2.138-.743 3.02-1.684c.966-1.032 2.17-2.316 4.479-2.316s3.513 1.284 4.48 2.316c.882.941 1.579 1.684 3.022 1.684 1.441 0 2.138-.743 3.02-1.684.966-1.032 2.17-2.316 4.479-2.316s3.514 1.284 4.481 2.315c.883.942 1.579 1.685 3.022 1.685s2.141-.743 3.023-1.685C58.472 50.284 59.677 49 61.985 49v2c-1.442 0-2.14.743-3.022 1.684C57.995 53.716 56.79 55 54.48 55z"/><path fill="#3EBBDD" d="M54.48 62c-2.309 0-3.514-1.284-4.481-2.315C49.116 58.743 48.42 58 46.977 58c-1.441 0-2.139.743-3.021 1.685C42.989 60.716 41.785 62 39.478 62c-2.309 0-3.513-1.284-4.48-2.316-.883-.941-1.58-1.684-3.022-1.684-1.441 0-2.139.743-3.021 1.685C27.988 60.716 26.784 62 24.477 62s-3.512-1.284-4.479-2.316C19.116 58.743 18.42 58 16.979 58s-2.138.743-3.02 1.684C12.993 60.716 11.79 62 9.482 62s-3.512-1.284-4.479-2.316C4.122 58.743 3.426 58 1.985 58v-2c2.308 0 3.511 1.284 4.478 2.316C7.345 59.257 8.041 60 9.482 60c1.44 0 2.137-.743 3.019-1.684.967-1.032 2.171-2.316 4.478-2.316s3.511 1.284 4.478 2.316c.882.94 1.578 1.684 3.02 1.684s2.138-.743 3.02-1.684c.966-1.032 2.17-2.316 4.479-2.316s3.513 1.284 4.48 2.316c.882.941 1.579 1.684 3.022 1.684 1.441 0 2.138-.743 3.02-1.684.966-1.032 2.17-2.316 4.479-2.316s3.514 1.284 4.481 2.315c.883.942 1.579 1.685 3.022 1.685s2.141-.743 3.023-1.685C58.472 57.284 59.677 56 61.985 56v2c-1.442 0-2.14.743-3.022 1.684C57.995 60.716 56.79 62 54.48 62z"/><path fill="#4D4D4D" d="M22.985 22h4v2h-4z"/><path fill="#4D4D4D" d="M22.985 26h4v2h-4z"/><path fill="#4D4D4D" d="M24.985 38c-.334 0-.646-.167-.832-.445l-4-6A1 1 0 0 1 20.985 30h8a1 1 0 0 1 .832 1.554l-4 6a.998.998 0 0 1-.832.446zm-2.131-6l2.132 3.197L27.117 32h-4.263z"/><path fill="#4D4D4D" d="M39 38c-.334 0-.646-.167-.832-.445l-4-6A1 1 0 0 1 35 30h8a1 1 0 0 1 .832 1.554l-4 6A1 1 0 0 1 39 38zm-2.132-6L39 35.197 41.132 32h-4.264z"/><path fill="#4D4D4D" d="M36.985 22h4v2h-4z"/><path fill="#4D4D4D" d="M22.985 18h4v2h-4z"/><path fill="#4D4D4D" d="M36.985 18h4v2h-4z"/><path fill="#4D4D4D" d="M36.985 26h4v2h-4z"/></g></g><metadata><rdf:RDF xmlns:rdf="http://www.w3.org/1999/02/22-rdf-syntax-ns#" xmlns:rdfs="http://www.w3.org/2000/01/rdf-schema#" xmlns:dc="http://purl.org/dc/elements/1.1/"><rdf:Description about="https://iconscout.com/legal#licenses" dc:title="tide-flood-sea-level-wave-" dc:description="tide-flood-sea-level-wave-" dc:publisher="Iconscout" dc:date="2018-03-23" dc:format="image/svg+xml" dc:language="en"><dc:creator><rdf:Bag><rdf:li>Petai Jantrapoon</rdf:li></rdf:Bag></dc:creator></rdf:Description></rdf:RDF></metadata></svg>