<?xml version="1.0" encoding="UTF-8"?><!DOCTYPE svg PUBLIC "-//W3C//DTD SVG 1.1//EN" "http://www.w3.org/Graphics/SVG/1.1/DTD/svg11.dtd"><svg xmlns="http://www.w3.org/2000/svg" xmlns:xlink="http://www.w3.org/1999/xlink" version="1.1" x="0px" y="0px" viewBox="0 0 64 64" xml:space="preserve"><g id="flat"><g id="global_1_"><path fill="#3EBBDD" d="M32 14c-9.925 0-18 8.075-18 18s8.075 18 18 18 18-8.075 18-18-8.075-18-18-18z"/><path fill="#38A8C7" d="M47.516 22.92c.306 1.313.484 2.675.484 4.08 0 9.925-8.075 18-18 18-6.612 0-12.386-3.594-15.516-8.92C16.34 44.043 23.48 50 32 50c9.925 0 18-8.075 18-18 0-3.314-.916-6.41-2.484-9.08z"/><path fill="#E6E6E6" d="M24.7 56.961C16.268 54.499 9.501 47.731 7.039 39.3l1.92-.561c2.272 7.782 8.519 14.028 16.301 16.301l-.56 1.921z"/><path fill="#E6E6E6" d="M38.245 57.245l-.479-1.941c7.177-1.77 13.241-6.879 16.221-13.666l1.831.804c-3.227 7.351-9.797 12.886-17.573 14.803z"/><path fill="#E6E6E6" d="M54.355 23.251c-2.695-6.882-8.535-12.226-15.62-14.293l.561-1.92c7.676 2.24 14.001 8.028 16.921 15.483l-1.862.73z"/><path fill="#E6E6E6" d="M8.958 25.262l-1.92-.561c2.462-8.432 9.229-15.2 17.661-17.662l.561 1.92c-7.783 2.273-14.03 8.52-16.302 16.303z"/><path fill="#E6E6E6" d="M35 28.98A2.984 2.984 0 0 0 32.02 26h-5.04c-.541 0-.98-.439-.98-1.02a.98.98 0 0 1 .98-.98h2.04c1.643 0 2.98-1.337 2.98-3.02A2.984 2.984 0 0 0 29.02 18h-8.329l-.279.235a18.059 18.059 0 0 0-6.36 12.707L13.99 32h18.03c1.643 0 2.98-1.337 2.98-3.02z"/><path fill="#E6E6E6" d="M49.965 31.212L49.894 30H40.98C39.337 30 38 31.337 38 33.02c0 1.643 1.337 2.98 3.02 2.98.541 0 .98.439.98 1.02a.98.98 0 0 1-.98.98H33c-1.643 0-2.98 1.337-2.98 3.02A2.984 2.984 0 0 0 33 44h12.411l.299-.352A17.999 17.999 0 0 0 50 32c0-.266-.017-.527-.035-.788z"/><path fill="#50C1E0" d="M32 2c-2.757 0-5 2.243-5 5s2.243 5 5 5 5-2.243 5-5-2.243-5-5-5z"/><path fill="#50C1E0" d="M36.661 57.384a.996.996 0 0 0-.77-.397 3.99 3.99 0 0 1-3.877-3.877 1 1 0 0 0-1.247-.941A4.988 4.988 0 0 0 27 57c0 2.757 2.243 5 5 5a4.99 4.99 0 0 0 4.832-3.767 1 1 0 0 0-.171-.849z"/><path fill="#3EBBDD" d="M3 27h10v2H3z"/><path fill="#3EBBDD" d="M4.5 31h7v2h-7z"/><path fill="#3EBBDD" d="M6 35h4v2H6z"/><path fill="#3EBBDD" d="M59.876 27.128A3.006 3.006 0 0 0 56.98 25a2.984 2.984 0 0 0-2.852 2.124A3.006 3.006 0 0 0 52 30.02 2.984 2.984 0 0 0 54.98 33h4.04c1.643 0 2.98-1.337 2.98-3.02 0-1.342-.892-2.48-2.124-2.852z"/><path fill="#D1D1D1" d="M56.999 41a1 1 0 0 1-.893-1.447l.276-.553H55a1 1 0 0 1-.895-1.447l1-2a1 1 0 1 1 1.789.895l-.276.552H58a1 1 0 0 1 .895 1.447l-1 2a1 1 0 0 1-.896.553z"/></g></g><metadata><rdf:RDF xmlns:rdf="http://www.w3.org/1999/02/22-rdf-syntax-ns#" xmlns:rdfs="http://www.w3.org/2000/01/rdf-schema#" xmlns:dc="http://purl.org/dc/elements/1.1/"><rdf:Description about="https://iconscout.com/legal#licenses" dc:title="global-weather-forcast-earth-nature" dc:description="global-weather-forcast-earth-nature" dc:publisher="Iconscout" dc:date="2018-03-23" dc:format="image/svg+xml" dc:language="en"><dc:creator><rdf:Bag><rdf:li>Petai Jantrapoon</rdf:li></rdf:Bag></dc:creator></rdf:Description></rdf:RDF></metadata></svg>