<?xml version="1.0" encoding="UTF-8"?><!DOCTYPE svg PUBLIC "-//W3C//DTD SVG 1.1//EN" "http://www.w3.org/Graphics/SVG/1.1/DTD/svg11.dtd"><svg xmlns="http://www.w3.org/2000/svg" xmlns:xlink="http://www.w3.org/1999/xlink" version="1.1" x="0px" y="0px" viewBox="0 0 64 64" xml:space="preserve"><g id="flat"><g id="weather_forecast_1_"><circle fill="#3EBBDD" cx="32" cy="32" r="30"/><path fill="#3296B1" d="M59.651 20.345C59.88 21.863 60 23.418 60 25c0 17.121-13.879 31-31 31-9.973 0-18.84-4.715-24.511-12.032C9.112 54.579 19.687 62 32 62c16.569 0 30-13.431 30-30 0-4.134-.837-8.072-2.349-11.655z"/><path fill="#E6E6E6" d="M47.03 22H36.97A2.97 2.97 0 0 1 34 19.03v-.06A2.97 2.97 0 0 1 36.97 16H38v-1.03A2.97 2.97 0 0 1 40.97 12h2.06A2.97 2.97 0 0 1 46 14.97V16h1.03A2.97 2.97 0 0 1 50 18.97v.06A2.97 2.97 0 0 1 47.03 22z"/><path fill="#E6E6E6" d="M25.03 44H14.97A2.97 2.97 0 0 1 12 41.03v-.06A2.97 2.97 0 0 1 14.97 38H16v-1.03A2.97 2.97 0 0 1 18.97 34h2.06A2.97 2.97 0 0 1 24 36.97V38h1.03A2.97 2.97 0 0 1 28 40.97v.06A2.97 2.97 0 0 1 25.03 44z"/><path fill="#E6E6E6" d="M36.03 25H38v2h-1.97z"/><path fill="#E6E6E6" d="M35 29h1.97v2H35z"/><path fill="#E6E6E6" d="M40.03 25H42v2h-1.97z"/><path fill="#E6E6E6" d="M39 29h1.97v2H39z"/><path fill="#E6E6E6" d="M44.03 25H46v2h-1.97z"/><path fill="#E6E6E6" d="M43 29h1.97v2H43z"/><path fill="#E6E6E6" d="M16.999 53a1 1 0 0 1-.893-1.447l.276-.553H16a1.001 1.001 0 0 1-.895-1.448l1-2a1 1 0 0 1 1.789.895l-.276.553H18a1.001 1.001 0 0 1 .895 1.448l-1 2c-.176.35-.529.552-.896.552z"/><path fill="#E6E6E6" d="M22.999 53a1 1 0 0 1-.893-1.447l.276-.553H22a1.001 1.001 0 0 1-.895-1.448l1-2a1 1 0 0 1 1.789.895l-.276.553H24a1.001 1.001 0 0 1 .895 1.448l-1 2c-.176.35-.529.552-.896.552z"/><g fill="#E6E6E6"><path d="M25.02 21h-6.04c-.541 0-.98-.439-.98-1.02a.98.98 0 0 1 .98-.98h2.04c1.643 0 2.98-1.337 2.98-3.02A2.983 2.983 0 0 0 21.02 13H8.788l-.3.379a30.042 30.042 0 0 0-5.841 12.415L2.393 27H25.02c1.643 0 2.98-1.337 2.98-3.02A2.984 2.984 0 0 0 25.02 21z"/><path d="M39.98 38C38.337 38 37 39.337 37 41.02A2.983 2.983 0 0 0 39.98 44h2.04c.541 0 .98.439.98 1.02a.98.98 0 0 1-.98.98h-6.04C34.337 46 33 47.337 33 49.02A2.983 2.983 0 0 0 35.98 52h18.375l.299-.345a30.042 30.042 0 0 0 6.461-12.415l.307-1.24H39.98z"/></g></g></g><metadata><rdf:RDF xmlns:rdf="http://www.w3.org/1999/02/22-rdf-syntax-ns#" xmlns:rdfs="http://www.w3.org/2000/01/rdf-schema#" xmlns:dc="http://purl.org/dc/elements/1.1/"><rdf:Description about="https://iconscout.com/legal#licenses" dc:title="global-weather-forecast-season-earth" dc:description="global-weather-forecast-season-earth" dc:publisher="Iconscout" dc:date="2018-03-23" dc:format="image/svg+xml" dc:language="en"><dc:creator><rdf:Bag><rdf:li>Petai Jantrapoon</rdf:li></rdf:Bag></dc:creator></rdf:Description></rdf:RDF></metadata></svg>