<svg id="Layer_1" data-name="Layer 1" xmlns="http://www.w3.org/2000/svg" viewBox="-15 -3 64 64"><defs><style>.cls-1{fill:#3ebbdd;}.cls-2{fill:#38a8c7;}</style></defs><g id="flat"><g id="humidity"><path class="cls-1" d="M53.59,33.72l-.31-1.9c-.12-.68-.26-1.36-.41-2l-.47-1.94C49.17,15.4,41.4,2,32,2,19.29,2,10,26.33,10,39c0,13.33,9.25,23,22,23s22-9.67,22-23A37.64,37.64,0,0,0,53.59,33.72Z" transform="translate(-10 -2)"/><path class="cls-2" d="M53.32,32C50.63,45.09,40.18,54,26.5,54a27.74,27.74,0,0,1-13.85-3.55A21.19,21.19,0,0,0,32,62c12.75,0,22-9.67,22-23a37.64,37.64,0,0,0-.41-5.28Z" transform="translate(-10 -2)"/></g></g></svg>