<?xml version="1.0" encoding="UTF-8"?><!DOCTYPE svg PUBLIC "-//W3C//DTD SVG 1.1//EN" "http://www.w3.org/Graphics/SVG/1.1/DTD/svg11.dtd"><svg xmlns="http://www.w3.org/2000/svg" xmlns:xlink="http://www.w3.org/1999/xlink" version="1.1" x="0px" y="0px" viewBox="0 0 64 64" xml:space="preserve"><g id="flat"><g id="humidity_1_"><path fill="#3EBBDD" d="M53.594 33.717l-.311-1.896a52.496 52.496 0 0 0-.414-2.033l-.468-1.937C49.166 15.4 41.401 2 32 2 19.29 2 10 26.334 10 39c0 13.327 9.252 23 22 23s22-9.673 22-23c0-1.623-.136-3.394-.406-5.283z"/><path fill="#38A8C7" d="M53.317 32.027C50.629 45.087 40.179 54 26.5 54c-5.156 0-9.849-1.272-13.846-3.549C16.277 57.514 23.325 62 32 62c12.748 0 22-9.673 22-23 0-1.623-.136-3.394-.406-5.283l-.277-1.69z"/><path fill="#FFF" d="M22 47a.999.999 0 0 1-.707-1.707l20-20a.999.999 0 1 1 1.414 1.414l-20 20A.997.997 0 0 1 22 47z"/><path fill="#FFF" d="M38 46c-2.206 0-4-1.794-4-4s1.794-4 4-4 4 1.794 4 4-1.794 4-4 4zm0-6c-1.103 0-2 .897-2 2s.897 2 2 2 2-.897 2-2-.897-2-2-2z"/><path fill="#FFF" d="M26 34c-2.206 0-4-1.794-4-4s1.794-4 4-4 4 1.794 4 4-1.794 4-4 4zm0-6c-1.103 0-2 .897-2 2s.897 2 2 2 2-.897 2-2-.897-2-2-2z"/></g></g><metadata><rdf:RDF xmlns:rdf="http://www.w3.org/1999/02/22-rdf-syntax-ns#" xmlns:rdfs="http://www.w3.org/2000/01/rdf-schema#" xmlns:dc="http://purl.org/dc/elements/1.1/"><rdf:Description about="https://iconscout.com/legal#licenses" dc:title="humidity-drop-rain-drop-percent" dc:description="humidity-drop-rain-drop-percent" dc:publisher="Iconscout" dc:date="2018-03-23" dc:format="image/svg+xml" dc:language="en"><dc:creator><rdf:Bag><rdf:li>Petai Jantrapoon</rdf:li></rdf:Bag></dc:creator></rdf:Description></rdf:RDF></metadata></svg>