<?xml version="1.0" encoding="UTF-8"?><!DOCTYPE svg PUBLIC "-//W3C//DTD SVG 1.1//EN" "http://www.w3.org/Graphics/SVG/1.1/DTD/svg11.dtd"><svg xmlns="http://www.w3.org/2000/svg" xmlns:xlink="http://www.w3.org/1999/xlink" version="1.1" x="0px" y="0px" viewBox="0 0 64 64" xml:space="preserve"><g id="flat"><g id="location_1_"><path fill="#3EBBDD" d="M32 15c-9.374 0-17 7.626-17 17s7.626 17 17 17 17-7.626 17-17-7.626-17-17-17z"/><path fill="#4D4D4D" d="M62 31h-2.025C59.457 16.355 47.645 4.543 33 4.025V2h-2v2.025C16.355 4.543 4.543 16.355 4.025 31H2v2h2.025C4.543 47.645 16.355 59.457 31 59.975V62h2v-2.025C47.645 59.457 59.457 47.645 59.975 33H62v-2zM32 58C17.664 58 6 46.337 6 32S17.664 6 32 6s26 11.663 26 26-11.664 26-26 26z"/></g></g><metadata><rdf:RDF xmlns:rdf="http://www.w3.org/1999/02/22-rdf-syntax-ns#" xmlns:rdfs="http://www.w3.org/2000/01/rdf-schema#" xmlns:dc="http://purl.org/dc/elements/1.1/"><rdf:Description about="https://iconscout.com/legal#licenses" dc:title="location-gps-place-weather-forecast" dc:description="location-gps-place-weather-forecast" dc:publisher="Iconscout" dc:date="2018-03-23" dc:format="image/svg+xml" dc:language="en"><dc:creator><rdf:Bag><rdf:li>Petai Jantrapoon</rdf:li></rdf:Bag></dc:creator></rdf:Description></rdf:RDF></metadata></svg>