<?xml version="1.0" encoding="UTF-8"?><!DOCTYPE svg PUBLIC "-//W3C//DTD SVG 1.1//EN" "http://www.w3.org/Graphics/SVG/1.1/DTD/svg11.dtd"><svg xmlns="http://www.w3.org/2000/svg" xmlns:xlink="http://www.w3.org/1999/xlink" version="1.1" x="0px" y="0px" viewBox="0 0 64 64" xml:space="preserve"><g id="flat"><g id="clear_1_"><path fill="#4D4D4D" d="M31.2 24.4L3 62h58L32.8 24.4a1 1 0 0 0-1.6 0z"/><path fill="#E6E6E6" d="M31.2 24.4L20.317 38.91H33a1 1 0 0 0 1-1v-.979a1 1 0 0 1 1-1h6.448L32.8 24.4a1 1 0 0 0-1.6 0z"/><path fill="#FBB03B" d="M17 5c-3.309 0-6 2.691-6 6s2.691 6 6 6 6-2.691 6-6-2.691-6-6-6z"/><path fill="#E6E6E6" d="M43 46h-4a1 1 0 1 1 0-2h3v-2a1 1 0 0 1 1-1h4a1 1 0 1 1 0 2h-3v2a1 1 0 0 1-1 1z"/><path fill="#E6E6E6" d="M24 23h-4a1 1 0 1 1 0-2h3v-1a1 1 0 0 1 1-1h4a1 1 0 1 1 0 2h-3v1a1 1 0 0 1-1 1z"/><path fill="#E6E6E6" d="M42 16h-4a1 1 0 1 1 0-2h3v-1a1 1 0 0 1 1-1h4a1 1 0 1 1 0 2h-3v1a1 1 0 0 1-1 1z"/><path fill="#E6E6E6" d="M27 51h-4a1 1 0 0 1-1-1v-1h-2a1 1 0 1 1 0-2h3a1 1 0 0 1 1 1v1h3a1 1 0 1 1 0 2z"/><path fill="#E6E6E6" d="M55 6h-4a1 1 0 0 1-1-1V4h-2a1 1 0 1 1 0-2h3a1 1 0 0 1 1 1v1h3a1 1 0 1 1 0 2z"/><path fill="#E6E6E6" d="M13 38H9a1 1 0 0 1-1-1v-1H6a1 1 0 1 1 0-2h3a1 1 0 0 1 1 1v1h3a1 1 0 1 1 0 2z"/><path fill="#E6E6E6" d="M59 35h-4a1 1 0 0 1-1-1v-1h-2a1 1 0 1 1 0-2h3a1 1 0 0 1 1 1v1h3a1 1 0 1 1 0 2z"/><path fill="#3E3E3E" d="M18.5 58c-4.06 0-7.983-.376-11.702-1.064L3 62h58L50.782 48.376C42.987 54.264 31.421 58 18.5 58z"/></g></g><metadata><rdf:RDF xmlns:rdf="http://www.w3.org/1999/02/22-rdf-syntax-ns#" xmlns:rdfs="http://www.w3.org/2000/01/rdf-schema#" xmlns:dc="http://purl.org/dc/elements/1.1/"><rdf:Description about="https://iconscout.com/legal#licenses" dc:title="clear-mountain-sun-landscape-weather" dc:description="clear-mountain-sun-landscape-weather" dc:publisher="Iconscout" dc:date="2018-03-23" dc:format="image/svg+xml" dc:language="en"><dc:creator><rdf:Bag><rdf:li>Petai Jantrapoon</rdf:li></rdf:Bag></dc:creator></rdf:Description></rdf:RDF></metadata></svg>