<?xml version="1.0" encoding="UTF-8"?><!DOCTYPE svg PUBLIC "-//W3C//DTD SVG 1.1//EN" "http://www.w3.org/Graphics/SVG/1.1/DTD/svg11.dtd"><svg xmlns="http://www.w3.org/2000/svg" xmlns:xlink="http://www.w3.org/1999/xlink" version="1.1" x="0px" y="0px" viewBox="0 0 64 64" xml:space="preserve"><g id="flat"><g id="rainbow_1_"><path fill="#D43239" d="M32 29C16.561 29 4 41.561 4 57c0 .306.011.608.021.912l.005.124a1 1 0 0 0 .999.964h4a1 1 0 0 0 .999-1.044A23.279 23.279 0 0 1 10 57c0-12.131 9.869-22 22-22s22 9.869 22 22c0 .321-.011.639-.024.956A1.002 1.002 0 0 0 54.975 59h4a1 1 0 0 0 .999-.965l.005-.124c.01-.303.021-.605.021-.911 0-15.439-12.561-28-28-28z"/><path fill="#50C1E0" d="M32 37c-11.028 0-20 8.972-20 20 0 .252.016.5.033.748l.019.305a1 1 0 0 0 .999.947h4a1 1 0 0 0 .998-1.067l-.013-.174C18.019 57.507 18 57.256 18 57c0-7.72 6.28-14 14-14s14 6.28 14 14c0 .256-.019.507-.036.759l-.013.174A1 1 0 0 0 46.949 59h4a1 1 0 0 0 .999-.947l.019-.305c.017-.248.033-.496.033-.748 0-11.028-8.972-20-20-20z"/><path fill="#FFF" d="M32 33C18.767 33 8 43.767 8 57c0 .35.011.697.026 1.044a1 1 0 0 0 .999.956h4.025a1.002 1.002 0 0 0 .999-1.053l-.021-.335C14.015 57.409 14 57.207 14 57c0-9.925 8.075-18 18-18s18 8.075 18 18c0 .207-.015.409-.028.612l-.021.335A.999.999 0 0 0 50.949 59h4.025a1 1 0 0 0 .999-.956c.016-.347.027-.694.027-1.044 0-13.233-10.767-24-24-24z"/><g fill="#3EBBDD"><path d="M20.02 20H19v-.02A2.984 2.984 0 0 0 16.02 17h-2.04A2.984 2.984 0 0 0 11 19.98L9.98 20C8.337 20 7 21.337 7 23.02A2.984 2.984 0 0 0 9.98 26h10.04c1.644 0 2.98-1.337 2.98-3.02A2.984 2.984 0 0 0 20.02 20z"/><path d="M51.03 9L51 8.97A3.975 3.975 0 0 0 47.03 5h-2.06A3.975 3.975 0 0 0 41 8.97l-.03.03C38.781 9 37 10.781 37 13.03A3.975 3.975 0 0 0 40.97 17h10.06c2.188 0 3.97-1.781 3.97-4.03A3.975 3.975 0 0 0 51.03 9z"/></g><path fill="#E6E6E6" d="M40 57h22v2H40z"/><path fill="#E6E6E6" d="M36 57h2v2h-2z"/><path fill="#CCC" d="M52 27h2v2h-2z"/><path fill="#CCC" d="M32 21h2v2h-2z"/><path fill="#CCC" d="M26 13h2v2h-2z"/><path fill="#CCC" d="M8 31h2v2H8z"/><path fill="#CCC" d="M10 10h2v2h-2z"/><path fill="#E6E6E6" d="M2 57h32v2H2z"/></g></g><metadata><rdf:RDF xmlns:rdf="http://www.w3.org/1999/02/22-rdf-syntax-ns#" xmlns:rdfs="http://www.w3.org/2000/01/rdf-schema#" xmlns:dc="http://purl.org/dc/elements/1.1/"><rdf:Description about="https://iconscout.com/legal#licenses" dc:title="rainbow-season-weather-forecast-cloud" dc:description="rainbow-season-weather-forecast-cloud" dc:publisher="Iconscout" dc:date="2018-03-23" dc:format="image/svg+xml" dc:language="en"><dc:creator><rdf:Bag><rdf:li>Petai Jantrapoon</rdf:li></rdf:Bag></dc:creator></rdf:Description></rdf:RDF></metadata></svg>