<?xml version="1.0" encoding="UTF-8"?><!DOCTYPE svg PUBLIC "-//W3C//DTD SVG 1.1//EN" "http://www.w3.org/Graphics/SVG/1.1/DTD/svg11.dtd"><svg xmlns="http://www.w3.org/2000/svg" xmlns:xlink="http://www.w3.org/1999/xlink" version="1.1" x="0px" y="0px" viewBox="0 0 64 64" xml:space="preserve"><g id="flat"><g id="raindrop_1_"><path fill="#CCC" d="M31 2h2v10h-2z"/><path fill="#CCC" d="M46.951 58.691l-8.429-26a.998.998 0 0 0-.951-.691h-1.008a.988.988 0 0 0-.415.091 9.958 9.958 0 0 1-8.297 0 .984.984 0 0 0-.414-.091h-1.008a1 1 0 0 0-.951.691l-8.429 26a.995.995 0 0 0 .143.896c.187.26.488.413.808.413h7.838l5.846 1.948a1.006 1.006 0 0 0 .632 0L38.162 60H46a1 1 0 0 0 .951-1.309z"/><path fill="#3EBBDD" d="M7 2h2v2H7z"/><path fill="#3EBBDD" d="M11 10h2v2h-2z"/><path fill="#3EBBDD" d="M5 48h2v2H5z"/><path fill="#3EBBDD" d="M8 21h2v2H8z"/><path fill="#3EBBDD" d="M15 42h2v2h-2z"/><path fill="#3EBBDD" d="M49 13h2v2h-2z"/><path fill="#3EBBDD" d="M56 5h2v2h-2z"/><path fill="#3EBBDD" d="M39 5h2v2h-2z"/><path fill="#3EBBDD" d="M8 36h2v2H8z"/><path fill="#3EBBDD" d="M2 13h2v2H2z"/><path fill="#3EBBDD" d="M23 7h2v2h-2z"/><path fill="#3EBBDD" d="M13 27h2v2h-2z"/><path fill="#3EBBDD" d="M9 58h2v2H9z"/><path fill="#3EBBDD" d="M60 21h2v2h-2z"/><path fill="#3EBBDD" d="M58 37h2v2h-2z"/><path fill="#3EBBDD" d="M53 27h2v2h-2z"/><path fill="#3EBBDD" d="M58 58h2v2h-2z"/><path fill="#3EBBDD" d="M50 52h2v2h-2z"/><path fill="#3EBBDD" d="M47 34h2v2h-2z"/><path fill="#3EBBDD" d="M55 45h2v2h-2z"/><path fill="#B3B3B3" d="M30.001 39a1 1 0 0 1-.971-1.242l1-4a.999.999 0 1 1 1.94.484l-1 4a1 1 0 0 1-.969.758z"/><path fill="#B3B3B3" d="M33.999 40a.998.998 0 0 1-.979-.804l-1-5a1 1 0 0 1 1.961-.393l1 5A1 1 0 0 1 33.999 40z"/><path fill="#E6E6E6" d="M32 11c-6.617 0-12 5.383-12 12s5.383 12 12 12 12-5.383 12-12-5.383-12-12-12z"/><path fill="#B8B8B8" d="M46.951 58.691l-4.133-12.748C39.834 51.337 34.089 55 27.5 55c-3.097 0-6.004-.817-8.53-2.234l-1.921 5.925a.995.995 0 0 0 .143.896c.187.26.488.413.808.413h7.838l5.846 1.948a1.006 1.006 0 0 0 .632 0L38.162 60H46a1 1 0 0 0 .951-1.309z"/><path fill="#4D4D4D" d="M31 22h-2a1 1 0 0 0-2 0h-2c0-1.654 1.346-3 3-3s3 1.346 3 3z"/><path fill="#4D4D4D" d="M39 22h-2a1 1 0 0 0-2 0h-2c0-1.654 1.346-3 3-3s3 1.346 3 3z"/><path fill="#4D4D4D" d="M32 29c-.153 0-.307-.035-.447-.105l-2-1a1 1 0 0 1 .895-1.789l1.552.776 1.553-.776a1 1 0 0 1 .895 1.789l-2 1c-.141.07-.295.105-.448.105z"/></g></g><metadata><rdf:RDF xmlns:rdf="http://www.w3.org/1999/02/22-rdf-syntax-ns#" xmlns:rdfs="http://www.w3.org/2000/01/rdf-schema#" xmlns:dc="http://purl.org/dc/elements/1.1/"><rdf:Description about="https://iconscout.com/legal#licenses" dc:title="doll-rain-teruterubozu-weather-japan" dc:description="doll-rain-teruterubozu-weather-japan" dc:publisher="Iconscout" dc:date="2018-03-23" dc:format="image/svg+xml" dc:language="en"><dc:creator><rdf:Bag><rdf:li>Petai Jantrapoon</rdf:li></rdf:Bag></dc:creator></rdf:Description></rdf:RDF></metadata></svg>