<?xml version="1.0" encoding="UTF-8"?><!DOCTYPE svg PUBLIC "-//W3C//DTD SVG 1.1//EN" "http://www.w3.org/Graphics/SVG/1.1/DTD/svg11.dtd"><svg xmlns="http://www.w3.org/2000/svg" xmlns:xlink="http://www.w3.org/1999/xlink" version="1.1" x="0px" y="0px" viewBox="0 0 64 64" xml:space="preserve"><g id="flat"><g id="wave_1_" fill="#3EBBDD"><path d="M2 24h23v2H2z"/><path d="M2 42h60v2H2z"/><path d="M43 48h19v2H43z"/><path d="M39 48h2v2h-2z"/><path d="M2 48h35v2H2z"/><path d="M41 24h21v2H41z"/><path d="M41 30h21v2H41z"/><path d="M41 36h21v2H41z"/><path d="M26 32H2v-2h24c.551 0 1-.448 1-1V17.97c0-1.086-.884-1.97-1.97-1.97-1.146 0-2.03.884-2.03 1.97 0 .591.439 1.03.98 1.03H25v2h-1.02A2.984 2.984 0 0 1 21 18.02c0-2.238 1.781-4.02 3.97-4.02 2.249 0 4.03 1.781 4.03 3.97V29c0 1.654-1.346 3-3 3z"/><path d="M36 38H2v-2h34c.551 0 1-.448 1-1V20.97c0-1.086-.884-1.97-1.97-1.97-1.146 0-2.03.884-2.03 1.97 0 .591.439 1.03.98 1.03H35v2h-1.02A2.984 2.984 0 0 1 31 21.02c0-2.238 1.781-4.02 3.97-4.02 2.249 0 4.03 1.781 4.03 3.97V35c0 1.654-1.346 3-3 3z"/></g></g><metadata><rdf:RDF xmlns:rdf="http://www.w3.org/1999/02/22-rdf-syntax-ns#" xmlns:rdfs="http://www.w3.org/2000/01/rdf-schema#" xmlns:dc="http://purl.org/dc/elements/1.1/"><rdf:Description about="https://iconscout.com/legal#licenses" dc:title="wave-watersea-level-ocean-marine" dc:description="wave-watersea-level-ocean-marine" dc:publisher="Iconscout" dc:date="2018-03-23" dc:format="image/svg+xml" dc:language="en"><dc:creator><rdf:Bag><rdf:li>Petai Jantrapoon</rdf:li></rdf:Bag></dc:creator></rdf:Description></rdf:RDF></metadata></svg>