<?xml version="1.0" encoding="UTF-8"?><!DOCTYPE svg PUBLIC "-//W3C//DTD SVG 1.1//EN" "http://www.w3.org/Graphics/SVG/1.1/DTD/svg11.dtd"><svg xmlns="http://www.w3.org/2000/svg" xmlns:xlink="http://www.w3.org/1999/xlink" version="1.1" x="0px" y="0px" viewBox="0 0 64 64" xml:space="preserve"><g id="flat"><g id="snowflake_1_" fill="#3EBBDD"><path d="M32 27c-2.757 0-5 2.243-5 5s2.243 5 5 5 5-2.243 5-5-2.243-5-5-5zm0 8c-1.654 0-3-1.346-3-3s1.346-3 3-3 3 1.346 3 3-1.346 3-3 3z"/><path d="M59 29a2.996 2.996 0 0 0-2.816 2h-2.566l1.276-2.553a1 1 0 0 0-1.789-.895L51.382 31h-1.905l1.452-3.628a1 1 0 0 0-1.858-.743L47.323 31h-6.382a8.956 8.956 0 0 0-1.916-4.611l1.839-1.839 4.328 1.854a.998.998 0 0 0 1.313-.524 1 1 0 0 0-.525-1.313l-3.592-1.54 1.347-1.347 3.656 1.219a.999.999 0 0 0 .632-1.897l-2.708-.902 1.813-1.813c.398.19.832.3 1.286.3.802 0 1.556-.313 2.121-.879.566-.567.879-1.32.879-2.121 0-.802-.313-1.555-.879-2.122-1.132-1.132-3.108-1.134-4.242 0a2.984 2.984 0 0 0-.879 2.122c0 .454.11.888.3 1.286l-1.813 1.813-.903-2.708a1 1 0 0 0-1.897.633l1.219 3.656-1.347 1.347-1.54-3.593a1 1 0 0 0-1.838.788l1.854 4.328-1.839 1.839a8.956 8.956 0 0 0-4.611-1.916v-6.382l4.371-1.748a1 1 0 0 0-.742-1.857L33 14.523v-1.905l3.447-1.724a1 1 0 0 0-.895-1.789L33 10.382V7.816A2.996 2.996 0 0 0 35 5c0-1.654-1.346-3-3-3s-3 1.346-3 3c0 1.302.839 2.402 2 2.816v2.566l-2.553-1.276a1 1 0 0 0-.895 1.789L31 12.618v1.905l-3.629-1.452a1 1 0 0 0-.742 1.857L31 16.677v6.382a8.956 8.956 0 0 0-4.611 1.916l-1.839-1.839 1.854-4.328a1 1 0 1 0-1.838-.788l-1.54 3.593-1.347-1.347 1.219-3.656a1 1 0 1 0-1.897-.633l-.903 2.708-1.813-1.813c.19-.398.3-.832.3-1.286 0-.802-.313-1.555-.879-2.122-1.133-1.133-3.109-1.131-4.242 0a2.984 2.984 0 0 0-.879 2.122c0 .801.313 1.554.878 2.121.566.567 1.32.879 2.122.879.454 0 .888-.11 1.286-.3l1.813 1.813-2.708.902a1 1 0 0 0 .632 1.897l3.656-1.219 1.347 1.347-3.592 1.54a.999.999 0 1 0 .788 1.837l4.328-1.854 1.839 1.839a8.956 8.956 0 0 0-1.916 4.611h-6.382l-1.748-4.372a1 1 0 0 0-1.858.743L14.523 31h-1.905l-1.724-3.447a1 1 0 0 0-1.789.895L10.382 31H7.816A2.996 2.996 0 0 0 5 29c-1.654 0-3 1.346-3 3s1.346 3 3 3a2.996 2.996 0 0 0 2.816-2h2.566l-1.276 2.553a1 1 0 1 0 1.789.894L12.618 33h1.905l-1.452 3.628a1 1 0 0 0 1.858.743L16.677 33h6.382a8.956 8.956 0 0 0 1.916 4.611l-1.839 1.839-4.328-1.854a1.001 1.001 0 0 0-.788 1.838l3.592 1.54-1.347 1.347-3.656-1.219a1 1 0 1 0-.633 1.897l2.708.902-1.823 1.823c-1.112-.501-2.511-.317-3.397.568a2.984 2.984 0 0 0-.879 2.122c0 .801.313 1.554.879 2.121a2.98 2.98 0 0 0 2.121.878c.801 0 1.555-.312 2.121-.878.566-.567.879-1.32.879-2.121 0-.454-.11-.888-.3-1.286l1.813-1.813.903 2.708a1 1 0 1 0 1.896-.633l-1.219-3.656 1.347-1.347 1.54 3.593a.999.999 0 0 0 1.313.524.999.999 0 0 0 .525-1.313l-1.854-4.328 1.839-1.839a8.956 8.956 0 0 0 4.611 1.916v6.382l-4.371 1.748a1 1 0 0 0 .742 1.857l3.63-1.45v1.905l-3.447 1.724a1 1 0 0 0 .895 1.789L31 53.618v2.566A2.996 2.996 0 0 0 29 59c0 1.654 1.346 3 3 3s3-1.346 3-3a2.996 2.996 0 0 0-2-2.816v-2.566l2.553 1.276a1 1 0 0 0 .895-1.789L33 51.382v-1.905l3.629 1.452a1.002 1.002 0 0 0 1.3-.558 1 1 0 0 0-.558-1.3L33 47.323v-6.382a8.956 8.956 0 0 0 4.611-1.916l1.839 1.839-1.854 4.328a1 1 0 0 0 1.838.789l1.54-3.593 1.347 1.347-1.219 3.656a1 1 0 1 0 1.896.633l.903-2.708 1.813 1.813c-.19.398-.3.832-.3 1.286 0 .801.313 1.554.879 2.122.566.566 1.32.878 2.121.878a2.98 2.98 0 0 0 2.121-.878c.566-.567.879-1.32.879-2.121 0-.802-.313-1.555-.878-2.121-.886-.887-2.285-1.07-3.397-.569l-1.823-1.823 2.708-.902a1 1 0 0 0-.633-1.897l-3.656 1.219-1.347-1.347 3.592-1.54a.999.999 0 1 0-.788-1.838l-4.328 1.854-1.839-1.839a8.956 8.956 0 0 0 1.916-4.611h6.382l1.748 4.372a1.004 1.004 0 0 0 1.3.554 1 1 0 0 0 .558-1.3L49.477 33h1.905l1.724 3.447a.998.998 0 0 0 1.341.448 1 1 0 0 0 .447-1.342L53.618 33h2.566A2.996 2.996 0 0 0 59 35c1.654 0 3-1.346 3-3s-1.346-3-3-3zM47.707 14.879a.991.991 0 0 1 .707-.293 1.001 1.001 0 0 1 .706 1.707 1.025 1.025 0 0 1-1.413 0 1 1 0 0 1 0-1.414zM32 4a1.001 1.001 0 1 1-1 1c0-.551.448-1 1-1zM14.879 16.293a1.002 1.002 0 0 1 .707-1.707 1.002 1.002 0 0 1 .707 1.707 1.025 1.025 0 0 1-1.414 0zM5 33a1.001 1.001 0 0 1 0-2 1.001 1.001 0 0 1 0 2zm11.293 16.121a1.024 1.024 0 0 1-1.414 0 1.001 1.001 0 0 1 1.414-1.414 1 1 0 0 1 0 1.414zM32 60a1.001 1.001 0 0 1 0-2 1.001 1.001 0 0 1 0 2zm0-21c-3.859 0-7-3.14-7-7s3.141-7 7-7 7 3.14 7 7-3.141 7-7 7zm17.121 8.707c.39.39.39 1.024 0 1.415a1.026 1.026 0 0 1-1.414 0 1.002 1.002 0 0 1 .707-1.708c.268 0 .518.104.707.293zM59 33a1.001 1.001 0 0 1 0-2 1.001 1.001 0 0 1 0 2z"/></g></g><metadata><rdf:RDF xmlns:rdf="http://www.w3.org/1999/02/22-rdf-syntax-ns#" xmlns:rdfs="http://www.w3.org/2000/01/rdf-schema#" xmlns:dc="http://purl.org/dc/elements/1.1/"><rdf:Description about="https://iconscout.com/legal#licenses" dc:title="snowflake-snow-cold-frost-ice" dc:description="snowflake-snow-cold-frost-ice" dc:publisher="Iconscout" dc:date="2018-03-23" dc:format="image/svg+xml" dc:language="en"><dc:creator><rdf:Bag><rdf:li>Petai Jantrapoon</rdf:li></rdf:Bag></dc:creator></rdf:Description></rdf:RDF></metadata></svg>