<?xml version="1.0" encoding="UTF-8"?><!DOCTYPE svg PUBLIC "-//W3C//DTD SVG 1.1//EN" "http://www.w3.org/Graphics/SVG/1.1/DTD/svg11.dtd"><svg xmlns="http://www.w3.org/2000/svg" xmlns:xlink="http://www.w3.org/1999/xlink" version="1.1" x="0px" y="0px" viewBox="0 0 64 64" xml:space="preserve"><g id="flat"><g id="tornado_1_" fill="#3EBBDD"><path d="M51.03 10H14a1 1 0 0 1 0-2h37.03C52.116 8 53 7.116 53 6.03 53 4.884 52.116 4 51.03 4 49.884 4 49 4.884 49 5.97c0 .552-.448 1.015-1 1.015S47 6.552 47 6c0-2.219 1.781-4 3.97-4C53.219 2 55 3.781 55 5.97 55 8.219 53.219 10 51.03 10z"/><path d="M45 16H8a1 1 0 0 1 0-2h37a1 1 0 0 1 0 2z"/><path d="M43 22h-8a1 1 0 0 1 0-2h8a1 1 0 0 1 0 2z"/><path d="M31 22h-2a1 1 0 0 1 0-2h2a1 1 0 0 1 0 2z"/><path d="M25 22H15a1 1 0 0 1 0-2h10a1 1 0 0 1 0 2z"/><path d="M35 28H11a1 1 0 0 1 0-2h24a1 1 0 0 1 0 2z"/><path d="M42 34H22a1 1 0 0 1 0-2h20a1 1 0 0 1 0 2z"/><path d="M40 40H13.98A2.984 2.984 0 0 1 11 37.02c0-1.683 1.337-3.02 2.98-3.02H15a1 1 0 0 1 0 2h-1.02a.98.98 0 0 0-.98.98c0 .581.439 1.02.98 1.02H40a1 1 0 0 1 0 2z"/><path d="M40 46H28a1 1 0 0 1 0-2h12a1 1 0 0 1 0 2z"/><path d="M43 52h-8a1 1 0 0 1 0-2h8a1 1 0 0 1 0 2z"/><path d="M39 58h-4a1 1 0 0 1 0-2h4a1 1 0 0 1 0 2z"/><path d="M35 62h-2a1 1 0 0 1 0-2h2a1 1 0 0 1 0 2z"/></g></g><metadata><rdf:RDF xmlns:rdf="http://www.w3.org/1999/02/22-rdf-syntax-ns#" xmlns:rdfs="http://www.w3.org/2000/01/rdf-schema#" xmlns:dc="http://purl.org/dc/elements/1.1/"><rdf:Description about="https://iconscout.com/legal#licenses" dc:title="storm-tornado-windy-season-weather" dc:description="storm-tornado-windy-season-weather" dc:publisher="Iconscout" dc:date="2018-03-23" dc:format="image/svg+xml" dc:language="en"><dc:creator><rdf:Bag><rdf:li>Petai Jantrapoon</rdf:li></rdf:Bag></dc:creator></rdf:Description></rdf:RDF></metadata></svg>