<?xml version="1.0" encoding="UTF-8"?><!DOCTYPE svg PUBLIC "-//W3C//DTD SVG 1.1//EN" "http://www.w3.org/Graphics/SVG/1.1/DTD/svg11.dtd"><svg xmlns="http://www.w3.org/2000/svg" xmlns:xlink="http://www.w3.org/1999/xlink" version="1.1" x="0px" y="0px" viewBox="0 0 64 64" xml:space="preserve"><g id="flat"><g id="summer_1_"><circle fill="#FBB03B" cx="32" cy="32" r="29"/><path fill="#D43239" d="M61 23H37a1 1 0 0 0-.8.4L33.5 27h-3l-2.7-3.6a1 1 0 0 0-.8-.4H3a1 1 0 0 0-1 1v5.008c0 .266.106.521.294.708.189.188.433.332.709.292l1.107-.004.706 5.999A12.458 12.458 0 0 0 17.185 47h.18a12.42 12.42 0 0 0 11.495-7.663L30.667 35h2.667l1.807 4.337A12.418 12.418 0 0 0 46.635 47h.19a12.46 12.46 0 0 0 12.367-10.986L59.906 30H61a1 1 0 0 0 1-1v-5a1 1 0 0 0-1-1z"/><g fill="#4D4D4D"><path d="M25.832 27.445A1.001 1.001 0 0 0 25 27H9a1 1 0 0 0-.989 1.142l1.116 7.813C9.7 39.971 13.193 43 17.25 43h.11a8.221 8.221 0 0 0 7.47-4.81l3.08-6.776a1 1 0 0 0-.078-.969l-2-3z"/><path d="M55.755 27.345A1 1 0 0 0 55 27H39c-.334 0-.646.167-.832.445l-2 3a1 1 0 0 0-.078.969l3.08 6.775A8.221 8.221 0 0 0 46.64 43h.11c4.057 0 7.55-3.029 8.124-7.045l1.116-7.813a1 1 0 0 0-.235-.797z"/></g><path fill="#666" d="M25 28h-8l-7 7 .116.813a7.209 7.209 0 0 0 5.16 5.911L26.6 30.4 25 28z"/><path fill="#666" d="M55 28h-8.906l-7.19 7.19 1.175 2.586a7.2 7.2 0 0 0 4.366 3.873L54.484 31.61 55 28z"/><path fill="#4D4D4D" d="M32 54a1.02 1.02 0 0 1-.372-.071l-5-2 .743-1.857L32 51.923l4.628-1.852.743 1.857-5 2A.992.992 0 0 1 32 54z"/></g></g><metadata><rdf:RDF xmlns:rdf="http://www.w3.org/1999/02/22-rdf-syntax-ns#" xmlns:rdfs="http://www.w3.org/2000/01/rdf-schema#" xmlns:dc="http://purl.org/dc/elements/1.1/"><rdf:Description about="https://iconscout.com/legal#licenses" dc:title="sunner-sun-sunglasses-hot-weather" dc:description="sunner-sun-sunglasses-hot-weather" dc:publisher="Iconscout" dc:date="2018-03-23" dc:format="image/svg+xml" dc:language="en"><dc:creator><rdf:Bag><rdf:li>Petai Jantrapoon</rdf:li></rdf:Bag></dc:creator></rdf:Description></rdf:RDF></metadata></svg>