<?xml version="1.0" encoding="UTF-8"?><!DOCTYPE svg PUBLIC "-//W3C//DTD SVG 1.1//EN" "http://www.w3.org/Graphics/SVG/1.1/DTD/svg11.dtd"><svg xmlns="http://www.w3.org/2000/svg" xmlns:xlink="http://www.w3.org/1999/xlink" version="1.1" x="0px" y="0px" viewBox="0 0 64 64" xml:space="preserve"><g id="flat"><g id="sunset_1_"><path fill="#4D4D4D" d="M60.784 56.379l-19-24a1 1 0 0 0-1.492-.086L28 44.586l-6.293-6.293a1.04 1.04 0 0 0-.721-.293c-.27.004-.527.117-.713.313l-17 18A1.001 1.001 0 0 0 4 58h56a1 1 0 0 0 .784-1.621z"/><path fill="#E6E6E6" d="M22.99 43h3.424l-4.707-4.707a1.04 1.04 0 0 0-.721-.293c-.27.004-.527.117-.713.313L13.958 45h7.052a.99.99 0 0 0 .99-.99v-.02a.99.99 0 0 1 .99-.99z"/><path fill="#E6E6E6" d="M41.99 38h4.244l-4.45-5.621a1 1 0 0 0-1.492-.086L32.586 40h7.424a.99.99 0 0 0 .99-.99v-.02a.99.99 0 0 1 .99-.99z"/><path fill="#3EBBDD" d="M54 22h-3a1 1 0 0 1 0-2h2v-1a1 1 0 0 1 1-1h3a1 1 0 0 1 0 2h-2v1a1 1 0 0 1-1 1z"/><path fill="#3EBBDD" d="M14 32h-3a1 1 0 0 1-1-1v-1H8a1 1 0 0 1 0-2h3a1 1 0 0 1 1 1v1h2a1 1 0 0 1 0 2z"/><path fill="#3EBBDD" d="M56 33h-3a1 1 0 0 1-1-1v-1h-2a1 1 0 0 1 0-2h3a1 1 0 0 1 1 1v1h2a1 1 0 0 1 0 2z"/><path fill="#FBB03B" d="M28 6c-3.86 0-7 3.14-7 7s3.14 7 7 7 7-3.14 7-7-3.14-7-7-7z"/><path fill="#E6E6E6" d="M27 38h2v2h-2z"/><path fill="#E6E6E6" d="M27 34h2v2h-2z"/><path fill="#E6E6E6" d="M27 30h2v2h-2z"/><path fill="#E6E6E6" d="M31.8 26.4l-3-4c-.377-.504-1.223-.504-1.6 0l-3 4A.999.999 0 0 0 25 28h6a1.001 1.001 0 0 0 .8-1.6z"/><path fill="#E6E6E6" d="M38 26h2v2h-2z"/><path fill="#E6E6E6" d="M46 10h2v2h-2z"/><path fill="#E6E6E6" d="M8 38h2v2H8z"/><path fill="#E6E6E6" d="M14 18h2v2h-2z"/><path fill="#3E3E3E" d="M51.346 44.458C43.8 50.954 33.221 55 21.5 55a48.885 48.885 0 0 1-14.834-2.279l-3.393 3.592A1.001 1.001 0 0 0 4 58h56a1 1 0 0 0 .784-1.62l-9.438-11.922z"/></g></g><metadata><rdf:RDF xmlns:rdf="http://www.w3.org/1999/02/22-rdf-syntax-ns#" xmlns:rdfs="http://www.w3.org/2000/01/rdf-schema#" xmlns:dc="http://purl.org/dc/elements/1.1/"><rdf:Description about="https://iconscout.com/legal#licenses" dc:title="sunrise-sun-mountain-landscape-weather" dc:description="sunrise-sun-mountain-landscape-weather" dc:publisher="Iconscout" dc:date="2018-03-23" dc:format="image/svg+xml" dc:language="en"><dc:creator><rdf:Bag><rdf:li>Petai Jantrapoon</rdf:li></rdf:Bag></dc:creator></rdf:Description></rdf:RDF></metadata></svg>