<?xml version="1.0" encoding="UTF-8"?><!DOCTYPE svg PUBLIC "-//W3C//DTD SVG 1.1//EN" "http://www.w3.org/Graphics/SVG/1.1/DTD/svg11.dtd"><svg xmlns="http://www.w3.org/2000/svg" xmlns:xlink="http://www.w3.org/1999/xlink" version="1.1" x="0px" y="0px" viewBox="0 0 64 64" xml:space="preserve"><g id="flat"><g id="sunrise_1_"><g fill="#3EBBDD"><path d="M57 17h-1v-1a1 1 0 0 0-2 0v1h-1a1 1 0 0 0 0 2h1v1a1 1 0 0 0 2 0v-1h1a1 1 0 0 0 0-2z"/><path d="M16 28h-1v-1a1 1 0 0 0-2 0v1h-1a1 1 0 0 0 0 2h1v1a1 1 0 0 0 2 0v-1h1a1 1 0 0 0 0-2z"/><path d="M39 8h-1V7a1 1 0 0 0-2 0v1h-1a1 1 0 0 0 0 2h1v1a1 1 0 0 0 2 0v-1h1a1 1 0 0 0 0-2z"/></g><path fill="#FBB03B" d="M53 34c-1.654 0-3-1.346-3-3s1.346-3 3-3 3 1.346 3 3-1.346 3-3 3zm0-4c-.551 0-1 .449-1 1s.449 1 1 1 1-.449 1-1-.449-1-1-1z"/><path fill="#FBB03B" d="M22 17c-1.654 0-3-1.346-3-3s1.346-3 3-3 3 1.346 3 3-1.346 3-3 3zm0-4c-.551 0-1 .449-1 1s.449 1 1 1 1-.449 1-1-.449-1-1-1z"/><path fill="#FBB03B" d="M36.495 37.67A6.965 6.965 0 0 0 31 35c-3.86 0-7 3.14-7 7 0 .409.043.834.131 1.299a.998.998 0 0 0 .275.521l2.887 2.887a.997.997 0 0 0 1.414 0l7.71-7.71c.358-.358.392-.929.078-1.327z"/><path fill="#E6E6E6" d="M30 23h2v2h-2z"/><path fill="#E6E6E6" d="M30 19h2v2h-2z"/><path fill="#E6E6E6" d="M38 26h2v2h-2z"/><path fill="#E6E6E6" d="M41 20h2v2h-2z"/><path fill="#E6E6E6" d="M8 38h2v2H8z"/><path fill="#E6E6E6" d="M12 18h2v2h-2z"/><path fill="#E6E6E6" d="M27.2 28.6l3 4c.377.504 1.223.504 1.6 0l3-4A.999.999 0 0 0 34 27h-6a1.001 1.001 0 0 0-.8 1.6z"/><path fill="#4D4D4D" d="M60.784 56.379l-19-24a1 1 0 0 0-1.492-.086L28 44.586l-6.293-6.293a1.04 1.04 0 0 0-.721-.293c-.27.004-.527.117-.713.313l-17 18A1.001 1.001 0 0 0 4 58h56a1 1 0 0 0 .784-1.621z"/><path fill="#E6E6E6" d="M22.99 43h3.424l-4.707-4.707a1.04 1.04 0 0 0-.721-.293c-.27.004-.527.117-.713.313L13.958 45h7.052a.99.99 0 0 0 .99-.99v-.02a.99.99 0 0 1 .99-.99z"/><path fill="#E6E6E6" d="M41.99 38h4.244l-4.45-5.621a1 1 0 0 0-1.492-.086L32.586 40h7.424a.99.99 0 0 0 .99-.99v-.02a.99.99 0 0 1 .99-.99z"/><path fill="#3E3E3E" d="M51.346 44.458C43.8 50.954 33.221 55 21.5 55a48.885 48.885 0 0 1-14.834-2.279l-3.393 3.592A1.001 1.001 0 0 0 4 58h56a1 1 0 0 0 .784-1.62l-9.438-11.922z"/></g></g><metadata><rdf:RDF xmlns:rdf="http://www.w3.org/1999/02/22-rdf-syntax-ns#" xmlns:rdfs="http://www.w3.org/2000/01/rdf-schema#" xmlns:dc="http://purl.org/dc/elements/1.1/"><rdf:Description about="https://iconscout.com/legal#licenses" dc:title="sunset-sun-mountain-landscape-weather" dc:description="sunset-sun-mountain-landscape-weather" dc:publisher="Iconscout" dc:date="2018-03-23" dc:format="image/svg+xml" dc:language="en"><dc:creator><rdf:Bag><rdf:li>Petai Jantrapoon</rdf:li></rdf:Bag></dc:creator></rdf:Description></rdf:RDF></metadata></svg>