<?xml version="1.0" encoding="utf-8"?>
<svg viewBox="18.965 2.341 24.742 59.239" xmlns="http://www.w3.org/2000/svg">
  <g id="flat" transform="matrix(1, 0, 0, 1, -16.234146, -0.078049)">
    <g id="thermometer_1_">
      <g>
        <path fill="#E6E6E6" d="M52 8.94A5.94 5.94 0 0 0 46.06 3h-.12A5.94 5.94 0 0 0 40 8.94v34.074c-2.425 1.825-4 4.718-4 7.986 0 5.523 4.477 10 10 10s10-4.477 10-10c0-3.268-1.575-6.162-4-7.986V8.94z"/>
        <path fill="#FFF" d="M48 45.349V8.98A1.98 1.98 0 0 0 46.02 7h-.04A1.98 1.98 0 0 0 44 8.98v36.369A5.997 5.997 0 0 0 46 57a5.996 5.996 0 1 0 2-11.651z"/>
        <path fill="#3EBBDD" d="M48 45.349V29h-4v16.349A5.997 5.997 0 0 0 46 57a5.996 5.996 0 1 0 2-11.651z"/>
        <path fill="#3EBBDD" d="M55 34h4v2h-4z"/>
        <path fill="#3EBBDD" d="M55 30h4v2h-4z"/>
        <path fill="#3EBBDD" d="M55 38h4v2h-4z"/>
      </g>
    </g>
  </g>
</svg>