<?xml version="1.0" encoding="utf-8"?>
<svg viewBox="4.446 2.097 24.492 59.303" xmlns="http://www.w3.org/2000/svg">
  <g id="flat">
    <g id="thermometer_1_">
      <path fill="#E6E6E6" d="M21 43.014V8.94A5.94 5.94 0 0 0 15.06 3h-.12A5.94 5.94 0 0 0 9 8.94v34.074C6.575 44.838 5 47.732 5 51c0 5.523 4.477 10 10 10s10-4.477 10-10c0-3.268-1.575-6.162-4-7.986z"/>
      <path fill="#FFF" d="M17 8.98A1.98 1.98 0 0 0 15.02 7h-.04A1.98 1.98 0 0 0 13 8.98v36.369A5.997 5.997 0 0 0 15 57a5.996 5.996 0 1 0 2-11.651V8.98z"/>
      <path fill="#D43239" d="M17 45.349V17h-4v28.349A5.997 5.997 0 0 0 15 57a5.996 5.996 0 1 0 2-11.651z"/>
      <path fill="#D43239" d="M24 18h4v2h-4z"/>
      <path fill="#D43239" d="M24 22h4v2h-4z"/>
      <path fill="#D43239" d="M24 26h4v2h-4z"/>
      <path fill="#D43239" d="M24 30h4v2h-4z"/>
      <path fill="#D43239" d="M24 34h4v2h-4z"/>
      <path fill="#D43239" d="M24 38h4v2h-4z"/>
      <g/>
    </g>
  </g>
</svg>