<?xml version="1.0" encoding="UTF-8"?><!DOCTYPE svg PUBLIC "-//W3C//DTD SVG 1.1//EN" "http://www.w3.org/Graphics/SVG/1.1/DTD/svg11.dtd"><svg xmlns="http://www.w3.org/2000/svg" xmlns:xlink="http://www.w3.org/1999/xlink" version="1.1" x="0px" y="0px" viewBox="0 0 64 64" xml:space="preserve"><g id="flat"><g id="thermometer_1_"><path fill="#E6E6E6" d="M21 43.014V8.94A5.94 5.94 0 0 0 15.06 3h-.12A5.94 5.94 0 0 0 9 8.94v34.074C6.575 44.838 5 47.732 5 51c0 5.523 4.477 10 10 10s10-4.477 10-10c0-3.268-1.575-6.162-4-7.986z"/><path fill="#FFF" d="M17 8.98A1.98 1.98 0 0 0 15.02 7h-.04A1.98 1.98 0 0 0 13 8.98v36.369A5.997 5.997 0 0 0 15 57a5.996 5.996 0 1 0 2-11.651V8.98z"/><path fill="#D43239" d="M17 45.349V17h-4v28.349A5.997 5.997 0 0 0 15 57a5.996 5.996 0 1 0 2-11.651z"/><path fill="#D43239" d="M24 18h4v2h-4z"/><path fill="#D43239" d="M24 22h4v2h-4z"/><path fill="#D43239" d="M24 26h4v2h-4z"/><path fill="#D43239" d="M24 30h4v2h-4z"/><path fill="#D43239" d="M24 34h4v2h-4z"/><path fill="#D43239" d="M24 38h4v2h-4z"/><g><path fill="#E6E6E6" d="M52 8.94A5.94 5.94 0 0 0 46.06 3h-.12A5.94 5.94 0 0 0 40 8.94v34.074c-2.425 1.825-4 4.718-4 7.986 0 5.523 4.477 10 10 10s10-4.477 10-10c0-3.268-1.575-6.162-4-7.986V8.94z"/><path fill="#FFF" d="M48 45.349V8.98A1.98 1.98 0 0 0 46.02 7h-.04A1.98 1.98 0 0 0 44 8.98v36.369A5.997 5.997 0 0 0 46 57a5.996 5.996 0 1 0 2-11.651z"/><path fill="#3EBBDD" d="M48 45.349V29h-4v16.349A5.997 5.997 0 0 0 46 57a5.996 5.996 0 1 0 2-11.651z"/><path fill="#3EBBDD" d="M55 34h4v2h-4z"/><path fill="#3EBBDD" d="M55 30h4v2h-4z"/><path fill="#3EBBDD" d="M55 38h4v2h-4z"/></g></g></g><metadata><rdf:RDF xmlns:rdf="http://www.w3.org/1999/02/22-rdf-syntax-ns#" xmlns:rdfs="http://www.w3.org/2000/01/rdf-schema#" xmlns:dc="http://purl.org/dc/elements/1.1/"><rdf:Description about="https://iconscout.com/legal#licenses" dc:title="thermometer-temperature-hot-fever-weather" dc:description="thermometer-temperature-hot-fever-weather" dc:publisher="Iconscout" dc:date="2018-03-23" dc:format="image/svg+xml" dc:language="en"><dc:creator><rdf:Bag><rdf:li>Petai Jantrapoon</rdf:li></rdf:Bag></dc:creator></rdf:Description></rdf:RDF></metadata></svg>