<?xml version="1.0" encoding="UTF-8"?><!DOCTYPE svg PUBLIC "-//W3C//DTD SVG 1.1//EN" "http://www.w3.org/Graphics/SVG/1.1/DTD/svg11.dtd"><svg xmlns="http://www.w3.org/2000/svg" xmlns:xlink="http://www.w3.org/1999/xlink" version="1.1" x="0px" y="0px" viewBox="0 0 64 64" xml:space="preserve"><g id="flat"><g id="thunder_1_"><g fill="#FBB03B"><path d="M36.734 27.32a1.005 1.005 0 0 0-1.028-.276l-11.384 3.503L29.98 3.202a.999.999 0 0 0-.685-1.157.997.997 0 0 0-1.218.57l-15 36a1 1 0 0 0 1.217 1.341l11.475-3.531-3.757 24.423a1 1 0 0 0 1.918.518l13-33a1 1 0 0 0-.196-1.046z"/><path d="M50.751 13.34a.996.996 0 0 0-1.067-.288L39.219 16.54 40.99 4.142a1 1 0 0 0-1.909-.535l-9 21a1 1 0 0 0 1.235 1.341L41.45 22.57l-6.404 20.127A.999.999 0 0 0 36 44a1 1 0 0 0 .901-.565l14-29a1.002 1.002 0 0 0-.15-1.095z"/></g><g fill="#FBB03B"><path d="M61 32h-1v-1a1 1 0 1 0-2 0v1h-1a1 1 0 1 0 0 2h1v1a1 1 0 1 0 2 0v-1h1a1 1 0 1 0 0-2z"/><path d="M55 7h-1V6a1 1 0 1 0-2 0v1h-1a1 1 0 1 0 0 2h1v1a1 1 0 1 0 2 0V9h1a1 1 0 1 0 0-2z"/><path d="M15 8h-1V7a1 1 0 1 0-2 0v1h-1a1 1 0 1 0 0 2h1v1a1 1 0 1 0 2 0v-1h1a1 1 0 1 0 0-2z"/><path d="M41 56h-1v-1a1 1 0 1 0-2 0v1h-1a1 1 0 1 0 0 2h1v1a1 1 0 1 0 2 0v-1h1a1 1 0 1 0 0-2z"/><path d="M7 54H6v-1a1 1 0 1 0-2 0v1H3a1 1 0 1 0 0 2h1v1a1 1 0 1 0 2 0v-1h1a1 1 0 1 0 0-2z"/></g><path fill="#4D4D4D" d="M50 50c-1.654 0-3-1.346-3-3s1.346-3 3-3 3 1.346 3 3-1.346 3-3 3zm0-4a1.001 1.001 0 0 0 0 2 1.001 1.001 0 0 0 0-2z"/><path fill="#4D4D4D" d="M8 29c-1.654 0-3-1.346-3-3s1.346-3 3-3 3 1.346 3 3-1.346 3-3 3zm0-4a1.001 1.001 0 0 0 0 2 1.001 1.001 0 0 0 0-2z"/><path fill="#4D4D4D" d="M55 25c-1.654 0-3-1.346-3-3s1.346-3 3-3 3 1.346 3 3-1.346 3-3 3zm0-4a1.001 1.001 0 0 0 0 2 1.001 1.001 0 0 0 0-2z"/></g></g><metadata><rdf:RDF xmlns:rdf="http://www.w3.org/1999/02/22-rdf-syntax-ns#" xmlns:rdfs="http://www.w3.org/2000/01/rdf-schema#" xmlns:dc="http://purl.org/dc/elements/1.1/"><rdf:Description about="https://iconscout.com/legal#licenses" dc:title="thunder-bolt-lightning-flash-electricity" dc:description="thunder-bolt-lightning-flash-electricity" dc:publisher="Iconscout" dc:date="2018-03-23" dc:format="image/svg+xml" dc:language="en"><dc:creator><rdf:Bag><rdf:li>Petai Jantrapoon</rdf:li></rdf:Bag></dc:creator></rdf:Description></rdf:RDF></metadata></svg>