<?xml version="1.0" encoding="UTF-8"?><!DOCTYPE svg PUBLIC "-//W3C//DTD SVG 1.1//EN" "http://www.w3.org/Graphics/SVG/1.1/DTD/svg11.dtd"><svg xmlns="http://www.w3.org/2000/svg" xmlns:xlink="http://www.w3.org/1999/xlink" version="1.1" x="0px" y="0px" viewBox="0 0 64 64" xml:space="preserve"><g id="flat"><g id="tide_1_"><path fill="#3EBBDD" d="M54.484 48c-2.308 0-3.512-1.284-4.479-2.316-.882-.941-1.579-1.684-3.021-1.684-1.441 0-2.137.743-3.019 1.684-.966 1.032-2.17 2.316-4.477 2.316-2.308 0-3.512-1.284-4.479-2.316C34.128 44.743 33.432 44 31.99 44c-1.44 0-2.136.743-3.018 1.684-.967 1.032-2.17 2.316-4.477 2.316-2.307 0-3.51-1.284-4.477-2.316-.881-.941-1.577-1.684-3.017-1.684s-2.136.743-3.017 1.684C13.018 46.716 11.815 48 9.508 48s-3.51-1.284-4.477-2.316C4.15 44.743 3.455 44 2.015 44v-2c2.307 0 3.51 1.284 4.477 2.316.88.941 1.576 1.684 3.016 1.684s2.136-.743 3.017-1.684c.967-1.032 2.17-2.316 4.476-2.316s3.51 1.284 4.477 2.316c.881.941 1.577 1.684 3.017 1.684 1.441 0 2.137-.743 3.019-1.684C28.48 43.284 29.683 42 31.99 42c2.308 0 3.512 1.284 4.479 2.316.882.94 1.578 1.684 3.02 1.684 1.44 0 2.136-.743 3.018-1.684.966-1.032 2.169-2.316 4.477-2.316 2.309 0 3.513 1.284 4.48 2.316.882.941 1.578 1.684 3.02 1.684s2.139-.743 3.021-1.684c.968-1.032 2.172-2.316 4.48-2.316v2c-1.442 0-2.139.743-3.021 1.684-.967 1.032-2.171 2.316-4.48 2.316z"/><path fill="#3EBBDD" d="M54.494 41c-2.308 0-3.512-1.284-4.479-2.316-.883-.941-1.579-1.684-3.021-1.684-1.441 0-2.137.743-3.019 1.684-.967 1.032-2.17 2.316-4.477 2.316-2.308 0-3.512-1.284-4.479-2.316C34.138 37.743 33.441 37 32 37c-1.44 0-2.136.743-3.018 1.684-.967 1.032-2.17 2.316-4.478 2.316-2.307 0-3.51-1.284-4.477-2.316-.88-.941-1.576-1.684-3.016-1.684s-2.136.743-3.017 1.684C13.028 39.716 11.825 41 9.518 41s-3.51-1.284-4.477-2.316C4.16 37.743 3.464 37 2.024 37v-2c2.307 0 3.51 1.284 4.477 2.316C7.382 38.257 8.078 39 9.518 39s2.136-.743 3.017-1.684c.966-1.032 2.17-2.316 4.476-2.316s3.51 1.284 4.477 2.316c.881.941 1.576 1.684 3.016 1.684 1.441 0 2.137-.743 3.019-1.684C28.49 36.284 29.693 35 32 35c2.308 0 3.512 1.284 4.479 2.316.881.941 1.578 1.684 3.019 1.684 1.44 0 2.136-.743 3.018-1.684.967-1.032 2.17-2.316 4.478-2.316 2.309 0 3.513 1.284 4.48 2.316.882.941 1.578 1.684 3.02 1.684s2.139-.743 3.021-1.684c.967-1.032 2.172-2.316 4.48-2.316v2c-1.442 0-2.139.743-3.021 1.684-.967 1.032-2.171 2.316-4.48 2.316z"/><path fill="#3EBBDD" d="M54.504 34c-2.309 0-3.513-1.284-4.48-2.316-.882-.941-1.579-1.684-3.021-1.684-.588 0-1.072.117-1.524.37l-.976-1.746c.752-.42 1.569-.624 2.5-.624 2.309 0 3.513 1.284 4.48 2.316.883.941 1.579 1.684 3.021 1.684s2.138-.743 3.021-1.684c.967-1.032 2.171-2.316 4.48-2.316v2c-1.442 0-2.139.743-3.021 1.684-.967 1.032-2.172 2.316-4.48 2.316z"/><path fill="#3EBBDD" d="M41.563 33.596l-.793-1.836c.678-.293 1.205-.855 1.715-1.398l1.459 1.367c-.59.627-1.322 1.409-2.381 1.867z"/><path fill="#3EBBDD" d="M24.515 34c-2.307 0-3.51-1.284-4.477-2.316-.881-.941-1.577-1.684-3.017-1.684s-2.136.743-3.017 1.684C13.038 32.716 11.834 34 9.528 34s-3.51-1.284-4.477-2.316C4.17 30.743 3.474 30 2.034 30v-2c2.307 0 3.51 1.284 4.477 2.316C7.392 31.257 8.088 32 9.528 32s2.136-.743 3.017-1.684C13.511 29.284 14.714 28 17.021 28s3.51 1.284 4.477 2.316c.88.941 1.577 1.684 3.017 1.684s2.137-.743 3.018-1.684C28.5 29.284 29.703 28 32.01 28c2.308 0 3.512 1.284 4.479 2.316.82.874 1.467 1.565 2.687 1.67l-.17 1.992c-1.984-.169-3.042-1.299-3.976-2.295-.883-.94-1.579-1.683-3.02-1.683-1.44 0-2.137.743-3.018 1.684-.967 1.032-2.17 2.316-4.477 2.316z"/><path fill="#3EBBDD" d="M54.514 27c-2.309 0-3.513-1.284-4.48-2.316-.882-.941-1.579-1.684-3.021-1.684-1.44 0-2.136.743-3.018 1.684-.967 1.032-2.17 2.316-4.477 2.316s-3.512-1.284-4.479-2.316C34.157 23.743 33.461 23 32.02 23c-1.44 0-2.136.743-3.018 1.684-.967 1.032-2.17 2.316-4.478 2.316s-3.51-1.284-4.477-2.316c-.88-.941-1.576-1.684-3.016-1.684s-2.136.743-3.017 1.684C13.047 25.716 11.844 27 9.538 27s-3.51-1.284-4.477-2.316C4.18 23.743 3.484 23 2.044 23v-2c2.307 0 3.51 1.284 4.477 2.316C7.402 24.257 8.098 25 9.538 25s2.136-.743 3.017-1.684C13.521 22.284 14.724 21 17.031 21s3.51 1.284 4.477 2.316c.88.941 1.576 1.684 3.016 1.684s2.136-.743 3.018-1.684C28.509 22.284 29.712 21 32.02 21s3.512 1.284 4.479 2.316c.881.941 1.577 1.684 3.019 1.684 1.441 0 2.137-.743 3.019-1.684.966-1.032 2.169-2.316 4.476-2.316 2.309 0 3.513 1.284 4.48 2.316.882.941 1.579 1.684 3.021 1.684s2.138-.743 3.021-1.684c.967-1.032 2.171-2.316 4.48-2.316v2c-1.442 0-2.139.743-3.021 1.684-.968 1.032-2.172 2.316-4.48 2.316z"/><path fill="#3EBBDD" d="M54.484 55c-2.308 0-3.512-1.284-4.479-2.316-.882-.941-1.579-1.684-3.021-1.684-1.441 0-2.137.743-3.019 1.684-.966 1.032-2.17 2.316-4.477 2.316-2.308 0-3.512-1.284-4.479-2.316C34.128 51.743 33.432 51 31.99 51c-1.44 0-2.136.743-3.018 1.684-.967 1.032-2.17 2.316-4.477 2.316-2.307 0-3.51-1.284-4.477-2.316-.881-.941-1.577-1.684-3.017-1.684s-2.136.743-3.017 1.684C13.018 53.716 11.815 55 9.508 55s-3.51-1.284-4.477-2.316C4.15 51.743 3.455 51 2.015 51v-2c2.307 0 3.51 1.284 4.477 2.316.88.941 1.576 1.684 3.016 1.684s2.136-.743 3.017-1.684c.967-1.032 2.17-2.316 4.476-2.316s3.51 1.284 4.477 2.316c.881.941 1.577 1.684 3.017 1.684 1.441 0 2.137-.743 3.019-1.684C28.48 50.284 29.683 49 31.99 49c2.308 0 3.512 1.284 4.479 2.316.882.94 1.578 1.684 3.02 1.684 1.44 0 2.136-.743 3.018-1.684.966-1.032 2.169-2.316 4.477-2.316 2.309 0 3.513 1.284 4.48 2.316.882.941 1.578 1.684 3.02 1.684s2.139-.743 3.021-1.684c.968-1.032 2.172-2.316 4.48-2.316v2c-1.442 0-2.139.743-3.021 1.684-.967 1.032-2.171 2.316-4.48 2.316z"/><path fill="#3EBBDD" d="M54.484 62c-2.308 0-3.512-1.284-4.479-2.316-.882-.941-1.579-1.684-3.021-1.684-1.441 0-2.137.743-3.019 1.684-.966 1.032-2.17 2.316-4.477 2.316-2.308 0-3.512-1.284-4.479-2.316C34.128 58.743 33.432 58 31.99 58c-1.44 0-2.136.743-3.018 1.684-.967 1.032-2.17 2.316-4.477 2.316-2.307 0-3.51-1.284-4.477-2.316-.881-.941-1.577-1.684-3.017-1.684s-2.136.743-3.017 1.684C13.018 60.716 11.815 62 9.508 62s-3.51-1.284-4.477-2.316C4.15 58.743 3.455 58 2.015 58v-2c2.307 0 3.51 1.284 4.477 2.316.88.941 1.576 1.684 3.016 1.684s2.136-.743 3.017-1.684c.967-1.032 2.17-2.316 4.476-2.316s3.51 1.284 4.477 2.316c.881.941 1.577 1.684 3.017 1.684 1.441 0 2.137-.743 3.019-1.684C28.48 57.284 29.683 56 31.99 56c2.308 0 3.512 1.284 4.479 2.316.882.94 1.578 1.684 3.02 1.684 1.44 0 2.136-.743 3.018-1.684.966-1.032 2.169-2.316 4.477-2.316 2.309 0 3.513 1.284 4.48 2.316.882.941 1.578 1.684 3.02 1.684s2.139-.743 3.021-1.684c.968-1.032 2.172-2.316 4.48-2.316v2c-1.442 0-2.139.743-3.021 1.684-.967 1.032-2.171 2.316-4.48 2.316z"/><path fill="#4D4D4D" d="M29 10h-8a1 1 0 0 1-.832-1.554l4-6c.371-.557 1.293-.557 1.664 0l4 6A.998.998 0 0 1 29 10zm-6.131-2h4.263L25 4.803 22.869 8z"/><path fill="#4D4D4D" d="M23 12h4v2h-4z"/><path fill="#4D4D4D" d="M23 16h4v2h-4z"/><path fill="#4D4D4D" d="M43 10h-8a1 1 0 0 1-.832-1.554l4-6c.371-.557 1.293-.557 1.664 0l4 6A.998.998 0 0 1 43 10zm-6.131-2h4.263L39 4.803 36.869 8z"/><path fill="#4D4D4D" d="M37 12h4v2h-4z"/><path fill="#4D4D4D" d="M37 16h4v2h-4z"/></g></g><metadata><rdf:RDF xmlns:rdf="http://www.w3.org/1999/02/22-rdf-syntax-ns#" xmlns:rdfs="http://www.w3.org/2000/01/rdf-schema#" xmlns:dc="http://purl.org/dc/elements/1.1/"><rdf:Description about="https://iconscout.com/legal#licenses" dc:title="tide-flood-sea-level-wave-" dc:description="tide-flood-sea-level-wave-" dc:publisher="Iconscout" dc:date="2018-03-23" dc:format="image/svg+xml" dc:language="en"><dc:creator><rdf:Bag><rdf:li>Petai Jantrapoon</rdf:li></rdf:Bag></dc:creator></rdf:Description></rdf:RDF></metadata></svg>