<?xml version="1.0" encoding="UTF-8"?><!DOCTYPE svg PUBLIC "-//W3C//DTD SVG 1.1//EN" "http://www.w3.org/Graphics/SVG/1.1/DTD/svg11.dtd"><svg xmlns="http://www.w3.org/2000/svg" xmlns:xlink="http://www.w3.org/1999/xlink" version="1.1" x="0px" y="0px" viewBox="0 0 64 64" xml:space="preserve"><g id="flat"><g id="umbrella_1_"><path fill="#E6E6E6" d="M35.03 62C32.781 62 31 60.219 31 58.03V36a1 1 0 1 1 2 0v22.03c0 1.086.884 1.97 1.97 1.97 1.146 0 2.03-.884 2.03-1.97V57a1 1 0 1 1 2 0v1.03A3.975 3.975 0 0 1 35.03 62z"/><path fill="#D43239" d="M14 35a5.996 5.996 0 0 1 5.651 4h.698c.825-2.329 3.04-4 5.651-4s4.827 1.671 5.651 4h.698c.825-2.329 3.04-4 5.651-4s4.827 1.671 5.651 4h.698c.825-2.329 3.04-4 5.651-4s4.827 1.671 5.651 4h.322c.015-.332.027-.665.027-1 0-12.703-10.745-23-24-23S8 25.297 8 38c0 .335.012.668.026 1h.322A5.999 5.999 0 0 1 14 35z"/><path fill="#3EBBDD" d="M16 6a1 1 0 0 1-1-1V3a1 1 0 1 1 2 0v2a1 1 0 0 1-1 1z"/><path fill="#3EBBDD" d="M24 6a1 1 0 0 1-1-1V3a1 1 0 1 1 2 0v2a1 1 0 0 1-1 1z"/><path fill="#3EBBDD" d="M32 6a1 1 0 0 1-1-1V3a1 1 0 1 1 2 0v2a1 1 0 0 1-1 1z"/><path fill="#3EBBDD" d="M40 6a1 1 0 0 1-1-1V3a1 1 0 1 1 2 0v2a1 1 0 0 1-1 1z"/><path fill="#3EBBDD" d="M48 6a1 1 0 0 1-1-1V3a1 1 0 1 1 2 0v2a1 1 0 0 1-1 1z"/><path fill="#3EBBDD" d="M16 12a1 1 0 0 1-1-1V9a1 1 0 1 1 2 0v2a1 1 0 0 1-1 1z"/><path fill="#3EBBDD" d="M24 12a1 1 0 0 1-1-1V9a1 1 0 1 1 2 0v2a1 1 0 0 1-1 1z"/><path fill="#3EBBDD" d="M32 12a1 1 0 0 1-1-1V9a1 1 0 1 1 2 0v2a1 1 0 0 1-1 1z"/><path fill="#3EBBDD" d="M40 12a1 1 0 0 1-1-1V9a1 1 0 1 1 2 0v2a1 1 0 0 1-1 1z"/><path fill="#3EBBDD" d="M48 12a1 1 0 0 1-1-1V9a1 1 0 1 1 2 0v2a1 1 0 0 1-1 1z"/><path fill="none" d="M32.377 15.009c-.127-.085-.248-.177-.377-.259V15c.127 0 .251.007.377.009z"/><path fill="none" d="M32 14.75c-.129.082-.251.174-.377.259.126-.002.25-.009.377-.009v-.25z"/><path fill="#D43239" d="M31.623 15.009C18.543 15.203 8 25.419 8 38c0 .335.012.668.026 1h.322c.825-2.329 3.04-4 5.651-4s4.827 1.671 5.651 4h.434c.387-3.841 2.405-17.831 11.539-23.991z"/><path fill="#D43239" d="M32.377 15.009c9.134 6.16 11.151 20.15 11.538 23.991h.434c.825-2.329 3.04-4 5.651-4s4.827 1.671 5.651 4h.322c.015-.332.027-.665.027-1 0-12.581-10.543-22.797-23.623-22.991z"/><path fill="#BF2D33" d="M55.969 36.822c-.007-.13-.021-.257-.03-.386-.018-.259-.034-.519-.062-.776-.017-.162-.043-.321-.063-.482-.028-.222-.053-.444-.088-.664-.028-.178-.065-.354-.098-.531-.036-.198-.069-.398-.111-.595-.041-.195-.092-.387-.138-.58-.042-.175-.08-.352-.127-.526-.054-.203-.117-.403-.177-.604-.048-.16-.091-.323-.143-.481-.067-.209-.143-.413-.217-.619-.052-.147-.101-.296-.156-.442-.081-.214-.171-.424-.259-.635-.056-.134-.107-.27-.166-.403-.098-.223-.203-.441-.308-.66-.056-.116-.108-.235-.165-.35-.115-.23-.238-.455-.36-.681-.055-.101-.106-.203-.162-.303-.132-.234-.272-.464-.412-.694-.053-.087-.103-.176-.157-.262-.15-.238-.307-.471-.466-.704-.05-.073-.097-.149-.148-.221a24.242 24.242 0 0 0-.524-.715c-.045-.059-.087-.12-.133-.179-.188-.243-.382-.48-.579-.715-.041-.049-.079-.099-.121-.147a23.727 23.727 0 0 0-.635-.712c-.035-.038-.069-.078-.105-.116-.178-.19-.362-.373-.546-.557C45.067 27.366 36.225 31 26 31c-5.821 0-11.194-1.177-15.527-3.166-.045.085-.092.169-.135.255-.058.115-.11.234-.165.35-.105.219-.211.437-.308.66-.058.133-.11.269-.166.403-.088.211-.177.421-.259.635-.055.146-.104.295-.156.442-.073.206-.149.411-.217.619-.051.159-.095.321-.143.481-.06.201-.123.4-.177.604-.046.174-.084.351-.127.526-.047.193-.097.385-.138.58-.042.197-.074.396-.111.595-.033.177-.07.352-.098.531-.035.22-.06.442-.088.664-.021.161-.046.32-.063.482-.027.257-.043.517-.062.776-.009.129-.024.256-.03.386-.019.389-.03.782-.03 1.177 0 .335.012.668.026 1h.322c.825-2.329 3.04-4 5.651-4s4.827 1.671 5.651 4h.698c.825-2.329 3.04-4 5.651-4s4.827 1.671 5.651 4h.699c.825-2.329 3.04-4 5.651-4s4.827 1.671 5.651 4h.698c.825-2.329 3.04-4 5.651-4s4.827 1.671 5.651 4h.322c.015-.332.027-.665.027-1 0-.395-.011-.788-.031-1.178z"/><path fill="#E6E6E6" d="M31.623 15.009C22.489 21.169 20.471 35.159 20.085 39h.264c.825-2.329 3.04-4 5.651-4s4.827 1.671 5.651 4H32V15c-.127 0-.251.007-.377.009z"/><path fill="#CCC" d="M32.377 15.009c-.126-.002-.25-.009-.377-.009v24h.349c.825-2.329 3.04-4 5.651-4s4.827 1.671 5.651 4h.264c-.386-3.841-2.404-17.831-11.538-23.991z"/></g></g><metadata><rdf:RDF xmlns:rdf="http://www.w3.org/1999/02/22-rdf-syntax-ns#" xmlns:rdfs="http://www.w3.org/2000/01/rdf-schema#" xmlns:dc="http://purl.org/dc/elements/1.1/"><rdf:Description about="https://iconscout.com/legal#licenses" dc:title="umbrella-rain-rainy-weather-season" dc:description="umbrella-rain-rainy-weather-season" dc:publisher="Iconscout" dc:date="2018-03-23" dc:format="image/svg+xml" dc:language="en"><dc:creator><rdf:Bag><rdf:li>Petai Jantrapoon</rdf:li></rdf:Bag></dc:creator></rdf:Description></rdf:RDF></metadata></svg>