<?xml version="1.0" encoding="UTF-8"?><!DOCTYPE svg PUBLIC "-//W3C//DTD SVG 1.1//EN" "http://www.w3.org/Graphics/SVG/1.1/DTD/svg11.dtd"><svg xmlns="http://www.w3.org/2000/svg" xmlns:xlink="http://www.w3.org/1999/xlink" version="1.1" x="0px" y="0px" viewBox="0 0 64 64" xml:space="preserve"><g id="flat"><g id="weather_app"><path fill="#E6E6E6" d="M61 34H35a1 1 0 0 0-1 1v26a1 1 0 0 0 1 1h26a1 1 0 0 0 1-1V35a1 1 0 0 0-1-1z"/><path fill="#CCC" d="M42.5 58c-2.999 0-5.863-.519-8.5-1.456V61a1 1 0 0 0 1 1h26a1 1 0 0 0 1-1V48.502C57.779 54.231 50.621 58 42.5 58z"/><path fill="#E6E6E6" d="M61 2H35a1 1 0 0 0-1 1v26a1 1 0 0 0 1 1h26a1 1 0 0 0 1-1V3a1 1 0 0 0-1-1z"/><path fill="#CCC" d="M42.5 26c-2.999 0-5.863-.519-8.5-1.456V29a1 1 0 0 0 1 1h26a1 1 0 0 0 1-1V16.502C57.779 22.231 50.621 26 42.5 26z"/><path fill="#E6E6E6" d="M29 34H3a1 1 0 0 0-1 1v26a1 1 0 0 0 1 1h26a1 1 0 0 0 1-1V35a1 1 0 0 0-1-1z"/><path fill="#3EBBDD" d="M30 35a1 1 0 0 0-1-1H3a1 1 0 0 0-1 1v6h28v-6z"/><path fill="#4D4D4D" d="M62 35a1 1 0 0 0-1-1H35a1 1 0 0 0-1 1v6h28v-6z"/><path fill="#D43239" d="M62 3a1 1 0 0 0-1-1H35a1 1 0 0 0-1 1v6h28V3z"/><path fill="#E6E6E6" d="M29 2H3a1 1 0 0 0-1 1v26a1 1 0 0 0 1 1h26a1 1 0 0 0 1-1V3a1 1 0 0 0-1-1z"/><path fill="#FBB03B" d="M42.999 58a1 1 0 0 1-.893-1.447L44.382 52H41a1 1 0 0 1-.832-1.554l4-6a1 1 0 1 1 1.664 1.11L42.869 50H46a1.001 1.001 0 0 1 .895 1.448l-3 6c-.176.35-.529.552-.896.552z"/><path fill="#FBB03B" d="M51.999 58a1 1 0 0 1-.893-1.447L53.382 52H50a1 1 0 0 1-.832-1.554l4-6a1 1 0 1 1 1.664 1.11L51.869 50H55a1.001 1.001 0 0 1 .895 1.448l-3 6c-.176.35-.529.552-.896.552z"/><path fill="#4D4D4D" d="M43 24h2v2h-2z"/><path fill="#4D4D4D" d="M47 24h2v2h-2z"/><path fill="#4D4D4D" d="M51 24h2v2h-2z"/><path fill="#3EBBDD" d="M47.475 13h1.05A2.475 2.475 0 0 1 51 15.475V16h.525A2.475 2.475 0 0 1 54 18.475v.05A2.475 2.475 0 0 1 51.525 21h-7.05A2.475 2.475 0 0 1 42 18.525v-.05A2.475 2.475 0 0 1 44.475 16H45v-.525A2.475 2.475 0 0 1 47.475 13z"/><path fill="#4D4D4D" d="M30 3a1 1 0 0 0-1-1H3a1 1 0 0 0-1 1v6h28V3z"/><path fill="#CCC" d="M10.5 26c-2.999 0-5.863-.519-8.5-1.456V29a1 1 0 0 0 1 1h26a1 1 0 0 0 1-1V16.502C25.779 22.231 18.621 26 10.5 26z"/><path fill="#FBB03B" d="M22 18h-1.101a4.97 4.97 0 0 0-.732-1.753l.783-.783a.999.999 0 1 0-1.414-1.414l-.782.782a4.97 4.97 0 0 0-1.753-.732V13a1 1 0 1 0-2 0v1.101a4.961 4.961 0 0 0-1.753.732l-.782-.782a.999.999 0 1 0-1.414 1.414l.783.783a4.98 4.98 0 0 0-.732 1.753H10a1 1 0 1 0 0 2h1.101a4.97 4.97 0 0 0 .732 1.753l-.783.783a.999.999 0 1 0 1.414 1.414l.782-.782a4.97 4.97 0 0 0 1.753.732V25a1 1 0 1 0 2 0v-1.101a4.961 4.961 0 0 0 1.753-.732l.782.782a.997.997 0 0 0 1.414 0 .999.999 0 0 0 0-1.414l-.783-.783a4.98 4.98 0 0 0 .732-1.753H22A1 1 0 1 0 22 18z"/><path fill="#CCC" d="M10.5 58c-2.999 0-5.863-.519-8.5-1.456V61a1 1 0 0 0 1 1h26a1 1 0 0 0 1-1V48.502C25.779 54.231 18.621 58 10.5 58z"/><path fill="#FBB03B" d="M22.435 51.213a.994.994 0 0 0-1.116.033A3.97 3.97 0 0 1 19 52c-2.206 0-4-1.794-4-4 0-.829.261-1.631.754-2.319a.998.998 0 0 0-.988-1.566A6.985 6.985 0 0 0 9 51c0 3.859 3.14 7 7 7a6.985 6.985 0 0 0 6.885-5.766 1 1 0 0 0-.45-1.021z"/></g></g><metadata><rdf:RDF xmlns:rdf="http://www.w3.org/1999/02/22-rdf-syntax-ns#" xmlns:rdfs="http://www.w3.org/2000/01/rdf-schema#" xmlns:dc="http://purl.org/dc/elements/1.1/"><rdf:Description about="https://iconscout.com/legal#licenses" dc:title="app-application-weather-forecast-meteorology" dc:description="app-application-weather-forecast-meteorology" dc:publisher="Iconscout" dc:date="2018-03-23" dc:format="image/svg+xml" dc:language="en"><dc:creator><rdf:Bag><rdf:li>Petai Jantrapoon</rdf:li></rdf:Bag></dc:creator></rdf:Description></rdf:RDF></metadata></svg>