<?xml version="1.0" encoding="UTF-8"?><!DOCTYPE svg PUBLIC "-//W3C//DTD SVG 1.1//EN" "http://www.w3.org/Graphics/SVG/1.1/DTD/svg11.dtd"><svg xmlns="http://www.w3.org/2000/svg" xmlns:xlink="http://www.w3.org/1999/xlink" version="1.1" x="0px" y="0px" viewBox="0 0 64 64" xml:space="preserve"><g id="flat"><g id="wind_turbine_1_"><path fill="#4D4D4D" d="M38 59.982h-2.036L35 32.964A1 1 0 0 0 34 32h-4a1 1 0 0 0-1 .964l-.965 27.019H26v2h2.914c.029.002.056.017.086.017h6c.03 0 .057-.015.086-.018H38v-2z"/><g fill="#E6E6E6"><path d="M29 23h6a.999.999 0 0 0 .999-1.053l-1-19A1 1 0 0 0 34 2h-4a1 1 0 0 0-.999.947l-1 19A.997.997 0 0 0 29 23z"/><path d="M54.523 35.608l-16.221-9.775a.98.98 0 0 0-.785-.106.997.997 0 0 0-.616.497l-2.791 5.302a1.003 1.003 0 0 0 .462 1.372l17.151 8.009a.999.999 0 0 0 1.308-.441l1.86-3.535a1 1 0 0 0-.368-1.323z"/><path d="M27.113 26.224a.997.997 0 0 0-1.401-.391L9.491 35.608a1 1 0 0 0-.369 1.322l1.86 3.535a1 1 0 0 0 1.309.441l17.151-8.009a.999.999 0 0 0 .461-1.372l-2.79-5.301z"/></g><path fill="#3EBBDD" d="M32 20c-3.86 0-7 3.141-7 7s3.14 7 7 7 7-3.141 7-7-3.14-7-7-7z"/><path fill="#E6E6E6" d="M12.814 21.331l-1.918-.566c2.21-7.492 8.295-13.294 15.88-15.141l.473 1.943c-6.894 1.679-12.425 6.953-14.435 13.764z"/><path fill="#E6E6E6" d="M12.085 25.138l-1.991-.184c.067-.73.172-1.464.312-2.181l1.963.383a20.203 20.203 0 0 0-.284 1.982z"/><path fill="#E6E6E6" d="M10.628 32.237A22.054 22.054 0 0 1 10 27h2c0 1.611.192 3.213.57 4.763l-1.942.474z"/><path fill="#E6E6E6" d="M26.677 48.352a21.908 21.908 0 0 1-11.041-6.646l1.487-1.338a19.913 19.913 0 0 0 10.036 6.043l-.482 1.941z"/><path fill="#E6E6E6" d="M37.259 48.368l-.477-1.943a19.909 19.909 0 0 0 10.078-6.039l1.485 1.34a21.902 21.902 0 0 1-11.086 6.642z"/><path fill="#E6E6E6" d="M53.372 32.237l-1.942-.475c.378-1.549.57-3.151.57-4.762 0-9.25-6.268-17.24-15.241-19.431l.475-1.943A21.94 21.94 0 0 1 54 27c0 1.771-.211 3.533-.628 5.237z"/><path fill="#E6E6E6" d="M14.294 30.258A18.168 18.168 0 0 1 14 27c0-7.982 5.127-14.904 12.757-17.225l.582 1.914C20.557 13.751 16 19.904 16 27c0 .975.088 1.95.262 2.898l-1.968.36z"/><path fill="#E6E6E6" d="M26.687 44.203a18.05 18.05 0 0 1-7.413-4.474l1.414-1.414a16.05 16.05 0 0 0 6.589 3.976l-.59 1.912z"/><path fill="#E6E6E6" d="M37.332 44.196l-.592-1.91a16.048 16.048 0 0 0 6.593-3.992l1.417 1.412a18.043 18.043 0 0 1-7.418 4.49z"/><path fill="#E6E6E6" d="M49.71 30.231l-1.968-.357c.172-.941.258-1.908.258-2.874 0-3.324-1.01-6.512-2.919-9.217l1.634-1.154A17.89 17.89 0 0 1 50 27a18.05 18.05 0 0 1-.29 3.231z"/><path fill="#E6E6E6" d="M44.246 16.702c-.29-.346-.595-.678-.913-.997l1.416-1.412c.358.359.701.733 1.028 1.122l-1.531 1.287z"/><path fill="#E6E6E6" d="M42.232 14.699a15.864 15.864 0 0 0-5.509-2.99l.59-1.911a17.87 17.87 0 0 1 6.199 3.364l-1.28 1.537z"/><circle fill="#FFF" cx="32" cy="27" r="3"/></g></g><metadata><rdf:RDF xmlns:rdf="http://www.w3.org/1999/02/22-rdf-syntax-ns#" xmlns:rdfs="http://www.w3.org/2000/01/rdf-schema#" xmlns:dc="http://purl.org/dc/elements/1.1/"><rdf:Description about="https://iconscout.com/legal#licenses" dc:title="turbine-wind-mill-energy-weather" dc:description="turbine-wind-mill-energy-weather" dc:publisher="Iconscout" dc:date="2018-03-23" dc:format="image/svg+xml" dc:language="en"><dc:creator><rdf:Bag><rdf:li>Petai Jantrapoon</rdf:li></rdf:Bag></dc:creator></rdf:Description></rdf:RDF></metadata></svg>