<?xml version="1.0" encoding="UTF-8"?><!DOCTYPE svg PUBLIC "-//W3C//DTD SVG 1.1//EN" "http://www.w3.org/Graphics/SVG/1.1/DTD/svg11.dtd"><svg xmlns="http://www.w3.org/2000/svg" xmlns:xlink="http://www.w3.org/1999/xlink" version="1.1" x="0px" y="0px" viewBox="0 0 64 64" xml:space="preserve"><g id="flat"><g id="windy_1_" fill="#3EBBDD"><path d="M45.04 24H2v-2h43.04A2.964 2.964 0 0 0 48 19.04c0-1.712-1.328-3.04-2.96-3.04-1.712 0-3.04 1.328-3.04 2.96V20h-2v-1.04A4.966 4.966 0 0 1 44.96 14c2.815 0 5.04 2.225 5.04 4.96 0 2.815-2.225 5.04-4.96 5.04z"/><path d="M48.04 50C45.225 50 43 47.775 43 45.04V44h2v1.04A2.964 2.964 0 0 0 47.96 48c1.712 0 3.04-1.328 3.04-2.96 0-1.712-1.328-3.04-2.96-3.04H2v-2h46.04A4.966 4.966 0 0 1 53 44.96c0 2.815-2.225 5.04-4.96 5.04z"/><path d="M26 18h12v2H26z"/><path d="M22 18h2v2h-2z"/><path d="M2 18h18v2H2z"/><path d="M2 44h39v2H2z"/><path d="M45 34h12v2H45z"/><path d="M41 34h2v2h-2z"/><path d="M2 34h37v2H2z"/><path d="M57.04 30H2v-2h55.04A2.964 2.964 0 0 0 60 25.04v-1.08A2.964 2.964 0 0 0 57.04 21C55.328 21 54 22.328 54 23.96V26h-2v-2.04A4.966 4.966 0 0 1 56.96 19c2.815 0 5.04 2.225 5.04 4.96v1.08A4.966 4.966 0 0 1 57.04 30z"/></g></g><metadata><rdf:RDF xmlns:rdf="http://www.w3.org/1999/02/22-rdf-syntax-ns#" xmlns:rdfs="http://www.w3.org/2000/01/rdf-schema#" xmlns:dc="http://purl.org/dc/elements/1.1/"><rdf:Description about="https://iconscout.com/legal#licenses" dc:title="windy-wind-storm-season-weather" dc:description="windy-wind-storm-season-weather" dc:publisher="Iconscout" dc:date="2018-03-23" dc:format="image/svg+xml" dc:language="en"><dc:creator><rdf:Bag><rdf:li>Petai Jantrapoon</rdf:li></rdf:Bag></dc:creator></rdf:Description></rdf:RDF></metadata></svg>