<?xml version="1.0" encoding="UTF-8"?><!DOCTYPE svg PUBLIC "-//W3C//DTD SVG 1.1//EN" "http://www.w3.org/Graphics/SVG/1.1/DTD/svg11.dtd"><svg xmlns="http://www.w3.org/2000/svg" xmlns:xlink="http://www.w3.org/1999/xlink" version="1.1" x="0px" y="0px" viewBox="0 0 64 64" xml:space="preserve"><g id="flat"><g id="wind_direction_1_"><path fill="#4D4D4D" d="M31 2h2v2h-2z"/><path fill="#4D4D4D" d="M31 7h2v2h-2z"/><path fill="#4D4D4D" d="M31 11h2v2h-2z"/><path fill="#4D4D4D" d="M31 19h2v2h-2z"/><path fill="#4D4D4D" d="M31 27h2v2h-2z"/><path fill="#4D4D4D" d="M31 35h2v2h-2z"/><path fill="#4D4D4D" d="M31 43h2v2h-2z"/><path fill="#4D4D4D" d="M31 60h2v2h-2z"/><path fill="#4D4D4D" d="M31 55h2v2h-2z"/><path fill="#4D4D4D" d="M60 31h2v2h-2z"/><path fill="#4D4D4D" d="M55 31h2v2h-2z"/><path fill="#4D4D4D" d="M43 31h2v2h-2z"/><path fill="#4D4D4D" d="M35 31h2v2h-2z"/><path fill="#4D4D4D" d="M27 31h2v2h-2z"/><path fill="#4D4D4D" d="M19 31h2v2h-2z"/><path fill="#4D4D4D" d="M11 31h2v2h-2z"/><path fill="#4D4D4D" d="M2 31h2v2H2z"/><path fill="#4D4D4D" d="M7 31h2v2H7z"/><path transform="matrix(0.7071 0.7071 -0.7071 0.7071 51.7988 -21.4558)" fill="#4D4D4D" d="M50.799 50.799h2v2h-2z"/><path transform="matrix(0.7071 0.7071 -0.7071 0.7071 46.1421 -19.1127)" fill="#4D4D4D" d="M45.142 45.142h2.001v2h-2.001z"/><path transform="matrix(0.7071 0.7071 -0.7071 0.7071 40.4854 -16.7696)" fill="#4D4D4D" d="M39.485 39.485h2v2h-2z"/><path transform="matrix(0.7071 0.7071 -0.7071 0.7071 34.8281 -14.4263)" fill="#4D4D4D" d="M33.828 33.828h2v2h-2z"/><path transform="matrix(0.7071 0.7071 -0.7071 0.7071 29.1719 -12.0834)" fill="#4D4D4D" d="M28.172 28.172h2v2h-2z"/><path transform="matrix(0.7071 0.7071 -0.7071 0.7071 23.5146 -9.7401)" fill="#4D4D4D" d="M22.515 22.515h2v2h-2z"/><path transform="matrix(0.7071 0.7071 -0.7071 0.7071 12.2012 -5.0539)" fill="#4D4D4D" d="M11.201 11.201h2v2h-2z"/><path fill="#4D4D4D" d="M18.042 41.706A16.897 16.897 0 0 1 15 32c0-9.374 7.626-17 17-17a16.87 16.87 0 0 1 9.987 3.242l-1.176 1.617A14.888 14.888 0 0 0 32 17c-8.271 0-15 6.729-15 15 0 3.082.928 6.044 2.683 8.563l-1.641 1.143z"/><path fill="#4D4D4D" d="M32 49a16.918 16.918 0 0 1-9.568-2.946l1.127-1.652A14.92 14.92 0 0 0 32 47c8.271 0 15-6.729 15-15 0-3.143-.961-6.151-2.78-8.701l1.629-1.162A16.894 16.894 0 0 1 49 32c0 9.374-7.626 17-17 17z"/><path fill="#4D4D4D" d="M15.31 44.748A20.815 20.815 0 0 1 11 32c0-11.579 9.421-21 21-21 4.59 0 8.95 1.454 12.609 4.206l-1.201 1.598A18.836 18.836 0 0 0 32 13c-10.477 0-19 8.523-19 19 0 4.209 1.349 8.197 3.899 11.533l-1.589 1.215z"/><path fill="#4D4D4D" d="M32 53a20.822 20.822 0 0 1-12.622-4.215l1.203-1.598A18.836 18.836 0 0 0 32 51c10.477 0 19-8.523 19-19 0-4.132-1.303-8.06-3.768-11.358l1.602-1.197A20.811 20.811 0 0 1 53 32c0 11.579-9.421 21-21 21z"/><path fill="#D43239" d="M53.707 10.293a1.009 1.009 0 0 0-.903-.273l-5 1a1.001 1.001 0 0 0-.511 1.687L48.586 14 10.787 51.799l1.414 1.414L50 15.414l1.293 1.293a1 1 0 0 0 1.687-.511l1-5a.999.999 0 0 0-.273-.903z"/></g></g><metadata><rdf:RDF xmlns:rdf="http://www.w3.org/1999/02/22-rdf-syntax-ns#" xmlns:rdfs="http://www.w3.org/2000/01/rdf-schema#" xmlns:dc="http://purl.org/dc/elements/1.1/"><rdf:Description about="https://iconscout.com/legal#licenses" dc:title="direction-wind-windy-meteorology-weather" dc:description="direction-wind-windy-meteorology-weather" dc:publisher="Iconscout" dc:date="2018-03-23" dc:format="image/svg+xml" dc:language="en"><dc:creator><rdf:Bag><rdf:li>Petai Jantrapoon</rdf:li></rdf:Bag></dc:creator></rdf:Description></rdf:RDF></metadata></svg>